<svg id="Layer_1" data-name="Layer 1" xmlns="http://www.w3.org/2000/svg" viewBox="0 0 425.65 492.66"><defs><style>.cls-1{fill:#595959;}.cls-2{opacity:0.2;}</style></defs><title>Dali</title><path class="cls-1" d="M670.3,234.14c-1.4,2.54-4,3-6.43,3.28a3.92,3.92,0,0,0-3.28,1.68,6.13,6.13,0,0,1-5.2,2.75,4.93,4.93,0,0,1-1.74-.33,1.58,1.58,0,0,1-.95-1.42,1.48,1.48,0,0,1,.79-1.5,4,4,0,0,1,1.69-.52,3.79,3.79,0,0,0,3.38-2.29,18.88,18.88,0,0,0,2.28-5.25c-.77-.61-1.11.16-1.47.49a27.25,27.25,0,0,1-6,4.53,10.76,10.76,0,0,0-2.36,2.18,17.26,17.26,0,0,1-7.25,4.52c-1.21.37-2.4.43-3.31-.65a1.59,1.59,0,0,0-2.22-.39c-1.47.77-3.12,1.13-4.44,2.29a11.36,11.36,0,0,1-2.86,1.47,3.16,3.16,0,0,1-3.42-.08,1.15,1.15,0,0,0-1.82.4,4.49,4.49,0,0,1-3.5,2.23,3.26,3.26,0,0,0-2.08,1.29,2.75,2.75,0,0,1-2.29.84c-.34,0-.86-.09-1-.31-.79-1.43-2.18-2.86-1.65-4.53a34.64,34.64,0,0,0,1.19-7c0-.21.23-.41.34-.63-.15-.62.4-1.24-.05-1.86a3,3,0,0,0,.08,1.93,10.74,10.74,0,0,0-2.41,4,9.61,9.61,0,0,1-2.48,3.49,6.22,6.22,0,0,1-4.68,1.51,1.5,1.5,0,0,1-1.4-1,1.33,1.33,0,0,1,.26-1.34,5.47,5.47,0,0,1,.73-.79,11.69,11.69,0,0,0,3.88-8.64,10.88,10.88,0,0,0-.09-3.94c-1,.61-.72,1.78-1,2.65a38.82,38.82,0,0,1-2.42,6,11.31,11.31,0,0,1-6.08,5.83c-1.76.69-3.14,1.21-5,0-1.28-.81-3-1.68-4.78-.87a2.57,2.57,0,0,1-2.1-.26c-.66-.3-1.39-.71-2.07-.38-2,.95-3.41-.1-5-.92-.93-.47-1.82-.56-1.42-1.92.15-.51-.35-.76-.75-1.07-1.22-.93-3.1-.67-4-2.26-.14-.25-.88-.18-1.35-.22-2.34-.22-3.62-.64-4-3.67,0-.35-.16-.69-.25-1.06-1.27-.37-1.91.88-3,1.07a1.75,1.75,0,0,1-2.19-1.28c0-.23,0-.48-.08-.72-.39-3-.4-3-2.85-1.2a1.94,1.94,0,0,1-1.66.52c-1.87-.58-3.81-.29-5.7-.58a2.61,2.61,0,0,1-1.3-.48,2,2,0,0,0-2.28-.47,2.51,2.51,0,0,1-1.41.07,3,3,0,0,0-3.42,1.13,1.64,1.64,0,0,1-2.88-.63,3.42,3.42,0,0,0-2.29-2.46c-.77-.33-1.45-.86-2.19-1.25-.43-.22-1-.33-1.29.15s-.72,1-.42,1.66a15.88,15.88,0,0,0,1.07,1.45,4.21,4.21,0,0,1,1,2.66c0,.36-.11.74-.52.83a1,1,0,0,1-.64-.16c-.48-.32-.74-1-1.43-1l0-.15.08.07c-.58.73-1.37,1.33-2,.38-1.1-1.54-2.68-1.91-4.31-2.32a3,3,0,0,0-2.74.28.87.87,0,0,1-1.27-.17,2.54,2.54,0,0,0-1.8-1c-3.11-.12-6.22-.26-9.33-.4a1.15,1.15,0,0,0-.36.07c-.45.13-1,.14-1.12.71,0,.25.32.61.57.81a1.43,1.43,0,0,1,.71,1.51c-.13.54-.68.61-1,.9-.63.52-.54,1.12.19,1.3a22.4,22.4,0,0,1,4.71,1.75,4.69,4.69,0,0,1,1.12.87.75.75,0,0,1,.09.66c-.06.18-.31.44-.46.43-1.07-.08-2.14-.18-3.2-.35a29,29,0,0,0-9.79-.09c.33,1.3,1.5,1.14,2.26,1.51,1.57.75,2.05,1.14,1.75,2.68a2.31,2.31,0,0,0,1.06,2.71,7.69,7.69,0,0,1,1.43,1.57.72.72,0,0,1-.05.65.86.86,0,0,1-.59.29,1.44,1.44,0,0,1-.71-.08c-3.86-1.44-7.8-.72-11.72-.43a2,2,0,0,0-1.93,1.36,2.41,2.41,0,0,0-3,.56,2.44,2.44,0,0,1-.27,0,.54.54,0,0,1-.2-.1l.44.13a6.19,6.19,0,0,1,3-.59c2.11-.41,4.21-.89,6.33-1.21a8.78,8.78,0,0,1,6.51,1.51,2.08,2.08,0,0,1,1,2.14c-.08.58-.51,1.11-.23,1.73s1,1.53.21,2.3-1.59.37-2.42.39a17.47,17.47,0,0,0-2.51.06c-1,.16-2.46,0-2.62,1.35a3.17,3.17,0,0,0,1.51,3.4c.32.16.69.22,1,.39a.66.66,0,0,1,0,1.14,15,15,0,0,1-1.86,1.08c-.54.25-1.15.35-1.71.56-1.88.69-2,.86-1.86,2.87.09,1.49.09,1.51-1.35,2-2.15.73-4.35,1.35-6.48,2.14a12.69,12.69,0,0,0-4.45,2.36c2.21.76,2.3.79,4.76.25a4.12,4.12,0,0,1,3.14,0c.73.4.92,1.27.27,1.73a19.21,19.21,0,0,0-5.23,4.74c-.43.64-1.35,1-2.06,1.41-2.94,1.87-5.95,3.62-8.41,6.14-1.33,1.08-2.78,2-3.51,3.69a1.14,1.14,0,0,0-.78.85l-1,.49-.56,1c-.75.65-1.46,1.32-1.09,2.46a2.74,2.74,0,0,0-2.37,1.35,49.11,49.11,0,0,0-7.13,13.26c-.48,1.38-.62,2.87-2.57,2.94-.23,0-.47.48-.68.76-.86,1.15-1.78,2.26-2.56,3.47-1,1.59-2.36,3-3.14,4.93.89.32,1.54-.14,2.21-.21.47-.05,1.1-.14,1.25.37a1.93,1.93,0,0,1-.4,1.31c-.4.59-1,1.06-1.4,1.63a20.51,20.51,0,0,0-3.7,7.34,1.09,1.09,0,0,0,.22.95c.24.12.67-.06,1-.17a1.39,1.39,0,0,0,.59-.39,78.72,78.72,0,0,0,8.94-11.25,10.89,10.89,0,0,0,1.37-2.91,33,33,0,0,0,.95-5.66,21.11,21.11,0,0,1,1.8-6.55c.76-1.89,1.64-3.73,2.43-5.6a27.18,27.18,0,0,1,3.13-5.66c.29-.85,1.09-1.46,1.07-2.45l.57-.92c.45,0,.8-.05.94-.53a1.08,1.08,0,0,0,.77-.86,4.6,4.6,0,0,0,3.52-3.69,4.64,4.64,0,0,0,1.38-.31c2.76-1.69,5.76-2.93,8.35-4.93a6.94,6.94,0,0,1,6.82-1.19,4.81,4.81,0,0,0,3.11.22c2.83-.79,4.59.27,5.61,3a1.66,1.66,0,0,1-.41,1.66c-1.09,1.44-2.29,2.81-3.24,4.33a80,80,0,0,0-8.44,17.9,36.83,36.83,0,0,1-1.59,4.79c-1.69,3.57-.91,7,.17,10.52,1,3.27,3,6,4.9,8.77a4.9,4.9,0,0,1,.57.88c.06.15-.12.41-.24.59s-.22.06-.33,0a3.47,3.47,0,0,1-1.77-1.17,31,31,0,0,1-4.8-5.37.65.65,0,0,0-.91-.31.76.76,0,0,0-.35.55c.14,2.46-.72,5,1.11,7.27A3.58,3.58,0,0,1,492,336a13.44,13.44,0,0,0,0,5.36c.42,2.7-.37,5.27-.75,7.87-.3,2-.76,4-1.21,6a26.62,26.62,0,0,0-.54,9.66.86.86,0,0,1-.34.93c-.43.29-.63-.09-.83-.36-2.34-3.3-2.32-7-1.71-10.74a16.65,16.65,0,0,0,.57-5.08,8.63,8.63,0,0,0-2.34,4.83,32.41,32.41,0,0,0,1.24,16c.24.67.36,1.39.57,2.08.8,2.63,1.36,5.37,3.61,7.29a1.73,1.73,0,0,1,.42.58c.33.73,1,1.43.38,2.3-.4.53-1.28.37-2.26-.37-.66-.51-1.29-1.07-2-1.56a.78.78,0,0,0-.68-.06.72.72,0,0,0-.28.59c.19.94.44,1.87.66,2.8a15.45,15.45,0,0,1,.46,2.1c0,.57.07,1.27-.58,1.57s-1.16-.24-1.47-.71a17.09,17.09,0,0,1-1.32-2.55,21.7,21.7,0,0,1-.85-2.38c-.27-.86-.63-1.55-1.72-1.47s-1.35.91-1.52,1.74c-.37,1.88-.7,3.78-1,5.68-.25,1.54-.46,3.09-.69,4.63s-.4,2.85.71,4.11a3.64,3.64,0,0,1,.55,1.68c.65,3.68,2.71,6.65,4.81,9.58a8.48,8.48,0,0,0,5.64,3.47c4.43.87,4.45.73,3.69-3.84a50,50,0,0,0-2-9.17,5.91,5.91,0,0,1-.39-1.76,51.93,51.93,0,0,0-1.95-11,1.66,1.66,0,0,1,0-.7.37.37,0,0,1,.23-.26c.21-.07.53-.17.65-.08a5.21,5.21,0,0,1,1,1c3.08,4.29,4.4,9.29,5.74,14.29,1.59,5.94,2.23,12,3.59,18,.87,3.86,1.76,7.73,2.5,11.62.9,4.72,1.66,9.46,2.48,14.2a39.55,39.55,0,0,0,1.55,5.91c1.07,3.19,1.89,6.46,2.71,9.73,1.65,6.52,3.76,12.9,6,19.21a72.49,72.49,0,0,0,13.19,23,37.51,37.51,0,0,0,4.9,4.78c6,4.82,12.35,9.12,19.78,11.63,4.78,1.61,9.41,3.65,14,5.66a64.4,64.4,0,0,0,7.75,2.86,74.17,74.17,0,0,1,14,5.74,60.62,60.62,0,0,0,10.63,4.41,31.39,31.39,0,0,0,8.82,1,8.21,8.21,0,0,1,5.65,2c2.65,2.35,5.89,3.7,9,5.29a4.49,4.49,0,0,0,1.34.52c4.38.64,8.71,1.81,13.2,1.26a32.86,32.86,0,0,0,10.87-3.65c1.39-.71,2.84-1.29,4.24-2,5-2.36,9.89-5,13.16-9.78a48.35,48.35,0,0,0,2.67-4.69,12.68,12.68,0,0,1,.82-1.6,2.85,2.85,0,0,1,3.26-.86,2.71,2.71,0,0,1,1.31,3c-.16.57-.51,1.08-.7,1.65a.68.68,0,0,0,.21.61.74.74,0,0,0,.65,0,5.08,5.08,0,0,0,2-1.49c3.22-4.18,6.33-8.42,8.18-13.43a9.47,9.47,0,0,0,.4-1A92.8,92.8,0,0,0,687,503.7c.72-5.64,2.3-11.05,3.6-16.54,1.66-7,3.33-14,4.93-21.05a38.06,38.06,0,0,0,.64-4.64.73.73,0,0,0-.92-.81c-1.92.62-3.92.86-5.77,1.92a12.15,12.15,0,0,1-8.67,1.46c-1.05-.22-2.1-.48-3.14-.77a2.12,2.12,0,0,0-2,.18c-.86.67-1.44.13-1.63-.6a4.32,4.32,0,0,0-2-2.41c-2.81-2.06-5.55-4.23-8.3-6.37a8.93,8.93,0,0,1-1.31-1.22A1.91,1.91,0,0,1,663,450c1.42-.63,2.92-1.25,4.52-.65,3.16,1.2,6.55,1.38,9.78,2.29a29.75,29.75,0,0,0,5.36.65c4,.37,7.85,1.28,11.84,1.1v.15l-.1-.07a4.66,4.66,0,0,1,1.37-.31,2.06,2.06,0,0,0,2.23-1.46c.53-1.21,1.07-2.42,1.48-3.68,1.5-4.57,3.21-9.06,5.09-13.48,1.26-3,2.61-5.92,4-8.85q3-6.36,6.08-12.67c1.34-2.74,1.76-5.75,2.58-8.63,1.14-4,2.09-8.11,3.41-12.1a22.26,22.26,0,0,0,.85-11,32.7,32.7,0,0,0-3.28-10.22c-2.23-4.05-2.86-8.64-4.25-13a6.92,6.92,0,0,0-.89-2.35c-1-.24-1.2.67-1.52,1.17-1.7,2.71-4.53,2.93-7.24,3.37a1.87,1.87,0,0,1-1.57-.77,1.46,1.46,0,0,1,.06-2,4.13,4.13,0,0,1,.91-.58c2.76-1.14,4.16-3.56,5.53-6,.66-1.15,1.1-2.41,1.67-3.6a3.24,3.24,0,0,0,.36-2.09,4,4,0,0,1,.57-3.11c.71-1,.31-2.08-.09-3.1s-1-1.39-1.93-.81c-2.53,1.64-5.53,2.3-8,4a7.62,7.62,0,0,1-4.77,1.39,4.91,4.91,0,0,0-1.76.34c-5.41,1.83-10.91,1.33-16.43.74a23.19,23.19,0,0,1-10.31-4,2.61,2.61,0,0,1-1.43-1.95,2.33,2.33,0,0,1,.8-2.28,2.82,2.82,0,0,1,3-.45c1,.48,1.88,1,2.76,1.52.84-.58.4-1.13.2-1.63a10.92,10.92,0,0,0-.93-1.95,6,6,0,0,1-.62-5.18c1.33-4.83,1.48-5.12,6.08-7.28a25.22,25.22,0,0,1,3.69-1.45c3.81-1.09,7.19-.3,9.78,2.78a13.73,13.73,0,0,1,3.36,6.69,8.84,8.84,0,0,1-1.59,6.15c-.54.89-1.64,1.46-1.64,2.67a2.19,2.19,0,0,0,2.11.11c3.56-1,7.18-1.89,10.42-3.88a49.14,49.14,0,0,1,5.88-2.74,4.87,4.87,0,0,1,1.39-.38,3.9,3.9,0,0,1,4.5,2.6,9.54,9.54,0,0,1,.85,4.56c-.18,2.28-.26,4.57-.56,6.83a10.48,10.48,0,0,0,.26,4.29c.86,3,1.88,6,2.66,9,1.35,5.27,3.85,10.09,5.62,15.2a31.86,31.86,0,0,1,1.57,14.24,56.47,56.47,0,0,1-2.32,10.9c-1.33,4.1-2.34,8.32-3.67,12.44a37.71,37.71,0,0,1-1.89,4.65,118.92,118.92,0,0,0-5.47,12.91,12.05,12.05,0,0,1-.8,1.61c-1.91,3.88-3.83,7.75-5.73,11.63a10.75,10.75,0,0,0-.81,2c-.37,1.48-.65,3-1,4.7a62.53,62.53,0,0,0,15.48-7.17,120.72,120.72,0,0,0,14.23-11.06c1.45-1.25,2.91-2.51,4.34-3.78a24.26,24.26,0,0,0,4.73-4.92,6,6,0,0,1,2-2.05,18.32,18.32,0,0,0,3.78-3.29c2.75-2.7,5.66-5.21,8.62-7.68A138.42,138.42,0,0,0,773,394.89a110.66,110.66,0,0,1,9-8.88q3.22-2.88,6.47-5.74a40.52,40.52,0,0,1,15.51-8.89c2.74-.79,5.45-.92,8,.69.71.44,1.53.69,2.27,1.1a3.48,3.48,0,0,1,1.07.91,2.39,2.39,0,0,1,.53,2.36c-.23.59-1.1.88-2.26.36a6.34,6.34,0,0,0-5.24.1c-1.45.57-2.95,1.06-4.35,1.75a75.44,75.44,0,0,0-18.48,12.44,15.57,15.57,0,0,0-2.18,2.41c-3.33,4.74-7.37,8.87-11.25,13.14-3,3.3-6,6.6-8.87,10a69.89,69.89,0,0,1-8.12,7.65c-5,4.28-10.2,8.43-15.32,12.62-.84.68-1.76,1.26-2.66,1.86a45.49,45.49,0,0,0-8.59,7.07,5.87,5.87,0,0,1-1.67,1.35c-5.15,2.59-10.11,5.59-15.46,7.78-2,.82-4,1.59-6.07,2.34a4.74,4.74,0,0,0-3.28,3.83c-1.45,6.56-3.34,13-4.8,19.58-1.62,7.27-3.67,14.43-4.92,21.78-.78,4.61-2,9.15-3.07,13.72a5.41,5.41,0,0,1-.47,1.35c-1.7,3.31-3.38,6.63-5.15,9.91a11.24,11.24,0,0,1-1.78,2.24c-.83.88-1.81,1.62-2.59,2.53a9.13,9.13,0,0,1-6.2,3.19,12.59,12.59,0,0,0-6.39,3.11,41.1,41.1,0,0,1-11.85,7.39,66.56,66.56,0,0,0-7.48,3.57c-5.62,3-11.6,3.62-17.86,3-4-.41-7.68-1.84-11.43-3.06a1,1,0,0,0-1.42.66,13.07,13.07,0,0,0-.41,1.39,9.59,9.59,0,0,0-.48,4.22c1.64.69,2.6,2.55,4.54,2.7,2.31.19,3.27,1.76,3.89,3.69a16.14,16.14,0,0,1,.71,6.42c-.35,4-1,7.88-1.48,11.81-.57,4.29-1.8,8.49-1.78,12.85,0,1.32.09,2.64.18,4,0,.45.76.72,1.14.46a8.17,8.17,0,0,0,1.12-.9c.59-.6,1.11-1.27,1.69-1.88a.86.86,0,0,1,1.27-.11,1,1,0,0,1,.09,1.31,52.75,52.75,0,0,1-5,7.5c-2.76,3.18-5.3,6.55-8.71,9.11a39.82,39.82,0,0,1-8.66,5.18c-2.44,1-4.75,2.28-7.26,3.18a21.32,21.32,0,0,1-10.31,1,11.44,11.44,0,0,0-2.13-.32,7.28,7.28,0,0,0-2.07.54c-1,.35-.51,1.2-.62,1.86a1,1,0,0,1-.93.93,1.31,1.31,0,0,1-1.26-.54,37.71,37.71,0,0,1-3.35-5.11,3.27,3.27,0,0,0-4-2.13c-5.61,1-11.3.69-16.94.77a60.5,60.5,0,0,1-21.91-3.89c-4.62-1.71-9.31-3.26-14-4.84a56.53,56.53,0,0,1-17-9.43c-3.78-3-7.43-6.12-11.05-9.3-1.71-1.5-3.18-3.27-4.77-4.92-1.81-1.89-3.42-4-5.85-5.57a40.94,40.94,0,0,0-2.31,7.64c-.09.47-.1,1-.23,1.41a1.24,1.24,0,0,1-1.84.37,2.47,2.47,0,0,1-.81-1.94,27.22,27.22,0,0,1,.48-3.93,28.29,28.29,0,0,1,2.65-7.08,43.31,43.31,0,0,0,2-4.23c1.92-4.67,4.55-9,6.78-13.51,3.18-6.47,7-12.62,10-19.19a115.83,115.83,0,0,0,5.24-15,11.29,11.29,0,0,0,.28-2.86,9,9,0,0,1,.62-3.17,4.61,4.61,0,0,1,3.34-3,24.84,24.84,0,0,1,5.82-.86,10.33,10.33,0,0,0,.61-4.58,48.22,48.22,0,0,0-.7-7.18,32.4,32.4,0,0,1-.41-5,108.46,108.46,0,0,0-1.71-13.21,13.51,13.51,0,0,0-1.85-5c-.38-.61-.92-1.28-.67-2,.85-2.41-.39-4.49-1-6.62-.26-.89-.55-1.79-.79-2.71-1-3.94-2.15-7.87-3.2-11.81a10.54,10.54,0,0,0-2.33-4.44c-3.07-3.37-4.75-7.48-6.49-11.58-.19-.43-.25-.94-1-1.08-.51,1.93-1,3.88-1.55,5.81a6.06,6.06,0,0,0,.44,3.53,44,44,0,0,0,5.53,11.69,9.57,9.57,0,0,1,1,1.88,1,1,0,0,1-.38.89,1,1,0,0,1-1-.09,37.79,37.79,0,0,1-5.88-8.2c-.75-1.44-1.1-3.17-3-3.8-.7-.23-.68-1.28-.43-1.95a3.4,3.4,0,0,0-.44-3.41.66.66,0,0,0-.6-.2.74.74,0,0,0-.41.48,4.34,4.34,0,0,0-.08,1.08c0,.72.05,1.44.11,2.16a19.46,19.46,0,0,1-.44,6.08c-.69,3.05-1.24,6.13-1.86,9.19-.07.35-.27.67-.72.58a.72.72,0,0,1-.64-.75c.1-2,.21-4.07.39-6.09a81.63,81.63,0,0,0,0-11.91c-.13-2.42-.5-4.86-2.37-6.6-1.4-1.29-3-2.37-4.32-3.76-.09-.09-.42,0-.63.09a.36.36,0,0,0-.15.29,12.94,12.94,0,0,0,.52,1.71c1.52,3.53,3.36,6.92,4.35,10.67a30.65,30.65,0,0,1,1.44,9.94c-.18,2.62-.72,5.22-1.15,7.83-.05.29-.39.56-.64.81a.8.8,0,0,1-1.18-.36,4.71,4.71,0,0,1-.09-1c.92-10.24-1.8-19.48-7.27-28.11-2.76-4.36-5.87-8.5-8.28-13.1a59.36,59.36,0,0,0-3.78-5.71,7.62,7.62,0,0,0-1.42-1.62,44.35,44.35,0,0,1-5.82-6.35,21,21,0,0,1-2.13-3.34c-.83-1.46-1.5-3-2.37-4.46a37.23,37.23,0,0,1-4.64-14c-.34-2.24-.3-4.55-.45-6.83a7.79,7.79,0,0,0-.24-2.12c-2.84-7.73-3.13-15.68-2.09-23.75.17-1.31.26-2.64.32-4a4.73,4.73,0,0,0-.2-1.76c-1.9-5.11-1.78-10.35-1-15.61a154,154,0,0,1,3.19-15.16c.72-2.78.84-5.71,1.43-8.53.94-4.47,1.72-9,3.49-13.23,1.95-4.63,3.83-9.31,6.24-13.75a61.88,61.88,0,0,1,5-7.48,6.9,6.9,0,0,0,1.59-2.79c.08-.46.18-1.16-.06-1.37-1.56-1.4-.75-2.83-.2-4.28.13-.33.29-.66.39-1a1,1,0,0,0-.87-1.29c-1.43-.17-2.87-.28-4.3-.42l-1.42-.14v0c.46-.76.6-1.94,2-1.54l-.09-.06a5.46,5.46,0,0,0,1.31.55c4.29.57,4.08,1.07,5.8-3.2a55.89,55.89,0,0,1,9.47-16.11c.39-.45.72-1,1.1-1.43a4.38,4.38,0,0,0,.94-3,55.73,55.73,0,0,1,2.34-17.82,33.1,33.1,0,0,1,3.05-6.92,1.78,1.78,0,0,0,0-2.32c-.68-.77-.48-1.41,0-2.24a27,27,0,0,1,8.43-8.29c6.31-4.21,12.1-9.1,18.27-13.48a5.79,5.79,0,0,1,.87-.65c3.21-1.4,5.22-4.14,7.46-6.64a33.15,33.15,0,0,1,20.8-11.24,11.93,11.93,0,0,0,3.17-.67A39.92,39.92,0,0,1,552.07,168a20.61,20.61,0,0,0,6.29-1.47A20.54,20.54,0,0,1,566.1,165a12.92,12.92,0,0,0,5.21-1.23,22.66,22.66,0,0,1,10.88-2.15,20.34,20.34,0,0,0,7.44-1.06A28.3,28.3,0,0,1,605.3,160a10.32,10.32,0,0,0,3.18.39,11.57,11.57,0,0,1,6.93,1.59,5.37,5.37,0,0,0,3.78.61,36.87,36.87,0,0,1,7.9-.47,32.5,32.5,0,0,1,11.46,3,49.64,49.64,0,0,1,8.94,5.37,94.41,94.41,0,0,1,11.59,10.29c.41.44.87.83,1.28,1.26.64.66,1.3,1,2.23.53a3.25,3.25,0,0,1,3.69.43,31.27,31.27,0,0,1,6.66,5.49,35.59,35.59,0,0,0,8.75,6.92,19.37,19.37,0,0,1,5.92,5.69c1,1.46,1.88,3.09,3.71,3.82a3.67,3.67,0,0,1,1.69,1.82,31.46,31.46,0,0,1,2.19,4.13,6.67,6.67,0,0,0,4.13,4.13c6.1,2.61,9.85,7.6,12.37,13.5a29.23,29.23,0,0,1,1.79,5.45,29.6,29.6,0,0,0,3.07,7.66,38.1,38.1,0,0,1,4.6,18.34c0,2.89,0,5.78.08,8.66a15,15,0,0,1-1.55,7.34c-1.06,2-2.5,3.47-5,3.6-1.41.08-1.5.33-1.81,1.73-.61,2.74-.25,5.52-.31,8.28,0,.66.5,1.06.73,1.6.66,1.56,1.23,3.15.43,4.84-.22.46-.44,1-.12,1.36,1.21,1.44.68,2.6-.36,3.85a3.24,3.24,0,0,0-.37,1.72c-.28,4-.5,7.92-.8,11.88a2.77,2.77,0,0,0,1.14,2.85c2.53,1.5,2.79,4.32,4,6.6a1.17,1.17,0,0,1-.1,1c-.91,1.25-1.85,2.49-2.87,3.65a1.49,1.49,0,0,1-2.38-.55,9.52,9.52,0,0,1-.38-1.39c-1.1-5.35-4.77-8.17-9.68-9.65a35.23,35.23,0,0,0-8.53-1.42c-2.63-.12-5.27-.12-7.9,0a19.25,19.25,0,0,0-10.71,3.77,7,7,0,0,0-1.88,2.16c-1.11,1.86-2.3,3.67-3.37,5.54a3,3,0,0,1-1.92,1.49c-1.63.47-2.56-.23-2.59-1.91,0-3.42,1.59-6.23,3.23-9a12.1,12.1,0,0,1,7.76-5.85c3-.81,6-2.1,9.11-2,5.15.18,10.36-.17,15.44,1.15,2.21.58,4.43,1.1,6.65,1.61,1.15.26,1.61-.06,1.69-1.19.16-2.4.28-4.8.38-7.21a11,11,0,0,1,.31-3.57,1.45,1.45,0,0,0-1-2c-2.4-.4-3.82-2.4-5.89-3.34a4.64,4.64,0,0,0-3.38-.46c-1.16.31-2.35.48-3.54.69-1.51.26-2.92.1-3.83-1.33a1.45,1.45,0,0,0-2.15-.53c-1.29.66-2.56,1.34-3.84,2-1.82.91-2.6.68-3.89-1.11-.84-1.15-1.21-1.38-2.33-.79a22.44,22.44,0,0,1-6.82,2.21,8.86,8.86,0,0,0-2.59,1.22,6,6,0,0,1-2.62,1.15c-1.75.06-2.56,1.16-3.1,2.57-.41,1.08-.86,2-2.25,1.88-.89-.05-1.25.72-1.44,1.4-.48,1.74-.81,3.51-2.44,4.68-.62.45-.51,1.32-.59,2a50.21,50.21,0,0,0,0,9c.17,2.4.62,4.77.93,7.16a11.19,11.19,0,0,1,.21,2.15,35.12,35.12,0,0,0,2.08,12.4c1.24,3.9,2.59,7.76,3.79,11.67a30.41,30.41,0,0,1,1.26,5.62c.71,6.82,1.43,13.65,1.86,20.49a57.63,57.63,0,0,0,2.29,13.83,49.6,49.6,0,0,0,4,9.61,33.06,33.06,0,0,1,4.54,17.58c0,.61-.05,1.12.83,1.24,2,.27,2.82,1.22,2.45,3a18,18,0,0,1-1.15,3.41c-.72,1.71-1.42,3.33.17,5,.4.42-.08,1-.52,1.09-3,.84-5.75,2.43-8.58,3.72a6.7,6.7,0,0,1-2.82.52c-3.73,0-7.47.16-11.18-.13a30.06,30.06,0,0,1-11.71-3.26c-2.33-1.23-4.81-2.2-7.19-3.35a3,3,0,0,0-2.76,0c-1.31.6-2.64,1.17-3.9,1.87a5.5,5.5,0,0,1-2.7.9,1.64,1.64,0,0,1-1.76-1,1.58,1.58,0,0,1,.61-1.91,18.7,18.7,0,0,1,5.83-2.76,39,39,0,0,1,3.9-.78,7.63,7.63,0,0,1,3.86.36c3.33,1,6.7,1.89,9.71,3.77a4.66,4.66,0,0,0,2,.71c2.75.21,5.44,1,8.24.72s5.52-.22,8.25-.51c3.18-.32,4.38-1.67,4.58-4.9a43.54,43.54,0,0,0-5-23.31A49,49,0,0,1,665,390.07a130.75,130.75,0,0,1-1.7-15.05c-.23-5-.83-10.08-1.41-15.1-.54-4.69-2.19-9.14-3.77-13.53A83.83,83.83,0,0,1,654.42,331a6.75,6.75,0,0,1,0-2.15,26.19,26.19,0,0,0-.26-7.86,77.07,77.07,0,0,1,.1-14.41,6.32,6.32,0,0,1,.9-3.43,4,4,0,0,0,.75-2c.12-2.73,2-4.55,3.3-6.69a.92.92,0,0,1,1.53-.16,1.18,1.18,0,0,0,1.81.29c.7-.45,1.57-.65,2.11-1.33,2-2.44,4.45-4.39,6.15-7.06.85-1.33,1.27-1.34,2.79-.09.42.35.79.59,1.24.35,3.71-2,8-1.4,11.88-2.82a1.28,1.28,0,0,1,1.58.5c.32.45.1,1.36.94,1.32a3,3,0,0,0,1.29-.57,6,6,0,0,1,7.93.68,2.45,2.45,0,0,0,2.57.65,17.38,17.38,0,0,1,3.2-.53c1.69-.1,2.17.59,1.83,2.44-.07.37-.24.76.17.92a1.63,1.63,0,0,0,1,0,1.85,1.85,0,0,0,1.29-1.6,29.36,29.36,0,0,0,.31-5.75,25.71,25.71,0,0,0-2.53-9.37,39.54,39.54,0,0,1-2.82-7.4,33.39,33.39,0,0,0-8.93-14.59c-.78-.76-1.56-1.51-2.28-2.32A14.69,14.69,0,0,0,688,244.7c-1.27-.67-2.66-1.14-3.53-2.41a2,2,0,0,0-1.57-.78c-1.76-.07-2.82-1.19-3.82-2.43a5.82,5.82,0,0,1-.68-.84c-1.12-2.35-3.12-2.9-5.4-2.39-1.61.36-2.16-.56-2.77-1.62a1.63,1.63,0,0,0,.17.11ZM482.11,265.21l-1.2.19h0c.42-.08.83-.17,1.24-.28L482,265ZM482.86,425l-.1.24.18-.15h-.24Zm15.85-222.68-.14-.06a1.25,1.25,0,0,0,.19,0l-.11-.17Zm-3,6.29-.69.86a7.67,7.67,0,0,0-1,.15c-.27.08-.32.28-.16.45s.21,0,.29-.1c.26-.19.51-.39.76-.6l.66-.86Zm-6.3,5.29-.17-.09h.23l-.18-.15Zm.22,7.35-.28,1.48-1.41,0,0,1.47-.15-.1.18.07c0-.47,0-1,0-1.42.48,0,1,0,1.45,0,.05-.45.1-.91.16-1.36l.24.1Zm199.46,12.13.27,0-.32.1.16.16ZM568.09,215l-.16,0,.27,0c.26.31.52.63.77,1l0,.81,0-.8Q568.56,215.46,568.09,215Zm110.65-8.26-.1.24.18-.15c-.29,0-.38-.08-.27-.28Zm-114-17.48.18-.15-.25.12a1.41,1.41,0,0,0-1.57-.64c-.27-.48-.57-.92-1.22-.86-1.21-2.25-2.09-2.81-5.51-3.32,1.66,1.85,3.7,2.44,5.61,3.25.41.3.81.6,1.26.88A2,2,0,0,1,564.76,189.23Zm2.53-11-.08-.08.18,0a1.2,1.2,0,0,0,.22.23.69.69,0,0,0,.22,0C567.65,178.32,567.48,178.25,567.29,178.19Zm-92.66,89.32c.81.08,1.21-.44,1.54-1.07l0-.17-.06.28c-.49.35-1,.7-1.46,1.07l-.74,1c-.09.19-.52.18-.33.54l.26-.63Zm192.22-66.64.06-.26-.1.18.24.32Zm-191,177.33a5.86,5.86,0,0,1-.57.26c-.3.12-.34.24-.08.33,0,0,.09-.2.17-.27a5.65,5.65,0,0,1,.51-.34l-.18-.85ZM507,203.49c-.07-.42.22-.58.53-.71s.61-.26.46-.68a.33.33,0,0,0-.27-.17c-.4,0-.55.25-.56.64a7.06,7.06,0,0,1-.15.92,9.81,9.81,0,0,0-.71-.73c-.53-.42-1.14-.34-1,.11s.39.42.75.42A3.51,3.51,0,0,1,507,203.49ZM649.6,180.93l.9.8a13.61,13.61,0,0,0,3.84,6.87,11.64,11.64,0,0,0-3.93-6.8l-.89-.79a6.44,6.44,0,0,0-.3-1c-.13-.28-.38-.29-.52-.07,0,.06,0,.24.12.31C649.07,180.49,649.34,180.7,649.6,180.93Zm-152.5,110a1.88,1.88,0,0,0-1.38,1,.65.65,0,0,0,0,.62c.29.33.64.13.9-.1a1.41,1.41,0,0,0,.42-1.58l.2-.11C496.74,290.8,497.34,290.51,497.1,290.92Zm-34.53,18.21a6.13,6.13,0,0,0,.84-.56.66.66,0,0,0,.14-.89c0-.06-.22-.13-.25-.09a1.28,1.28,0,0,0-.44.46,5.71,5.71,0,0,0-.2,1l-.25,0ZM499,234.88c.31-.17.64-.31.94-.5s.59.14.61-.3a2,2,0,0,0-.7.1,10.46,10.46,0,0,0-.83.69c-.24,0-.47-.45-.71,0ZM481.5,376.6a2.08,2.08,0,0,0-.18.62,1.76,1.76,0,0,0,.16.56,1.91,1.91,0,0,0,.12-.5,2.85,2.85,0,0,0-.14-.63c-.11-.46-.19-.93-.34-1.37-.05-.17-.32-.41-.42-.38a.84.84,0,0,0-.49.45C479.88,376.26,480.09,376.44,481.5,376.6Zm33.92-186.52-1.25.59c-.33.16-1,0-.78.75a3.14,3.14,0,0,0,2-1.33,3.84,3.84,0,0,0,1.05.14c.23,0,.63.29.72-.23-.23,0-.47.07-.7.08Zm144,20.39c.09-1.94.09-1.94-.74-3.31.19,1.37.9,2.26.73,3.3.72.61.44,1.88,1.49,2.41C660.57,211.12,660.57,211.12,659.43,210.47Zm43.22,10.74-.15.21.15-.16c-.79-.57-1.38-1.46-2.64-1.74C700.71,220.73,701.35,221.56,702.65,221.21Zm-178.44,3.52c.34.05.67.07,1,.14s.52,0,.45-.2-.37-.19-.55-.16a7.86,7.86,0,0,0-1,.27c-.18-.27-.31-.66-.57-.79-.57-.29-1.19-.77-1.83-.11a.32.32,0,0,0-.05.3c.32.67.94.45,1.48.49C523.5,224.69,523.84,224.73,524.21,224.73Zm-51.57,81.51a4.59,4.59,0,0,0-1.54,3.33,6.05,6.05,0,0,0,1.45-3.42,2.47,2.47,0,0,0,1.22-1.57c.05-.16-.11-.38-.18-.57-.17.09-.4.14-.51.29A2.56,2.56,0,0,0,472.64,306.24Zm113.21-67.58c.39-.2.94-.31,1.13-.63a5,5,0,0,0,1-3.84c1.14-.55,1.19-1.76,1.44-2.73a8.45,8.45,0,0,0-1.07-6.49.67.67,0,0,0-.89-.31.62.62,0,0,0-.17.58c1.51,2.91,1.34,5.95.76,9-.69,1.48-1.38,3-2,4.46l0,.19Zm-90.25-3.42c-.92.1-1.84.19-2.76.31a2.08,2.08,0,0,0-1.74,1.51l-.64-.22.63.23c1.27-1.12,3.11-.92,4.44-1.9ZM463.07,408.76l.14,0-.22.09a3.62,3.62,0,0,0-.31-2.68c-.18-.39-.4-1.09-.89-.88-.77.33-.26.95,0,1.44A4.64,4.64,0,0,0,463.07,408.76ZM646.61,184h.15l-.23.11c-.74-3-1-3.38-2.82-4.12A10.38,10.38,0,0,0,646.61,184Zm2.54,2.61-.18.12.26-.06c-.23,2.9,1.45,4.86,3.33,6.71.05.69.39,1.43-.33,2-1.24-.49-1.24-2-2.24-2.71-.68-.48-1.13-.58-1.82.13s-1.38.55-1.64-.21c-.16-.45-.25-.92-.38-1.38a27.22,27.22,0,0,0-5.86-10.68c-2-2.25-4.15-4.36-6.29-6.48a9.83,9.83,0,0,0-4.59-2.74c-.16,0-.4.15-.56.28s-.05.26,0,.34a8.83,8.83,0,0,0,.86,1.15c1.65,1.75,3.39,3.41,5,5.23a41.64,41.64,0,0,1,6.53,11.15c.36.86,1.73,1.56.58,2.75-1.17-.2-1.09-1.45-1.74-2.12s-1-1.65-1.61-2.37c-1-1.16-1.39-2.79-2.69-3.69-.59.46-.43,1-.45,1.41s-.12,1-.69,1a1.09,1.09,0,0,1-.82-.57c-1.14-3.14-3.49-5.44-5.45-8-.21-.28-.54-.55-.9-.07a6.76,6.76,0,0,0,1.52,2.79,70,70,0,0,1,5.36,10.62c.28.63,0,1.47-.4,1.53-.61.08-.83-.38-1.09-.77a4.77,4.77,0,0,1-.34-.63,61.24,61.24,0,0,0-10-14.09,10.17,10.17,0,0,0-1.34-1.2.68.68,0,0,0-.65,0,.66.66,0,0,0-.22.6,34.82,34.82,0,0,0,1.67,4c1.4,2.63,1.64,5.85,4,8,.08.07-.06.42-.14.62a.31.31,0,0,1-.29.09c-1.42-1.15-3.37-1.47-4.36-3.38a29.24,29.24,0,0,0-6.7-8,8.35,8.35,0,0,0-2.82-2.13c-.42.8.15,1.25.49,1.65,2.66,3.15,3.42,7.11,4.68,10.85a.86.86,0,0,1-.61,1.13.74.74,0,0,1-.87-.45c-1.23-2.33-2.38-4.71-3.7-7-1.82-3.14-4-6-7.45-7.57-3.74-4.35-8.7-6.75-14-8.63a13,13,0,0,0-4.64-.58c-.35,0-.77.05-.77.53s.34.58.68.7c3,1,5.56,2.87,8.68,3.53a15.77,15.77,0,0,1,6.83,3.09,4.94,4.94,0,0,0,3.29,1.28,5.61,5.61,0,0,0,2.22,2.76c2.51,2.06,3.62,5.07,5.36,7.64.08.11-.07.48-.21.6s-.53.17-.63.07c-1.79-1.78-4.31-2.6-6-4.56-.26-.31-.64-.77-1.31-.15,1.26,2,1.49,4.44,2.29,6.68a.85.85,0,0,1-.45,1.18,1.18,1.18,0,0,1-1.31-.35,1.59,1.59,0,0,1-.35-.62,11.41,11.41,0,0,0-3.2-4.28,74.46,74.46,0,0,0-9.51-7.7,24.14,24.14,0,0,0-8.31-4.27c-.48-.12-1-.54-1.58.28,1.37.59,2.71,1.1,4,1.73a41.64,41.64,0,0,1,5.38,2.93c2.17,1.52,4.23,3.27,4.14,6.35,0,.93.65,1.52,1.18,2.17,2.12,2.6,4.26,5.18,6.37,7.79a.62.62,0,0,1-.11.95.66.66,0,0,1-.62-.07c-1-.83-2-1.73-3-2.55s-1.69-2.33-3.11-.55c-.19.25-.68,0-.87-.37-.3-.52-.52-1.08-.81-1.61-.82-1.49-.95-1.6-2.92-2.63.17.81.88,1.45.72,2.37-.08.44-.72.89-1.06.62a5.81,5.81,0,0,1-1.32-1.19c-2.42-3.55-5.76-6.12-9.11-8.69-2.89-2.22-6-4-9.73-4.35-.81-.08-2-.56-2.36.2-.5,1,.85,1.19,1.42,1.71a103.89,103.89,0,0,0,8.61,6.46,20.53,20.53,0,0,1,6.47,8.08c.4.88,1.05,1.85.26,3.28-1.9-2.61-3.91-4.74-7.09-5.69a6,6,0,0,0,2.1,3.74c1.26,1.29,2.56,2.58,2.49,4.6l.09-.08c-2.06-.48-3.06-2.25-4.23-3.7a38.75,38.75,0,0,0-7.47-6.78,10.2,10.2,0,0,0-4.13-2c-.19,1.25.74,1.61,1.26,2.18,1.8,2,3.58,3.92,4.23,6.61a3.23,3.23,0,0,0,1.42,2c.27.18.64.5.21.79a1.16,1.16,0,0,1-1,0c-1.68-.92-3.29-2-5-2.82-1.35-.65-2.62-1.75-4.33-1.24-.21,2,1.6,2.42,2.75,3.31a20.34,20.34,0,0,1,4.49,4.63,1.22,1.22,0,0,1-.07,1c-.2.4-.59.28-.93.12a.84.84,0,0,1-.29-.2c-2.6-3-6.19-4.51-9.47-6.48a31.84,31.84,0,0,0-4.64-2c-.33-.14-.81-.17-.93.22a1.14,1.14,0,0,0,.29.94c1,1.09,2,2.08,2.05,3.7a2.13,2.13,0,0,0,.64,1.25c1.13,1.13,1.65,2.65,2.6,3.89a2,2,0,0,1,.29,2.33,2.14,2.14,0,0,0,.17,2.06c.51,1,1,1.94,1.51,2.87a8.38,8.38,0,0,0,5,3.1,22.7,22.7,0,0,0-4-5.66c-.88-.81-.81-1.07,0-2.13.29-.39.56-.79.77-1.09a7.1,7.1,0,0,1,3.62,3.3,72,72,0,0,1,4.44,7.42c.93,2,2.11,3.78,3.23,5.64.15.25.52.36.8.54.17-.29.51-.58.5-.86-.1-3.29-.39-6.51-2.81-9.08a1.08,1.08,0,0,1,.23-1.82,1,1,0,0,0,.13-1.55c-.72-.8-1.56-1.5-2.31-2.27a.81.81,0,0,1,0-1.26.92.92,0,0,1,1.3,0,35.29,35.29,0,0,1,3.27,2.83,23.64,23.64,0,0,1,5.15,8.18,11,11,0,0,0,6.23,6.57c1.53.66,2,.32,2-1.22a23,23,0,0,0-4.61-13.06,20.15,20.15,0,0,0-3.45-4.14,1.1,1.1,0,0,1-.07-1c.19-.43.65-.26.92-.06a16.18,16.18,0,0,1,2.23,1.81c.64.68,1.22,1.05,2.18.61a1.23,1.23,0,0,1,1.54.61,21.94,21.94,0,0,1,1.46,2.47,33.63,33.63,0,0,1,2.44,8.63c.28,1.41.29,1.57,1.87,1.6,2,0,3.05,1.17,3.77,2.82a10.7,10.7,0,0,1,.72,4.95c-.09,1.91-.43,3.85.2,5.73l-.19-.12.13.13c.63-1.29,1.28-2.58,1.91-3.88.44-.91.69-1.8-.18-2.64a1.24,1.24,0,0,1-.21-1.63,4.59,4.59,0,0,0,.13-3.51,27.66,27.66,0,0,0-1.88-5.45c-.36-.76-.72-1.52-1-2.3a.7.7,0,0,1,.23-.61.72.72,0,0,1,.64,0,5.7,5.7,0,0,1,1.83,2.18c1.27,2.19,2.22,4.55,3.47,6.71a7.53,7.53,0,0,1,1.15,4c0,2.59.2,5.17.33,8a3.88,3.88,0,0,0,1.06-2.88c0-4,1-7.85.48-11.88-.2-1.58,0-3.3-.11-5a.68.68,0,0,1,.39-.5.75.75,0,0,1,.64.18,6,6,0,0,1,1.29,3.68,4.29,4.29,0,0,0,1.7,3.06c.94.81,2.23.77,2.66-.37s.89-1.12,1.78-1.31a11.88,11.88,0,0,1,2.86-.32,13.77,13.77,0,0,0,0-1.44,8.13,8.13,0,0,0-.33-1.77,32.79,32.79,0,0,0-8-13.06c-.36-.35-.68-.68-.41-1.23a1.13,1.13,0,0,1,1.55-.41,11.68,11.68,0,0,1,2.24,1.81,35.12,35.12,0,0,1,5.76,8.69c1,2.44,2,4.91,2.89,7.4a5.68,5.68,0,0,0,.94,1.91c.26.29.47,1,1.2.26-.38-.94-.82-1.91-1.16-2.92-.19-.53-.41-1.27.3-1.54.32-.12.93.2,1.26.5a4.41,4.41,0,0,1,1.06,1.43c.6,1.31,1.11,2.66,1.68,4a10.79,10.79,0,0,0,.92,1.94,1.91,1.91,0,0,0,2,.57c.76-.11.74-.87.75-1.43a11.46,11.46,0,0,0-.73-4.25c-1.37-3.82-2.23-7.83-4.05-11.5a.77.77,0,0,1,.24-1,.73.73,0,0,1,1,.05A9.83,9.83,0,0,1,629,208c1.12,2.53,2.19,5.08,3.35,7.59.59,1.27.93,2.75,2.28,3.55,0,.23-.35.57.2.62l-.27-.56c0-.71-.23-1.54.34-2.07,1.19-1.13.94-2.33.42-3.63a28.76,28.76,0,0,0-3.44-6.71,7.47,7.47,0,0,1-.65-.86.9.9,0,0,1,.25-1.27.89.89,0,0,1,1.25.32c1.83,3.09,4.32,5.8,5.4,9.31.11.36.34.68.77.46a.73.73,0,0,0,.33-.56c0-1.44,0-2.88-.17-4.31-.25-2.14-.64-4.27-.93-6.41-.06-.45-.08-1,.48-1.2s.95.28,1,.73c0,1.29,1.06,2.14,1.39,3.28.15.49.39.9,1,.89.93,0,1.23.51,1.38,1.31a3.78,3.78,0,0,0,.9,2.28c1.12-.25.66-1.45,1.23-2a.79.79,0,0,1,.62-.2.76.76,0,0,1,.53.4,7.14,7.14,0,0,1,.28,1.39,33.76,33.76,0,0,1,0,7.91,8,8,0,0,0,.41,4.44.91.91,0,0,0,.9-.7,18.81,18.81,0,0,0,1.46-6.27c.24-6.13.64-12.26-1.83-18.11a2.5,2.5,0,0,1,0-1.06c0-.74,1-1.31,1.59-.85,1.26,1.09,2.84,1.79,3.81,3.25a11.29,11.29,0,0,0,1.7,1.83.68.68,0,0,0,.65,0,.72.72,0,0,0,.27-.6,16.06,16.06,0,0,0-3.31-6.72C651.77,191,650.27,188.87,649.15,186.6Zm-.95,45.07c-1.66,2-2.86,4.27-4.87,6,.25.17.34.29.44.3.91.08,1.54-.55,2.23-1,2.87-1.7,2.92-1.84,2.16-5.05,0-.11,0-.23-.06-.34.59,0,1.18,0,1.76-.11a1,1,0,0,0,1-.88,3.75,3.75,0,0,0-.85-3.28A7.78,7.78,0,0,0,648.2,231.67ZM482,246.93a6.58,6.58,0,0,1-1.42-.13c-1.32-.41-2.08.35-2.64,1.3a35.58,35.58,0,0,0-1.71,3.51.61.61,0,0,0,.26.56.78.78,0,0,0,.66-.1c1.86-1.49,3.72-3,4.74-5.23Zm-2.62,110.18c-.34,0-.82-.26-1-.1a22.58,22.58,0,0,0-4.91,6c-.34.57-.06,1.11.35,1.62s1,.71,1.35.07c1.45-2.56,2.87-5.13,4.28-7.7l-.16-.14Zm3-59.23a1.1,1.1,0,0,0,1.32-.23c1-1.32,2.09-2.63,3-4a25.28,25.28,0,0,0,1.65-3.19,7.62,7.62,0,0,0,1-3.75c-2.87,4-5.52,7.25-6.94,11.28.07.17-.53.46.1.54Zm-10.94,44a1.44,1.44,0,0,0,1.55-.66c2-3.25,4.5-6.3,4.08-10.5a7.94,7.94,0,0,1,.25-1.4.72.72,0,0,0-.29-.59c-.38-.21-.64,0-.77.4-1.59,4.27-3.18,8.53-4.74,12.82a1.12,1.12,0,0,1,0,.31c-.07.37,0,.44.14.15C471.75,342.27,471.54,342.05,471.45,341.87Zm-15.55,68.2.38.4-.47-.32a8.64,8.64,0,0,0-.18-2.12,21.39,21.39,0,0,1-1.32-8.11,6.43,6.43,0,0,0-.08-1.07c-.18-1.17-1.08-1.73-2.41-1.44-1,.21-.87,1-.75,1.72a20.73,20.73,0,0,0,.94,4.19C453,405.73,453.7,408.34,455.9,410.07Zm97.89-233.78,3,.45a3.69,3.69,0,0,0-3-.43,2.93,2.93,0,0,0-1.48-.94c-2.18-.79-4.51-.62-6.72-1.12a14.49,14.49,0,0,0-7.11.39,3.43,3.43,0,0,0-1.2.74.73.73,0,0,0-.19.63c0,.18.27.45.44.46,2.75.2,5.51.32,8.27.56a6,6,0,0,0,3.14-.43A5.83,5.83,0,0,1,553.79,176.29ZM532.11,199c1.15.1,2.31.2,3.46.28.35,0,.75,0,.79-.42a1,1,0,0,0-.84-1,3.46,3.46,0,0,0-3.45,1.2A9.63,9.63,0,0,0,532,198a3,3,0,0,0-3.36-2.6c-1.31,0-2.63.16-3.94.25-6.13.41-12.12,1.39-18.31,4.37,5-.5,9.3-1.25,13.63-1.86A29.57,29.57,0,0,1,532.11,199Zm119,25.45c1.35.2,2.33-.13,2.65-1.67a72.18,72.18,0,0,0,1.68-10.65c.07-1.31.61-2.65.16-3.93a24.13,24.13,0,0,0-4.89-8.73c.33,1.88.46,3,.74,4.11a36.64,36.64,0,0,1,.78,14.63c-.32,2.12-.7,4.23-1.05,6.34l-.23,0Zm33.58,115.26a1,1,0,0,1,.32-.06c.38.07.47,0,.21-.11s-.4.13-.61.21a10.23,10.23,0,0,0-.56-.89c-1.16-1.54-1.12-2.08.44-3.1.5-.33,1.08-.5,1.31-1.12,1-2.79.12-4.83-2.69-6.06-.43-.19-.85-.43-1.28-.64-1.57-.8-2.11-.63-2.67.93-.24.68-.35,1.4-.57,2.08a4.83,4.83,0,0,0,.6,4.78,4.42,4.42,0,0,1,.69,3.32A13.4,13.4,0,0,0,684.69,339.66ZM500.09,443.84l0,.58c0-.08-.13-.17-.11-.24a1,1,0,0,1,.19-.27c-.17-1.31-.26-2.63-.51-3.93s-.8-2.54-.94-3.84c-.7-6.46-2.53-12.69-4-19a18.67,18.67,0,0,0-.81-2.16,13,13,0,0,1-5.94,1.46c-.1,0-.23.34-.3.54a.36.36,0,0,0,.12.31c.28.21.56.55.87.58a3.08,3.08,0,0,1,2.85,2.36,2.65,2.65,0,0,0,.7,1.22c1.63,1.34,2.06,3.17,2.24,5.12.55,5.82,2.92,11.09,4.94,16.47C499.52,443.34,499.86,443.57,500.09,443.84Zm59.57-229.25c-1,1.78.83,3.15.62,4.81.84-1.76-.37-3.2-.65-4.78-.4-1.82-1.8-2.7-3.27-3.56-1.24-.73-1.22-.79,0-2a.85.85,0,0,0,.31-.93,4.51,4.51,0,0,0-.7-1.25,38.55,38.55,0,0,0-11-9.07,8.64,8.64,0,0,0-4.17-.88.79.79,0,0,0-.59.28c-.24.38,0,.69.29.92a15.91,15.91,0,0,0,2.24,1.8c2.29,1.32,4.18,3.23,6.64,4.28.55.24,1.21.72.85,1.34-1,1.62.08,2.58,1.12,3.31a12.61,12.61,0,0,1,4.1,5.36,9.61,9.61,0,0,0,.6,1.3c.27.41.65.76,1.06.1C557.72,214.6,558.94,215.17,559.66,214.59ZM507,529.92c-1.53,2-2,4.11-2.84,6.05-3.06,6.66-6.11,13.32-10.13,19.48-.92,1.41-1.73,2.89-2.54,4.36q-1.72,3.16-3.37,6.37c-1.15,2.25-2.19,4.55-3.38,6.77a2.53,2.53,0,0,0,.55,3.5c1.84,1.72,3.55,3.58,5.3,5.39a45,45,0,0,0,3.21,3.4c4.21,3.58,8.44,7.15,12.78,10.57a42.7,42.7,0,0,0,11.38,6.85q9.78,3.65,19.62,7.14c6.64,2.36,13.58,3,20.54,3.51a14.51,14.51,0,0,0,3.21-.27,24.83,24.83,0,0,1,4-.18c2.51,0,5-.19,7.55-.35a1.05,1.05,0,0,0,1-1.24c0-.6-.12-1.2-.15-1.8a82.18,82.18,0,0,1-.35-11.53c.18-2.27.34-4.56.36-6.84.07-7,.57-13.93,1.18-20.88.19-2.16.2-4.33.25-6.49,0-.78-.27-1.53-1.17-1.5-3.08.1-5.92-1-8.81-1.76a15,15,0,0,0-3.19-.49c-2.64-.18-5.28-.38-7.91-.63a6,6,0,0,1-2.46-.5,15.65,15.65,0,0,0-6.12-1.92,2.11,2.11,0,0,1-2.15-2c-.06-.84-.72-1.19-1.41-1.47-1.44-.58-2.9-1.13-4.34-1.74a105.63,105.63,0,0,1-17-9.51,46.36,46.36,0,0,1-12.5-11.31A8,8,0,0,0,507,529.92Zm72.82,87.65a15.1,15.1,0,0,1,2.42-1.91,6,6,0,0,0,2.66-2.85,40.72,40.72,0,0,0,4.3-11.06c.48-2.59.78-5.22,1.11-7.84s.42-5.06.91-7.53c1.22-6.16,1.15-12.44,2-18.63a3.54,3.54,0,0,0-.75-2.68c-1.27-1.77-1.12-2.82.23-4.46.38-.46.75-.94,1.16-1.37a1.32,1.32,0,0,1,2.16,0c.59.74,1,1.59,1.94,2a19.83,19.83,0,0,0,9.82,1.8c2.1-.15,2.36-.49,2.7-2.61.61-3.8,1-7.65,1.92-11.38.47-1.94.37-3.25-1.33-4.33a6.09,6.09,0,0,1-1.35-1.18,2.51,2.51,0,0,0-3.51-.68,4.32,4.32,0,0,1-2.82.09,44.21,44.21,0,0,1-14.59-5c-2-1-4-2.16-6.14-3-3.1-1.27-6.1-2.77-9.43-3.49a29.6,29.6,0,0,1-6.8-2.35c-5-2.48-10.14-4.41-15.19-6.66-5.59-2.5-11.12-5-16.13-8.67-5.49-4-10.5-8.39-14.17-14.19a35,35,0,0,0-2.38-3.17.69.69,0,0,0-.64-.13.67.67,0,0,0-.33.53c0,1.32,0,2.65.07,4a84.85,84.85,0,0,1-.18,16.56c-.26,1.9-.66,3.79-1.09,5.65a1.33,1.33,0,0,1-1.4.94c-.71,0-1-.54-1.1-1.19-.12-.83-.22-1.67-.36-2.5a.85.85,0,0,0-.7-.71c-2.93-.67-4.72,1.23-3.84,4.07a6.13,6.13,0,0,0,.46,1,29.93,29.93,0,0,0,3.95,6,49.92,49.92,0,0,0,12.52,10.24c4.8,3,9.77,5.65,14.75,8.31,1.92,1,3.66,2.47,5.65,3.15,4.77,1.62,9.66,2.86,14.81,2.07a6,6,0,0,1,2.13.18c2.8.64,5.59,1.35,8.39,2a40.7,40.7,0,0,0,4.24.83c4.37.57,4.77,1.11,4.15,5.54s-1.18,8.58-1.63,12.89c-.35,3.23-.64,6.48-.69,9.72-.06,4.21-.14,8.42-.48,12.62-.32,4,.22,7.93.38,11.9a5.52,5.52,0,0,0,.15,1.07,1.68,1.68,0,0,0,1.41,1.44,5.66,5.66,0,0,1,.72.08c2.14.56,2.4,1.35.92,2.85C580.32,616,579.46,616.2,579.79,617.57Zm11.12-.79a17.32,17.32,0,0,0,5.72-1c2.26-.79,4.51-1.67,6.68-2.67a45.49,45.49,0,0,0,14.75-10.74c.88-1,1.37-2,.79-3.25a18.21,18.21,0,0,1-1.13-7.42c0-3.63.76-7.16,1.19-10.73s.94-6.9,1.43-10.35a16,16,0,0,0-.6-5.34,1.16,1.16,0,0,0-1-.9,1,1,0,0,0-1.2.55,4,4,0,0,1-3.16,2.63,1.78,1.78,0,0,0-1.29,1.14,7.9,7.9,0,0,1-1,1.5.77.77,0,0,1-1.22-.11,8.52,8.52,0,0,1-.33-1c-.56-1.81-.78-2.05-2.46-1.69a19.58,19.58,0,0,1-7.88.16c-3.48-.69-3.39-.12-3.87,3.2-.07.48,0,1,0,1.44-.22,3.72-.4,7.44-.68,11.15-.15,1.91-.5,3.8-.69,5.71-.31,3.11-.47,6.23-.86,9.33A43.82,43.82,0,0,1,590,612.86a21.53,21.53,0,0,0-1,2.31,1,1,0,0,0,.92,1.54C590.25,616.75,590.61,616.76,590.91,616.78ZM457.65,355a36.31,36.31,0,0,1,2.79-3.06,1.59,1.59,0,0,1,2,.07,1.24,1.24,0,0,1,.26,1.88,5.17,5.17,0,0,0-.55.93.94.94,0,0,0,0,.66.73.73,0,0,0,1,.26,3.05,3.05,0,0,0,2-1.36c.49-1,1.05-1.89,1.56-2.84.67-1.25,1.61-2.42.4-3.94-.3-.36-.16-1.18,0-1.74a38.66,38.66,0,0,1,1.19-4.53c.95-2.73,2-5.42,3.06-8.1A8.12,8.12,0,0,0,472,329a16.86,16.86,0,0,1,.25-5c.45-3.17.66-6.37,1-9.65-.48.14-.76.14-.9.28a4.58,4.58,0,0,0-.89,1.13A63.65,63.65,0,0,1,461,330.42c-1.89,2.05-3.75,4.08-6.68,4.62a1.28,1.28,0,0,0-1,.94c-.37,1.27-.76,2.53-1.07,3.82-.11.44-.23,1.13,0,1.37,1.51,1.55.59,3.2.29,4.79a43.15,43.15,0,0,0-1,8.22,2,2,0,0,0,1.52-1.93,46,46,0,0,1,2.94-8.88c1.11-2.78,2.51-5.44,3.82-8.14a.55.55,0,0,1,.86-.23.73.73,0,0,1,.17.64c-.62,2.07-1.27,4.13-1.89,6.2a.7.7,0,0,0,.3.9c.18.08.46-.05.68-.11s.18-.18.29-.21c1.1-.38,1.59,0,1.57,1a4.26,4.26,0,0,1-.55,2.06c-.58,1.05-1.15,2.11-1.67,3.19A16.52,16.52,0,0,0,457.65,355Zm24.57-24a5.22,5.22,0,0,1-1,3.41,13.61,13.61,0,0,0-1.75,9.33c.12.86-.11,1.46-1.1,1.3-.68-.11-1.22-.06-1.44.64q-1.4,4.46-2.72,8.93a.65.65,0,0,0,.3.57.69.69,0,0,0,.65-.12c1-1,1.91-2.15,2.94-3.14,3.5-3.41,4.85-7.9,6.29-12.34a3.21,3.21,0,0,0,.09-1.07A14.26,14.26,0,0,0,482.22,331Zm230-79.26c-.42.51-.82.77-.82,1,0,2.82-.81,5.15-3.62,6.45a1.64,1.64,0,0,0-.66,2.22c.61,1.57,1.24,3.13,1.92,4.67.21.47.35,1.17,1.35,1a17.7,17.7,0,0,1,2-4.51C714.42,259.07,713.85,255.53,712.27,251.76ZM499.41,224.69a.77.77,0,0,0-1-.46,28.85,28.85,0,0,0-10.15,4.45,10.39,10.39,0,0,0-4.42,5.94.72.72,0,0,0,.21.61.66.66,0,0,0,.64,0c2.06-1.85,4.47-3.2,6.67-4.84a59.83,59.83,0,0,1,5.34-3.64A11.87,11.87,0,0,0,499.41,224.69ZM449.89,368.08c-.88,1.11-1.48,2.28-.48,3.55a1.2,1.2,0,0,1,0,1.61,2.74,2.74,0,0,0-.64,1.24,53.34,53.34,0,0,1-.41,7.48c.9,2.53.81,5.24,1.39,7.85.74-3.89,1.19-7.81,2-11.65a8.47,8.47,0,0,0,0-4.22C451.15,372,450.54,370.11,449.89,368.08Zm-6.29-2h.08a10.81,10.81,0,0,1,0,1.8c-.45,2.78.15,5.51.3,8.27a1.65,1.65,0,0,0,.14.7.87.87,0,0,0,.49.42.66.66,0,0,0,.54-.29,5.28,5.28,0,0,0,.19-1.42,26.09,26.09,0,0,1-.15-4.66c.49-3.23.32-6.5.76-9.7.37-2.69-.27-5.25-.37-7.87a.66.66,0,0,0-.38-.51c-.48-.1-.56.32-.66.66a2.25,2.25,0,0,0-.06.36Q444,360,443.6,366.09Zm29.17,57.68a7.93,7.93,0,0,0,1.59,5.78,54.35,54.35,0,0,0,7.21,7.61C481.19,432.06,477.26,426.08,472.77,423.77Zm208.1-208.19a30.55,30.55,0,0,1-2.06,13.83.65.65,0,0,0,.14.63.68.68,0,0,0,.63,0c4.06-2.86,5-7.64,4.32-12.89-.08-.62-.63-1.14-1.31-.73C681.65,217,681.45,216.1,680.87,215.58Zm-207.5,152c-.22.06-.51,0-.62.17a16.6,16.6,0,0,0-3.74,8.42c-.3,2-.06,4.07-1.42,5.81-.19.24-.14.69-.16,1.05a46.5,46.5,0,0,0-.25,9,60.86,60.86,0,0,1,3.08-10.59,12,12,0,0,0,.79-4.22,21.67,21.67,0,0,1,1.69-7.3C473,369.14,473.66,368.47,473.37,367.56Zm-2.11-17.11c-2.81,3.37-7,11.72-7.29,14.63,3-1.07,3.2-1.24,4.58-3.47C469.76,359.65,471.32,353.24,471.26,350.45ZM486,329.27c.17-3.21.28-5.84.46-8.46s.55-5.48.67-8.23c.12-2.52,1.14-4.94.74-7.54a14,14,0,0,0-2.16,5.95c-.1,1.3-.82,2.62-.24,3.88a4.92,4.92,0,0,1,.13,3.14,55.1,55.1,0,0,1-1.18,5.6C483.77,325.64,484.18,327.31,486,329.27Zm-7.8,79.58c-.37.89.15,1.67.44,2.39a111.48,111.48,0,0,0,7.07,13.64,1.16,1.16,0,0,0,.54.46,1.18,1.18,0,0,0,.62,0c.06,0,.15-.21.13-.3a6.3,6.3,0,0,0-.32-1.38,31,31,0,0,0-2.93-5.32c-.49-.67-1.25-1.47-1-2.24.69-1.8-.52-2.57-1.48-3.61-.72-.79-1.19-1.79-1.83-2.65C479.12,409.42,478.93,408.75,478.15,408.85Zm164-197.49c0,2.29-.31,4.54-.32,6.8a37.85,37.85,0,0,1-2.68,13.33c-.32.85-1.11,1.66-.62,2.65.25.5,1.2-.56,1.85-2.24a13.56,13.56,0,0,0,.43-1.37c.83-3.5,1.55-7,2.52-10.49C644.23,217,643.26,214.17,642.19,211.36ZM504,209.56c4.67-.86,9.65-.5,14.06-3.27-2.38-1.32-3.31-1.61-4.8-1.51a2.13,2.13,0,0,0-2.21,1.47,1.61,1.61,0,0,1-1.92,1.21A5.37,5.37,0,0,0,504,209.56ZM699.28,239c-.89.3-1,.94-1.24,1.47-2,3.93-2,3.93,1,6.95l.27.24a1,1,0,0,0,1.5-.35,7,7,0,0,0,.55-2.07A11.45,11.45,0,0,0,699.28,239ZM457.6,377.85c-1.08.83-.74,1.85-.67,2.74.5,6.78,1,9.51,2.19,11.41.44-2.09-.2-4.12.15-6C459.84,383,458.72,380.5,457.6,377.85ZM664.81,212.66a30,30,0,0,0,.33-4.17c-.12-2.48-.43-5-.69-7.45a1.11,1.11,0,0,0-1.35-.82c-.56.19-.64.63-.65,1.12a4.29,4.29,0,0,0,.08.71c.53,3.4,1.05,6.81,1.61,10.21C664.17,212.47,664.07,213.06,664.81,212.66ZM459.39,303.12c1-1.43,3.16-1.23,3.9-2.48s.62-3.22,1.31-4.77a1.69,1.69,0,0,0,0-1c0-.17-.31-.3-.5-.41a.43.43,0,0,0-.33,0,2.86,2.86,0,0,0-1.2,1.72,15.73,15.73,0,0,1-2.72,5A1.79,1.79,0,0,0,459.39,303.12Zm75.41-118.2c.51.85,1.41.75,2.18.83,3.17.32,6.35.58,9.53.86.07,0,.15-.14.22-.21C543.19,183.84,539.91,183.43,534.8,184.92ZM473.49,396.4c1.76-4.21,1.43-7.8,0-11.82C472.76,388.58,472.41,392.17,473.49,396.4Zm1.67-96a2.14,2.14,0,0,0,1.16,1.87c.8.4,1-.41,1.24-.89a5.42,5.42,0,0,0,.59-1.3c.4-1.61,2.26-3,.81-4.89-1.76.63-2.06,2.49-3.1,3.73A6.17,6.17,0,0,0,475.16,300.41Zm27.91-49c-2.52-1.19-4.63-.3-6.71.55a5.74,5.74,0,0,0-1.61,1.37.75.75,0,0,0-.2.64.61.61,0,0,0,.56.29C497.77,253.36,500.41,252.4,503.07,251.44Zm44.3-35.74c.16-.77-.39-1.33-.57-2-.55-2-1.92-2.57-3.78-2.52a.67.67,0,0,0-.64,1,7.29,7.29,0,0,0,4.44,3.86C547,216.06,547.18,215.82,547.37,215.7Zm125.1-21.07c0-.25.1-.54,0-.71a9.38,9.38,0,0,0-4.19-3.69.69.69,0,0,0-.63.12.68.68,0,0,0-.14.61,7.09,7.09,0,0,0,4.16,4.11A.66.66,0,0,0,672.47,194.63ZM443,336a15.89,15.89,0,0,0-.53,2c-.25,2.61-.45,5.22-.68,7.91.24-.12.4-.14.44-.22,1.39-2.49,1.14-5.36,1.81-8C444.21,337.22,443.83,336.59,443,336Zm261.78-97.59c-.27,3.53.67,6,1.33,8.56.08.3.31.43.54.27a.8.8,0,0,0,.36-.54A14.88,14.88,0,0,0,704.82,238.43Zm-167.7-20.16c-.3.19-.57.27-.64.43a.7.7,0,0,0,.07.65,18.42,18.42,0,0,0,5.33,3.32c.06,0,.21-.07.29-.13a.58.58,0,0,0,.21-.28,1.7,1.7,0,0,0-.57-1.92C540.29,219.52,538.64,218.93,537.12,218.27Zm57.16,11.18c1.28-3.07,1.38-5.39.55-7.75a.69.69,0,0,0-1.37.22C593.68,224.18,594,226.44,594.28,229.45Zm101.65,6.14a2.37,2.37,0,0,0,0-.56c-.12-.31-.19-.79-.41-.87-.41-.16-.65.27-.69.61a11.44,11.44,0,0,1-1.4,4,6.45,6.45,0,0,0-.53,1.68.66.66,0,0,0,.3.56.75.75,0,0,0,.65-.11C695.43,239.4,695.68,237.39,695.93,235.59ZM476.36,421c.39-.85-.11-1.32-.29-1.85-.9-2.7-.91-2.69-4.15-1.54C473.79,418.38,474.33,420.61,476.36,421Zm10.75,19.25c-.6-2.21-.82-4.14-1.8-5.84a.7.7,0,0,0-.62-.24c-.13,0-.33.38-.29.53.69,2.41,1.42,4.82,2.14,7.23a.49.49,0,0,0,.24.23.5.5,0,0,0,.32,0c.1,0,.28-.15.27-.21C487.28,441.28,487.16,440.58,487.11,440.25ZM668.51,230c.11.41.1.86.31,1.05.42.36.9.06,1.23-.25a3.4,3.4,0,0,0,1.27-2.43,1.21,1.21,0,0,0-.8-1.06.77.77,0,0,0-1.15.42C669,228.46,668.78,229.24,668.51,230Zm-189.64,5.43c.8-1.58,1.25-2.54,1.77-3.46.39-.7,1.25-1.2.85-2.19-.22-.54-1.42.15-2.19,1.3A4.79,4.79,0,0,0,478.87,235.41Zm228.27,16.7-.44-.33a13.93,13.93,0,0,0-2.4,1.33c-.49.41-.24,1.11.2,1.57s.87.16,1.14-.21C706.18,253.71,706.64,252.9,707.14,252.11Zm-36.28-34.63a2.36,2.36,0,0,0,.95-1.71c.05-.81.47-2.22-.3-2.28-1.22-.1-.45,1.26-.62,1.95A10.23,10.23,0,0,0,670.86,217.48ZM470.69,402.11c.28-2.61.28-2.61-.85-4.22C470.05,399.44,469.55,400.61,470.69,402.11ZM482,319.88c-.08.66-.14.79-.1.89s.17.51.3.54a.75.75,0,0,0,.6-.27,3.82,3.82,0,0,0,.65-2.67c0-.21-.18-.53-.33-.57a.68.68,0,0,0-.77.56A14.79,14.79,0,0,0,482,319.88ZM674,203.13a4.58,4.58,0,0,0-.23-2.47,1.39,1.39,0,0,0-.41-.54.84.84,0,0,0-.62-.19c-.16,0-.38.38-.33.51C672.7,201.37,672.85,202.42,674,203.13ZM528.9,200.22c-.28-.79-1-.86-1.65-.92-.46,0-1.13,0-1.2.44-.14.92.7.63,1.19.69A2.1,2.1,0,0,0,528.9,200.22Zm170.67,24.41a.38.38,0,0,0-.53.32,1.62,1.62,0,0,0,.58,1.85c.32.21.75.23.89-.15A1.94,1.94,0,0,0,699.57,224.63Zm-186.41-24c.08,0-.18-.06-.39,0s-.44.28-.45.45a.67.67,0,0,0,.33.56,13.3,13.3,0,0,0,2.09.18c.14,0,.36-.33.4-.53s-.14-.51-.26-.53A12.87,12.87,0,0,0,513.16,200.66ZM630,237.33c-.82.51-.73,1.42-1,2.17-.09.31-.08.73.4.71.16,0,.4-.29.43-.48C630,239,630.47,238.17,630,237.33ZM500.59,284.26c-.67,0-1,.56-1.44.93a.41.41,0,0,0,0,.63c.25.31.59.51.9.2a4.05,4.05,0,0,0,.78-1.14C500.86,284.74,500.67,284.47,500.59,284.26Zm16.6-71.61a1.09,1.09,0,0,0-1.3-.27.37.37,0,0,0-.24.58.87.87,0,0,0,1.24.28C517.05,213.16,517.09,212.85,517.19,212.65Zm169.22,14.08a1.13,1.13,0,0,0-1.1,1.13c.07.3.31.38.55.17a4.72,4.72,0,0,0,.72-.76C686.77,227,686.69,226.82,686.41,226.73Zm-53.6-59a.86.86,0,0,0-.79-1,.72.72,0,0,0-.61.24c-.22.44.46,1.26,1,1.19C632.56,168.18,632.68,167.91,632.81,167.75Zm-151.4,69.83c-.09-.2-.14-.5-.29-.57-.57-.27-.83.17-1,.6a.61.61,0,0,0,.23.54A.82.82,0,0,0,481.41,237.58Zm135.53-15.76c-.39.32-.28.66-.21,1s.23.77.6.67.28-.58.15-.88A4,4,0,0,0,616.94,221.82Zm-92.55-14c-.12-.16-.22-.39-.38-.46s-.54-.08-.6,0c-.26.41.1.56.4.61A1.32,1.32,0,0,0,524.39,207.85Zm187.72,65.67a.62.62,0,0,0,.68-.58.6.6,0,0,0-.27-.51c-.4-.1-.63.17-.65.55C711.86,273.16,712,273.36,712.11,273.52ZM617.39,229.3a5.05,5.05,0,0,0-.06.67c0,.4.12.44.21.11a2.21,2.21,0,0,0,0-.68S617.45,229.33,617.39,229.3ZM481.67,292.45c-.07-.29-.24-.38-.51-.25a1,1,0,0,0-.66,1c0,.11.38.3.52.25A.92.92,0,0,0,481.67,292.45Zm26.78-79.89c-.15-.11-.29-.32-.45-.32s-.37.15-.55.24c.15.12.29.33.44.34S508.26,212.66,508.45,212.56Zm-48.53,99.86c-.12-.26-.19-.57-.3-.59a.58.58,0,0,0-.69.55c0,.18.16.38.25.57Zm64.3-85.6-.09-.31c-.1,0-.24.06-.29.13s0,.19.08.29ZM474.55,381.69l-.14-.26c-.07.07-.17.12-.19.2-.07.28,0,.41.23.32S474.51,381.78,474.55,381.69Zm29-147.58c0-.09,0-.22,0-.26-.21-.2-.37-.14-.4.13a.25.25,0,0,0,.15.21C503.41,234.21,503.51,234.14,503.59,234.11Zm-37.86,66.25c.08-.05.2-.07.24-.14s0-.17-.06-.26-.21.06-.24.13S465.7,300.27,465.73,300.36Zm11.6-54.27c0-.1,0-.25-.1-.28-.22-.13-.39,0-.44.24a.34.34,0,0,0,.09.27C477.11,246.46,477.27,246.36,477.33,246.09Zm55.07-61.21c-.08,0-.17-.14-.25-.13-.28,0-.34.18-.14.34a.31.31,0,0,0,.28,0C532.35,185.07,532.37,185,532.4,184.88ZM495,214.51l0,.25.28-.09Zm-4.76,100.95-.14.19.2.05Zm43-92,0-.18-.23.07Z" transform="translate(-399.55 -149.79)"/><path class="cls-1" d="M643.82,446.51c.57,0,.62.4.75.72a4.63,4.63,0,0,0,.78,1.59c.5.47,1.1-.09,1.67-.21a6.47,6.47,0,0,1,7.3,4.43c.5,1.74-.47,3.12-1.52,4.21a45,45,0,0,1-5.69,5c-2.78,2.05-5.75,3.86-8.62,5.79a4,4,0,0,1-2.7.82,19.54,19.54,0,0,0-6.74.94,88,88,0,0,1-12.82,1.95,20.92,20.92,0,0,1-8.52-1.16A26,26,0,0,1,601,468a35.07,35.07,0,0,0-4-1.66c-1.52-.73-3-1.6-4.45-2.38-.63-.33-1.36-.91-2-.81-1.78.31-3-.68-4.23-1.57-2.64-1.88-5.56-3.34-8-5.5s-5-4.06-7.31-6.39c-3.54-3.6-7.27-7-10.89-10.52-3.44-3.33-6.83-6.7-9.93-10.35a46.81,46.81,0,0,0-9.76-8.5,27.48,27.48,0,0,1-6-5.72c-1.66-2.06-3.45-4-5.2-6-3.74-4.24-7.36-8.58-11-12.95-2.43-3-4.76-6-7.09-9.09-1.53-2-2.42-4.43-4.08-6.36a20.21,20.21,0,0,1-2.65-3.38,25.86,25.86,0,0,1-1.38-4.06,14.34,14.34,0,0,0-.67-1.68,12.2,12.2,0,0,1-.95-8c.37-1.76.68-3.54,1.17-5.27a14.92,14.92,0,0,1,1.23-2.59.68.68,0,0,1,.9-.35,1.27,1.27,0,0,1,.66.76,3.1,3.1,0,0,1,0,1.42c-1.46,6.51.41,12.42,3.52,18a73.31,73.31,0,0,0,11.37,15.72c2.43,2.49,4.44,5.4,6.87,7.89,5.46,5.59,10.24,11.86,16.2,16.94,3.31,2.83,5.92,6.28,9,9.29,5.36,5.18,10.54,10.54,15.91,15.71a62.31,62.31,0,0,0,10.18,8c4.69,2.95,9.34,5.95,14,8.88a42.54,42.54,0,0,0,16.41,6.17c3.56.52,7.06,1.47,10.72,1.31a10.8,10.8,0,0,0,3.52-.6,28.47,28.47,0,0,1,3.72-1.33,10.07,10.07,0,0,0,4.17-2,13.11,13.11,0,0,1,2.79-1.62,34.79,34.79,0,0,0,6.93-4.51,6.09,6.09,0,0,0,2.48-5.29C643.38,448.5,643.08,447.4,643.82,446.51Z" transform="translate(-399.55 -149.79)"/><path class="cls-1" d="M582.72,301.24c1.19,1.46.72,3.18.74,4.81a1.08,1.08,0,0,1-.92,1,1.29,1.29,0,0,1-1.3-.45,12.62,12.62,0,0,1-.81-1.6c-.42-.83-.86-1.66-1.3-2.51-.34.26-.59.36-.68.53-.28.6,0,1.56-1,1.63-.75.06-.93-.66-1.23-1.15a27.13,27.13,0,0,1-1.66-2.8c-1.24-2.58-3.49-3.6-6.12-3.79a25.08,25.08,0,0,0-6.48.09,28.3,28.3,0,0,1-7.51.39c-.36,0-.79-.19-.95.18a1.79,1.79,0,0,1-2.34,1.11.71.71,0,0,0-.87.49c-.23,1.35-1.32,1.56-2.35,1.88a26.5,26.5,0,0,0-5.53,2.58c-5.19,3-10.47,5.94-14.9,10.11a1.46,1.46,0,0,1-.28.21,1.27,1.27,0,0,1-1.63-.24,1,1,0,0,1-.07-1.32c.71-1,1.46-1.91,2.22-2.84.46-.55,1-1,1.46-1.57-.67-.66-.92,0-1.24.22-1.51,1.19-3,2.45-4.52,3.59a18.67,18.67,0,0,0-4.19,3.94,2.2,2.2,0,0,1-1.41,1,1.36,1.36,0,0,1-1-.22,1.08,1.08,0,0,1-.3-.94,9.15,9.15,0,0,1,1.21-2.19,43.55,43.55,0,0,1,7.24-7.5,81.37,81.37,0,0,1,7-5.06c1.67-1,3.55-1.46,5.21-2.46.7-.42,1.15-.62.75-1.56a1.32,1.32,0,0,1,.88-1.75c1.53-.67,3-1.47,4.81-1.36a2.4,2.4,0,0,0,1.83-.35c-.22-1.29.27-2.75-.85-4a1.11,1.11,0,0,1,.12-1.62,1.16,1.16,0,0,1,1.63-.09c1.82,1.54,4,2,6.25,2.67a9.11,9.11,0,0,0,4.63.14,26.82,26.82,0,0,1,10.36-.63c.82.13,1-.41,1.1-1.05a1.68,1.68,0,0,1,1.81-1.43,4.8,4.8,0,0,1,4.17,1.39,12.44,12.44,0,0,0,5,3.41.81.81,0,0,0,.64-.19.77.77,0,0,0,.18-.63,6.45,6.45,0,0,0-1.42-2.05,1.14,1.14,0,0,1,.1-1.62,1.07,1.07,0,0,1,1.61,0c1.14,1.24,2.19,2.56,3.29,3.84a9.33,9.33,0,0,0,1.2,1.31,1.19,1.19,0,0,0,1,.22c.2-.08.37-.65.29-.91-.35-1.14-.84-2.24-1.18-3.38a1.2,1.2,0,0,1,.37-.95,1,1,0,0,1,1.31,0,3.44,3.44,0,0,1,.51.5c2.53,2.64,2.52,2.64,3.56,6.31.06.19.28.34.54.64a20.14,20.14,0,0,1,.2-2.8,2.17,2.17,0,0,1,2-1.75,2,2,0,0,1,1.95,1.32,8.14,8.14,0,0,0,.8,1.62,7.72,7.72,0,0,1,1.33,7.13,3,3,0,0,0,.5,2.66,1.93,1.93,0,0,1-.61,2.82c-.38.29-.88.43-1.24.73-1.15.94-2.15,2-1.78,3.66a2.8,2.8,0,0,1-.09,1.07,1.28,1.28,0,0,1-2,.72,3.38,3.38,0,0,1-1.07-1.41c-.36-.72-.68-1.09-1.57-.31-1.39,1.22-2.37.86-2.72-1a33.53,33.53,0,0,0-2.17-6.1,3.16,3.16,0,0,0-2.47-2.36c.07-.28.12-.31.15-.08Zm-22.15-8.74a3,3,0,0,0-2.05.45.44.44,0,0,0-.13.31.35.35,0,0,0,.16.26,2.85,2.85,0,0,0,2.09,0c.35-.1.66-.34.55-.74C561.15,292.64,560.79,292.59,560.57,292.5Z" transform="translate(-399.55 -149.79)"/><path class="cls-1" d="M557.27,355.85a5.75,5.75,0,0,0,3.84.71,38.93,38.93,0,0,0,15.61-3.76c1.81-.92,3.49-2.11,5.23-3.18q2.29-1.42,4.6-2.84a1.11,1.11,0,0,1,1.34,0,1.36,1.36,0,0,1,.53,1.27,3.64,3.64,0,0,1-.4,1.36c-1.22,2.09-2.54,4.08-4.8,5.24a18.68,18.68,0,0,0-2.38,1.6,19.83,19.83,0,0,1-11.3,4.17,59.5,59.5,0,0,0-7.51.84,15.37,15.37,0,0,1-5,0,87.62,87.62,0,0,1-20.09-5.57l-.33-.14c-2.34-.91-3.76-2.48-3.74-5.11l-.1.05c.66-.29,1.32-.59,2-.86a1.87,1.87,0,0,1,1.74.11c4.64,3,10,4,15.22,5.33.9.23,1.76.85,2.77.43.46-.61-.09-1.14-.13-1.7-.14-1.83-.13-3.49,1.39-5a4,4,0,0,0,.69-4.7c-.24-.55-.42-1.13-.69-1.67-.87-1.78-2.2-2.21-3.8-1.18-2.36,1.52-4.06,3.43-3.55,6.52,0,.36,0,.72.07,1.08a2.3,2.3,0,0,1-1.37,2.66,3.37,3.37,0,0,1-4-.74,4.6,4.6,0,0,1-1-3.71,14.38,14.38,0,0,1,4.27-8.94c2.27-2.21,5.25-2.89,8.32-2.86,5.12.06,8.57,2.89,10.71,7.29a15.71,15.71,0,0,1,1.35,5.56c.2,2.35-1.34,4.12-3,5.55-1.81,1.6-3.92,2.84-6.58,2.26l-.08,0Z" transform="translate(-399.55 -149.79)"/><path class="cls-1" d="M532.85,350.45a2.5,2.5,0,0,1-.87-2.56c.32-1.28.53-2.59.77-3.89a28.37,28.37,0,0,1,4.42-10.55,14.45,14.45,0,0,1,6.24-5.25c2.61-1.18,5.1-2.66,7.6-4.07A29.14,29.14,0,0,1,570.86,321a3.51,3.51,0,0,1,1.7.52c1.82,1.64,4.26,2.19,6.16,3.7a35.26,35.26,0,0,0,4.34,2.55,45.34,45.34,0,0,1,9.09,6.38,15,15,0,0,1,1.87,2.19,2.47,2.47,0,0,1-.21,3.3,2.73,2.73,0,0,1-3.61.35,3.9,3.9,0,0,1-1.05-1,15.24,15.24,0,0,0-5.22-4.35,91.89,91.89,0,0,0-8-4.82,10.07,10.07,0,0,1-1.79-1.18c-5.56-4.3-11.52-4.14-17.63-1.47-3.06,1.34-6,2.93-9.06,4.35-3.76,1.76-6.71,4.37-8,8.37-1.3,4.16-3.91,7.38-6.69,10.56Z" transform="translate(-399.55 -149.79)"/><path class="cls-1" d="M642.94,487.78a13.88,13.88,0,0,1-9.36-3.06c-1.64-1.21-3.1-2.62-4.85-3.71s-2.34-4.32-1.57-5.77a1.66,1.66,0,0,1,1.78-.91,3.91,3.91,0,0,1,2.26,1c1.59,1.28,3.19,2.56,4.68,4,2.74,2.56,5.82,4.11,9.71,3.81a51.22,51.22,0,0,1,5.4,0c1.31,0,2.63.34,3.89-.32a1.16,1.16,0,0,1,.7-.15c4.28.84,8.21-1.48,12.41-1.37a3.32,3.32,0,0,0,1.67-.6c3.65-2.16,7-4.7,9.11-8.46.48-.82.73-1.77,1.13-2.64a2.43,2.43,0,0,1,2.3-1.38,2.46,2.46,0,0,1,1.54,2.84c-.64,3.21-2.6,5.62-4.78,7.88a35.53,35.53,0,0,1-6.93,5.15,11.09,11.09,0,0,1-6.22,1.44,16.28,16.28,0,0,0-5.33.69,20.78,20.78,0,0,1-6.41.8,45.27,45.27,0,0,0-7.89.58A26.84,26.84,0,0,1,642.94,487.78Z" transform="translate(-399.55 -149.79)"/><path class="cls-1" d="M566.67,379.13c-2.62-.31-5.25-.61-7.87-.93a6,6,0,0,1-1.38-.35,1,1,0,0,1-.74-1.08,1.28,1.28,0,0,1,.83-1.08,5.55,5.55,0,0,1,1.41-.24c3-.27,6-.48,9-.78a17.16,17.16,0,0,0,6.85-2.05c1.77-1,3.68-1.75,5.51-2.64,5.15-2.49,8.34-6.72,10.33-11.94a11.08,11.08,0,0,0,.53-2.82,2.23,2.23,0,0,1,1.84-2,2.09,2.09,0,0,1,2.67,1.68,9.24,9.24,0,0,1-.92,6.31c-2.88,5.17-6.1,10-11.78,12.67-2.49,1.17-4.92,2.51-7.46,3.58A21.85,21.85,0,0,1,566.67,379.13Z" transform="translate(-399.55 -149.79)"/><path class="cls-1" d="M647.24,518.28c-.29.32-.55.79-.74.77a33.32,33.32,0,0,1-4.6-.67,12.61,12.61,0,0,0-10.9,2.09,92.23,92.23,0,0,1-8.64,5.13c-1.42.79-2.59.15-3-1.44a2.07,2.07,0,0,1,1.06-2.45c2.54-1.59,5.11-3.14,7.67-4.71.92-.56,1.85-1.11,2.77-1.68a13.47,13.47,0,0,1,6.1-2,8.25,8.25,0,0,1,5.52,1.15c1.3.86,2.6,1.71,3.86,2.63A5,5,0,0,1,647.24,518.28Z" transform="translate(-399.55 -149.79)"/><path class="cls-1" d="M623.18,420.15c1.88.07,2.88,1.77,2,3.05a13.23,13.23,0,0,0-2.31,4c-.85,2.9-1,5.64.75,8.29a5.34,5.34,0,0,1,1.08,3c0,.92-.95,1.65-1.72,1.23-2.84-1.55-5-3.49-5.34-7.09a14.68,14.68,0,0,1,2.56-10.52A4.41,4.41,0,0,1,623.18,420.15Z" transform="translate(-399.55 -149.79)"/><path class="cls-1" d="M690,360.25c.07.65-.74,1.66-1.26,1.43-2.84-1.21-6.11-1.23-8.66-3.18a4.57,4.57,0,0,1-1-1.05,1.16,1.16,0,0,1,0-1.34c.28-.41.69-.8,1.18-.66a21.69,21.69,0,0,1,3,1.1c1.84.84,3.53,2,5.55,2.44A1.36,1.36,0,0,1,690,360.25Z" transform="translate(-399.55 -149.79)"/><path class="cls-1" d="M517.31,245.72c-.61-.13-1.1-.43-1.09-1.14a.86.86,0,0,1,.91-.88c.73,0,1.48.7,1.31,1.32S517.84,245.7,517.31,245.72Z" transform="translate(-399.55 -149.79)"/><path class="cls-1" d="M444.17,520.1v2.43C443.56,521.6,443.56,521.6,444.17,520.1Z" transform="translate(-399.55 -149.79)"/><path class="cls-1" d="M448.15,262.85c.1,0,.26,0,.27,0a1.25,1.25,0,0,1,0,.33l-.28,0Z" transform="translate(-399.55 -149.79)"/><path class="cls-1" d="M456.84,264.35c-.18-.27-.29-.54.07-.76,0,0,.17.14.16.17-.1.18-.22.35-.32.52Z" transform="translate(-399.55 -149.79)"/><path class="cls-1" d="M454.88,265.86l.11.62-.12-.58Z" transform="translate(-399.55 -149.79)"/><path class="cls-1" d="M399.76,353a1.46,1.46,0,0,1,.31.14,3,3,0,0,1,.35.36c-.1,0-.26.1-.28.07a3.39,3.39,0,0,1-.29-.53Z" transform="translate(-399.55 -149.79)"/><path class="cls-1" d="M399.85,353h-.3l.2,0S399.85,353,399.85,353Z" transform="translate(-399.55 -149.79)"/><path class="cls-1" d="M653.31,617l.22-.35c0,.07,0,.17,0,.19a.81.81,0,0,1-.27.05Z" transform="translate(-399.55 -149.79)"/><path class="cls-1" d="M653.22,616.85l.09.11Z" transform="translate(-399.55 -149.79)"/><path class="cls-1" d="M582.4,196.92a.83.83,0,0,1,.84.51.41.41,0,0,1,0,.34c-.15.25-.44.29-.57,0a3.71,3.71,0,0,1-.19-1Z" transform="translate(-399.55 -149.79)"/><g class="cls-2"><path class="cls-1" d="M770.24,365c-2.31,3.59-4.7,7.12-7.23,10.57-.63.85-1.3,1.69-1.92,2.56,4.89-6.88,2.41-3.11,1.16-1.56s-2.7,3.3-4.09,4.92a200.39,200.39,0,0,1-18.49,18.83c-3,2.63-6.3,6.38-9.82,8.21.74-.38,5.38-4.05,2.16-1.7l-2.59,1.9q-2.59,1.86-5.25,3.65A201.6,201.6,0,0,1,700.63,426L745,451.48c1.16-28.94,1.48-57.59-.85-86.49s-4.64-57.52-7-86.28c-1.4-17.17-3.63-33-11-48.7-5.68-12-14.57-22.9-24.23-32-20.15-18.9-45.79-36.08-72.4-44.1a95.16,95.16,0,0,0-50.69-1.33c-18.34,4.72-32.49,15.47-43.65,30.44l53.92,22.73,2.4-12.58c2-10.58.31-20.81-7.59-28.7-6.94-6.94-19.08-11.17-28.7-7.59-24.28,9.06-51.82,19.77-70.64,38.3-11.41,11.23-17.53,25.34-23.25,40a344.56,344.56,0,0,0-11.23,33.88c-13.71,49.83-17.47,103.23-9.37,154.33,2.33,14.73,8.5,28,16.41,40.53,1.72,2.74,3.46,5.47,5,8.3.71,1.29,1.32,2.63,2,3.91q1.43,3.06-1.21-3c.32.82.62,1.66.9,2.5a107.84,107.84,0,0,1,4.39,20l-1.05-7.85c1.93,14.44,3.4,29,1.54,43.56l1.06-7.84c-2.39,15.95-11,29.87-14,45.61-2.08,10.82-2.6,21.88.91,32.51,4.08,12.35,11.65,21.84,22.14,29.32,13,9.23,31,12.69,46.62,11,18.64-2,35.53-9.79,53.92-12.61l-7.84,1c9.08-1.16,18.22-.67,27.32-1.89,14.83-2,28.25-8.83,36.41-21.87a47.86,47.86,0,0,0,6.63-30.82c-1.13-9.27-3.68-18.17-4.95-27.39l1,7.84a33.77,33.77,0,0,1,0-8.1l-1.06,7.84c.14-.73.36-1.46.47-2.18.63-4.32-2.58,5.75-1.48,3.41.49-1.05,2.54-3.63-.62.58-1.76,2.12-2.13,2.67-1.13,1.64q2.54-2.41-3.75,2.8a10.11,10.11,0,0,0,2-1.14c-.11.45-7.45,2.49-3.85,1.69,2-.44,3.86-.95,5.87-1.25l-7.84,1.06c6-.73,12.09-.65,18.12-1.3,12.1-1.31,22.86-3.91,32.7-11.51,8.61-6.65,14.71-15.29,21-24.09a188.48,188.48,0,0,0,13-20.32C721.5,486.58,726,466.84,726,445.4c0-18-.67-36-1-54-.74-35.86-1.15-71.82-5.09-107.51-2.2-19.86-5.09-39.72-9.73-59.16-2.22-9.27-4.58-19-9.52-27.29-6.74-11.25-18-19.87-31.09-21.9-19.93-3.08-40.77-3.07-60.91-3.9s-40.3,3.56-57,15.5c-30.35,21.71-51.67,53.42-65,87.92-13.21,34.23-13,70.93-13.25,107.05-.25,36.57-1.1,73.2-.68,109.77.42,36.92,8,79.11,42,100.23,21.32,13.24,46.72,9.59,65.08-6.48,10.53-9.21,16.38-22.51,24.29-33.75a17.88,17.88,0,0,1,1.51-2.08c.48,0-4.54,5.34-2.64,3.49,1.11-1.08,2-2.34,3.16-3.43.89-.87,5.92-5,1.69-1.66s1.71-1,2.72-1.59c6.16-3.82,12.72-7,18.84-10.84,15.09-9.58,27.39-22.92,34.46-39.43,13.68-32,13.2-67.14,14.84-101.32q2.73-56.52,5.44-113l1.33-27.77c.57-11.73.18-22.68-5-33.55C670.41,199.41,644,195.33,622.92,197c-39,3.05-73.26,23-94.56,55.92-19.11,29.54-27.08,66.83-32,101.19-5.27,37-7.81,74.79-6.14,112.15.95,21.07,5.9,43.41,22.09,58.28,7.86,7.21,17.65,13.24,28.27,15.17,7.69,1.39,15,1.77,22.7-.17A30,30,0,0,0,580,528.62c3.35-4.33,5.07-9.38,6.84-14.52,23.88-69.55,38.26-142.32,43.72-215.63.54-7.31,1.15-14.61.31-21.91-1.59-13.73-5.7-25-15-35.48-4.62-5.23-14-9-20.86-8.64-8.22.37-14.55,3.39-20.86,8.64-13.16,10.94-23,26-30.25,41.39A504.19,504.19,0,0,0,523,335.63c-12.46,36.95-18.55,75.33-12.12,114.06,3.26,19.58,10.88,39.24,22.38,55.46,6.17,8.69,14.36,14.61,25.47,14.61a29.87,29.87,0,0,0,25.47-14.61l64.49-106.27-53.92-7A189.48,189.48,0,0,1,600.26,418l-1.06-7.84c1.24,9.88,2,19.9.77,29.81L601,432.1c-.41,2.71-1.08,5.31-1.73,8-.78,2.22-.66,2.06.38-.48s1.19-2.69.2-.55c-.68,1.13-1.38,2.29-2,3.45-1.63,3,4.8-5.4,1.56-2-.82.87-1.62,1.73-2.49,2.55-3.77,3.53,1-1.37,2.13-1.43-.61,0-3,2-3.58,2.38-1.61,1-4.56,3.25-6.46,3.39,1.33-.1,7-2.79,2.25-1-1.16.44-2.34.86-3.52,1.26-5.19,1.76-10.5,3.13-15.81,4.45-15,3.71-25.42,21.4-20.61,36.29,5,15.53,20.24,24.58,36.29,20.6,25.13-6.22,52.89-17,64.2-42.42,12.56-28.19,8.06-61.55-.14-90.45a29.68,29.68,0,0,0-53.92-7L533.29,475.37h50.94a108.85,108.85,0,0,1-7.35-11.86c-1-1.94-1.9-3.94-2.89-5.89-1.66-3.27,2.31,6,1,2.53-.47-1.28-1-2.54-1.46-3.83a132.67,132.67,0,0,1-6.49-27.23l1,7.84a169.16,169.16,0,0,1,.31-42.3l-1.05,7.85c3.48-25.48,11.58-49.93,20.77-73.86q1.55-4,3.13-8l1.48-3.69c2.14-5.4-2.22,5.07-.81,1.89,2.27-5.1,4.57-10.18,7.24-15.09,2.52-4.63,5.83-8.75,8.43-13.29-3.78,6.61-2.48,3.17-.69,1.1q1.29-1.47,2.64-2.88a76.38,76.38,0,0,1,6.35-5.85H574.21c-.49-.55-3.81-5.82-1.94-2.47,2.35,4.2-1.75-5.82-.83-2.43a60.09,60.09,0,0,1,1.52,6.5l-1.05-7.84c1.3,11-.27,22.32-1.24,33.27q-1.62,18.44-4.08,36.8l1-7.84a839.84,839.84,0,0,1-39.21,164.12L549,482.3a20.52,20.52,0,0,1-2.81.55l7.84-1.05a29.21,29.21,0,0,1-5.61-.06l7.84,1.05c-1.17-.2-4.67-.44-5.46-1.42l4.43,1.81c-.86-.44-1.7-.91-2.52-1.43-1.84-1.26-1.63-1.06.6.6s2.42,1.9.72.45c-.78-.84-5.08-5.8-1.67-1.38s-.29-.93-.89-1.91c-2.81-4.57,1.85,6.32.29.8a91.65,91.65,0,0,1-2.7-11.6l1,7.84c-2.33-18.05-1.35-36.88-.76-55a567.41,567.41,0,0,1,4.56-56.77l-1.05,7.84a401,401,0,0,1,9.51-48.32c1.91-7.18,4-14.32,6.6-21.3.59-1.6,1.22-3.18,1.82-4.77,2.2-5.81-3,6.4-.32.8,1.58-3.31,3.13-6.61,4.91-9.82s3.68-6.3,5.76-9.3c1.29-1.85,5.06-5.47-.59.57,1.15-1.22,2.16-2.61,3.28-3.87A84.06,84.06,0,0,1,591,269.5c.58-.52,1.17-1,1.77-1.52q3.53-2.85-2.32,1.74c1.33-.75,2.53-1.84,3.8-2.68a90.62,90.62,0,0,1,8-4.76c1.6-.85,3.25-1.59,4.88-2.39q3.14-1.41-3.48,1.44c1-.38,1.92-.76,2.9-1.11a95.33,95.33,0,0,1,19.55-4.81l-7.84,1.06a91.91,91.91,0,0,1,23.2,0l-7.84-1c1.44.22,2.82.51,4.25.81,4.3.89-3.62-1.88-4.92-2.93a9.27,9.27,0,0,1-3.25-3.42c-1.62-2.34-1.87-2.6-.75-.75l-2-4.5a21.35,21.35,0,0,1,.59,2.75l-1.06-7.84c1,8.36-.2,17.14-.6,25.51l-1.38,28.76-2.67,55.53-2.67,55.54c-.78,16.11-1.12,32.33-3.25,48.34l1-7.85a135,135,0,0,1-4.22,20.1c-.56,1.83-1.24,3.62-1.83,5.43-1.72,5.23,3.22-6.7.81-1.8a84.48,84.48,0,0,1-4.7,8.62c-.5.78-1,1.55-1.57,2.31q-2.65,3.6,2-2.64c-1,.9-1.87,2.15-2.83,3.14s-2.8,3.43-4.19,3.89l3.54-2.7c-.83.61-1.67,1.2-2.52,1.78-6,4.07-12.58,7.21-18.81,10.9-7.63,4.53-15.27,9.88-21.09,16.63a151.26,151.26,0,0,0-14.13,19.78c-1.58,2.59-3.14,5.18-4.8,7.72-.69,1.06-1.42,2.09-2.13,3.14-2.7,4,5.44-6.36.83-1.15-.79.88-1.6,1.74-2.47,2.55-4.51,4.24,3.77-2.23,1.91-1.39-.47.31-1,.61-1.46.89q-3.9,2,3.92-1.53c-1.56.34-3,.91-4.63,1.18l7.85-1a28.1,28.1,0,0,1-6.15,0l7.84,1c-1.26-.22-2.47-.61-3.72-.84-3.22-.61,6.13,3.49,2,.9-1.1-.7-2.25-1.39-3.37-2.05-2.89-1.71,5,4.71,1.6,1.14-.91-1-1.92-1.85-2.82-2.84-2.11-2.31-1.23-3.68,1.12,1.67-1-2.25-3-4.38-4.17-6.57-.5-.9-1-1.81-1.44-2.74-1.13-2.28-1.93-6.52.48,1.4-.68-2.22-1.6-4.37-2.26-6.6a110.88,110.88,0,0,1-3.39-16.13l1.05,7.84c-1.85-14.18-1.68-28.46-1.58-42.73l.36-51.79.36-51.79c.11-16.56.15-33.13,2.23-49.57l-1.05,7.84a172.72,172.72,0,0,1,9.3-37.14c.48-1.29,1-2.56,1.49-3.84,1.08-2.83-3.09,7-.4,1,1.24-2.75,2.54-5.48,3.92-8.16a172,172,0,0,1,9.55-16.34c1.66-2.52,3.42-5,5.19-7.42,3.56-4.92-4.48,5.43-.59.76.87-1,1.73-2.13,2.61-3.17a154.13,154.13,0,0,1,13-13.75q1.83-1.69,3.73-3.3c.86-.73,4.85-3.89.9-.8s.83-.45,1.73-1c1.15-.75,2.31-1.48,3.5-2.16,1.42-.82,2.88-1.54,4.34-2.29,5.15-2.63-6.61,2-1,.51A86.64,86.64,0,0,1,600.9,230L593.06,231c11.29-1.27,22.78,0,34.07.55,11.5.6,23.12.75,34.58,1.91l-7.84-1.06c1.31.19,2.59.57,3.89.76q3.3,1-3.4-1.49l-3.64-2.94q2.29,2.37-.39-.89-2.49-3.44-.64-.65c.43.85.86,1.79,1.35,2.6-3.83-6.27-1.82-4.42-.91-1.45.29.94.55,1.89.81,2.85.91,3.35,1.74,6.73,2.54,10.11,3,12.6,5.2,25.35,7,38.17l-1.05-7.84c4.19,31.42,5.35,63.12,6.07,94.78q.54,24.13,1,48.28c.32,15.71,1.57,31.74-.38,47.38l1.06-7.84a81.64,81.64,0,0,1-2.43,11.27c-.57,1.91-1.27,3.76-1.92,5.64-1.79,5.2,2.92-6.09.3-.78A159.34,159.34,0,0,1,652.35,489c-2.08,3.11-4.25,6.16-6.44,9.18a43.62,43.62,0,0,1-3,4.1l2.61-3.34c-.69.87-1.4,1.71-2.13,2.54-1.07,1.18-2.47,2.23-3.49,3.44q5.83-4.28,2-1.82l-1.1.56c5.18-2.05,6.37-2.6,3.57-1.62l-1.21.35a44.58,44.58,0,0,1-5,1l7.84-1.05c-9.3,1.16-18.58,1.09-27.86,2.6a47.85,47.85,0,0,0-31.84,20.74c-5.94,8.75-8.39,20.3-7.24,30.77,1,9.31,3.53,18.18,5,27.39l-1.06-7.84a36.25,36.25,0,0,1,.26,8.13l1.05-7.85c-.14,1-1.23,3.47-1,4.31-.1-.39,3.49-7,1.47-4l3.11-4c-1.52,1.49-1.14,1.29,1.12-.58,4.16-3.12,1.47-1,.41-.53-2.72,1.24,6.6-1.85,3.57-1.48-1.9.24-3.85,1-5.78,1.29l7.84-1.06c-5.08.62-10.18.56-15.29.72a120.46,120.46,0,0,0-23.91,3.24c-12.36,2.93-24.17,8-36.78,9.86l7.85-1.06a61.56,61.56,0,0,1-14.92.1l7.84,1a71.6,71.6,0,0,1-8.47-1.92c-6-1.62,5.85,3.31,1.66.69a38,38,0,0,0-3.27-2q6.09,4.93,3.49,2.66a18.78,18.78,0,0,1-1.38-1.3c-3.7-3.17,3.66,6.09,1.44,2a22.18,22.18,0,0,1-1.3-2.27l1.7,4.11c-1.07-1.1-1.19-4.56-1.4-6l1,7.84a41.58,41.58,0,0,1,.24-9.26l-1.06,7.85c2.32-14,9.73-26.34,13-40,4.06-17.3,3.69-34.81,1.62-52.31-2.27-19.15-5.28-37-15.21-53.93-1.94-3.3-4-6.49-6.06-9.74-1.8-2.92-3.14-6.49-5.17-9.22,1.64,4.08,2,5.07,1.23,3-.33-.83-.63-1.67-.91-2.51-.57-1.7-1.06-3.42-1.5-5.15a112.05,112.05,0,0,1-2.27-12.34l1,7.84a346.77,346.77,0,0,1,.54-89.37l-1.05,7.85a358.33,358.33,0,0,1,8.62-43.07C510,273.5,514.08,259,520.2,245.92l-1.59,3.81c.47-1.07,1-2.13,1.48-3.18.77-1.57,1.57-3.13,2.45-4.65.78-1.36,1.62-3.42,2.81-4.41l-2.5,3.19q1.08-1.32,2.25-2.55c1.17-1.23,2.46-2.32,3.68-3.5,3.88-3.75-5.5,3.58-.6.44,2.89-1.85,5.71-3.73,8.7-5.43,6-3.38,12.14-6.45,18.37-9.35q2.47-1.15,5-2.26c.92-.41,7-3,2.33-1s1.45-.55,2.39-.92c2-.78,4-1.53,5.95-2.27l-36.28-36.29-2.4,12.57c-2.78,14.59,2.87,28.81,17.08,34.81,5.86,2.47,13,3.5,19.21,1.48,7.76-2.51,12.78-7.06,17.63-13.55-5.87,7.87.23.66,2.22-1.37-5.29,5.39-3.85,2.83-1.36,1.26,1.21-.77,2.46-1.48,3.74-2.13L592,210c2.75-1.25,1.74-.82-3.06,1.29a39.42,39.42,0,0,0,4.15-1.36,62.82,62.82,0,0,1,8.61-1.74l-7.85,1.05a67.05,67.05,0,0,1,16.08.11l-7.84-1.06a86.18,86.18,0,0,1,16.6,4.22c1.06.39,5.91,2.37,1.27.42-4.8-2,.55.33,1.19.64,2.6,1.24,5.16,2.59,7.67,4,4.8,2.69,9.44,5.63,14,8.7,2.24,1.52,4.47,3.06,6.66,4.64,1.08.77,2.14,1.56,3.21,2.34,4,3-4.33-3.48-1.56-1.21,3.9,3.2,7.74,6.42,11.33,10,1.86,1.84,3.67,3.75,5.39,5.72.77.89,3.78,4.7.67.64s0,.08.48.75a74.2,74.2,0,0,1,4.09,6.57c.5.91.94,1.84,1.43,2.75,2.71,5.06-2.38-6.8-.51-1.35a89.91,89.91,0,0,1,4,17l-1-7.84c3.8,30.64,5.21,61.74,7.7,92.51,2.51,31.05,2.6,61.68,1.36,92.79-.42,10.27,5.91,20.39,14.61,25.48,9.6,5.62,20.13,4.75,29.78,0,37.13-18.31,68.44-47.42,90.78-82.14,8.36-13,3.09-33.13-10.59-40.36-14.64-7.74-31.43-3.29-40.36,10.58Z" transform="translate(-399.55 -149.79)"/></g><g class="cls-2"><path class="cls-1" d="M536.9,373.29c9.55,4.09,19,7.49,29.44,5,9-2.15,16.56-8.08,24.71-12.22,10.33-5.24,1.23-20.78-9.09-15.54-5.86,3-11.28,7.23-17.45,9.51-6.51,2.42-12.4.33-18.52-2.29-4.47-1.91-9.65-1.33-12.32,3.23-2.21,3.79-1.26,10.39,3.23,12.31Z" transform="translate(-399.55 -149.79)"/></g><g class="cls-2"><path class="cls-1" d="M675.25,358.5c13.31,3.87,27.6,2.35,36.86-8.93,3.08-3.76,3.67-9.06,0-12.73-3.18-3.18-9.63-3.78-12.73,0-5.39,6.56-11.55,6.57-19.34,4.31-11.15-3.25-15.9,14.12-4.79,17.35Z" transform="translate(-399.55 -149.79)"/></g><g class="cls-2"><path class="cls-1" d="M666.33,298.09c-8.27,9-10.57,20.48-10.91,32.33-.16,5.68-.49,12,1.43,17.43,1.15,3.28,3.77,5.22,5.11,8.14.95,2.09.45,5.83.6,8a187.58,187.58,0,0,0,2,20.36c1.17,6.65,3.86,12.7,6.61,18.82,2.36,5.24,4.28,10.51,4.27,16.33a29.78,29.78,0,0,1-1.05,7.86,30.38,30.38,0,0,1-1.26,3.85c-.27.65-2.62,3.89-.56,2.45l4.54-1.23h-1c-11.58-.12-11.59,17.88,0,18,13.72.16,17.65-22.15,17.25-32.51-.55-14.24-9.53-25.45-11.65-39.22-1-6.67-1.1-13.53-1.57-20.25-.24-3.47-.48-7-2-10.14-1.16-2.38-3.58-4.25-4.41-6.69-1.63-4.77-.52-12.32,0-17.26s1.86-9.86,5.28-13.56c7.85-8.49-4.85-21.25-12.73-12.73Z" transform="translate(-399.55 -149.79)"/></g><g class="cls-2"><path class="cls-1" d="M488.9,370.9c1.16,9.63,5.92,16.64,12.45,23.59s13.5,14,20.25,21.06c13.36,13.89,26.28,28.6,41,41,14.09,11.85,30.29,19,48,23.57,9.11,2.33,19,5,28.45,2.8,8.65-2,16-8.34,18.22-17.08,2.83-11.23-14.53-16-17.35-4.78-1.47,5.84-9.5,4.91-14,4.11a156.88,156.88,0,0,1-20.58-5.29c-14.26-4.57-26-12-36.93-22.2C556.82,426.84,546.05,415,535,403.53L517.9,385.74c-3.72-3.87-10.3-9.06-11-14.84-.58-4.82-3.72-9-9-9-4.41,0-9.58,4.14-9,9Z" transform="translate(-399.55 -149.79)"/></g><g class="cls-2"><path class="cls-1" d="M661.91,468.4c27.61,19.56,58.81-7,80-23.54q18.23-14.28,35.44-29.79c9.91-8.95,19.9-21.91,33.39-25.25,11.24-2.79,6.48-20.15-4.78-17.36-13.5,3.34-23.3,13.18-33.15,22.37Q756.51,410,739.27,424c-11.1,9-22.4,18.41-34.64,25.87-10.24,6.24-22.94,10.52-33.63,2.95-4-2.81-10-.71-12.32,3.23-2.64,4.51-.75,9.49,3.23,12.31Z" transform="translate(-399.55 -149.79)"/></g><g class="cls-2"><path class="cls-1" d="M526.28,526.49a35,35,0,0,1,1.21-14.68l-15,4c4.83,6.25,12,9.26,19.09,12.19,8.43,3.48,16.88,6.91,25.44,10a245.77,245.77,0,0,0,25.15,7.87c4.34,1.07,17,1.53,18.5,6.94C603.64,564,621,559.26,618,548c-2.38-8.83-9.69-14.12-18.16-16.58-9.06-2.62-18.35-4.17-27.37-7.09s-17.77-6.32-26.52-9.84c-7.14-2.89-15.85-5.14-20.75-11.47-4.37-5.66-13.28-1.84-15,4a48,48,0,0,0-1.85,19.46c.56,4.83,3.74,9,9,9,4.43,0,9.56-4.14,9-9Z" transform="translate(-399.55 -149.79)"/></g><g class="cls-2"><path class="cls-1" d="M565.55,230.39a68.47,68.47,0,0,1-23.67-3c-7.06-2.2-14.1-7.08-21.81-5.11-9,2.3-11.46,10.61-10.42,18.84.62,4.91-.62,6.41-4.32,10.32-4,4.22-8.06,8.39-10.32,13.82-2.86,6.87-2.33,15.55,4,20.35,1.61,1.22,3.53,1.58,5.17,2.63,1.85,1.19,0-.6.35,0,1.07,2-.61,4.67-1.65,6.38-4,6.63-8.66,12.54-11.81,19.7a90.79,90.79,0,0,0-6.39,51.95c.79,4.8,6.74,7.48,11.08,6.29,5.09-1.4,7.07-6.26,6.28-11.07A70.31,70.31,0,0,1,512,313.26c4.73-7.55,10.81-14.26,10.82-23.72a20.5,20.5,0,0,0-3.45-11.42,17.46,17.46,0,0,0-5-4.85,14.34,14.34,0,0,0-3.19-1.51q-2.54-1.44-.73.45c2.44,1.1-.64,1.6,1.06,0,.3-.3,1.17-2.1,1.69-2.78,1.65-2.18,3.79-4.06,5.65-6.07,4.89-5.27,9.14-11.36,9.13-18.86,0-1.47.12-5.69-.79-6.68a.85.85,0,0,0-.1-.68q-6.5,2.49-2.3,3a107.78,107.78,0,0,0,12.28,4.69,84.11,84.11,0,0,0,28.46,3.61c11.55-.47,11.61-18.48,0-18Z" transform="translate(-399.55 -149.79)"/></g><g class="cls-2"><path class="cls-1" d="M657.66,250.9c9.43-.87,20.46-2.37,28.94,2.86C693.53,258,699.23,268,699,276.13l11.4-8.68-1.18-.44,5.38,4.13-.74-1c-2.85-3.92-7.83-5.85-12.32-3.22-3.88,2.27-6.09,8.35-3.23,12.31a14,14,0,0,0,7.3,5.6c5.69,2.12,11.24-3.3,11.39-8.68.39-13.64-8.09-28.24-18.87-36.22-11.7-8.67-26.66-8.28-40.47-7-4.84.44-9,3.81-9,9,0,4.52,4.14,9.44,9,9Z" transform="translate(-399.55 -149.79)"/></g><g class="cls-2"><path class="cls-1" d="M560.74,293.32c-9.89-.63-19,3-27.7,7.38-8.25,4.13-15.11,8.52-18.73,17.34-1.84,4.5,2,9.9,6.29,11.07,5.16,1.42,9.22-1.77,11.07-6.28,1.4-3.41,9.05-5.92,12-7.37,5.46-2.66,10.91-4.53,17-4.14,11.57.73,11.53-17.28,0-18Z" transform="translate(-399.55 -149.79)"/></g><g class="cls-2"><path class="cls-1" d="M693.58,307.74c1,.1.94.08-.29-.06.46.09.92.19,1.38.31a6.83,6.83,0,0,1,2,.65c-1.71-1.18,0,.06.41.28s2.82,2,1.08.6c3.66,2.94,9.2,3.84,12.73,0,3-3.28,3.92-9.58,0-12.73a30.8,30.8,0,0,0-17.33-7.05c-4.71-.41-9.21,4.43-9,9,.23,5.23,4,8.56,9,9Z" transform="translate(-399.55 -149.79)"/></g><g class="cls-2"><path class="cls-1" d="M499.57,542.41A71.43,71.43,0,0,1,496.1,559c-.79,2.36-2.46,9.36-5.25,10.15a9.09,9.09,0,0,0-4,15A114,114,0,0,0,567,618.36c11.58.13,11.59-17.87,0-18a95.63,95.63,0,0,1-67.4-28.94l-4,15c8.67-2.46,12.7-9.72,15.88-17.55a90,90,0,0,0,6.05-26.5c.42-4.84-4.43-9-9-9-5.21,0-8.58,4.14-9,9Z" transform="translate(-399.55 -149.79)"/></g><g class="cls-2"><path class="cls-1" d="M602.21,580.81c1,5.19,2.76,12.21-.47,17-1.2,1.77-2.8,2.33-4.68,3.14a25.23,25.23,0,0,0-8.46,5.28c-8.25,8.16,4.48,20.88,12.73,12.73,2.3-2.28,6.24-2.74,8.95-4.61a24.33,24.33,0,0,0,8.3-10c4.15-9.11,2.78-18.76,1-28.27-.9-4.78-6.66-7.5-11.07-6.29-5,1.38-7.19,6.28-6.28,11.07Z" transform="translate(-399.55 -149.79)"/></g><g class="cls-2"><path class="cls-1" d="M483.49,451.71c-1.53,10.1,2,18.18,7.35,26.56,5.17,8.14,9,15.91,8.42,25.82-.65,11.57,17.36,11.53,18,0a52.88,52.88,0,0,0-6.7-28.09c-2-3.74-4.55-7.17-6.67-10.85-1.4-2.41-3.49-5.72-3-8.65.72-4.8-1.21-9.68-6.29-11.08-4.25-1.16-10.34,1.46-11.07,6.29Z" transform="translate(-399.55 -149.79)"/></g><g class="cls-2"><path class="cls-1" d="M448.56,417.84a40,40,0,0,1,16.38,28.8c.4,4.84,3.84,9,9,9,4.55,0,9.4-4.13,9-9a59.62,59.62,0,0,0-25.3-44.35c-4-2.81-10-.7-12.31,3.23-2.64,4.52-.75,9.49,3.23,12.32Z" transform="translate(-399.55 -149.79)"/></g><g class="cls-2"><path class="cls-1" d="M585.39,223.39a38.75,38.75,0,0,0,17.48,2.47,45.37,45.37,0,0,0,8.24-1.56,21.69,21.69,0,0,0,3-.91c2.77-1.29-.32,3.34-3-2.28,1.68,3.55,6.58,5.12,10.17,4.13,4.09-1.12,6.17-4.69,6.6-8.67l.64-5.87-6.61,8.68c1.81-.34,3,.29,4.5,1.13,3,1.72,5.5,3.06,9.14,2.72,6.89-.65,11.3-7.38,15.61-12.08l-10.9,1.41c-1.87-2.83-2.5-3.53-1.88-2.08.34.88.7,1.74,1.08,2.6a13.17,13.17,0,0,0,2.4,3.24,10.55,10.55,0,0,0,9.26,2.69,11.07,11.07,0,0,0,7.82-5.74,13,13,0,0,0,1.52-5.58c0-1.13-.6-2.88-.43-3.69,2.37-11.3-15-16.13-17.36-4.79a18.14,18.14,0,0,0-.56,4.86c.07.68.15,1.37.25,2.05q.23,2.91.52-1.06l3.23-3.23-.73.57,4.54-1.23.7.11,4,2.32q1.56,3,.61.71a27.42,27.42,0,0,0-1.32-3,11.87,11.87,0,0,0-4.54-4.3c-3.41-1.82-8.15-1.59-10.91,1.41-1.38,1.51-5.27,7-6.47,7.28h4.79c-2.69-.61-5.29-3-8.18-3.7a26,26,0,0,0-11.44,0c-4.17.8-6.2,4.92-6.61,8.67l-.64,5.87L626.65,212c-3.15-6.68-10.93-7.53-17.35-6-7.14,1.72-12,2.74-19.12,0-4.54-1.74-9.88,1.93-11.07,6.29-1.4,5.07,1.73,9.32,6.28,11.07Z" transform="translate(-399.55 -149.79)"/></g></svg>