<svg xmlns="http://www.w3.org/2000/svg" viewBox="0 0 341.73 222.5"><defs><style>.cls-1{fill:#fff;stroke:#475c7a;stroke-miterlimit:10;}</style></defs><title>saas icons-1</title><g id="Layer_2" data-name="Layer 2"><polygon class="cls-1" points="231 222 17 222 29.08 175 218.92 175 231 222"/><rect class="cls-1" x="0.5" y="0.5" width="248" height="148"/><rect class="cls-1" x="14.5" y="9.5" width="220" height="130"/><rect class="cls-1" x="150.94" y="208.12" width="82.87" height="49.46" transform="translate(-201.82 349.8) rotate(-89.9)"/><rect class="cls-1" x="156.39" y="213.35" width="73.23" height="39" transform="translate(-201.2 350.42) rotate(-89.9)"/><rect class="cls-1" x="174.5" y="106" width="166.73" height="99.5"/><rect class="cls-1" x="183.91" y="112.05" width="147.91" height="87.4"/><rect class="cls-1" x="110.5" y="153.5" width="26" height="16"/><path class="cls-1" d="M283.89,113.87l-30.22,71.26,29.93-5.62a4,4,0,0,1,1.5,0l32.23,5.63Z" transform="translate(-161 -75)"/><path class="cls-1" d="M284.46,128.51l-21,49.36c10.83-3,32.51-8.54,21-14.3-15,6.92,23.06,14.3,23.06,14.3Z" transform="translate(-161 -75)"/><path class="cls-1" d="M192.46,220.92l-10.11,23.85,10-1.88a1.4,1.4,0,0,1,.5,0l10.79,1.88Z" transform="translate(-161 -75)"/><path class="cls-1" d="M192.65,225.82l-7,16.52c3.63-1,10.88-2.85,7-4.78-5,2.31,7.72,4.78,7.72,4.78Z" transform="translate(-161 -75)"/><path class="cls-1" d="M417.67,204.27l-22.46,53,22.24-4.18a3.19,3.19,0,0,1,1.11,0l24,4.19Z" transform="translate(-161 -75)"/><path class="cls-1" d="M418.09,215.15,402.5,251.83c8.05-2.23,24.16-6.34,15.59-10.62-11.14,5.14,17.14,10.62,17.14,10.62Z" transform="translate(-161 -75)"/></g></svg>