<svg id="Layer_1" data-name="Layer 1" xmlns="http://www.w3.org/2000/svg" viewBox="0 0 1224 792"><defs><style>.cls-1{fill:#595959;}.cls-2{opacity:0.2;}.cls-3{opacity:0.15;}</style></defs><title>Earheart</title><path class="cls-1" d="M501.92,430.58c-.46.25-.59.27-.64.35-.52.79-1,1.64-2.14,1.62a3.85,3.85,0,0,1-3-1.48,28.33,28.33,0,0,1-4.26-8c-.66-1.78-1.68-3.36-2.42-5.08a.65.65,0,0,0-1.22-.11c-.16.26-.25.57-.4.85a3.2,3.2,0,0,1-2.8,1.72,2.72,2.72,0,0,1-2.33-1.31c-.88-1-1.9-1.95-2.85-2.92a13,13,0,0,1-3.31-5.64c-.94-3.43-2.14-6.79-2.41-10.38-.11-1.46-.38-2.91-.55-4.36a25,25,0,0,1,.15-8.45c.27-1.18-.1-1.45-1.36-1.08a4.66,4.66,0,0,0-.89.3c-2.57,1.4-5.26,1.08-8,.61a9.27,9.27,0,0,1-5-3,2.64,2.64,0,0,1-.66-1.71,9.66,9.66,0,0,1,1.93-7.1c1.71-2.1,3.37-4.25,5.19-6.28,3.89-4.34,7.51-8.89,9.19-14.74,1.5-5.21,3.52-10.27,4.4-15.65.48-2.89.63-5.82,1.38-8.67,1.51-5.75,1.37-11.62,1.19-17.48-.07-2.2-.4-4.38-.28-6.59a16.79,16.79,0,0,0-.36-2.79,2.4,2.4,0,0,0-.85-1.63c-2.77-2.24-3.42-5.34-3.5-8.68-.06-2.4,0-4.8,0-7.2a22.18,22.18,0,0,1,8.11-17.32,5,5,0,0,0,1.93-3.38,62.49,62.49,0,0,1,5.32-17.68c1.21-2.67,2.24-5.4,3.37-8.1,1.37-3.3,3.25-6.32,4.92-9.46,2.62-4.89,6.06-9.29,8.43-14.33a26.73,26.73,0,0,1,3.11-4.31c2.08-2.76,4-5.63,5.81-8.57a44.73,44.73,0,0,1,3.46-4.46,39.64,39.64,0,0,1,7.61-7.42c4.24-3.05,8.3-6.36,12.46-9.53,2.25-1.71,4.52-3.4,6.85-5a28,28,0,0,1,9.3-4.42c3.47-.82,6.7-2.4,10.2-3.1a75.38,75.38,0,0,1,11.47-1.79,36.15,36.15,0,0,0,6.22-.81,25.51,25.51,0,0,1,9.66-.3c3.4.58,6.86.78,10.29,1.19,6.44.77,12.94,1.28,19.31,2.44s12.85,1.82,19.14,3.41c4.27,1.08,8.55,2.11,12.78,3.31,1.69.48,3.25,1.4,4.89,2a16.29,16.29,0,0,1,5.68,3.16c3.32,1.27,6.11,3.6,9.54,4.66a11.61,11.61,0,0,1,2.8,1.39c4.74,3.08,9.48,6.18,13.93,9.67a6.85,6.85,0,0,1,1,.81c3.64,4.31,7.77,8.22,10.72,13.11a40.16,40.16,0,0,1,3.53,6.95A61.49,61.49,0,0,0,711.9,226c1.61,3,2.8,6.09,4.31,9.08a66.06,66.06,0,0,1,4.95,14.2c.78,3.14,1.73,6.24,2.25,9.46a40.72,40.72,0,0,0,1.33,5.16,11,11,0,0,1,.67,4.94,2.55,2.55,0,0,0,1.53,2.82,38.88,38.88,0,0,1,3.38,2.25,9.19,9.19,0,0,1,3.65,5.66,48.69,48.69,0,0,1,1.52,6.72,19.53,19.53,0,0,1-2.59,12.38,7.09,7.09,0,0,1-4.49,3.2c-1.74.5-1.88.71-1.83,2.39.12,4.61-.28,9.21.08,13.81.24,2.92.15,5.86.2,8.79a4.93,4.93,0,0,0,0,.94c1,4.73.74,9.59,1.31,14.37a32.85,32.85,0,0,0,1.11,5.21c.79,2.82,1.78,5.59,2.43,8.44a47.63,47.63,0,0,0,2.95,7.92c1.8,4.22,3.31,8.57,5.47,12.65a35.17,35.17,0,0,0,3.63,5.48,48.93,48.93,0,0,0,5.44,6.08,16.1,16.1,0,0,1,4.51,8.13,3.35,3.35,0,0,1,.09,1.54c-.25,1.23-.58,2.44-.94,3.64a2.3,2.3,0,0,1-.64,1.06c-4.08,3.39-8.65,4.5-13.75,2.8-4.07-1.36-8.13-2.75-11.6-5.43-.77-.59-1.38-.33-1.53.65a78.3,78.3,0,0,1-3.53,13,41.77,41.77,0,0,1-5.6,11.53,44.39,44.39,0,0,1-8.19,8.64,4.08,4.08,0,0,0-1.77,2.12,2.5,2.5,0,0,1-2.55,2,2.87,2.87,0,0,0-2.77,2.09,44.11,44.11,0,0,1-3.88,6.81,35.75,35.75,0,0,1-6.08,6.73,14.94,14.94,0,0,1-2.13,1.33c-1.49.9-4.43.18-4.91-1.88-.14-.58-.09-1.3-1-1.71-.8,1.13-1.64,2.28-2.45,3.45-2.12,3.1-4.17,6.26-6.38,9.31-1.34,1.86-2.9,3.58-4.39,5.33a161.93,161.93,0,0,1-14.46,15.28,48.55,48.55,0,0,1-5.67,4.46c-1.57,1-3.12,2.11-4.62,3.26-2.16,1.66-3.76,3.59-3.4,6.57a3.56,3.56,0,0,1-.26,1.21c-.8,2.93-1.66,5.84-2.41,8.78A56.13,56.13,0,0,0,637.39,523c0,2.1-.06,4.19-.14,6.29,0,.87.28,1.43,1.15,1.59a5.91,5.91,0,0,1,3.56,2.39,3.86,3.86,0,0,0,.67.67c4,3.08,6,7.5,7.54,12.06a30,30,0,0,1,1.4,9.6,15.12,15.12,0,0,0,1.09,5.14c1.52,4.22,1.91,8.6-.12,12.85a19.8,19.8,0,0,1-5.35,7.28,3.19,3.19,0,0,0-.68.64c-2.75,4-7.12,5.26-11.42,6.62a6.21,6.21,0,0,1-3.09.28,13.12,13.12,0,0,0-4.37.17,3.82,3.82,0,0,0-2.18,1.11c-1.18,1.16-1.09,1.28.21,2.6,2.87,2.94,5.3,6.13,6.43,10.24A84.56,84.56,0,0,1,634.67,616a4.58,4.58,0,0,1-1.73,4.45c-1.53,1.18-3,.81-3.69-1a15.55,15.55,0,0,0-5.53-7.07c-2.11-1.54-4.27-3-6.49-4.42-3-1.85-5.69-3.91-7.49-7-.31-.53-.88-.5-1.3,0a10.49,10.49,0,0,0-1.14,1.51,42.68,42.68,0,0,1-6.68,8.29,11.28,11.28,0,0,0-2.7,4.19,12.88,12.88,0,0,0,0,7.43,21.3,21.3,0,0,1,.64,4,2.14,2.14,0,0,1-.63,1.71,1.37,1.37,0,0,1-2,.13c-.16-.14-.37-.26-.45-.43-1.49-3.12-4-5.61-5.28-8.89a14.83,14.83,0,0,1-.73-8.63,53.64,53.64,0,0,1,5.08-13.13c.62-1.21,1.4-2.34,1.93-3.59a8,8,0,0,1,2.41-3.23,1.92,1.92,0,0,0,.71-2.21c-.25-1-.58-1.32-1.5-1.19a29.46,29.46,0,0,1-3.75.3,17,17,0,0,1-7.84-2c-2.07-1-4.08-2.13-6.14-3.16-3.29-1.64-6.85-2.59-10.26-3.94-.29-.12-.61-.16-.91-.26a1.14,1.14,0,0,1-.84-1.17c0-.59.57-1,1.37-1a28.15,28.15,0,0,1,6.46,1.13c4.38,1.43,8.63,3.17,12.95,4.75a10.38,10.38,0,0,0,8,.12,2.65,2.65,0,0,1,1.2-.31c1.69.16,2.47-.77,2.93-2.21.25-.8.61-1.56.86-2.36a1,1,0,0,0-.84-1.42c-5-1.47-10-3-15.07-4.38a114.25,114.25,0,0,1-15.64-5.61c-4.5-2-9.12-3.71-13.6-5.76a126.48,126.48,0,0,1-20.85-11.52,46.15,46.15,0,0,1-6.08-5.44c-1.17-1.19-2.33-2.4-3.51-3.59-.6-.6-1.13-.45-1.26.44-.31,2.07-.52,4.15-.77,6.23-.3,2.49-.59,5-.9,7.48a13.7,13.7,0,0,1-3.26,7.36,7.05,7.05,0,0,0-.78,1,3.14,3.14,0,0,0,.53,3.75,8.48,8.48,0,0,0,4.09,2.22c2.13.55,4.28,1,6.42,1.5.65.15,1.21.4,1.18,1.2a1.43,1.43,0,0,1-1.42,1.39,26,26,0,0,1-9-.73c-1.67-.43-3.13-1.63-4.7-2.49a.73.73,0,0,0-1.17.5,1.67,1.67,0,0,0-.08.3c.12,3.12.86,6.07,3.29,8.21a32,32,0,0,0,17.23,7.71c2.37.33,4.82.29,7.07,1.32,2.91,0,5.78.81,8.73-.09a48.34,48.34,0,0,1,6.48-1.19,23.28,23.28,0,0,1,6.87.29c2.07.29,4.16.45,6.22.75a41.92,41.92,0,0,1,9.71,2.51,7,7,0,0,0,2.09.61c3.76.28,7.48,1.08,11.27.71,1.19-.12,1.6.84,1.51,1.88a1.36,1.36,0,0,1-1,1.09,17.23,17.23,0,0,1-9.26,1.18,31.51,31.51,0,0,1-7.91-1.81,13.52,13.52,0,0,0-4.26-1c-3.12-.29-6.21-.85-9.36-.83a2.3,2.3,0,0,1-1.77-.51c-1-1-2-.85-3.2-.49-.7.22-1.43.33-2.12.56a31.62,31.62,0,0,1-15.54.88c-3-.49-6-1.14-9-1.71a39.58,39.58,0,0,1-10.88-4c-2.76-1.44-5.6-3-7.69-5.31a18.21,18.21,0,0,1-3.87-8.1,8.26,8.26,0,0,1,1-5.77c.6-1.1,1.16-2.23,1.72-3.35a7.72,7.72,0,0,1,2.3-2.93,7.56,7.56,0,0,0,2.34-3.28,26.86,26.86,0,0,0,1.92-8.83A75.14,75.14,0,0,1,521,535.06c.6-2.59,3.88-6.39,7.94-6.67,1.25-.09,2.51-.13,3.76-.23s1.36-.19,1.6-1.46c.61-3.3,1.3-6.58,1.75-9.9s0-6.48-.07-9.73c0-1.15-.11-2.3-.22-3.44a27.91,27.91,0,0,0-.4-3.43c-.74-3.38-1.56-6.73-2.33-10.1a5.91,5.91,0,0,1-.17-3.11c.68-2.09-.33-3.69-1.43-5.18a52.87,52.87,0,0,0-4.11-4.74,29.19,29.19,0,0,1-3.46-4.47c-2.12-3.36-4.17-6.77-6.29-10.14-1.39-2.21-2.91-4.34-4.26-6.58a110.06,110.06,0,0,1-9.62-19.35C503.05,434.67,502.57,432.74,501.92,430.58Zm226-134.19-.17.05a.67.67,0,0,0,.06-.12l.07-.06ZM628.12,609.7l.1-.07-.17.15a6.35,6.35,0,0,0-.37-4.28,11.12,11.12,0,0,1-.82-3.92,4.14,4.14,0,0,0-1.18-2.83c-1-1.06-2-2.1-3.11-3.08a1.13,1.13,0,0,0-1.86.28,6,6,0,0,1-4.72,3.19,1,1,0,0,0-.3.08.6.6,0,0,0-.27,1,9.19,9.19,0,0,0,1.68,1.83C620.75,604.64,624.44,607.18,628.12,609.7ZM526.71,248.44a14,14,0,0,0-5.56,2.75,39.61,39.61,0,0,1-4.27,2.61c-3.21,1.75-6.36,3.61-9.53,5.43-3.35,1.94-6.55,4.14-10,5.89-2.33,1.19-4.54,2.6-6.88,3.77a20.1,20.1,0,0,0-6.3,5.58,10.16,10.16,0,0,0-2.43,4.69q-.53,3.25-1,6.51a4.73,4.73,0,0,0-.05,1.87,13.49,13.49,0,0,1,.32,4c0,.1,0,.21,0,.31a.7.7,0,0,0,1.12.59c2.4-1.48,4.77-3,7.17-4.49,2.23-1.36,4.6-2.46,6.71-4a37.47,37.47,0,0,1,4.79-3c7.3-3.89,14.33-8.25,21.46-12.42a23.76,23.76,0,0,0,2.08-1.41,2.25,2.25,0,0,0,.93-2.48,13.14,13.14,0,0,1-.57-4c.07-1.15.23-2.3.21-3.44a22.76,22.76,0,0,1,1.79-8.85l-.12-.14ZM498.13,428.2a9.88,9.88,0,0,1,1.41-1.36,1.25,1.25,0,0,0,.54-1.62c-.59-1.79-1.2-3.57-1.78-5.37-.39-1.19-.79-2.38-1.09-3.6-1.35-5.59-2.72-11.19-4-16.8-.73-3.27-2.06-6.4-2.39-9.75a53.79,53.79,0,0,0-1.42-6.43c-.38-1.73-1-3.42-1.31-5.16a12.52,12.52,0,0,1-.22-3.12,2.3,2.3,0,0,1,2-2.41c.84,0,1.67.92,1.76,2.25a23.82,23.82,0,0,0,1.55,6.71,12.44,12.44,0,0,1,.41,1.83A90.08,90.08,0,0,0,496.4,395,74,74,0,0,1,499,405.31a113.63,113.63,0,0,0,4,14.84c1,2.88,2,5.73,2.84,8.65a42.52,42.52,0,0,0,4.75,11.57,14.71,14.71,0,0,1,.76,1.72,99.86,99.86,0,0,0,5.68,10.85c2.61,4,5.06,8.2,7.9,12.09a21.15,21.15,0,0,1,1.26,2.17A54.32,54.32,0,0,0,536,479.44c3.53,3.4,7.5,6.36,11.28,9.49a16.5,16.5,0,0,0,1.57,1.05,72.44,72.44,0,0,0,14.71,7,20,20,0,0,0,3.38.66,36.14,36.14,0,0,1,5.54,1.05,32.44,32.44,0,0,0,6.73,1.38c3.52.45,7.05.91,10.55,1.52a19.68,19.68,0,0,0,4,.29,88.1,88.1,0,0,0,11.2-1.51c.95-.16,1.94-.46,2.77.06,1.43.89,2.86.47,4.25.11,2-.53,4-1.28,6-1.87a101.86,101.86,0,0,0,12.61-4.74c3.83-1.7,7.52-3.66,11.16-5.72a42.76,42.76,0,0,0,6.72-4.57c1.91-1.63,3.95-3.08,5.78-4.77,2.92-2.68,5.66-5.59,8.39-8.48a92.81,92.81,0,0,0,7.81-9.43,113.25,113.25,0,0,0,8.28-12.58c1.58-2.94,3.24-5.85,4.81-8.8,1.87-3.51,3.69-7,5.53-10.56,1.59-3.06,2.87-6.27,4.4-9.36,4.3-8.72,9-17.26,13.08-26.08a48.07,48.07,0,0,0,3.61-9,6.8,6.8,0,0,1,2.43-3.94,1.55,1.55,0,0,0,.48-1.94c-.59-2-1.18-4-1.67-6-1.32-5.44-1.41-11-1.35-16.53,0-1.78.07-3.55,0-5.33q-.42-8.48-.83-16.95c0-.63-.09-1.26-.18-1.87-.12-.79-.65-1-1.34-.58-1.06.67-2.06,1.46-3.17,2a1.74,1.74,0,0,1-2.51-1.79,3.2,3.2,0,0,1,.48-1.45,3.62,3.62,0,0,0,.63-2.06,45.59,45.59,0,0,0-2.32-15.46,7.78,7.78,0,0,0-1.71-3c-.53-.56-1.19-.51-1.48.24a36.26,36.26,0,0,1-3.36,6c-1.07,1.7-2.22,3.27-1.94,5.44a1,1,0,0,1-1,1,1.18,1.18,0,0,1-1.37-.5,4.66,4.66,0,0,0-1.28-1.74,1.79,1.79,0,0,1-.56-2.27,4.74,4.74,0,0,0,0-3.36c-.43-1.62-.77-3.26-1.24-4.87a22.35,22.35,0,0,0-7.26-11.11c-1.68-1.4-2.32-1.18-2.53.82a13.09,13.09,0,0,1-2.39,6.07.87.87,0,0,1-1.08.41c-1.33-.6-2.81-1.06-2.75-3a2.1,2.1,0,0,0-.35-1.19c-2-2.94-3.52-6.15-6.18-8.65-3-2.86-6.35-4.27-10.51-3.27a14.7,14.7,0,0,1-1.86.3c-3.47.44-6.89.55-10.16-1a14.88,14.88,0,0,0-2.41-.71,34.6,34.6,0,0,1-5.91-2.09,13.76,13.76,0,0,0-2.64-1,11.57,11.57,0,0,1-5.48-2.84,9,9,0,0,0-6.66-2.27c-5.13.1-10.26.27-15.38.61q-6.9.45-13.8.28a2.62,2.62,0,0,0-2.44,1c-1.6,2-4,2.92-6,4.45-5.7,2-11,5.18-17,6.48a14.62,14.62,0,0,1-7.08,0,69,69,0,0,1-9.33-3.63,2.12,2.12,0,0,0-2.3.11,28.24,28.24,0,0,0-5.38,4.8,48.26,48.26,0,0,0-4.61,6.73,5.59,5.59,0,0,0-1.07,2.85,2.12,2.12,0,0,1-3.26,1.59,8.29,8.29,0,0,1-3.95-7.71c0-.73.18-1.45.2-2.18,0-.26-.16-.68-.35-.75a1,1,0,0,0-.82.25c-3.75,3.6-6.38,8-8.84,12.52a2.46,2.46,0,0,0-.24,1.21c0,1.58-1.1,2.42-2.11,3.31a1,1,0,0,1-1.58-.36c-.47-1.61-1.73-2.86-1.94-4.59a1.57,1.57,0,0,0-.78-1.25.85.85,0,0,0-.71.56c-.73,1.62-1.49,3.23-2.19,4.87-1.88,4.4-3.18,8.87-1.73,13.7a2,2,0,0,1-.8,2.23c-1.32,1.13-2.09,1.09-3.74-.25-.13-.11-.36-.08-.73-.14-.62,2.6-1.27,5.21-1.84,7.83s-1,5.14-1.57,7.69c-.88,3.77-1.94,7.49-2.75,11.28a42.22,42.22,0,0,1-2.53,8.07c-1.7,3.93-3.31,7.9-5.19,11.75a7.42,7.42,0,0,1-1.19,1.82c-1,1.08-1.95,2.19-2.94,3.27a32.27,32.27,0,0,1-4.43,4c-.61.47-1.06,1.1-.47,1.88a2.83,2.83,0,0,1,.15,2.93,17.45,17.45,0,0,0-.9,6.18,57.48,57.48,0,0,0,3.11,16.93,16.49,16.49,0,0,0,3.41,5.6.64.64,0,0,0,1.06-.07,5.58,5.58,0,0,0,1.1-2.57,25.73,25.73,0,0,1,1.42-4.15c.33-.89,1-1,1.76-1s1.3.53,1.43,1.37a6.33,6.33,0,0,0,.37,1.5q3.24,8,6.52,16A1.51,1.51,0,0,0,498.13,428.2ZM720.86,268.26a3,3,0,0,0,.06-.89c-.61-3-1.19-5.94-1.89-8.88-1.68-7-3.08-14.11-6.17-20.72-1.45-3.12-2.69-6.34-4.45-9.33a59.9,59.9,0,0,1-4.45-8.65,48.75,48.75,0,0,0-9-14.6,61.17,61.17,0,0,0-8.74-8.06c-2.06-1.6-4.25-3-6.41-4.52a13.12,13.12,0,0,0-2.47-1.34A84.51,84.51,0,0,1,667,186a19.63,19.63,0,0,0-2.17-1.25c-3.45-1.49-6.83-3.14-10.42-4.31a134.17,134.17,0,0,0-17.89-4.7c-6.29-1.1-12.56-2.28-18.91-3.06-7.69-1-15.37-1.9-23.09-2.55a36.9,36.9,0,0,0-10.33.32c-4.1.8-8.26,1.3-12.39,2a61.57,61.57,0,0,0-12.33,3.49c-.78.31-1.55.65-2.33.95a52.12,52.12,0,0,0-11.45,5.65c-1.56,1.08-2.83,2.51-4.43,3.46-2.72,1.61-5.07,3.69-7.64,5.49a46.22,46.22,0,0,0-10.44,9.88,51.06,51.06,0,0,0-3.75,5,45.88,45.88,0,0,1-3.06,4.35c-.63.84-1.22,1.7-1.85,2.54a73,73,0,0,0-5.67,9,45.73,45.73,0,0,1-2.69,4.23,56.68,56.68,0,0,0-5.43,9.86c-1.25,2.87-2.45,5.77-3.64,8.67q-2,4.94-4,9.89a15.87,15.87,0,0,0-.82,2.7c-.3,1.64-.53,3.3-.72,5-.1.8.44,1.09,1.25.74a9.37,9.37,0,0,0,.85-.4c4.41-2.4,9-4.54,13.21-7.23,2.65-1.68,5.35-3.27,8.07-4.84a102.23,102.23,0,0,0,11.3-7.36,8.92,8.92,0,0,1,1.83-1.18,5.17,5.17,0,0,0,2.87-3.17,11,11,0,0,1,2.79-4.1,31.81,31.81,0,0,0,2.41-2.89,27.41,27.41,0,0,1,6-5.45c1-.7,2.37-.89,3.41-1.56,2.87-1.86,6.14-2.58,9.34-3.51a13.52,13.52,0,0,1,5.3-.36,37.88,37.88,0,0,0,4.36.44,41.45,41.45,0,0,1,6.87.7c4.18.7,8.06,2.11,11.23,5.15,1.73,1.66,3.68,3.1,5.53,4.63a5.93,5.93,0,0,1,1,.77c1.73,2.36,3.7,4.55,5,7.22.79,1.67.83,1.63,2.55,1.48,3.75-.34,7.49-.94,11.27-.31l1.85.29c1.43.21,1.88,0,2.44-1.32.37-.87.61-1.79.92-2.68a17,17,0,0,1,2.2-4.48c1.06-1.43,2.16-2.82,3.22-4.25a19.29,19.29,0,0,1,6.93-5.77,73,73,0,0,1,9-3.66A9.35,9.35,0,0,1,637,219a60.45,60.45,0,0,1,9.7.12c3.55.29,7.08.43,10.5,1.54a6.94,6.94,0,0,0,.93.16,19.33,19.33,0,0,1,11.16,6,94.12,94.12,0,0,1,7,8,57.4,57.4,0,0,1,4.71,7.75,7.16,7.16,0,0,1,.83,2.35c.13,1.06,1.48.64,1.9,1.44.14.27.38.49.55.76,1.91,2.93,5.13,4.21,7.78,6.21,2.57.48,4.53,2.1,6.58,3.53a78.39,78.39,0,0,0,15.68,8.55,17.5,17.5,0,0,1,3.9,2A3.5,3.5,0,0,0,720.86,268.26ZM540,489.4a1.4,1.4,0,0,0-.3,1.6,39.88,39.88,0,0,1,.79,9.68c0,3.25-.31,6.49-.29,9.74A96,96,0,0,1,539,525.75c-.27,1.74-.19,3.61-1.2,5.14a10,10,0,0,0-1.51,4.07,5.49,5.49,0,0,1-.9,2.65,1.27,1.27,0,0,1-1.34.58,1.1,1.1,0,0,1-1-1.08c0-.83.12-1.66.19-2.49a1,1,0,0,0-.82-1.16,1.23,1.23,0,0,0-1.49.82,3,3,0,0,0,.72,3.19,21.1,21.1,0,0,1,2.13,2.3,26.84,26.84,0,0,0,6.74,6c3.74,2.29,7.61,4.39,11.43,6.55a24.56,24.56,0,0,0,3,1.59c6,2.4,11.93,5.05,17.82,7.74a50.21,50.21,0,0,0,6.33,2.71c3.3,1,6.58,2.09,9.89,3s6.32,2.14,9.55,3c1.62.42,3.26.8,4.82,1.37a4.17,4.17,0,0,0,3.9-.12,4.35,4.35,0,0,1,3.65-.31c.79.25,1.61.44,2.4.7a31.63,31.63,0,0,0,4.22.89c.35-.74.61-1.31.89-1.87a25.79,25.79,0,0,1,5.42-8c1-.91,2-1.84,3-2.78,2.55-2.48,4.57-5.46,7.39-7.69a6.83,6.83,0,0,0,1.06-1.15,15.26,15.26,0,0,0,3.07-5.77c.17-.66.18-1.19-.54-1.57a7.89,7.89,0,0,1-3.64-4.9,20.41,20.41,0,0,1-1-5.54c-.26-6.06-.64-12.12.06-18.18a54.83,54.83,0,0,1,1.52-8.64c.79-2.72,1.16-5.52,1.68-8.29a.91.91,0,0,0-1.35-1.06c-2.55,1.22-5.3,2-7.71,3.51a11.77,11.77,0,0,1-5.87,2,7.33,7.33,0,0,0-1.84.37,43.33,43.33,0,0,1-12,2.21,10.76,10.76,0,0,0-1.88.16c-4,.68-7.94.42-11.91.53a32.38,32.38,0,0,1-5-.2c-5.29-.65-10.57-1.35-15.79-2.48-1.94-.42-3.92-.71-5.81-1.3a16.27,16.27,0,0,0-3-.72,18.68,18.68,0,0,1-4.55-1.17c-2.74-1-5.52-2-8.21-3.15a28.33,28.33,0,0,1-7.19-4.41A33.52,33.52,0,0,0,540,489.4Zm-9.33-231.14a38.8,38.8,0,0,0,1.8,8.85,11.6,11.6,0,0,0,2.35,4.39c2.28,2.73,4.5,5.44,7.54,7.49,2.24,1.5,4.44,3.08,6.78,4.43,4.19,2.41,9,2.71,13.57,3.61a10.67,10.67,0,0,0,3.12-.18c4-.48,7.55-2.4,11.1-4.17a17.28,17.28,0,0,0,6-4.87,24.13,24.13,0,0,0,3.52-5.9,44.61,44.61,0,0,0,2.87-10.56,32.29,32.29,0,0,1,.44-3.42c1.07-4.53.31-9-.71-13.35a17.35,17.35,0,0,0-5.48-9.3,18.59,18.59,0,0,1-1.78-1.77,13.49,13.49,0,0,0-7.86-4.27c-3.18-.62-6.38-1.13-9.57-1.66-1.45-.24-2.9-.46-4.36-.59a12.47,12.47,0,0,0-7.56,1.64c-2.69,1.6-5.41,3.19-8,5a32,32,0,0,0-9.51,9.85,14,14,0,0,1-1.4,2.08,7.1,7.1,0,0,0-1.52,3.4,29.83,29.83,0,0,1-.81,4A11.82,11.82,0,0,0,530.68,258.26ZM639.79,227c-1.23.07-2.17.08-3.11.19a38.69,38.69,0,0,0-6.83.89,16.75,16.75,0,0,0-11.17,10.22,53.1,53.1,0,0,0-3.83,15.48,22.32,22.32,0,0,0,.08,5.6,37.17,37.17,0,0,0,1.86,6.32,9.24,9.24,0,0,0,1.84,3.25,57.57,57.57,0,0,0,8.62,7.73,12.73,12.73,0,0,1,1.82,1.2,11.45,11.45,0,0,0,6.18,2.85c3.59.67,7.22,1.15,10.84,1.68a9.93,9.93,0,0,0,1.89.07,48,48,0,0,0,9.61-1.44,18.44,18.44,0,0,0,5.2-2.12,17.92,17.92,0,0,0,7-8.24c2.44-5.22,3.77-10.84,5.26-16.39a8.41,8.41,0,0,0,0-4.05c-.67-3.07-1.46-6.11-2.21-9.16a6.84,6.84,0,0,0-1.65-3,22,22,0,0,0-3.55-3.06,55.92,55.92,0,0,0-10.79-6.34,17,17,0,0,0-6-1.53C647,227,643.28,227,639.79,227ZM710,287.25a1.57,1.57,0,0,0,.38,1.44c1.69,2.51,2.87,5.34,4.81,7.7.33.4.91.77.73,1.3-.48,1.44.23,2.66.49,4a37.31,37.31,0,0,1,.9,9.36,3.83,3.83,0,0,1-.72,2.67,8.07,8.07,0,0,0-1.45,3.08c-1,2.53-1.25,5.32-2.78,7.66a1.78,1.78,0,0,0,0,1.5,34.21,34.21,0,0,1,1.32,9.27c0,2.19-.17,4.39-.07,6.57.21,4.29.66,8.57.8,12.85a54.43,54.43,0,0,1,0,8.47,8,8,0,0,0,.13,2.18,65,65,0,0,0,6.92,20.09,26.61,26.61,0,0,0,6.08,7.84,32.71,32.71,0,0,0,9.79,6.1c2.66,1.06,5.33.87,8,.53a2.17,2.17,0,0,0,1.6-.92c1.11-1.8,1.9-3.21.35-5.51a9.27,9.27,0,0,0-1.16-1.47,75.45,75.45,0,0,1-8.13-9.54A22.14,22.14,0,0,1,734.2,375a4.43,4.43,0,0,0-.56-1.46c-2-2.85-2.87-6.27-4.46-9.33a15.09,15.09,0,0,1-1.67-5.69,9.73,9.73,0,0,0-.39-1.84c-.88-3-1.86-6-2.65-9a28.1,28.1,0,0,1-1.2-7.74c0-1.46-.28-2.93-.26-4.39s-1.18-2.52-.91-3.92a15.64,15.64,0,0,0,.37-4c-.35-5.12-.06-10.27-.63-15.38a6.79,6.79,0,0,1,0-1.56c.67-5.12-.74-10.25.1-15.37a1.81,1.81,0,0,0-.85-1.88,69.16,69.16,0,0,0-9.27-5.9C711.29,287.19,710.68,286.75,710,287.25ZM493.53,290c-1.58.68-2.94,1.86-4.49,2.66a37,37,0,0,0-4.33,3.1,2.07,2.07,0,0,0-.86,2.45,22.76,22.76,0,0,1,.58,4q.35,5.49.57,11c.13,3.24.54,6.48.05,9.72q-1.2,7.91-2.43,15.81a38.07,38.07,0,0,1-.65,4q-1.59,6.07-3.33,12.09a26.27,26.27,0,0,1-1.68,4.7,47.7,47.7,0,0,1-3.71,6.18c-2.43,3.39-4.76,6.87-7.93,9.66a11,11,0,0,0-2.4,3.66,2.07,2.07,0,0,0,1.35,3,8.6,8.6,0,0,0,7.3-.43,30.27,30.27,0,0,0,12.65-13.13c1.37-2.83,2.27-5.85,3.54-8.7a59.63,59.63,0,0,0,3-9.89,38.44,38.44,0,0,1,1.15-4.24,24.14,24.14,0,0,0,1.12-4.88c.2-1.34.36-2.7.69-4,1.08-4.46,1.65-9,3.12-13.42a3.56,3.56,0,0,0,.22-.91c0-.3.05-.75-.12-.89-1.27-1-.73-2.54-1.22-3.74a58.7,58.7,0,0,1-1.71-6,40.89,40.89,0,0,1-1.41-9.93c-.12-3.32-.16-6.7,1-9.93A1.65,1.65,0,0,0,493.53,290Zm168.87-3.28a4,4,0,0,0,1.81,1.79,17.55,17.55,0,0,1,4.13,4.25c.79,1.1,1.48,2.28,2.27,3.38s1.12,2.49,2.33,3.26c1.42-.91,1.17-2.57,1.71-3.87a6,6,0,0,0,.12-.61c.42-1.76,1.08-2.25,2.81-2.2a3.76,3.76,0,0,1,2.53,1.09c.69.64,1.34,1.32,2,2,3.35,3.52,6.21,7.35,7.59,12.1.37,1.3.65,2.63,1,3.93a1.63,1.63,0,0,0,.66,1c.41.2.78-.22,1-.56a44.67,44.67,0,0,0,3.71-5.81,6.92,6.92,0,0,1,1.78-2.55.77.77,0,0,1,1.13.05,38.58,38.58,0,0,1,4.7,7.35,39.41,39.41,0,0,1,2.67,12.84c0,.69-.25,1.46.38,2,.19-.08.45-.1.53-.23a43.83,43.83,0,0,0,5.35-12.32c.65-2.73,1.34-5.51,0-8.29a4.46,4.46,0,0,1-.17-1.23c-.33-2.93-.8-5.79-2.62-8.25a4.58,4.58,0,0,1-.45-1.78,6.49,6.49,0,0,0-1.84-3.56,6.26,6.26,0,0,1-2.12-3.37,2.73,2.73,0,0,0-2-2.22c-2.66-.49-5.24-1.42-8-1.56-3.65-.19-7.31-.27-11-.76-3-.4-6-.61-9.07-.73-1.89-.07-3.73-.42-5.6-.62-1.58,1.16-3.15,2.33-4.75,3.47-.6.42-1.28.73-1.88,1.15A5.91,5.91,0,0,0,662.4,286.68Zm-161,33.65c.89-2.95,1.72-5.1,2.16-7.33a16.6,16.6,0,0,1,6.5-10.63,4.59,4.59,0,0,0,1.32-1.68c.49-.92,1.35-.88,2-.06a3.17,3.17,0,0,1,.62,1.74,2.21,2.21,0,0,0,.48,1.46.49.49,0,0,0,.78,0,3.43,3.43,0,0,0,.49-.8,45,45,0,0,1,8.78-11.74,25.78,25.78,0,0,1,4.31-3.11c1.13-.74,1.89-.6,2.54.12,1,1.13,1.08,1.73.15,3a3.18,3.18,0,0,0-.87,1.62c-.13,1.24-.31,2.49-.38,3.74a5,5,0,0,0,.89,3.25.55.55,0,0,0,.83.15,5.92,5.92,0,0,0,.77-.95c2.34-3.32,4.19-7,7.22-9.82.54-.5,1-1,1.55-1.56.76-.79.78-1.17-.08-1.75a31.09,31.09,0,0,1-6-5.05,2.33,2.33,0,0,0-3.07-.67,1.87,1.87,0,0,1-1.18.24c-1.78-.48-3.53,0-5.29,0a134.71,134.71,0,0,0-16.54,1.43,22,22,0,0,0-9.77,3.89c-.88.61-1.33,1.21-.93,2.32s-.16,2.28-.64,3.3a20.46,20.46,0,0,0-1.65,8.24,71,71,0,0,0,1.24,12.16,23.75,23.75,0,0,0,1.19,3.88,2,2,0,0,0,1.1,1.46C501.09,317.57,501.27,318.55,501.42,320.33ZM728.87,294a11.84,11.84,0,0,0,1.38-4.18,26.19,26.19,0,0,0-1.83-11,4.58,4.58,0,0,0-1.91-2.43,102,102,0,0,0-13.31-6.95c-1.84-.76-3.62-1.57-5.4-2.43-6.32-3.07-12-7.12-18.14-10.57-2-1.13-3.82-2.56-5.75-3.8-.89-.57-1.42-.31-1.52.69-.17,1.77-.18,3.56-.44,5.31a30.52,30.52,0,0,1-2.4,8.09,1.12,1.12,0,0,0,.49,1.61c4.16,2.15,8.11,4.73,12.68,6.09a32,32,0,0,1,5.81,2.29c1.94,1,4,1.79,6,2.76,3.18,1.58,6.35,3.18,9.46,4.89,2.38,1.31,4.68,2.75,7.18,3.84a16.79,16.79,0,0,1,6.12,4.29C727.68,292.87,728.16,293.27,728.87,294ZM688,450.43a5,5,0,0,0,2.69-1.91c2.51-3.1,4.43-6.59,6.63-9.9a7.79,7.79,0,0,0,.42-1.18,24.34,24.34,0,0,0,1.72-6.33c.11-.84.2-1.8,1-2.23a8.07,8.07,0,0,0,2.77-2.8c.62-.94,1.68-.66,2.2.38a11.09,11.09,0,0,1,.68,4,.58.58,0,0,0,.95.36c1-1.07,2-2.11,2.93-3.26a48.64,48.64,0,0,0,7.73-13.91c1.93-5.54,3.69-11.08,4.26-16.95a2.78,2.78,0,0,0-.63-2.31,24,24,0,0,1-3.19-5c-.63-1.21-1.28-2.41-2-3.59a1.21,1.21,0,0,0-.66-.59c-.52-.09-.67.42-.85.77a9.13,9.13,0,0,0-.45,1.17,109,109,0,0,1-7.08,15.37c-.81,1.47-1.6,2.94-2.31,4.45-1.39,2.93-2.66,5.93-4.28,8.73-1.32,2.28-2.51,4.59-3.59,7-1,2.19-1.88,4.43-3,6.58-2,3.93-4,7.81-6,11.71-.72,1.4-1.72,2.76-2,4.24-.29,1.64,1.12,3.07,1.5,4.68C687.58,450,687.78,450.17,688,450.43ZM638.81,575.54c-1,1.07-1.54,2.73-3.51,1.92a.44.44,0,0,0-.3,0,15.3,15.3,0,0,0-6.76,5.37c-.19.25.1.6.47.6,1.36,0,2.72,0,4.08-.12a12.58,12.58,0,0,0,5.37-1.58,23.41,23.41,0,0,0,9.27-9.52,9.59,9.59,0,0,0,1-5.17.59.59,0,0,0-.34-.44.55.55,0,0,0-.52.2c-.52,1.33-1.64,2.47-1.33,4.09,0,.24-.21.57-.4.8s-.36,0-.54,0c.08-1.23-.53-1.47-1.65-1.35-.56.06-.84-.56-.78-1.14a5.1,5.1,0,0,1,.3-1.21c.79-2.26,1.62-4.52,2.4-6.79a11.88,11.88,0,0,0,.5-2.12c.58-3.49-.55-6.83-.87-10.24a3.87,3.87,0,0,0-.5-1.15c-.13-.3-.33-.63-.66-.55a1.16,1.16,0,0,0-.64.61c-.44,1.05-.54,2.4-1.28,3.14-1.55,1.57-2.69,3.46-4.26,5-2.16,2.12-4.34,4.22-6.48,6.36a143.55,143.55,0,0,0-11.07,13.25,11.43,11.43,0,0,1,2.59,3.89c.41.92.87,1,1.67.2.45-.43.87-.9,1.33-1.33a17,17,0,0,1,7.85-4.36c1.22-.27,2.45-.62,3.32.86C637.27,575.2,638.09,575.26,638.81,575.54Zm-37-313.64c-.72.09-2,.33-3.21.39a2.27,2.27,0,0,0-2.25,1.78,106.63,106.63,0,0,1-4.93,11.86,2.64,2.64,0,0,0-.1.3.87.87,0,0,0,.65,1.19,17.66,17.66,0,0,0,2.18.09c1.68,0,3.35-.14,5-.1a29.49,29.49,0,0,0,5.31-.2,42.36,42.36,0,0,1,5.64-.23c1.88-.05,3.77-.08,5.65-.14a2.54,2.54,0,0,0,.91-.18.52.52,0,0,0,.27-.77,5.17,5.17,0,0,0-1-1.21,11.42,11.42,0,0,1-3.27-4.51c-1-2.28-2.35-4.44-3.5-6.67a2.79,2.79,0,0,0-2.8-1.61C605.07,261.92,603.71,261.9,601.82,261.9Zm8-10.56a14.12,14.12,0,0,1-.33-2,2.31,2.31,0,0,0-1.56-2.13A19.66,19.66,0,0,0,597,245.53c-1,.09-1.35.59-1.08,1.48a43.38,43.38,0,0,1,1.35,9.88,1.55,1.55,0,0,0,0,.31c.17,1,.63,1.39,1.74,1.28.52-.05,1-.18,1.54-.23l5.6-.49c.68-.05,1.39.71,2.05,0s.48-1.35.63-2.06c.2-.92.45-1.82.66-2.73C609.65,252.4,609.74,251.78,609.82,251.34Zm63.61,27.14c4.15.35,8.4.62,12.65.76a1.65,1.65,0,0,0,.31,0,13.31,13.31,0,0,1,4.36.12,7.92,7.92,0,0,0,3,.31c-.2-.81-.82-.79-1.27-1a74,74,0,0,1-9.06-4.25,25.61,25.61,0,0,0-3.38-1.63c-2.8-1.07-2.4-1.34-4,1.07-.62,1-1.41,1.81-2.05,2.76C673.69,277.09,673.12,277.53,673.43,278.48Zm-142.25-1.73c-1.48-2.41-2.86-4.1-3.71-6.12a.89.89,0,0,0-1.3-.47q-5.1,3-10.17,6.11c-.23.14-.51.41-.07.91Zm88.63,309.83a6.29,6.29,0,0,0-1-3.15.8.8,0,0,0-1.47.09,16.49,16.49,0,0,1-4,5.56,4.73,4.73,0,0,0-.9,1.27c-.79,1.63-.45,2.43,1.25,3.15s2.44.48,3.87-.86A7.24,7.24,0,0,0,619.81,586.58Zm-24.54,22c1.37-.64,2.86-1,3.73-2.25,1.16-1.73,2.29-3.48,3.53-5.15.82-1.12,1.33-2.08.12-3.27a1.7,1.7,0,0,1-.14-2.06,9.61,9.61,0,0,0,.56-1.11.59.59,0,0,0-.17-.52.62.62,0,0,0-.55.15A38,38,0,0,0,595.27,608.62Zm10-24.77c.1,0,.23.06.29,0a18.32,18.32,0,0,1,6.95-2.6c.66-.11.94-1.25.46-1.84a18.53,18.53,0,0,0-1.92-2,1.83,1.83,0,0,0-2.54-.11c-2.16,1.46-2.79,3.79-3.51,6.08C605,583.48,605.2,583.68,605.29,583.85Z"/><path class="cls-1" d="M542.58,570.23a5.66,5.66,0,0,1,1.28.18,36.34,36.34,0,0,1,8.74,4.16,1.78,1.78,0,0,1,.79,1.9,1.24,1.24,0,0,1-1.59,1.07,10.72,10.72,0,0,1-1.38-.73,25.87,25.87,0,0,0-7.89-3c-.2,0-.41-.05-.61-.11a2,2,0,0,1-1.48-2.14C540.57,570.83,541.32,570.29,542.58,570.23Z"/><path class="cls-1" d="M603.45,453a2.84,2.84,0,0,0-.63,0c-2.06.72-4.14-.89-6.37.38-1.84,1-4.19,1.17-6.3,1.73a16,16,0,0,1-13.53-1.9c-2.09-1.36-4.45-2.35-6.06-4.37-4.32-2.39-7.62-6.19-12-8.57a40.13,40.13,0,0,1-5.07-3.68,5.44,5.44,0,0,1-2.27-2.93,2.23,2.23,0,0,0-1.09-1.47c-1.64-.9-1.91-2.65-2.55-4.14a1.5,1.5,0,0,1,1-2,3.91,3.91,0,0,1,3.36,0c2.75,1.3,5.5.93,8.29.23a125.19,125.19,0,0,0,13.29-3.69,33.5,33.5,0,0,1,3.35-.85,9.24,9.24,0,0,1,5.56.31,23.89,23.89,0,0,1,6.76,3.27,4.3,4.3,0,0,0,1.31.82c1.11.34,2.23.59,3.22-.41a14.32,14.32,0,0,1,1.73-1.35c3.56-2.59,7.57-2.68,11.7-2.1a1.16,1.16,0,0,1,.59.2c1.68,1.49,3.88,1.4,5.86,2,3.29,1,6.58,2.06,9.78,3.33a31.66,31.66,0,0,0,7,1.61,7.25,7.25,0,0,0,3.4-.37c1.46-.5,2.84-1.41,4.52-1,.22.05.56-.24.81-.41.64-.43.81-1.11.27-1.58a30.81,30.81,0,0,1-2.37-2.89,50.67,50.67,0,0,1-8.27-13.6c-1-2.4-1.94-4.85-2.87-7.29a5.77,5.77,0,0,1-.4-1.82,1.79,1.79,0,0,1,2.23-1.6c.6.13.78.62.93,1.13.76,2.61,1.52,5.21,2.42,7.78a54.88,54.88,0,0,0,7.55,14,25.82,25.82,0,0,0,3.42,4.45,1.79,1.79,0,0,1,.37,2.05c-.23.58-.33,1.33-.76,1.7-2.17,1.92-3.59,4.7-6.39,5.87-5.2,2.17-9.58,5.54-13.75,9.22a50.24,50.24,0,0,1-6.65,4.7,18.8,18.8,0,0,1-4.39,1.66C608.08,452.35,605.71,453.21,603.45,453Zm-48.93-21.5a.74.74,0,0,0,.31.82,30.46,30.46,0,0,0,6,4.48,59.84,59.84,0,0,1,9.13,5.48q3.36,2.58,6.66,5.23a16.81,16.81,0,0,0,11.86,4.09c1.88-.11,3.77-.12,5.65-.14a1.78,1.78,0,0,0,1.89-1.26c.52-1.25,1.15-1.62,2.13-1.21,2.66,1.1,5.35.64,8.06.44a7.52,7.52,0,0,0,3.25-1,53.21,53.21,0,0,0,7.73-5.35,50.43,50.43,0,0,1,8-6,39.45,39.45,0,0,0,3.62-2.49c.66-.47.55-1-.23-1.39a4.46,4.46,0,0,0-1.78-.52,18.63,18.63,0,0,1-3.07-.55,60.72,60.72,0,0,0-6.38-1.6,13.38,13.38,0,0,1-4.65-1.81,9.25,9.25,0,0,0-2.55-1.19c-2.23-.54-4.5-.93-6.75-1.4a5.74,5.74,0,0,0-3.37.39,12.31,12.31,0,0,0-4.9,3.8,3.28,3.28,0,0,1-3.65,1.14,9.21,9.21,0,0,1-4.14-2.12,12.26,12.26,0,0,0-9.48-3.3,29.15,29.15,0,0,0-9.11,2.16,39.8,39.8,0,0,1-8.81,2.22c-1.75.21-3.49.61-5.24.94C554.64,431.36,554.58,431.48,554.52,431.54Z"/><path class="cls-1" d="M641.9,339.51a38.62,38.62,0,0,0-6.78,5c-.5.53-1,1.08-1.5,1.59a1.8,1.8,0,0,1-2,.36,1.33,1.33,0,0,1-.78-1.54c.06-.2.08-.45.22-.58,1.88-1.78,3.11-4.15,5.42-5.58a55.14,55.14,0,0,1,10.35-5.21,18.22,18.22,0,0,0,1.75-.87c-1.09-.28-1.84-.43-2.55-.69a1,1,0,0,1-.55-.68.94.94,0,0,1,.55-1,2.56,2.56,0,0,1,.87-.33,65,65,0,0,1,15.33-.44,2.78,2.78,0,0,1,.89.27q2.2,1.19,4.39,2.41a5.82,5.82,0,0,1,2.95,3.12,4.81,4.81,0,0,0,1.08,1.52c1.26,1.36,2.75,2.52,3.17,4.51.12.53.76,1,1.21,1.4s1,.79,1.45,1.2c1.81,1.57,2.65,3.24,1.28,6.5-.54,1.27-.58,1.29-2.36,1.09a1.15,1.15,0,0,0-1.28.63c-1,1.85-2.75,2.72-4.46,3.77-3.61,2.23-7.7,3.26-11.49,5a14.4,14.4,0,0,1-5.22,1,47.1,47.1,0,0,1-9.71-.31,6.55,6.55,0,0,1-2.12-.54c-2.5-1.28-5.2-2.22-7.31-4.21a5.79,5.79,0,0,1-1.53-1.95,2.21,2.21,0,0,1,.33-2.36,1.93,1.93,0,0,1,2.29-.49,9.37,9.37,0,0,1,2.94,1.79c1.5,1.54,3.49,2.29,5.37,3.19a5.89,5.89,0,0,0,2.13.46c2,.15,4,.21,6,.31a14.35,14.35,0,0,0,5.56-.79c2.07-.74,4.12-1.53,6.17-2.31,1.56-.6,3.11-1.22,4.68-1.8,1.37-.52,2.8-.92,3.79-2.11.6-.73,1.54-.55,2.29-.88a.91.91,0,0,0,.43-1.31,4.13,4.13,0,0,0-1-1.2c-2.21-1.46-3.88-3.51-5.71-5.37a14.78,14.78,0,0,0-6.6-4.07c-1.91-.54-3.84-1-5.77-1.47a7.89,7.89,0,0,0-1.88-.11c-2.93,0-4,1.25-3.38,4.1a5.91,5.91,0,0,0,3.51,4.52,4.5,4.5,0,0,0,4.72-.61c.5-.37.87-.92,1.36-1.3a2.45,2.45,0,0,1,2.93-.11,2,2,0,0,1,.53,2.57c-1.31,3-3.34,5.33-6.78,5.87a16.63,16.63,0,0,1-5,.34c-4.13-.66-7.9-2.16-9.9-6.26a6,6,0,0,1-.41-4.88,4.8,4.8,0,0,0,.13-1.2c.21,0,.45.36.58-.08Zm22.39-5.3c.14-.1.44.34.46-.15l-.52.23c-.13-.28-.19-.68-.41-.8a9.19,9.19,0,0,0-5.32-1.5C660.88,332.91,662.58,333.57,664.29,334.21Z"/><path class="cls-1" d="M540.74,334c4.13-1,8.2-.78,12.18-1.41a7.73,7.73,0,0,1,5.09,1.27,60.6,60.6,0,0,1,5.34,3.28c2.25,1.61,3.62,4,5.15,6.25a4.32,4.32,0,0,1,.38,3.06c-.08.48-.83.93-1.2.68-1.35-.94-2.46-2.26-4.18-2.62-1.11-1.68-3-2.59-4.15-4.23a6.6,6.6,0,0,0-3.53-2.48,18.64,18.64,0,0,0-9.61-.31.88.88,0,0,0-.74.89,9.65,9.65,0,0,0,1.35,4.12,5.57,5.57,0,0,0,3.32,2.24,2.86,2.86,0,0,0,3.17-.68,8.86,8.86,0,0,1,1.13-1.08,1.59,1.59,0,0,1,1.77-.19c.47.23.94.46,1.39.73a2.07,2.07,0,0,1,1,2.91c-.93,1.63-1.9,3.27-3.95,3.79-1.52.39-3,1-4.51,1.29a7.4,7.4,0,0,1-4.32-.44c-2.1-.93-4.22-1.82-6.33-2.72a2,2,0,0,1-1-1.17q-1.12-2.6-2.29-5.17c-.38-.85-1-1.08-1.75-.57-1.83,1.22-3.63,2.48-5.41,3.76-.54.38-.39.86,0,1.33a13.92,13.92,0,0,0,3.55,2.53c.78.51,1.63.93,2.42,1.43a22.31,22.31,0,0,0,12.8,3.43c4-.11,7.54-1.5,11.15-2.85.79-.3,1.53-.7,2.33-.94a1.69,1.69,0,0,1,1.93.7,1.51,1.51,0,0,1-.59,2.37,45.36,45.36,0,0,1-6.8,2.4,5.76,5.76,0,0,0-2.09.57,6.69,6.69,0,0,1-4.52.9,17,17,0,0,0-1.88-.08,23.93,23.93,0,0,1-10.14-1.59,18.11,18.11,0,0,1-5-2.49,31.15,31.15,0,0,0-3.45-2.15c-.73-.42-1.59-.77-2-1.51-.71-1.42-1.53-2.35-3.3-1.88-.46.13-.83-.62-.71-1.13a3.85,3.85,0,0,1,1.54-1.92c.88-.77,1.68-1.51,1.44-2.92a2.36,2.36,0,0,1,.88-1.94c2.66-2.51,5.1-5.24,8.28-7.18a24.77,24.77,0,0,1,4.85-2.18c3.67-1.26,7.39-2.32,11.34-2.12a24.72,24.72,0,0,1,3.42.4,2.73,2.73,0,0,1,1.33.75,1.29,1.29,0,0,1,.32,1.44,1.16,1.16,0,0,1-1,.69,26.53,26.53,0,0,1-2.82,0,34.08,34.08,0,0,0-11,2.1C541.16,333.4,541.05,333.63,540.74,334Z"/><path class="cls-1" d="M655.43,316.15a46.94,46.94,0,0,1,13.15,2,6.62,6.62,0,0,0,1.19.39c3,.24,5.56,1.68,8.27,2.79a17.15,17.15,0,0,1,4.08,2.28,14.78,14.78,0,0,0,2.84,2,3,3,0,0,1,1.08,1.09,1,1,0,0,1,0,.88,1,1,0,0,1-.77.38,5.89,5.89,0,0,1-1.77-.55,64.49,64.49,0,0,0-12.22-4.91c-3.38-1-6.79-2.07-10.43-2.07-1.65,0-3.3-.32-5-.3a16.73,16.73,0,0,0-6.7,1.5c-3.82,1.74-7.84,2.93-11.69,4.58a5.23,5.23,0,0,0-1.16.48c-2,1.57-4.19.64-6.31.49a1.3,1.3,0,0,1-1.08-1,1.38,1.38,0,0,1,.58-1.65,14.83,14.83,0,0,1,2.53-1.24,4.42,4.42,0,0,0,2.17-1.2c1.28-1.73,3.2-2.37,5.07-2.95a40.89,40.89,0,0,1,9.5-2C651.19,316.92,653.52,316.09,655.43,316.15Z"/><path class="cls-1" d="M568.5,323.68c-1.44.51-2.77-.15-4.13-.71a37.38,37.38,0,0,0-11.72-3.25,32.54,32.54,0,0,1-6.07-1.41,15.9,15.9,0,0,0-10.71,1c-4.8,2-9.7,3.87-14.56,5.79a4.12,4.12,0,0,1-.88.29,1,1,0,0,1-1.29-.59,1.28,1.28,0,0,1,.34-1.43,1.77,1.77,0,0,1,.5-.36c4.83-2.5,9.4-5.47,14.5-7.47,2-.8,4.22-1.08,6.21-2.1,1.17-.59,2.7-.17,4,.14a18.46,18.46,0,0,0,5.29.5,5,5,0,0,1,2.15.27c2,.87,4.07.93,6.06,1.47,3.63,1,7.25,2,10.94,2.73a3.75,3.75,0,0,1,1.88,1.07,1.41,1.41,0,0,1,.5,1.1c0,.52,0,1-.06,1.55a1.36,1.36,0,0,1-1.3,1.46A15.44,15.44,0,0,1,568.5,323.68Z"/><path class="cls-1" d="M611.66,371.72c.08-2.3.18-4.59.24-6.89a10.48,10.48,0,0,0,0-3.12,13.68,13.68,0,0,1,.15-6.82c1.07-5,2.3-10,3.5-14.94a11.51,11.51,0,0,1,.88-2.33,1.61,1.61,0,0,1,1.9-.69,1.38,1.38,0,0,1,1,1.74,6.57,6.57,0,0,0-.19,3.08,10.08,10.08,0,0,1-.59,4,115.77,115.77,0,0,0-2.94,15.37,71.73,71.73,0,0,0-.18,15q.31,3,.62,5.92a5.06,5.06,0,0,1,0,1.23,1,1,0,0,1-.78.86.88.88,0,0,1-1-.55,19.31,19.31,0,0,1-2-6.55c-.23-1.76-.23-3.55-.34-5.32Z"/><path class="cls-1" d="M587.42,349.63a48.74,48.74,0,0,1,0,5.67,4.72,4.72,0,0,0,.38,2.44,11.52,11.52,0,0,1,.72,4.93c-.16,3.24-.43,6.48-.63,9.72-.26,4.19-1.1,8.3-1.7,12.44a2.63,2.63,0,0,1-.75,1.68,1.13,1.13,0,0,1-.83.26,1.15,1.15,0,0,1-.69-.55,2.93,2.93,0,0,1-.19-1.21c.17-3.24.36-6.48.55-9.72a8.79,8.79,0,0,0,.06-1.25c-.47-4.81-.13-9.61-.15-14.42,0-1.36.06-2.72.06-4.08a44.73,44.73,0,0,0-1.54-12.12,9.84,9.84,0,0,1-.19-4,.85.85,0,0,1,.78-.84,1.21,1.21,0,0,1,.85.27c1.16,1.47,2.38,2.92,2.6,4.9S587.18,347.66,587.42,349.63Z"/><path class="cls-1" d="M597.19,407.85a10.41,10.41,0,0,1-3.43-.29,2.43,2.43,0,0,1-1-.63,1.37,1.37,0,0,1-.3-.83c0-.36.26-.54.57-.63a4.14,4.14,0,0,1,.92-.17,43.14,43.14,0,0,0,9-1.56c1.1-.33,2.31-.27,3.39-.62a22.12,22.12,0,0,0,5.18-2.22c2-1.31,4.3-2.13,6.25-3.58a6.41,6.41,0,0,0,2.85-5,12.89,12.89,0,0,1,.2-1.87,1.41,1.41,0,0,1,1.26-1.22,1.65,1.65,0,0,1,1.81.93,3.85,3.85,0,0,1,.43,1.49c0,3-.79,5.65-3.45,7.32a49.75,49.75,0,0,0-5.83,4.2,13.25,13.25,0,0,1-4.22,2C606.35,406.73,601.73,407.09,597.19,407.85Z"/><path class="cls-1" d="M566.51,398a1.8,1.8,0,0,1-.41,1.46c-1.71,2.37-3.28,4.85-5.17,7.08a68.51,68.51,0,0,1-6.92,7.23,76.73,76.73,0,0,1-12.74,9.57,39.41,39.41,0,0,1-4,1.79c-.12.06-.4-.1-.52-.23a.66.66,0,0,1-.1-.85,2,2,0,0,1,.67-.63,39.76,39.76,0,0,0,11.55-8.89,5.22,5.22,0,0,1,.67-.66c4.68-3.47,7.92-8.24,11.43-12.77.63-.82,1-1.82,1.59-2.69a2.86,2.86,0,0,1,2.58-1.5A1.37,1.37,0,0,1,566.51,398Z"/><path class="cls-1" d="M587,404.69a22.85,22.85,0,0,1-10.59-2.56,8.57,8.57,0,0,1-4.27-4.81,4.67,4.67,0,0,1-.3-1.52,1.29,1.29,0,0,1,.82-1.23,1.21,1.21,0,0,1,1.44.27,4.83,4.83,0,0,1,.76,1,9.69,9.69,0,0,0,4.69,4c1.71.77,3.46,1.48,5.2,2.2a4.78,4.78,0,0,0,3.06.22c.6-.14.94.41,1.06.93a1,1,0,0,1-.7,1.25A4.83,4.83,0,0,1,587,404.69Z"/><path class="cls-1" d="M626.49,326.5a.25.25,0,0,1-.09-.37.64.64,0,0,1,.43-.3c.13,0,.41.15.41.22C627.21,326.38,627,326.52,626.49,326.5Z"/><path class="cls-1" d="M551.48,276.47a.8.8,0,0,1-.66-.89A2,2,0,0,1,551,275c2.49-2.94,4.32-6.36,6.89-9.27a134.13,134.13,0,0,0,9.5-12.83,5.91,5.91,0,0,1,2.53-2.25,1.31,1.31,0,0,1,1.47.1,1.41,1.41,0,0,1,.21,1.73,6.81,6.81,0,0,1-.86,1.3c-2.94,3.92-5.78,7.92-8.85,11.73-2.82,3.48-5.89,6.76-8.85,10.13A1.82,1.82,0,0,1,551.48,276.47Z"/><path class="cls-1" d="M570.54,241.29a3.66,3.66,0,0,1-.45,1c-1,1.31-2.1,2.6-3.18,3.88-2.7,3.18-5.31,6.45-8.18,9.49q-2.15,2.26-4.12,4.68a.8.8,0,0,1-1.28-.95c1.11-1.65,2.21-3.31,3.4-4.89s2.3-3,3.32-4.56a25.47,25.47,0,0,1,3.32-4.16c1.09-1.11,2.07-2.34,3.06-3.56a4.86,4.86,0,0,1,3.2-1.79C570.09,240.33,570.39,240.65,570.54,241.29Z"/><path class="cls-1" d="M658.4,250.5c.08.31-.24.72-.58,1.12l-9.56,11.17-8,9.26a3.45,3.45,0,0,1-.9.85,1,1,0,0,1-.84,0,1.19,1.19,0,0,1-.4-.79,2.07,2.07,0,0,1,.6-1.4c2.17-2.94,4.27-5.93,6.51-8.8,2.76-3.53,5.65-7,8.48-10.45a8,8,0,0,1,2.29-2.1A1.68,1.68,0,0,1,658.4,250.5Z"/><path class="cls-1" d="M657,240.7a3.48,3.48,0,0,1-.67,1.72,29.42,29.42,0,0,1-4.15,5.08c-2.57,2.72-5.3,5.29-8,7.92a4.85,4.85,0,0,1-1,.76.71.71,0,0,1-.57,0,.58.58,0,0,1-.29-.79,15.22,15.22,0,0,1,1.45-2.39c1.42-1.8,2.9-3.55,4.39-5.29,2.15-2.52,4.54-4.86,6-7.89a1.32,1.32,0,0,1,1.66-.5A1.73,1.73,0,0,1,657,240.7Z"/><polygon class="cls-1" points="638.63 570.52 638.78 570.63 638.62 570.71 638.63 570.52"/><path class="cls-1" d="M588.89,439.85a73.76,73.76,0,0,1-12.14-1.17,3.73,3.73,0,0,1-1.16-.47,1.48,1.48,0,0,1-.88-1.79,1.4,1.4,0,0,1,1.33-1.13,10,10,0,0,1,2.19,0c1.86.31,3.74.32,5.58.8,3.83,1,7.7.35,11.56.07,2.5-.18,5-.4,7.5-.57a4.32,4.32,0,0,1,2.74.38,1,1,0,0,1,.48.73c0,.24-.25.53-.45.73a1.12,1.12,0,0,1-.58.2l-9.33,1.2c-1.66.22-3.32.45-5,.69C589.93,439.66,589.11,439.82,588.89,439.85Z"/><g class="cls-2"><path class="cls-1" d="M500.1,359.71a27.46,27.46,0,0,1-3.69,1l10.1-1.36a21.66,21.66,0,0,1-5.09.08l10.1,1.35a12.07,12.07,0,0,1-2.35-.59l9.08,3.83a8.9,8.9,0,0,1-2.07-1.09l7.69,5.94a7.51,7.51,0,0,1-1.67-1.61l5.94,7.69-.64-1,3.83,9.08a7.83,7.83,0,0,1-.87-2.83l1.36,10.1a11.43,11.43,0,0,1,.07-3l-1.35,10.1c1.72-8.75,6-17,8-25.77a275,275,0,0,0,5.16-36.37c1.61-18.56,1.71-37.24,4.18-55.74l-1.36,10.11a134,134,0,0,1,8.16-31.91l-3.83,9.07A90.61,90.61,0,0,1,561.49,248l-5.94,7.69A88.23,88.23,0,0,1,571.35,240l-7.69,5.95a92.16,92.16,0,0,1,19.39-11.13L574,238.62a90.4,90.4,0,0,1,20.09-5.52L584,234.45a83.41,83.41,0,0,1,22.32,0l-10.11-1.36a88.56,88.56,0,0,1,20.08,5.57l-9.08-3.83A92,92,0,0,1,626.51,246l-7.69-5.94a89.33,89.33,0,0,1,15.78,15.79l-5.94-7.69a89.12,89.12,0,0,1,7.2,11.32c13,24.37,52.86,25.17,65.62,0,5.4-10.64,11.94-21.47,11.56-33.82a42.08,42.08,0,0,0-12.4-28.8c-6.31-6.17-13.34-8.82-21.4-11.93l9.08,3.83-1.12-.65,7.69,5.94-1-.91,6,7.69-.73-1.07,3.84,9.07-.37-1.11,1.36,10.1.11-1.05-11.13,26.87.68-.86H639.88c13.25,15.49,27.14,30.64,39.75,46.66l-5.94-7.7a43.34,43.34,0,0,1,5,8.37L674.89,281a33.82,33.82,0,0,1,1.69,6.58l-1.36-10.1c1.09,10.72-1,21.93-1.92,32.62-1.06,11.75-2.18,23.5-3.17,35.26a83,83,0,0,0,1.32,22.45c1.87,10.14,7.21,18.56,13.68,26.31,4.67,5.6,11.27,9.07,16,14.64l-5.94-7.69a20,20,0,0,1,2.28,3.8l-3.83-9.08a18,18,0,0,1,.85,3.3l17.46-42.91a10.52,10.52,0,0,1-2.52,1.34l9.07-3.83a13.65,13.65,0,0,1-2.75.68l10.1-1.36c-4,.46-8,.18-12,.58-9.61,1-17.9,2.76-26.22,8.18-9.3,6.07-16,14.45-22.89,22.92-12.93,15.77-25.3,32.07-36.76,48.95-9.73,14.35-19.65,29.16-27.12,44.85-4.64,9.76-8.89,19.68-10.54,30.39-1.83,12-1.14,23.57-2.32,35.52l1.35-10.11a42.33,42.33,0,0,1-2.57,10.22l3.83-9.08c-3.67,8.12-9.92,14.67-13.66,22.74-4.46,9.61-7.14,17.9-7.7,28.58-.54,10.23,2.57,20.05,7.25,29,8.78,16.77,30.86,22.55,47.46,15.55a38,38,0,0,0,22-44.83c-5.31-19.43-20.07-35.29-38.34-43.37a136,136,0,0,0-25.12-8.54c-6.92-1.6-13.81-3.14-20.41-5.82l9.08,3.83a45.74,45.74,0,0,1-9.5-5.46l7.69,6a10.39,10.39,0,0,1-1.82-1.87l5.94,7.69-.65-1.12,3.83,9.08-.39-1.17,1.36,10.1a5.68,5.68,0,0,1-.06-2.25l-1.36,10.1.28-1.09-3.83,9.08a15.81,15.81,0,0,1,1.81-3.14l-5.94,7.69c3.77-4.52,8.07-8.26,11.69-13,5.76-7.45,9.39-15.82,12-24.89,3.92-13.56,7.54-28.29,6.07-42.45A96,96,0,0,0,584,454.21c-5.1-8.2-10.88-16-14.69-24.89l3.83,9.08a53.45,53.45,0,0,1-3-11l1.36,10.1c-1.6-12.42.64-24.91,2.22-37.23,1.55-12,3.05-24.1,4.66-36.14l-1.36,10.11c2.93-21.66,6.6-43.41,15-63.71l-3.83,9.07a115.46,115.46,0,0,1,14.32-25l-5.95,7.69a84.36,84.36,0,0,1,13-13.48l-7.69,5.95a46.74,46.74,0,0,1,8.15-5l-9.07,3.84a35.46,35.46,0,0,1,7.6-2.24l-10.1,1.36a38.48,38.48,0,0,1,9.41,0l-10.1-1.35a46.83,46.83,0,0,1,9.23,2.5l-9.08-3.83A53,53,0,0,1,609,296.48l-7.7-5.94a72.78,72.78,0,0,1,11.56,11.78l-5.94-7.69c9.73,12.75,17.69,27.54,24.1,42.21l-3.83-9.08a100.68,100.68,0,0,1,7,23.84l-1.36-10.1A70,70,0,0,1,633,359l1.36-10.11a88.05,88.05,0,0,1-6.1,21.39l3.83-9.08c-6.33,14.51-15.23,27.87-24.88,40.37l5.94-7.69c-8.55,10.9-18,21.35-28.8,30l7.69-5.94a72.44,72.44,0,0,1-15.27,9.24l9.08-3.83a50,50,0,0,1-10.45,3l10.1-1.35a44.7,44.7,0,0,1-10.53.15l10.1,1.36a39.35,39.35,0,0,1-8.61-2.22l9.08,3.83a34.38,34.38,0,0,1-6.38-3.64l7.69,5.94a32.65,32.65,0,0,1-5.21-5.3l5.94,7.69a38.14,38.14,0,0,1-3.66-6.39l3.83,9.08a54.35,54.35,0,0,1-3.4-13.16l1.36,10.1c-2-16.88-.23-34.51,2-51.29l-1.36,10.11c3.14-22.53,8.5-45.08,17-66.2l-3.83,9.07a57.77,57.77,0,0,1,7.17-12.73l-5.94,7.69a36.4,36.4,0,0,1,5.57-5.39l-7.69,5.94a34.78,34.78,0,0,1,5.3-3l-9.08,3.83a28.5,28.5,0,0,1,5.81-1.56l-10.1,1.36a26.13,26.13,0,0,1,4.51,0L585,328.87a26.53,26.53,0,0,1,4.12,1.07L580,326.11a26.89,26.89,0,0,1,4.93,2.78l-7.69-5.95a31,31,0,0,1,5,5.13l-5.94-7.69a36.5,36.5,0,0,1,2.91,5l-3.83-9.08a44.52,44.52,0,0,1,2.82,10.14l-1.36-10.1a94.82,94.82,0,0,1-.53,23.2l1.36-10.1c-2.34,16.84-7.66,32.92-14.22,48.55l3.83-9.08c-4.77,11.22-10.11,22.19-15.49,33.13-4.55,9.24-6.64,19.07-3.83,29.28,2.42,8.81,9.24,18.36,17.46,22.71,17.13,9.05,42.62,5.4,52-13.64,17.46-35.44,34.1-71.53,35.86-111.66,1.14-26-8.76-53.65-32.4-67-13.45-7.61-30-9.83-44.85-5.13-15.39,4.88-26.81,14.76-36,27.73-6,8.47-9.56,18.7-13,28.41q-4.36,12.41-7.61,25.16a357.56,357.56,0,0,0-9.61,60.05c-1.4,17.83-2.4,37.84,3.48,55,4,11.64,10.06,23.27,19.72,31.23,12.56,10.35,25.76,15.37,41.86,17,23.77,2.4,45.22-9.23,63.12-23.5,14.8-11.8,26.77-26.88,38-42a198.53,198.53,0,0,0,27.38-50C711,365.13,711.17,342,705.3,321c-5.15-18.4-14.53-35.95-24.35-52.28-10.47-17.39-24.4-35-43.27-43.67-11.81-5.45-24.53-9.54-37.75-8.51s-25.85,4.66-36.5,12.63a126.1,126.1,0,0,0-37.82,45.14c-15.79,32.08-20.31,66.3-24.81,101.34-2.22,17.34-5.88,35.16-6,52.66-.11,21.28,7.62,39.9,19.07,57.35,3.79,5.77,7.54,11.54,10.35,17.86l-3.83-9.08A49.29,49.29,0,0,1,523.65,506l-1.35-10.1a57.14,57.14,0,0,1-.19,12.74l1.36-10.1a123.52,123.52,0,0,1-6.6,25.88l3.83-9.08a32.55,32.55,0,0,1-3.13,5.7l5.94-7.7c-2.26,2.75-5,5-7.41,7.59-6.1,6.67-10.87,13.66-13.18,22.52-5.55,21.36,6.08,41,24.15,51.89,8.77,5.26,18.88,8.65,28.8,11,7.58,1.82,15.21,3.27,22.47,6.2l-9.08-3.83a53.14,53.14,0,0,1,11.09,6.32l-7.7-5.94A36.32,36.32,0,0,1,578.4,615l-5.94-7.69a31.19,31.19,0,0,1,2.72,4.63l-3.83-9.08a33.75,33.75,0,0,1,1.32,3.9l69.46-29.28-.74-1.41,3.83,9.07a22.43,22.43,0,0,1-1.26-4.48l1.36,10.1a27.55,27.55,0,0,1,0-4.72L644,596.09a35.07,35.07,0,0,1,2.12-7.85l-3.83,9.08c2.21-5,5.37-9.31,8.41-13.79a86.83,86.83,0,0,0,10.29-21.12c4.73-14.12,2.49-28.93,4-43.39l-1.36,10.1a70.7,70.7,0,0,1,4.58-16.56l-3.83,9.08C670.3,507.69,678.77,494.7,687,482q12.76-19.68,27.11-38.27l-5.94,7.69q6.2-8,12.65-15.79c4-4.86,8-10.12,12.86-14.14L726,427.43a17.13,17.13,0,0,1,2.7-1.68l-9.08,3.83a20.67,20.67,0,0,1,4.34-1.31l-10.1,1.36c3.5-.39,7-.16,10.51-.41,9.22-.65,17.92-2.41,25.91-7.38a38.75,38.75,0,0,0,15.55-18.17c3.55-8.42,3.4-15.7,1.91-24.74-1.67-10.2-8.94-20.86-16.56-27.6-4.13-3.65-8.78-6.6-12.3-10.91l5.94,7.69a23.49,23.49,0,0,1-2.73-4.87l3.83,9.08a32.55,32.55,0,0,1-1.17-4.67l1.35,10.1c-.76-6.36.07-12.72.64-19.07L748.68,317c1.5-16.6,4.15-33,1.19-49.61-3.29-18.42-16.61-32-28.3-45.7l-28-32.67c-5.78-6.76-18.13-11.52-26.87-11.13-9.37.42-20.77,3.41-26.87,11.13-6.9,8.73-11.61,16.16-11.81,27.73a41,41,0,0,0,5.44,21.35c6.46,11.32,16.3,16.51,28,21l-9.08-3.83a8.6,8.6,0,0,1,2.2,1.22l-7.69-5.94.8.85-6-7.69.48,1.08L637,225.67l0,1.37,1.35-10.11-.39,1.34,3.83-9.07c-1.89,4-4,8-6,11.93h65.62C676,173.3,618.8,148.78,566.54,161.21c-23.36,5.55-46.94,19.39-62.4,37.86a137.19,137.19,0,0,0-30.71,68.75c-3.93,26.39-3.62,53.06-7.07,79.47l1.36-10.1a161,161,0,0,1-4,20.4c-1.82,6.63-5,12.88-6.44,19.58-4.41,20.26,3.15,41.32,21.56,52,12,7,28.33,8.31,41.5,3.86,9.39-3.18,17.6-8.74,22.71-17.47,4.76-8.14,6.78-20.15,3.83-29.28-6.05-18.67-26.58-33.35-46.75-26.54Z"/></g><g class="cls-3"><path class="cls-1" d="M615.24,344.21c-2,14.23.59,27.82,5.65,41.17,4.49,11.83,11.9,22.74,14.8,35.1,2.94,12.52,22.23,7.22,19.28-5.32-5.16-22-23.91-41.67-20.44-65.63.77-5.34-1.32-10.74-7-12.3-4.7-1.29-11.52,1.61-12.3,7Z"/></g><g class="cls-3"><path class="cls-1" d="M563.57,343c.84,23.9-4.6,50.83-25.53,65.36-4.43,3.07-6.46,8.76-3.59,13.68,2.57,4.39,9.23,6.68,13.69,3.59,27-18.73,36.54-51,35.43-82.63-.46-12.84-20.46-12.9-20,0Z"/></g><g class="cls-3"><path class="cls-1" d="M676.16,350.7c-7.42,2.62-13.4,8-21.76,6.57-5.32-.92-10.77,1.42-12.3,7-1.32,4.82,1.63,11.38,7,12.3a42.89,42.89,0,0,0,18.22-.32c5.16-1.3,9.28-4.52,14.17-6.25,5.09-1.8,8.49-6.83,7-12.3-1.36-4.93-7.19-8.79-12.3-7Z"/></g><g class="cls-3"><path class="cls-1" d="M525.86,370c4.3.17,8.61,3.55,12.95,4.33a43.83,43.83,0,0,0,16.58-.27c5.3-1,8.34-7.38,7-12.3-1.52-5.54-7-8-12.3-7-8.76,1.71-15.65-4.44-24.21-4.78-12.87-.51-12.85,19.49,0,20Z"/></g><g class="cls-3"><path class="cls-1" d="M509.34,301.61c-7.35,19.77-14.94,39.48-22,59.37-3.2,9-4.81,17.92-3.4,27.49s4.33,19.17,7.2,28.45c5.49,17.74,12.17,35.69,21,52.05,7.85,14.49,19.26,27.91,35.81,32.18,12.47,3.21,17.79-16.08,5.32-19.29-13-3.34-20.32-15.72-25.91-26.94A291,291,0,0,1,509.37,408c-2.31-7.76-5.08-15.91-5.95-24s2.41-15.56,5.12-22.91q10-27.12,20.09-54.21c1.89-5.07-2.1-11-7-12.3-5.6-1.54-10.41,1.9-12.31,7Z"/></g><g class="cls-3"><path class="cls-1" d="M688.84,323.68c3.76,17.85,7.25,35.85,7,54.18s-5.45,35.29-12.49,52c-6.25,14.85-12.18,30.85-24.29,42-11.05,10.17-25.48,15.67-39.92,18.88-12.56,2.8-7.25,22.08,5.31,19.29,27.63-6.14,52.31-21,65.61-46.66A322.62,322.62,0,0,0,708.54,420a135.22,135.22,0,0,0,7.32-46.9c-.4-18.46-3.94-36.74-7.73-54.75-2.66-12.59-21.94-7.26-19.29,5.32Z"/></g><g class="cls-3"><path class="cls-1" d="M650.79,303l16.52,16.57a10,10,0,0,0,14.14-14.14l-16.52-16.57A10,10,0,1,0,650.79,303Z"/></g><g class="cls-3"><path class="cls-1" d="M547.51,307.57c14.35,0,27.93-1.08,40.69-8.21,10.28-5.74,20.71-9.2,32.07-3.75C625.14,298,631.07,297,634,292c2.56-4.37,1.31-11.33-3.58-13.68-13.61-6.53-28.89-7.36-42.82-1.24-6.27,2.75-11.73,7-18.42,8.77-7,1.85-14.4,1.7-21.62,1.7-12.87,0-12.89,20,0,20Z"/></g><g class="cls-3"><path class="cls-1" d="M558.15,466c20.34,9.4,43.21,11.34,64.63,4.32,12.18-4,7-23.31-5.31-19.29-16.11,5.29-33.72,4.87-49.22-2.3-4.9-2.27-10.78-1.39-13.69,3.58-2.52,4.32-1.33,11.41,3.59,13.69Z"/></g><g class="cls-3"><path class="cls-1" d="M539,512.38c1,7.69,1.82,15.42,3,23.08,1.14,7.36,5.69,11.69,11.16,16.27s11,8.85,17.47,11.71c6.29,2.78,12.54,3.27,19.19,4.55,6.46,1.24,11,7,18,5,6.11-1.8,12.39-7.28,16.53-12,10.08-11.35,13.17-25.8,7.22-39.87-2.11-5-9.45-6.06-13.68-3.58-5.15,3-5.71,8.68-3.59,13.68,1.8,4.24,0,9.65-2.34,13.26a27.14,27.14,0,0,1-5.11,5.7c-1.55,1.35-4.62,3.52-5.45,3.65h5.31l-1.14-.45L610,556a35.93,35.93,0,0,0-17.88-7.73c-6.25-.92-11.85-1.77-17.34-5.12a63,63,0,0,1-7.49-5.51c-1.3-1.09-2.6-2.18-3.85-3.31-.58-.52-2.43-3.18-1.63-1.18-1-2.54-.92-6-1.26-8.65L559,512.38c-.7-5.35-4.1-10-10-10-4.87,0-10.71,4.61-10,10Z"/></g></svg>