<svg id="Layer_1" data-name="Layer 1" xmlns="http://www.w3.org/2000/svg" viewBox="0 0 276.59 421.34"><defs><style>.cls-1{fill:#595959;}.cls-2{opacity:0.2;}.cls-3{opacity:0.15;}</style></defs><title>Earhart</title><path class="cls-1" d="M495.44,401c-.4.22-.51.24-.56.31-.46.7-.89,1.46-1.89,1.44a3.41,3.41,0,0,1-2.65-1.31,25.17,25.17,0,0,1-3.76-7.09c-.59-1.58-1.5-3-2.15-4.5a.57.57,0,0,0-1.07-.1c-.15.24-.23.51-.36.76a2.83,2.83,0,0,1-2.48,1.52,2.41,2.41,0,0,1-2.06-1.16c-.78-.92-1.69-1.72-2.53-2.59a11.56,11.56,0,0,1-2.92-5c-.83-3-1.89-6-2.13-9.19-.1-1.29-.34-2.57-.49-3.86a21.8,21.8,0,0,1,.14-7.47c.23-1.05-.1-1.28-1.21-1a3.51,3.51,0,0,0-.79.27c-2.27,1.23-4.66.95-7.06.54a8.18,8.18,0,0,1-4.41-2.7,2.28,2.28,0,0,1-.59-1.52,8.57,8.57,0,0,1,1.7-6.28c1.52-1.86,3-3.76,4.6-5.56,3.45-3.84,6.65-7.86,8.13-13,1.33-4.61,3.11-9.08,3.9-13.85.42-2.55.55-5.15,1.21-7.67,1.34-5.08,1.22-10.28,1.06-15.47-.06-1.94-.35-3.87-.25-5.83a15.2,15.2,0,0,0-.32-2.47,2.07,2.07,0,0,0-.75-1.44c-2.45-2-3-4.72-3.1-7.69,0-2.12,0-4.24,0-6.36a19.67,19.67,0,0,1,7.17-15.33,4.41,4.41,0,0,0,1.71-3,55.72,55.72,0,0,1,4.72-15.65c1.06-2.35,2-4.78,3-7.16,1.22-2.92,2.88-5.6,4.36-8.37,2.31-4.33,5.36-8.22,7.46-12.68a23.34,23.34,0,0,1,2.75-3.82c1.84-2.44,3.53-5,5.14-7.58a42.58,42.58,0,0,1,3.06-4,34.64,34.64,0,0,1,6.74-6.56c3.75-2.7,7.34-5.63,11-8.43,2-1.52,4-3,6.06-4.42a24.67,24.67,0,0,1,8.23-3.91c3.06-.73,5.92-2.12,9-2.74a65.74,65.74,0,0,1,10.15-1.59,33,33,0,0,0,5.51-.71,22.3,22.3,0,0,1,8.54-.27c3,.51,6.07.69,9.11,1.05,5.7.68,11.44,1.14,17.09,2.16s11.36,1.61,16.93,3c3.78,1,7.56,1.86,11.31,2.92a46.34,46.34,0,0,1,4.33,1.83,14.28,14.28,0,0,1,5,2.78c2.93,1.13,5.4,3.2,8.43,4.13a10.24,10.24,0,0,1,2.48,1.23c4.19,2.73,8.39,5.46,12.33,8.56a5.31,5.31,0,0,1,.84.72c3.23,3.81,6.88,7.27,9.49,11.59a35.3,35.3,0,0,1,3.13,6.16,52.8,52.8,0,0,0,3.47,7.24c1.42,2.61,2.47,5.39,3.81,8a58.83,58.83,0,0,1,4.38,12.56c.69,2.78,1.53,5.52,2,8.37a34.45,34.45,0,0,0,1.18,4.57,9.58,9.58,0,0,1,.59,4.37,2.24,2.24,0,0,0,1.35,2.49c1.08.57,2,1.33,3,2a8.12,8.12,0,0,1,3.22,5,42.28,42.28,0,0,1,1.35,5.95,17.24,17.24,0,0,1-2.29,11,6.29,6.29,0,0,1-4,2.83c-1.53.44-1.65.63-1.62,2.12.11,4.07-.24,8.14.08,12.22.21,2.58.13,5.18.17,7.77a4.6,4.6,0,0,0,0,.83c.9,4.19.65,8.49,1.15,12.72a31,31,0,0,0,1,4.61c.71,2.49,1.58,5,2.16,7.47a41.66,41.66,0,0,0,2.6,7c1.6,3.74,2.94,7.59,4.85,11.2a30.64,30.64,0,0,0,3.21,4.85,43,43,0,0,0,4.81,5.38,14.33,14.33,0,0,1,4,7.19,3,3,0,0,1,.07,1.36c-.22,1.09-.51,2.17-.83,3.23a2,2,0,0,1-.57.93,12,12,0,0,1-12.16,2.48c-3.6-1.2-7.2-2.43-10.27-4.8-.68-.53-1.21-.29-1.35.57A68.31,68.31,0,0,1,690,385.78a37.17,37.17,0,0,1-5,10.21,39.16,39.16,0,0,1-7.25,7.64,3.63,3.63,0,0,0-1.56,1.88,2.21,2.21,0,0,1-2.25,1.73,2.55,2.55,0,0,0-2.46,1.86,38.64,38.64,0,0,1-3.44,6,31.45,31.45,0,0,1-5.38,6,13.21,13.21,0,0,1-1.88,1.17c-1.31.8-3.92.16-4.35-1.67-.11-.51-.07-1.14-.84-1.51-.71,1-1.45,2-2.17,3.06-1.88,2.74-3.69,5.54-5.64,8.24-1.19,1.64-2.57,3.16-3.89,4.71a143.37,143.37,0,0,1-12.79,13.52,43.49,43.49,0,0,1-5,3.95c-1.39.92-2.76,1.86-4.08,2.88-1.91,1.47-3.33,3.18-3,5.82a3,3,0,0,1-.23,1.07c-.71,2.59-1.47,5.16-2.13,7.77a49.08,49.08,0,0,0-1.36,12.67c0,1.85-.05,3.71-.12,5.56,0,.77.25,1.27,1,1.41a5.22,5.22,0,0,1,3.16,2.12,3.66,3.66,0,0,0,.59.59c3.55,2.72,5.31,6.64,6.67,10.67a26.93,26.93,0,0,1,1.25,8.5,13.31,13.31,0,0,0,1,4.54c1.35,3.74,1.69,7.61-.1,11.37A17.5,17.5,0,0,1,624,534a2.8,2.8,0,0,0-.61.58c-2.43,3.57-6.3,4.65-10.1,5.85a5.38,5.38,0,0,1-2.73.25,11.71,11.71,0,0,0-3.87.14,3.43,3.43,0,0,0-1.93,1c-1,1-1,1.13.18,2.3a21,21,0,0,1,5.69,9.06,74.27,74.27,0,0,1,2.28,12,4,4,0,0,1-1.53,3.93c-1.35,1.05-2.62.72-3.26-.92a13.78,13.78,0,0,0-4.89-6.25c-1.87-1.36-3.78-2.68-5.75-3.91a18.85,18.85,0,0,1-6.63-6.2c-.27-.47-.77-.45-1.14,0a9.14,9.14,0,0,0-1,1.33,38.05,38.05,0,0,1-5.91,7.34,9.92,9.92,0,0,0-2.39,3.71,11.31,11.31,0,0,0,0,6.57,20.78,20.78,0,0,1,.57,3.56,1.92,1.92,0,0,1-.56,1.51,1.22,1.22,0,0,1-1.74.12,1.62,1.62,0,0,1-.4-.38c-1.32-2.76-3.56-5-4.67-7.87A13.13,13.13,0,0,1,573,560a47.6,47.6,0,0,1,4.5-11.62c.55-1.07,1.24-2.08,1.71-3.18a7,7,0,0,1,2.13-2.86,1.71,1.71,0,0,0,.63-2c-.22-.85-.52-1.16-1.33-1a26.23,26.23,0,0,1-3.32.27,15.11,15.11,0,0,1-6.94-1.76c-1.82-.9-3.61-1.89-5.43-2.8-2.91-1.45-6.06-2.29-9.08-3.49-.25-.1-.53-.13-.8-.22a1.05,1.05,0,0,1-.75-1c0-.52.51-.91,1.21-.85a24.86,24.86,0,0,1,5.72,1c3.88,1.27,7.64,2.8,11.46,4.2a9.19,9.19,0,0,0,7,.11,2.29,2.29,0,0,1,1.06-.27c1.49.14,2.18-.69,2.59-2,.23-.71.54-1.38.76-2.09a.91.91,0,0,0-.74-1.25c-4.44-1.3-8.88-2.62-13.34-3.88a101.24,101.24,0,0,1-13.83-5c-4-1.77-8.08-3.29-12-5.1a112.34,112.34,0,0,1-18.44-10.19,40.44,40.44,0,0,1-5.39-4.82c-1-1.06-2.06-2.13-3.1-3.18-.53-.53-1-.4-1.12.4-.27,1.82-.46,3.67-.68,5.5-.27,2.21-.52,4.42-.8,6.62a12.12,12.12,0,0,1-2.88,6.52,6.41,6.41,0,0,0-.7.86,2.77,2.77,0,0,0,.48,3.31,7.4,7.4,0,0,0,3.62,2c1.88.5,3.78.9,5.67,1.34.58.13,1.08.35,1,1.06a1.25,1.25,0,0,1-1.26,1.22,23,23,0,0,1-8-.64c-1.47-.38-2.77-1.45-4.15-2.2a.65.65,0,0,0-1,.44c0,.09-.08.18-.07.26.11,2.77.76,5.38,2.91,7.27a28.33,28.33,0,0,0,15.24,6.83c2.11.28,4.27.25,6.26,1.16,2.57,0,5.12.71,7.73-.07a41.94,41.94,0,0,1,5.73-1.06,20.66,20.66,0,0,1,6.08.25c1.83.26,3.68.4,5.5.67a37.27,37.27,0,0,1,8.6,2.22,6.34,6.34,0,0,0,1.85.54c3.32.25,6.61,1,10,.63,1-.11,1.42.74,1.33,1.66a1.21,1.21,0,0,1-.89,1,15.23,15.23,0,0,1-8.18,1,27.87,27.87,0,0,1-7-1.6,12.28,12.28,0,0,0-3.78-.88c-2.76-.25-5.49-.75-8.28-.73a2,2,0,0,1-1.56-.45,2.5,2.5,0,0,0-2.83-.44c-.62.19-1.27.29-1.88.5a28.12,28.12,0,0,1-13.75.78c-2.65-.43-5.28-1-7.92-1.52a35,35,0,0,1-9.63-3.52,23.26,23.26,0,0,1-6.81-4.69,16.17,16.17,0,0,1-3.41-7.17,7.33,7.33,0,0,1,.87-5.11c.53-1,1-2,1.52-3a6.91,6.91,0,0,1,2-2.59,6.54,6.54,0,0,0,2.07-2.9,23.67,23.67,0,0,0,1.71-7.82,66.32,66.32,0,0,1,1.51-11.28,8.57,8.57,0,0,1,7-5.9c1.11-.08,2.22-.12,3.33-.2s1.21-.17,1.42-1.3c.54-2.91,1.15-5.82,1.55-8.75s0-5.74-.06-8.61c0-1-.11-2-.2-3.05a23.63,23.63,0,0,0-.36-3c-.65-3-1.37-6-2.06-8.94a5.39,5.39,0,0,1-.15-2.75c.6-1.85-.29-3.27-1.26-4.58a46.81,46.81,0,0,0-3.64-4.2,25.91,25.91,0,0,1-3.06-3.95c-1.88-3-3.69-6-5.56-9-1.23-2-2.58-3.85-3.78-5.83A96.85,96.85,0,0,1,497,406.28C496.45,404.63,496,402.93,495.44,401Zm200-118.74-.15,0s.07-.1.06-.1l.06-.06ZM607.12,559.51l.08-.06-.14.14a5.75,5.75,0,0,0-.32-3.8,9.53,9.53,0,0,1-.73-3.46,3.66,3.66,0,0,0-1-2.5c-.88-1-1.8-1.86-2.75-2.73a1,1,0,0,0-1.65.25,5.33,5.33,0,0,1-4.17,2.82.9.9,0,0,0-.27.07.53.53,0,0,0-.24.88,8.25,8.25,0,0,0,1.49,1.62C600.6,555,603.86,557.28,607.12,559.51ZM517.39,239.84a12.37,12.37,0,0,0-4.92,2.44,35.74,35.74,0,0,1-3.79,2.3c-2.83,1.56-5.62,3.19-8.43,4.81s-5.79,3.66-8.85,5.21c-2.06,1.05-4,2.3-6.09,3.34a17.64,17.64,0,0,0-5.58,4.93,9,9,0,0,0-2.15,4.16q-.45,2.87-.86,5.75a4.44,4.44,0,0,0,0,1.66A11.7,11.7,0,0,1,477,278c0,.09,0,.19,0,.28a.63.63,0,0,0,1,.52c2.13-1.31,4.22-2.67,6.35-4,2-1.2,4.07-2.18,5.93-3.57a33.76,33.76,0,0,1,4.25-2.63c6.45-3.44,12.67-7.3,19-11,.63-.37,1.24-.81,1.83-1.24a2,2,0,0,0,.82-2.2,12,12,0,0,1-.5-3.56c.06-1,.21-2,.19-3a19.82,19.82,0,0,1,1.59-7.83l-.11-.13Zm-25.3,159.07a9.4,9.4,0,0,1,1.26-1.21,1.11,1.11,0,0,0,.47-1.43c-.52-1.59-1.07-3.16-1.58-4.75-.34-1.06-.7-2.11-1-3.19-1.2-4.95-2.41-9.9-3.53-14.86-.65-2.9-1.83-5.66-2.12-8.63a47.25,47.25,0,0,0-1.25-5.69c-.34-1.53-.84-3-1.16-4.57a11.56,11.56,0,0,1-.2-2.76,2,2,0,0,1,1.79-2.13c.74,0,1.48.82,1.56,2a21.22,21.22,0,0,0,1.37,5.94,11.18,11.18,0,0,1,.37,1.62,78.51,78.51,0,0,0,2.45,10.26,65.61,65.61,0,0,1,2.33,9.15,99.35,99.35,0,0,0,3.53,13.13c.85,2.55,1.79,5.08,2.52,7.66a37.16,37.16,0,0,0,4.2,10.23,16.09,16.09,0,0,1,.67,1.53,87.65,87.65,0,0,0,5,9.6c2.31,3.58,4.47,7.25,7,10.7a20.08,20.08,0,0,1,1.12,1.92,47.63,47.63,0,0,0,8.63,10.83c3.12,3,6.63,5.62,10,8.4a14.54,14.54,0,0,0,1.39.92,64.27,64.27,0,0,0,13,6.21,18.38,18.38,0,0,0,3,.58,31.87,31.87,0,0,1,4.9.93,28.33,28.33,0,0,0,5.95,1.22c3.12.4,6.24.81,9.34,1.34a16.56,16.56,0,0,0,3.58.26,77,77,0,0,0,9.92-1.33,3.41,3.41,0,0,1,2.44.05c1.28.79,2.54.41,3.76.1,1.79-.47,3.53-1.13,5.31-1.65a90.75,90.75,0,0,0,11.15-4.2c3.39-1.5,6.66-3.24,9.88-5.06a38.27,38.27,0,0,0,5.95-4c1.68-1.43,3.49-2.73,5.11-4.21,2.59-2.38,5-4.95,7.43-7.51a81,81,0,0,0,6.9-8.34,100.33,100.33,0,0,0,7.33-11.13c1.4-2.61,2.87-5.18,4.26-7.79,1.66-3.11,3.26-6.23,4.89-9.35,1.41-2.71,2.54-5.54,3.89-8.28,3.82-7.72,7.95-15.27,11.58-23.08a42.55,42.55,0,0,0,3.19-8,6,6,0,0,1,2.16-3.49,1.38,1.38,0,0,0,.42-1.72c-.52-1.77-1-3.55-1.48-5.35a58.43,58.43,0,0,1-1.19-14.63c0-1.57.06-3.14,0-4.71-.25-5-.48-10-.73-15a15.3,15.3,0,0,0-.17-1.66c-.1-.7-.57-.9-1.18-.51-.94.6-1.82,1.29-2.8,1.79a1.55,1.55,0,0,1-2.23-1.58,2.91,2.91,0,0,1,.43-1.29,3.23,3.23,0,0,0,.56-1.82,40.42,40.42,0,0,0-2-13.68,6.82,6.82,0,0,0-1.52-2.63c-.47-.49-1-.45-1.31.21a32.25,32.25,0,0,1-3,5.33c-.95,1.51-2,2.9-1.72,4.82a.86.86,0,0,1-.85.92,1,1,0,0,1-1.21-.44,3.93,3.93,0,0,0-1.14-1.54,1.59,1.59,0,0,1-.49-2,4.22,4.22,0,0,0,0-3c-.38-1.43-.68-2.89-1.1-4.31a19.75,19.75,0,0,0-6.42-9.83c-1.49-1.24-2.06-1.05-2.24.72a11.54,11.54,0,0,1-2.12,5.37.77.77,0,0,1-1,.36c-1.17-.53-2.48-.93-2.43-2.63a2,2,0,0,0-.3-1.06c-1.76-2.59-3.12-5.43-5.47-7.65-2.7-2.53-5.62-3.78-9.3-2.89a15.33,15.33,0,0,1-1.65.27c-3.07.38-6.1.48-9-.92a12.36,12.36,0,0,0-2.12-.63,31.35,31.35,0,0,1-5.24-1.85,11.51,11.51,0,0,0-2.33-.88,10.29,10.29,0,0,1-4.85-2.51,7.89,7.89,0,0,0-5.89-2c-4.54.09-9.08.24-13.61.54q-6.1.39-12.22.25a2.29,2.29,0,0,0-2.15.88c-1.42,1.78-3.58,2.58-5.33,3.93-5.05,1.81-9.7,4.59-15,5.73a12.79,12.79,0,0,1-6.27,0,61.58,61.58,0,0,1-8.25-3.22,1.89,1.89,0,0,0-2,.1,25.32,25.32,0,0,0-4.76,4.25A42.93,42.93,0,0,0,525,286.3a5,5,0,0,0-.95,2.53,1.86,1.86,0,0,1-2.88,1.4,7.33,7.33,0,0,1-3.5-6.82c0-.64.17-1.28.18-1.93,0-.23-.14-.6-.31-.66a.91.91,0,0,0-.73.22A44.36,44.36,0,0,0,509,292.12a2.39,2.39,0,0,0-.22,1.07c0,1.4-1,2.14-1.86,2.93a.86.86,0,0,1-1.39-.32c-.42-1.42-1.54-2.53-1.72-4.06a1.34,1.34,0,0,0-.7-1.1.71.71,0,0,0-.62.49c-.65,1.43-1.32,2.86-1.94,4.31-1.66,3.89-2.82,7.85-1.53,12.12a1.8,1.8,0,0,1-.71,2c-1.16,1-1.84,1-3.31-.22-.11-.09-.32-.07-.65-.12-.54,2.3-1.12,4.6-1.63,6.93s-.86,4.55-1.38,6.8c-.78,3.34-1.72,6.63-2.43,10A38.43,38.43,0,0,1,486.7,340c-1.51,3.48-2.94,7-4.6,10.4a6.48,6.48,0,0,1-1.05,1.61c-.88,1-1.73,1.94-2.6,2.9a29.15,29.15,0,0,1-3.92,3.53c-.54.41-.93,1-.42,1.66a2.47,2.47,0,0,1,.14,2.59,15.58,15.58,0,0,0-.8,5.47,51,51,0,0,0,2.75,15,14.65,14.65,0,0,0,3,5,.56.56,0,0,0,.93-.06,4.91,4.91,0,0,0,1-2.27,21.59,21.59,0,0,1,1.26-3.68c.29-.79.9-.87,1.55-.88s1.15.48,1.27,1.21a5.87,5.87,0,0,0,.32,1.33q2.88,7.08,5.77,14.14A1.38,1.38,0,0,0,492.09,398.91Zm197.1-141.53a3,3,0,0,0,0-.78c-.54-2.63-1-5.26-1.68-7.87-1.48-6.21-2.72-12.48-5.45-18.33-1.29-2.77-2.39-5.61-3.94-8.26a53.7,53.7,0,0,1-3.94-7.65,43.25,43.25,0,0,0-8-12.92,54.34,54.34,0,0,0-7.73-7.13c-1.83-1.42-3.76-2.7-5.68-4a11.32,11.32,0,0,0-2.19-1.19,74.88,74.88,0,0,1-9.13-4.69,19.47,19.47,0,0,0-1.92-1.11c-3.06-1.31-6-2.77-9.23-3.81a117.63,117.63,0,0,0-15.82-4.15c-5.57-1-11.12-2-16.73-2.72-6.81-.83-13.61-1.68-20.44-2.25a32.59,32.59,0,0,0-9.14.28c-3.63.71-7.31,1.15-11,1.8a54.67,54.67,0,0,0-10.92,3.08c-.68.28-1.36.59-2.05.85a46.37,46.37,0,0,0-10.14,5c-1.38,1-2.5,2.23-3.92,3.07-2.4,1.43-4.49,3.27-6.76,4.86a41,41,0,0,0-9.23,8.74,44.87,44.87,0,0,0-3.32,4.4,40.43,40.43,0,0,1-2.71,3.86c-.56.74-1.08,1.5-1.64,2.24a65.89,65.89,0,0,0-5,8,37.64,37.64,0,0,1-2.38,3.75,49.69,49.69,0,0,0-4.8,8.72c-1.11,2.55-2.17,5.11-3.22,7.68q-1.79,4.37-3.52,8.75a13.17,13.17,0,0,0-.72,2.39c-.27,1.45-.47,2.92-.64,4.39-.09.7.39.95,1.11.65.25-.11.51-.22.75-.35,3.9-2.12,7.93-4,11.69-6.4,2.35-1.49,4.73-2.9,7.14-4.28a91.19,91.19,0,0,0,10-6.52,8.47,8.47,0,0,1,1.62-1.05,4.57,4.57,0,0,0,2.54-2.8A9.74,9.74,0,0,1,523.6,228a27.4,27.4,0,0,0,2.13-2.55,24.06,24.06,0,0,1,5.34-4.83c.89-.61,2.1-.78,3-1.38,2.54-1.64,5.44-2.28,8.27-3.1a12,12,0,0,1,4.69-.32,35.79,35.79,0,0,0,3.86.39,36.21,36.21,0,0,1,6.07.62,18,18,0,0,1,9.94,4.56c1.53,1.47,3.26,2.74,4.9,4.09a5.46,5.46,0,0,1,.87.68,41.67,41.67,0,0,1,4.4,6.39c.7,1.48.73,1.45,2.25,1.31,3.32-.3,6.63-.83,10-.28.54.1,1.09.19,1.64.27,1.26.18,1.65,0,2.16-1.18.32-.76.54-1.57.81-2.36a14.81,14.81,0,0,1,2-4c.93-1.26,1.91-2.5,2.84-3.76a17.24,17.24,0,0,1,6.13-5.11,67.72,67.72,0,0,1,8-3.24,8.44,8.44,0,0,1,2.17-.43,53.47,53.47,0,0,1,8.58.11,39.8,39.8,0,0,1,9.29,1.37,7.19,7.19,0,0,0,.83.13,17.13,17.13,0,0,1,9.87,5.27,82.38,82.38,0,0,1,6.21,7.1,50.1,50.1,0,0,1,4.17,6.85,6.07,6.07,0,0,1,.73,2.08c.12.94,1.32.57,1.68,1.27.13.25.34.44.49.68,1.69,2.59,4.55,3.72,6.89,5.49,2.27.43,4,1.86,5.82,3.13a69.34,69.34,0,0,0,13.87,7.56,15.66,15.66,0,0,1,3.46,1.76A3.11,3.11,0,0,0,689.19,257.38Zm-160,195.68a1.24,1.24,0,0,0-.26,1.41,35.33,35.33,0,0,1,.7,8.58c0,2.87-.27,5.74-.26,8.61a85.47,85.47,0,0,1-1,13.56c-.24,1.55-.17,3.2-1.06,4.55a8.71,8.71,0,0,0-1.34,3.61,4.82,4.82,0,0,1-.8,2.34,1.14,1.14,0,0,1-1.19.52,1,1,0,0,1-.85-1c0-.73.11-1.47.16-2.2a.9.9,0,0,0-.72-1,1.08,1.08,0,0,0-1.32.73,2.68,2.68,0,0,0,.64,2.82,19,19,0,0,1,1.88,2,23.86,23.86,0,0,0,6,5.33c3.31,2,6.73,3.89,10.11,5.8a21.58,21.58,0,0,0,2.7,1.4c5.33,2.12,10.56,4.47,15.77,6.85a44.29,44.29,0,0,0,5.6,2.4c2.92.88,5.82,1.85,8.75,2.68s5.59,1.89,8.45,2.63a40.93,40.93,0,0,1,4.27,1.22,3.72,3.72,0,0,0,3.45-.11,3.86,3.86,0,0,1,3.22-.28c.71.22,1.43.39,2.13.62a26.13,26.13,0,0,0,3.74.78l.78-1.65a22.88,22.88,0,0,1,4.8-7.07c.89-.81,1.77-1.63,2.63-2.47,2.26-2.19,4-4.83,6.53-6.8a6.56,6.56,0,0,0,.95-1,13.51,13.51,0,0,0,2.71-5.1c.15-.59.16-1.06-.47-1.4a7,7,0,0,1-3.23-4.33,18.07,18.07,0,0,1-.92-4.9c-.23-5.37-.57-10.72.06-16.09a47.9,47.9,0,0,1,1.34-7.64c.7-2.41,1-4.89,1.49-7.34a.81.81,0,0,0-1.2-.93c-2.25,1.07-4.68,1.76-6.82,3.09a10.2,10.2,0,0,1-5.2,1.78,6.59,6.59,0,0,0-1.62.34,38.74,38.74,0,0,1-10.61,1.95,9.15,9.15,0,0,0-1.66.14c-3.5.6-7,.37-10.54.47a29.87,29.87,0,0,1-4.44-.17c-4.68-.58-9.36-1.2-14-2.2-1.71-.37-3.47-.63-5.14-1.15a14.92,14.92,0,0,0-2.68-.64,16.81,16.81,0,0,1-4-1c-2.43-.92-4.88-1.77-7.26-2.79a24.77,24.77,0,0,1-6.37-3.91A30.6,30.6,0,0,0,529.15,453.06Zm-8.26-204.53a34.62,34.62,0,0,0,1.6,7.83,10.25,10.25,0,0,0,2.08,3.89,33,33,0,0,0,6.67,6.62c2,1.33,3.93,2.73,6,3.92,3.71,2.14,7.94,2.4,12,3.2a9.6,9.6,0,0,0,2.76-.16c3.57-.42,6.68-2.13,9.82-3.69a15.31,15.31,0,0,0,5.3-4.31,21.25,21.25,0,0,0,3.12-5.22,39.08,39.08,0,0,0,2.53-9.35c.14-1,.17-2,.4-3,1-4,.27-7.94-.63-11.82a15.33,15.33,0,0,0-4.85-8.22,16.72,16.72,0,0,1-1.58-1.57,11.91,11.91,0,0,0-7-3.78c-2.81-.55-5.64-1-8.47-1.47-1.28-.21-2.57-.41-3.86-.52a11,11,0,0,0-6.68,1.45c-2.39,1.42-4.79,2.82-7.06,4.41a28.23,28.23,0,0,0-8.41,8.72,12.07,12.07,0,0,1-1.25,1.83,6.32,6.32,0,0,0-1.34,3,26.1,26.1,0,0,1-.71,3.54A10.54,10.54,0,0,0,520.89,248.53Zm96.56-27.71c-1.09.06-1.93.08-2.75.17a34.42,34.42,0,0,0-6,.79,14.87,14.87,0,0,0-9.9,9,47.36,47.36,0,0,0-3.38,13.7,19.59,19.59,0,0,0,.07,5,32.39,32.39,0,0,0,1.64,5.58,8.49,8.49,0,0,0,1.63,2.89,51.58,51.58,0,0,0,7.63,6.83,12.11,12.11,0,0,1,1.61,1.06,10.16,10.16,0,0,0,5.47,2.53c3.18.59,6.39,1,9.6,1.49a10.2,10.2,0,0,0,1.66.06,43.41,43.41,0,0,0,8.5-1.27,16.19,16.19,0,0,0,4.61-1.89,15.82,15.82,0,0,0,6.21-7.28c2.16-4.63,3.33-9.6,4.66-14.51a7.52,7.52,0,0,0,0-3.59c-.6-2.71-1.29-5.4-2-8.09a6,6,0,0,0-1.46-2.63,18.81,18.81,0,0,0-3.14-2.71,50,50,0,0,0-9.54-5.62A15.4,15.4,0,0,0,627.2,221C623.87,220.86,620.53,220.86,617.45,220.82Zm62.16,53.37a1.33,1.33,0,0,0,.34,1.26c1.49,2.23,2.54,4.73,4.25,6.82.29.35.81.68.65,1.15-.43,1.27.2,2.36.43,3.52a32.92,32.92,0,0,1,.8,8.28,3.41,3.41,0,0,1-.64,2.36,7.22,7.22,0,0,0-1.29,2.73c-.88,2.23-1.1,4.7-2.45,6.77a1.55,1.55,0,0,0,0,1.33,30.37,30.37,0,0,1,1.16,8.21c0,1.93-.15,3.88-.06,5.81.18,3.79.59,7.58.71,11.37a46.82,46.82,0,0,1,0,7.49,7.38,7.38,0,0,0,.12,1.93A57.6,57.6,0,0,0,689.74,361a23.55,23.55,0,0,0,5.37,6.95,29.17,29.17,0,0,0,8.67,5.39,13.87,13.87,0,0,0,7.11.47,1.92,1.92,0,0,0,1.41-.82c1-1.58,1.69-2.83.32-4.87a8.18,8.18,0,0,0-1-1.3,67.42,67.42,0,0,1-7.2-8.44,19.56,19.56,0,0,1-3.4-6.58,4.12,4.12,0,0,0-.5-1.29c-1.81-2.51-2.54-5.55-4-8.25a13.64,13.64,0,0,1-1.47-5,10.15,10.15,0,0,0-.34-1.62c-.78-2.67-1.65-5.31-2.35-8a24.79,24.79,0,0,1-1.06-6.85c0-1.3-.25-2.59-.24-3.89s-1-2.23-.8-3.46a14,14,0,0,0,.33-3.59c-.31-4.52-.05-9.08-.55-13.6a5.4,5.4,0,0,1,0-1.39c.59-4.53-.65-9.07.09-13.6a1.6,1.6,0,0,0-.75-1.66,60.07,60.07,0,0,0-8.2-5.21C680.72,274.13,680.18,273.74,679.61,274.19ZM488,276.58c-1.4.61-2.59,1.65-4,2.36a31.37,31.37,0,0,0-3.83,2.74,1.83,1.83,0,0,0-.76,2.17,20.36,20.36,0,0,1,.51,3.56c.21,3.24.37,6.48.51,9.72.11,2.86.48,5.73,0,8.6q-1.06,7-2.15,14a32,32,0,0,1-.58,3.55c-.93,3.58-1.92,7.14-2.94,10.7a24.24,24.24,0,0,1-1.49,4.16,44.36,44.36,0,0,1-3.28,5.46c-2.15,3-4.22,6.08-7,8.56a9.64,9.64,0,0,0-2.12,3.23,1.82,1.82,0,0,0,1.19,2.65,7.63,7.63,0,0,0,6.47-.37A26.81,26.81,0,0,0,479.78,346c1.22-2.51,2-5.18,3.14-7.71a51.62,51.62,0,0,0,2.66-8.75,33.82,33.82,0,0,1,1-3.74,21.56,21.56,0,0,0,1-4.33c.18-1.18.32-2.39.61-3.55,1-3.95,1.46-8,2.76-11.87a3.43,3.43,0,0,0,.2-.81c0-.27,0-.67-.11-.79-1.12-.88-.64-2.25-1.08-3.31a52.85,52.85,0,0,1-1.51-5.33,35.45,35.45,0,0,1-1.25-8.78,22.8,22.8,0,0,1,.9-8.79A1.45,1.45,0,0,0,488,276.58Zm149.43-2.9a3.59,3.59,0,0,0,1.6,1.58,15.55,15.55,0,0,1,3.66,3.76c.7,1,1.31,2,2,3s1,2.2,2.06,2.88c1.25-.81,1-2.27,1.51-3.43a3,3,0,0,0,.11-.54c.37-1.56,1-2,2.49-1.95a3.38,3.38,0,0,1,2.24,1c.61.56,1.18,1.17,1.76,1.77,3,3.12,5.49,6.5,6.71,10.71.33,1.15.58,2.33.92,3.48a1.43,1.43,0,0,0,.57.87c.37.17.7-.2.9-.51a39.84,39.84,0,0,0,3.28-5.13,6.06,6.06,0,0,1,1.57-2.26.68.68,0,0,1,1,0,34,34,0,0,1,4.16,6.51,35,35,0,0,1,2.36,11.36c0,.61-.22,1.29.34,1.8.17-.07.4-.08.47-.2a38.85,38.85,0,0,0,4.73-10.9c.57-2.41,1.19-4.87.05-7.33a3.57,3.57,0,0,1-.15-1.1c-.29-2.58-.72-5.11-2.32-7.3a3.91,3.91,0,0,1-.4-1.57,5.72,5.72,0,0,0-1.63-3.15,5.52,5.52,0,0,1-1.87-3,2.44,2.44,0,0,0-1.8-2c-2.36-.43-4.64-1.25-7.06-1.38-3.24-.17-6.47-.24-9.69-.67-2.66-.35-5.34-.54-8-.64-1.68-.07-3.31-.38-5-.55-1.4,1-2.79,2.06-4.21,3.07-.53.37-1.13.64-1.66,1A6.47,6.47,0,0,0,637.45,273.68ZM495,303.45c.78-2.61,1.52-4.51,1.9-6.49a14.75,14.75,0,0,1,5.76-9.4,4.07,4.07,0,0,0,1.17-1.49c.43-.81,1.19-.77,1.74-.05a2.91,2.91,0,0,1,.55,1.54,1.94,1.94,0,0,0,.42,1.29.44.44,0,0,0,.7,0,3.36,3.36,0,0,0,.43-.71,39.89,39.89,0,0,1,7.77-10.39,22.91,22.91,0,0,1,3.81-2.75c1-.65,1.68-.53,2.25.1.9,1,1,1.54.13,2.64a2.87,2.87,0,0,0-.77,1.43c-.11,1.11-.27,2.21-.34,3.31a4.5,4.5,0,0,0,.79,2.89.5.5,0,0,0,.73.13,4.75,4.75,0,0,0,.69-.85c2.07-2.94,3.71-6.2,6.39-8.69.48-.44.92-.91,1.37-1.37.67-.7.69-1-.08-1.55a27.86,27.86,0,0,1-5.28-4.47,2.07,2.07,0,0,0-2.72-.6,1.61,1.61,0,0,1-1,.22c-1.57-.43-3.11,0-4.67,0a117.72,117.72,0,0,0-14.64,1.27,19.49,19.49,0,0,0-8.65,3.44c-.78.54-1.17,1.07-.82,2a3.82,3.82,0,0,1-.57,2.92,18,18,0,0,0-1.45,7.29,61.83,61.83,0,0,0,1.09,10.76,21.64,21.64,0,0,0,1.06,3.44,1.77,1.77,0,0,0,1,1.29C494.72,301,494.87,301.88,495,303.45Zm201.26-23.34a10.87,10.87,0,0,0,1.23-3.7,23.29,23.29,0,0,0-1.63-9.77,4,4,0,0,0-1.69-2.15,88.38,88.38,0,0,0-11.78-6.14c-1.62-.68-3.2-1.39-4.78-2.16-5.58-2.72-10.66-6.3-16-9.35-1.77-1-3.38-2.26-5.09-3.36-.79-.5-1.26-.27-1.35.61-.15,1.56-.15,3.15-.39,4.7a27.3,27.3,0,0,1-2.12,7.16,1,1,0,0,0,.43,1.42c3.69,1.91,7.18,4.19,11.23,5.39a28.87,28.87,0,0,1,5.14,2c1.71.91,3.55,1.58,5.28,2.45,2.82,1.4,5.63,2.81,8.38,4.33,2.1,1.16,4.14,2.43,6.35,3.39a14.9,14.9,0,0,1,5.42,3.8C695.22,279.16,695.65,279.51,696.27,280.11ZM660.1,418.58a4.43,4.43,0,0,0,2.38-1.7c2.22-2.73,3.92-5.82,5.86-8.75a5.82,5.82,0,0,0,.37-1,21.41,21.41,0,0,0,1.53-5.61c.1-.74.18-1.59.86-2a7,7,0,0,0,2.45-2.47c.55-.83,1.48-.59,1.94.33a9.76,9.76,0,0,1,.61,3.53.52.52,0,0,0,.84.33c.88-1,1.8-1.87,2.59-2.89A42.8,42.8,0,0,0,686.37,386a64.2,64.2,0,0,0,3.77-15,2.46,2.46,0,0,0-.56-2,21.25,21.25,0,0,1-2.82-4.44c-.56-1.07-1.13-2.13-1.72-3.18a1.09,1.09,0,0,0-.59-.52c-.46-.08-.59.37-.75.68a8.11,8.11,0,0,0-.4,1A96.81,96.81,0,0,1,677,376.16c-.72,1.3-1.42,2.59-2,3.94-1.23,2.59-2.36,5.25-3.79,7.72-1.16,2-2.21,4.06-3.17,6.17-.88,1.93-1.67,3.91-2.61,5.82-1.73,3.47-3.55,6.91-5.32,10.37a14.29,14.29,0,0,0-1.74,3.75c-.25,1.45,1,2.71,1.33,4.14C659.73,418.23,659.91,418.35,660.1,418.58ZM616.58,529.29c-.9,1-1.37,2.41-3.1,1.69a.45.45,0,0,0-.28,0,13.38,13.38,0,0,0-6,4.75c-.17.22.09.53.41.53,1.21,0,2.41,0,3.61-.11a11.06,11.06,0,0,0,4.75-1.4,20.73,20.73,0,0,0,8.21-8.42,8.51,8.51,0,0,0,.85-4.58.55.55,0,0,0-.3-.39.49.49,0,0,0-.46.18c-.47,1.18-1.45,2.19-1.18,3.62,0,.21-.18.51-.35.71s-.32,0-.49,0c.08-1.09-.46-1.31-1.46-1.2-.49,0-.74-.5-.69-1a5.09,5.09,0,0,1,.27-1.07c.7-2,1.44-4,2.13-6a10.71,10.71,0,0,0,.44-1.88c.51-3.08-.49-6-.77-9.06a3.62,3.62,0,0,0-.44-1c-.12-.26-.29-.55-.59-.48a1,1,0,0,0-.56.54c-.39.93-.48,2.12-1.13,2.78-1.38,1.39-2.39,3.06-3.78,4.42-1.91,1.88-3.83,3.74-5.73,5.63a127.64,127.64,0,0,0-9.79,11.72,10.41,10.41,0,0,1,2.29,3.45c.36.81.76.83,1.47.18.41-.38.77-.81,1.18-1.18a15,15,0,0,1,7-3.86c1.08-.24,2.16-.54,2.94.76C615.22,529,616,529,616.58,529.29ZM583.85,251.75c-.64.08-1.74.29-2.84.34a2,2,0,0,0-2,1.58,95.09,95.09,0,0,1-4.37,10.49,2.13,2.13,0,0,0-.08.27.78.78,0,0,0,.57,1.06,17.79,17.79,0,0,0,1.93.07c1.48,0,3-.12,4.44-.09a25.49,25.49,0,0,0,4.7-.17,37.72,37.72,0,0,1,5-.2l5-.13a2.25,2.25,0,0,0,.81-.16.47.47,0,0,0,.24-.68,4.49,4.49,0,0,0-.86-1.07,10.26,10.26,0,0,1-2.89-4c-.91-2-2.08-3.93-3.09-5.9a2.48,2.48,0,0,0-2.48-1.43C586.72,251.77,585.52,251.75,583.85,251.75Zm7.07-9.34a13.1,13.1,0,0,1-.28-1.8,2.05,2.05,0,0,0-1.38-1.88,17.41,17.41,0,0,0-9.67-1.47c-.84.08-1.2.52-1,1.31a38.11,38.11,0,0,1,1.2,8.75,1.33,1.33,0,0,0,0,.28c.15.92.55,1.22,1.54,1.13.45,0,.91-.16,1.36-.21l5-.43c.61-.05,1.24.63,1.82,0a3.37,3.37,0,0,0,.56-1.82c.17-.81.4-1.61.58-2.42C590.78,243.34,590.85,242.8,590.92,242.41Zm56.29,24c3.68.31,7.43.55,11.2.68a1.26,1.26,0,0,0,.27,0,11.91,11.91,0,0,1,3.86.11,7.17,7.17,0,0,0,2.66.27c-.19-.71-.73-.7-1.13-.86a65,65,0,0,1-8-3.76,21.07,21.07,0,0,0-3-1.44c-2.48-.95-2.12-1.19-3.51.95-.55.85-1.25,1.6-1.81,2.43C647.44,265.19,646.94,265.58,647.21,266.42Zm-125.87-1.53a44,44,0,0,1-3.28-5.42.8.8,0,0,0-1.16-.41q-4.5,2.69-9,5.41c-.21.12-.45.36-.07.81Zm78.43,274.16a5.73,5.73,0,0,0-.85-2.79.71.71,0,0,0-1.31.08,14.57,14.57,0,0,1-3.49,4.93,3.83,3.83,0,0,0-.8,1.12c-.7,1.44-.4,2.15,1.1,2.79s2.16.43,3.43-.76A6.47,6.47,0,0,0,599.77,539.05Zm-21.72,19.5c1.22-.56,2.54-.83,3.31-2,1-1.53,2-3.08,3.12-4.56.72-1,1.17-1.84.1-2.9a1.52,1.52,0,0,1-.13-1.82,7,7,0,0,0,.5-1,.51.51,0,0,0-.15-.46.54.54,0,0,0-.49.14A33.58,33.58,0,0,0,578.05,558.55Zm8.87-21.91c.09,0,.2.05.26,0a16.34,16.34,0,0,1,6.15-2.31c.58-.09.82-1.1.4-1.62a15.31,15.31,0,0,0-1.7-1.81,1.6,1.6,0,0,0-2.24-.09c-1.91,1.29-2.48,3.35-3.11,5.38C586.64,536.31,586.84,536.49,586.92,536.64Z" transform="translate(-454.96 -159.88)"/><path class="cls-1" d="M531.42,524.59a4.77,4.77,0,0,1,1.14.16,31.78,31.78,0,0,1,7.74,3.68,1.58,1.58,0,0,1,.7,1.68,1.12,1.12,0,0,1-1.42.95,10.1,10.1,0,0,1-1.21-.65,22.77,22.77,0,0,0-7-2.62,4.86,4.86,0,0,1-.55-.1,1.79,1.79,0,0,1-1.3-1.89C529.65,525.12,530.31,524.64,531.42,524.59Z" transform="translate(-454.96 -159.88)"/><path class="cls-1" d="M585.29,420.88a4.08,4.08,0,0,0-.55,0c-1.83.64-3.67-.78-5.64.34-1.63.92-3.71,1-5.58,1.53a14.15,14.15,0,0,1-12-1.68c-1.85-1.21-3.93-2.08-5.36-3.87-3.83-2.11-6.75-5.48-10.59-7.58a36.22,36.22,0,0,1-4.5-3.26,4.84,4.84,0,0,1-2-2.59,2,2,0,0,0-1-1.3c-1.45-.8-1.69-2.35-2.26-3.67a1.33,1.33,0,0,1,.86-1.78,3.43,3.43,0,0,1,3,0c2.43,1.15,4.87.81,7.33.2A112.18,112.18,0,0,0,558.81,394a29.13,29.13,0,0,1,3-.75,8.24,8.24,0,0,1,4.92.27,21.36,21.36,0,0,1,6,2.9,3.93,3.93,0,0,0,1.16.72c1,.3,2,.53,2.85-.36a11.27,11.27,0,0,1,1.54-1.19c3.14-2.3,6.69-2.38,10.34-1.86a1,1,0,0,1,.53.17c1.48,1.32,3.43,1.25,5.18,1.78,2.92.88,5.82,1.83,8.65,3a27.39,27.39,0,0,0,6.21,1.42,6.38,6.38,0,0,0,3-.33c1.29-.43,2.51-1.25,4-.86.19.06.49-.21.72-.36.56-.38.71-1,.24-1.4a24.08,24.08,0,0,1-2.1-2.55,45.1,45.1,0,0,1-7.32-12c-.91-2.13-1.72-4.3-2.54-6.46a4.69,4.69,0,0,1-.35-1.6,1.59,1.59,0,0,1,2-1.43c.53.13.69.55.82,1,.67,2.31,1.34,4.61,2.14,6.88a48.6,48.6,0,0,0,6.68,12.41,23.08,23.08,0,0,0,3,3.94,1.56,1.56,0,0,1,.33,1.81c-.21.51-.3,1.18-.67,1.51-1.92,1.69-3.18,4.15-5.66,5.19A44.49,44.49,0,0,0,601.26,414a44.61,44.61,0,0,1-5.88,4.16,16.9,16.9,0,0,1-3.89,1.46C589.39,420.27,587.29,421,585.29,420.88Zm-43.3-19a.68.68,0,0,0,.27.73,27.59,27.59,0,0,0,5.34,4,53.22,53.22,0,0,1,8.08,4.85c2,1.52,4,3.06,5.89,4.63a14.92,14.92,0,0,0,10.5,3.62c1.66-.1,3.33-.1,5-.13a1.58,1.58,0,0,0,1.68-1.11c.45-1.11,1-1.43,1.88-1.07,2.35,1,4.73.57,7.13.39a6.77,6.77,0,0,0,2.87-.91,47.37,47.37,0,0,0,6.84-4.74,45.87,45.87,0,0,1,7.06-5.33,34.41,34.41,0,0,0,3.21-2.2c.58-.41.48-.84-.2-1.23a4,4,0,0,0-1.58-.46,16.66,16.66,0,0,1-2.72-.48A49.5,49.5,0,0,0,597.6,401a11.77,11.77,0,0,1-4.12-1.61,8.06,8.06,0,0,0-2.25-1c-2-.48-4-.83-6-1.24a5,5,0,0,0-3,.34,10.93,10.93,0,0,0-4.33,3.36,2.91,2.91,0,0,1-3.24,1A8,8,0,0,1,571,399.9a10.91,10.91,0,0,0-8.39-2.92,26,26,0,0,0-8.06,1.92,34.76,34.76,0,0,1-7.79,2c-1.55.19-3.09.54-4.63.83C542.1,401.71,542.05,401.81,542,401.86Z" transform="translate(-454.96 -159.88)"/><path class="cls-1" d="M619.31,320.42a34.35,34.35,0,0,0-6,4.45c-.45.46-.87.95-1.33,1.41a1.6,1.6,0,0,1-1.8.31,1.18,1.18,0,0,1-.69-1.36c.06-.17.07-.4.19-.51,1.67-1.58,2.76-3.67,4.8-4.94a47.93,47.93,0,0,1,9.16-4.61,15.33,15.33,0,0,0,1.55-.77c-1-.25-1.63-.38-2.26-.61a1,1,0,0,1-.49-.6.83.83,0,0,1,.49-.9,2.19,2.19,0,0,1,.77-.29,57.06,57.06,0,0,1,13.57-.39,2.09,2.09,0,0,1,.78.24q2,1,3.89,2.13a5.13,5.13,0,0,1,2.61,2.75,4.31,4.31,0,0,0,1,1.35c1.12,1.21,2.44,2.23,2.81,4,.1.47.67.86,1.07,1.24s.86.7,1.28,1.07c1.61,1.38,2.35,2.86,1.14,5.74-.48,1.13-.51,1.15-2.09,1a1,1,0,0,0-1.13.55c-.88,1.65-2.44,2.41-4,3.34-3.19,2-6.81,2.89-10.17,4.43a12.8,12.8,0,0,1-4.61.89,42.66,42.66,0,0,1-8.6-.28,5.92,5.92,0,0,1-1.88-.48c-2.21-1.13-4.6-2-6.46-3.72a5.3,5.3,0,0,1-1.36-1.73,2,2,0,0,1,.29-2.09,1.72,1.72,0,0,1,2-.43,8.27,8.27,0,0,1,2.59,1.59,15.67,15.67,0,0,0,4.76,2.81,5.15,5.15,0,0,0,1.88.41c1.75.13,3.52.19,5.27.27a12.43,12.43,0,0,0,4.92-.7c1.83-.65,3.65-1.35,5.46-2,1.38-.52,2.76-1.07,4.14-1.59a7.33,7.33,0,0,0,3.35-1.87c.54-.64,1.37-.49,2-.78a.81.81,0,0,0,.38-1.16,3.76,3.76,0,0,0-.87-1.05,33,33,0,0,1-5-4.76,13.06,13.06,0,0,0-5.84-3.6c-1.69-.47-3.4-.91-5.11-1.3a6.65,6.65,0,0,0-1.67-.1c-2.58,0-3.55,1.1-3,3.63a5.23,5.23,0,0,0,3.1,4,4,4,0,0,0,4.18-.54c.44-.33.76-.81,1.2-1.15a2.17,2.17,0,0,1,2.59-.1,1.78,1.78,0,0,1,.47,2.27c-1.15,2.69-3,4.72-6,5.2a14.79,14.79,0,0,1-4.43.3c-3.66-.59-7-1.91-8.76-5.54a5.29,5.29,0,0,1-.36-4.32,4.59,4.59,0,0,0,.11-1.06c.19.05.4.32.52-.07Zm19.82-4.69c.12-.09.39.31.4-.12l-.46.2c-.12-.25-.17-.6-.36-.71a8.11,8.11,0,0,0-4.71-1.33C636.11,314.59,637.61,315.17,639.13,315.73Z" transform="translate(-454.96 -159.88)"/><path class="cls-1" d="M529.8,315.5c3.65-.88,7.25-.68,10.78-1.24a6.84,6.84,0,0,1,4.5,1.12,50.82,50.82,0,0,1,4.73,2.91c2,1.42,3.2,3.56,4.55,5.53a3.74,3.74,0,0,1,.34,2.71c-.07.42-.73.82-1.06.59-1.2-.82-2.18-2-3.7-2.31-1-1.49-2.68-2.29-3.67-3.75a5.93,5.93,0,0,0-3.13-2.19,16.34,16.34,0,0,0-8.5-.27.78.78,0,0,0-.66.79,8.71,8.71,0,0,0,1.2,3.64,4.93,4.93,0,0,0,2.93,2,2.53,2.53,0,0,0,2.81-.6,8.24,8.24,0,0,1,1-1,1.41,1.41,0,0,1,1.57-.16c.41.2.83.4,1.23.64a1.83,1.83,0,0,1,.85,2.58c-.82,1.44-1.69,2.89-3.5,3.35-1.34.35-2.64.91-4,1.14a6.53,6.53,0,0,1-3.82-.39c-1.86-.82-3.73-1.61-5.6-2.41a1.74,1.74,0,0,1-.85-1c-.66-1.53-1.34-3.06-2-4.57-.35-.76-.89-1-1.56-.51-1.61,1.08-3.21,2.19-4.78,3.32-.48.34-.35.76,0,1.18a12.33,12.33,0,0,0,3.14,2.24c.7.45,1.45.82,2.15,1.27a19.67,19.67,0,0,0,11.32,3c3.56-.09,6.68-1.32,9.88-2.52.69-.26,1.35-.62,2.05-.83a1.51,1.51,0,0,1,1.71.62,1.34,1.34,0,0,1-.52,2.1,40.93,40.93,0,0,1-6,2.12,5.16,5.16,0,0,0-1.85.5,5.88,5.88,0,0,1-4,.8,15.36,15.36,0,0,0-1.66-.07,21.19,21.19,0,0,1-9-1.41,15.74,15.74,0,0,1-4.44-2.2,29,29,0,0,0-3.06-1.9c-.64-.37-1.41-.68-1.73-1.34-.63-1.26-1.35-2.08-2.92-1.66-.41.11-.74-.55-.63-1a3.38,3.38,0,0,1,1.36-1.69c.78-.68,1.49-1.34,1.27-2.58a2.12,2.12,0,0,1,.79-1.72c2.35-2.22,4.51-4.64,7.33-6.36a21.57,21.57,0,0,1,4.28-1.92,26.56,26.56,0,0,1,10-1.88,21.82,21.82,0,0,1,3,.35,2.4,2.4,0,0,1,1.18.66,1.15,1.15,0,0,1,.28,1.28,1,1,0,0,1-.87.62c-.82.06-1.66,0-2.49,0a30.31,30.31,0,0,0-9.75,1.85C530.17,315,530.07,315.22,529.8,315.5Z" transform="translate(-454.96 -159.88)"/><path class="cls-1" d="M631.29,299.76a41.32,41.32,0,0,1,11.63,1.75,6.47,6.47,0,0,0,1.05.35c2.66.2,4.93,1.48,7.32,2.46a15.2,15.2,0,0,1,3.61,2,13.25,13.25,0,0,0,2.52,1.73,2.68,2.68,0,0,1,1,1,.87.87,0,0,1,0,.77.84.84,0,0,1-.68.34,5,5,0,0,1-1.57-.49,57.06,57.06,0,0,0-10.81-4.34,31.66,31.66,0,0,0-9.23-1.83c-1.46,0-2.92-.28-4.42-.26a14.67,14.67,0,0,0-5.92,1.32c-3.38,1.54-6.94,2.59-10.35,4.05a4.67,4.67,0,0,0-1,.43c-1.77,1.39-3.71.57-5.59.43a1.13,1.13,0,0,1-.95-.9,1.22,1.22,0,0,1,.51-1.46,12.57,12.57,0,0,1,2.24-1.1,3.87,3.87,0,0,0,1.92-1.06c1.13-1.53,2.83-2.1,4.48-2.61a36.4,36.4,0,0,1,8.41-1.77C627.54,300.43,629.59,299.71,631.29,299.76Z" transform="translate(-454.96 -159.88)"/><path class="cls-1" d="M554.36,306.42c-1.27.45-2.44-.13-3.65-.63a32.93,32.93,0,0,0-10.37-2.87,29.24,29.24,0,0,1-5.37-1.26,14.1,14.1,0,0,0-9.48.86c-4.25,1.8-8.58,3.42-12.88,5.12a3.76,3.76,0,0,1-.78.26.93.93,0,0,1-1.14-.53,1.11,1.11,0,0,1,.3-1.26,1.55,1.55,0,0,1,.44-.32c4.27-2.22,8.32-4.84,12.83-6.61,1.81-.7,3.73-1,5.49-1.85,1-.53,2.39-.16,3.55.11a16.39,16.39,0,0,0,4.68.45,4.34,4.34,0,0,1,1.91.24c1.72.77,3.6.82,5.36,1.3,3.21.88,6.41,1.78,9.68,2.41a3.35,3.35,0,0,1,1.66,1,1.27,1.27,0,0,1,.45,1c0,.46,0,.92-.06,1.37a1.2,1.2,0,0,1-1.15,1.3A14.58,14.58,0,0,1,554.36,306.42Z" transform="translate(-454.96 -159.88)"/><path class="cls-1" d="M592.55,348.93c.08-2,.16-4.07.22-6.1a9.08,9.08,0,0,0,0-2.76,12.1,12.1,0,0,1,.14-6c.94-4.42,2-8.81,3.1-13.21a9.78,9.78,0,0,1,.78-2.07,1.41,1.41,0,0,1,1.68-.6,1.2,1.2,0,0,1,.83,1.53,5.75,5.75,0,0,0-.16,2.73,9.07,9.07,0,0,1-.52,3.54,101,101,0,0,0-2.61,13.6,64.08,64.08,0,0,0-.16,13.28c.19,1.75.38,3.49.55,5.24a5,5,0,0,1,0,1.09.84.84,0,0,1-.69.76.8.8,0,0,1-.89-.49,17.2,17.2,0,0,1-1.8-5.79c-.21-1.56-.21-3.14-.3-4.71Z" transform="translate(-454.96 -159.88)"/><path class="cls-1" d="M571.11,329.38a44.25,44.25,0,0,1,0,5,4.27,4.27,0,0,0,.33,2.16,10.27,10.27,0,0,1,.65,4.36c-.14,2.87-.38,5.73-.56,8.6-.23,3.71-1,7.34-1.51,11a2.35,2.35,0,0,1-.66,1.49,1,1,0,0,1-.74.22.93.93,0,0,1-.6-.48,2.48,2.48,0,0,1-.17-1.08c.15-2.86.32-5.73.48-8.59a8.35,8.35,0,0,0,.06-1.11c-.42-4.25-.12-8.51-.14-12.76,0-1.2,0-2.4,0-3.61a39.6,39.6,0,0,0-1.35-10.72,8.66,8.66,0,0,1-.18-3.58c.06-.39.27-.72.69-.74a1,1,0,0,1,.75.24c1,1.3,2.12,2.58,2.31,4.34S570.9,327.64,571.11,329.38Z" transform="translate(-454.96 -159.88)"/><path class="cls-1" d="M579.75,380.9a9.07,9.07,0,0,1-3-.26,2.15,2.15,0,0,1-.93-.55,1.24,1.24,0,0,1-.27-.74c0-.32.23-.48.5-.56a4.55,4.55,0,0,1,.82-.15,37.34,37.34,0,0,0,7.92-1.38c1-.29,2-.24,3-.55a18.89,18.89,0,0,0,4.58-2c1.78-1.16,3.81-1.89,5.53-3.17a5.68,5.68,0,0,0,2.53-4.41,11.39,11.39,0,0,1,.17-1.65,1.26,1.26,0,0,1,1.11-1.08,1.46,1.46,0,0,1,1.61.83,3.28,3.28,0,0,1,.38,1.31c0,2.64-.7,5-3,6.48a44.6,44.6,0,0,0-5.16,3.71,11.7,11.7,0,0,1-3.73,1.78C587.85,379.91,583.77,380.23,579.75,380.9Z" transform="translate(-454.96 -159.88)"/><path class="cls-1" d="M552.6,372.19a1.56,1.56,0,0,1-.36,1.28c-1.51,2.1-2.91,4.3-4.57,6.27a61.8,61.8,0,0,1-6.13,6.4,67.92,67.92,0,0,1-11.27,8.47,33.56,33.56,0,0,1-3.51,1.58c-.11.05-.36-.09-.47-.21a.58.58,0,0,1-.08-.75,2,2,0,0,1,.59-.56A35.14,35.14,0,0,0,537,386.81a4.61,4.61,0,0,1,.59-.58c4.15-3.08,7-7.3,10.11-11.31.56-.72.91-1.61,1.41-2.38a2.55,2.55,0,0,1,2.29-1.32A1.22,1.22,0,0,1,552.6,372.19Z" transform="translate(-454.96 -159.88)"/><path class="cls-1" d="M570.73,378.1a20.29,20.29,0,0,1-9.37-2.26,7.62,7.62,0,0,1-3.78-4.26,4.37,4.37,0,0,1-.26-1.34,1.12,1.12,0,0,1,.73-1.09,1.06,1.06,0,0,1,1.27.24,4.1,4.1,0,0,1,.67.88,8.66,8.66,0,0,0,4.15,3.55c1.52.68,3.06,1.31,4.6,1.95a4.26,4.26,0,0,0,2.71.19c.53-.12.83.36.94.83a.93.93,0,0,1-.62,1.1A3.79,3.79,0,0,1,570.73,378.1Z" transform="translate(-454.96 -159.88)"/><path class="cls-1" d="M605.68,308.91a.21.21,0,0,1-.08-.32.56.56,0,0,1,.38-.27c.12,0,.37.13.36.19C606.32,308.8,606.11,308.94,605.68,308.91Z" transform="translate(-454.96 -159.88)"/><path class="cls-1" d="M539.31,264.65a.72.72,0,0,1-.59-.79,1.93,1.93,0,0,1,.19-.51c2.21-2.6,3.83-5.63,6.1-8.2a119.75,119.75,0,0,0,8.41-11.35,5.13,5.13,0,0,1,2.24-2,1.15,1.15,0,0,1,1.29.08,1.26,1.26,0,0,1,.19,1.54,6,6,0,0,1-.76,1.14c-2.6,3.47-5.11,7-7.83,10.38-2.49,3.08-5.21,6-7.83,9A1.62,1.62,0,0,1,539.31,264.65Z" transform="translate(-454.96 -159.88)"/><path class="cls-1" d="M556.17,233.51a3.19,3.19,0,0,1-.4.85c-.91,1.16-1.85,2.31-2.81,3.43-2.39,2.82-4.7,5.72-7.24,8.4-1.27,1.34-2.48,2.72-3.65,4.15a.68.68,0,0,1-1,.13.67.67,0,0,1-.15-1c1-1.45,1.95-2.92,3-4.32s2-2.63,2.93-4a23.56,23.56,0,0,1,3-3.68c1-1,1.83-2.07,2.7-3.15a4.3,4.3,0,0,1,2.83-1.58C555.77,232.66,556,233,556.17,233.51Z" transform="translate(-454.96 -159.88)"/><path class="cls-1" d="M633.92,241.67c.06.27-.22.63-.52,1l-8.46,9.88q-3.51,4.09-7,8.2a3.55,3.55,0,0,1-.8.75.84.84,0,0,1-.74-.05,1,1,0,0,1-.36-.7,1.8,1.8,0,0,1,.54-1.23c1.91-2.61,3.77-5.25,5.76-7.8,2.44-3.12,5-6.16,7.5-9.24a7,7,0,0,1,2-1.86A1.49,1.49,0,0,1,633.92,241.67Z" transform="translate(-454.96 -159.88)"/><path class="cls-1" d="M632.64,233a3.07,3.07,0,0,1-.61,1.52,25.49,25.49,0,0,1-3.66,4.48c-2.28,2.41-4.69,4.69-7.06,7a4.72,4.72,0,0,1-.86.67.65.65,0,0,1-.51,0,.52.52,0,0,1-.25-.7,12.89,12.89,0,0,1,1.28-2.11c1.25-1.59,2.56-3.14,3.88-4.68,1.91-2.23,4-4.3,5.35-7a1.16,1.16,0,0,1,1.47-.45A1.59,1.59,0,0,1,632.64,233Z" transform="translate(-454.96 -159.88)"/><polygon class="cls-1" points="161.46 364.96 161.59 365.05 161.45 365.12 161.46 364.96"/><path class="cls-1" d="M572.4,409.22a65.32,65.32,0,0,1-10.74-1,3.44,3.44,0,0,1-1-.42,1.31,1.31,0,0,1-.78-1.58,1.24,1.24,0,0,1,1.18-1,8.39,8.39,0,0,1,1.94,0c1.64.27,3.3.28,4.93.71,3.39.87,6.82.31,10.23.06,2.21-.16,4.42-.36,6.64-.51a3.92,3.92,0,0,1,2.43.34,1,1,0,0,1,.42.64,1.14,1.14,0,0,1-.4.65,1,1,0,0,1-.52.18l-8.25,1.06c-1.47.2-2.94.4-4.4.62C573.33,409.05,572.6,409.18,572.4,409.22Z" transform="translate(-454.96 -159.88)"/><g class="cls-2"><path class="cls-1" d="M493.84,338.3a25.22,25.22,0,0,1-3.83.95l8.94-1.2a20.74,20.74,0,0,1-3.94,0l8.94,1.2a10.47,10.47,0,0,1-2.41-.65l8,3.38a7.14,7.14,0,0,1-2-1.25l6.8,5.26-.83-.87,5.26,6.81-.68-1.05,3.39,8a7.14,7.14,0,0,1-.8-2.83l1.2,8.94v-1.48l-1.2,8.94c.58-4.18,2.49-7.94,3.86-11.91a109.09,109.09,0,0,0,3.39-12.2,248.08,248.08,0,0,0,4.41-31.06c1.48-16.57,1.54-33.23,3.72-49.73l-1.2,8.94a119.15,119.15,0,0,1,7.33-28.67l-3.39,8a79.47,79.47,0,0,1,10-17.23l-5.26,6.8a80.46,80.46,0,0,1,12.73-12.63l-6.8,5.26a82.51,82.51,0,0,1,16.75-9.88l-8,3.39a79.26,79.26,0,0,1,20.17-5.5l-8.94,1.2a75.08,75.08,0,0,1,17.79.09l-8.94-1.2a79.08,79.08,0,0,1,18.38,5l-8-3.39a82.12,82.12,0,0,1,17.72,10.4l-6.81-5.26a80.28,80.28,0,0,1,13.39,13.56l-5.26-6.8a79.5,79.5,0,0,1,6.3,9.92c11.51,21.54,46.76,22.29,58.06,0,4.78-9.42,10.57-19,10.23-29.93a37.2,37.2,0,0,0-11-25.48c-5.59-5.46-11.81-7.81-18.94-10.56l8,3.39-1-.58,6.8,5.26-.86-.81,5.26,6.81-.64-.95,3.39,8-.32-1,1.2,8.94.1-.93-9.85,23.78.6-.77H617.53c11.84,13.84,24.37,27.34,35.52,41.75l-5.25-6.81a39.28,39.28,0,0,1,4,6.81l-3.39-8a30.2,30.2,0,0,1,1.61,6.42l-1.2-8.94c.82,9.72-1,19.81-1.86,29.49-.93,10.32-2,20.64-2.78,31-1.22,15.81,3,30.48,13.51,42.5,4.22,4.86,10,8,14.12,12.94l-5.26-6.8a19.41,19.41,0,0,1,1.72,2.83l-3.39-8a15.79,15.79,0,0,1,.89,3.25l15.46-38L680,336l8-3.39a17.32,17.32,0,0,1-4.25,1.13l8.94-1.2c-11.88.84-23.13.85-33.4,8-8.37,5.83-14.41,13.29-20.77,21.11-11.21,13.76-22,27.94-31.9,42.64-8.55,12.64-17.31,25.69-23.82,39.52-5.58,11.86-9,22.44-10.34,35.46-.78,7.76-.07,15.57-1,23.33l1.2-8.94a38.75,38.75,0,0,1-2.25,8.4l3.38-8c-3.43,7.39-9,13.45-12.42,20.87-7.58,16.63-8.58,33.39,0,50,7.7,14.85,27.35,19.93,42,13.75,15.22-6.42,24-23.37,19.47-39.66-5.21-18.79-19.55-32.31-37.1-39.72-12.18-5.13-25.34-6.51-37.49-11.53l8,3.39a46.15,46.15,0,0,1-7.1-4l6.8,5.26a11.53,11.53,0,0,1-2.3-2.05l5.26,6.8-.81-1.29,3.39,8-.38-1.19,1.2,8.94-.09-1.15-1.2,8.94a6,6,0,0,1,.55-2.23l-3.39,8a10.65,10.65,0,0,1,1.32-2.13l-5.26,6.81c3.38-4.06,7.24-7.44,10.49-11.66a62.91,62.91,0,0,0,10.26-21c3.52-11.86,6.8-25,5.75-37.39a83.49,83.49,0,0,0-12.39-37.35c-4.46-7.28-9.61-14.13-13.11-22l3.39,8a47.64,47.64,0,0,1-3.07-11l1.2,8.94c-1.21-10.65.64-21.29,2-31.85s2.69-21.25,4.1-31.87l-1.2,8.94c2.6-19.26,5.83-38.59,13.21-56.68l-3.39,8a102.23,102.23,0,0,1,12.92-22.56l-5.26,6.8a77.89,77.89,0,0,1,11.09-11.51l-6.8,5.26A39.88,39.88,0,0,1,592.1,276l-8,3.39a34,34,0,0,1,6-1.58l-8.94,1.2a35.47,35.47,0,0,1,7.57,0l-8.94-1.2a42.23,42.23,0,0,1,8.91,2.41l-8-3.39a48.31,48.31,0,0,1,9.42,5.45L583.29,277a65.46,65.46,0,0,1,10.51,10.73l-5.26-6.8c8.58,11.36,15.65,24.45,21.31,37.49l-3.39-8a88.51,88.51,0,0,1,6.18,21.52l-1.2-8.94a63.13,63.13,0,0,1-.13,15.54l1.2-8.94a79.94,79.94,0,0,1-5.41,18.35l3.39-8c-5.46,12.37-13,23.76-21.17,34.49l5.26-6.81c-7.79,10-16.38,19.63-26.32,27.59l6.81-5.26a65.81,65.81,0,0,1-12.77,7.81l8-3.39a44.5,44.5,0,0,1-10.36,3l8.94-1.21a40.91,40.91,0,0,1-8.71.09l8.94,1.2a34.42,34.42,0,0,1-8.29-2.21l8,3.39a31.93,31.93,0,0,1-4.9-2.85l6.8,5.26a30.49,30.49,0,0,1-4.2-4.07l5.25,6.81a34.59,34.59,0,0,1-3.79-6.32l3.39,8a48.5,48.5,0,0,1-3-11.69l1.2,8.94c-1.7-14.52-.25-29.63,1.58-44.07l-1.2,8.93c2.78-20.67,7.6-41.52,15.62-60.83l-3.38,8A51.14,51.14,0,0,1,588,304.56l-5.26,6.81a34.87,34.87,0,0,1,4.49-4.52l-6.8,5.26a30.19,30.19,0,0,1,5.37-3.17l-8,3.39a27.28,27.28,0,0,1,4.43-1.26l-8.94,1.2a22.81,22.81,0,0,1,4.6,0L569,311a22.09,22.09,0,0,1,4.14,1.14l-8-3.39a27.12,27.12,0,0,1,3.73,2.15L562,305.66a28.51,28.51,0,0,1,4.16,4.06l-5.26-6.8a30.54,30.54,0,0,1,3,5l-3.39-8a39.45,39.45,0,0,1,2.6,9.75l-1.2-8.94a87.09,87.09,0,0,1-.5,19.16l1.2-8.93c-2,15-6.69,29.27-12.49,43.18l3.39-8c-4.27,10.06-9,19.88-13.87,29.69-4,8.18-5.88,16.87-3.39,25.91,2.15,7.8,8.18,16.25,15.45,20.09,15.16,8,37.71,4.79,46-12.06,15.43-31.35,30.21-63.32,31.73-98.81,1-22.64-7.42-46.89-27.9-58.85-11.55-6.74-25.67-9.11-38.69-5.51-14,3.85-24.54,12.58-32.89,24.1-5.34,7.36-8.58,16-11.66,24.53-2.75,7.63-5.13,15.41-7.14,23.27a315.28,315.28,0,0,0-8.61,53.24c-1.27,15.84-2.19,33.63,3,48.88,7.05,20.84,23.3,38.09,45.74,41.71A74.39,74.39,0,0,0,609,448c15.51-11.69,27.82-25.56,39.45-41.05a183.1,183.1,0,0,0,24.82-44.37c7-18.06,7.38-38.31,2.56-56.94-4.18-16.17-12.37-31.51-20.8-45.85-9.15-15.56-21.1-31.38-37.58-39.72-20.46-10.36-45.35-12.23-65.18,1-14.74,9.84-26.77,24.06-34.89,39.76-16.48,31.82-19.79,67.09-24.27,102.06-2.51,19.58-6.88,40-.8,59.45a103.75,103.75,0,0,0,12.31,25.29c3.82,5.89,7.78,11.65,10.63,18.09l-3.39-8A44.08,44.08,0,0,1,514.7,468L513.5,459a51.31,51.31,0,0,1-.16,10.87l1.2-8.94a103.12,103.12,0,0,1-6.17,23.84l3.39-8a31.75,31.75,0,0,1-2.37,4.17l5.26-6.81c-2.13,2.61-4.73,4.74-7,7.22a48.56,48.56,0,0,0-11.22,19.1c-5.72,19,5.58,37.24,21.62,46.57,14.5,8.44,30.78,9.06,45.86,15.42l-8-3.39a48,48,0,0,1,8.54,4.91l-6.81-5.26a34.43,34.43,0,0,1,4.9,4.68l-5.26-6.81a26.48,26.48,0,0,1,3.38,5.73l-3.39-8a21.77,21.77,0,0,1,.82,2.6L619.52,531l-.7-1.33,3.39,8a20.35,20.35,0,0,1-1.12-4.27l1.2,8.94a27,27,0,0,1,.13-4.49l-1.2,8.94a33.36,33.36,0,0,1,1.66-6l-3.39,8a71.21,71.21,0,0,1,7-11.73,77.61,77.61,0,0,0,9.66-19.55c4.13-12.45,2.2-25.54,3.54-38.3l-1.2,8.94a63.31,63.31,0,0,1,4.3-15.25l-3.39,8c5.4-12.36,12.89-23.89,20.23-35.17q11.18-17.19,23.74-33.44l-5.26,6.81c6.78-8.73,13.57-18.54,21.9-25.85l-6.8,5.25a19.68,19.68,0,0,1,4.17-2.41l-8,3.39a14.45,14.45,0,0,1,3-.67l-8.94,1.2c11.28-1,21.64-.68,31.79-6.83A33.88,33.88,0,0,0,729,377.2c3.13-7.42,3-13.92,1.69-21.89-1.53-9-7.72-18.23-14.45-24.25-3.64-3.25-7.75-5.86-10.93-9.62l5.26,6.8a23,23,0,0,1-2.07-3.31l3.39,8a25.37,25.37,0,0,1-1.63-5.92l1.2,8.94c-1.13-11.94,1.4-24.64,2.47-36.54,1.31-14.53,3.45-28.66.89-43.18-2.8-15.87-14.46-27.77-24.53-39.54l-25.18-29.44c-10.86-12.7-36.89-13.5-47.55,0-6.11,7.74-10.27,14.31-10.45,24.55a36.25,36.25,0,0,0,4.81,18.88c5.72,10,14.43,14.61,24.74,18.62l-8-3.39a8.08,8.08,0,0,1,1.95,1.08l-6.81-5.26.7.75-5.25-6.8.41,1-4.59-17,0,1.21,1.2-8.94-.35,1.19,3.39-8c-1.67,3.57-3.53,7.06-5.31,10.57H672c-22.48-42.08-72.12-63.43-118.18-53.31-20.89,4.59-42,16.9-56,33.2a121.1,121.1,0,0,0-27.67,61.48c-3.48,23.19-3.22,46.6-6.19,69.81l1.2-8.94a141.58,141.58,0,0,1-3.68,18.71c-1.6,5.79-4.48,11.32-5.63,17.2-3.47,17.87,2.28,36,18.62,45.66,10.88,6.43,25.22,7.62,37.17,3.66,8.3-2.75,15.6-7.77,20.09-15.45,4.22-7.21,6-17.83,3.39-25.91-5.37-16.61-23.48-29.42-41.36-23.49Z" transform="translate(-454.96 -159.88)"/></g><g class="cls-3"><path class="cls-1" d="M595.72,324.59c-1.77,12.5.47,24.39,4.9,36.14,4,10.57,10.58,20.32,13.2,31.34s19.7,6.39,17.06-4.7c-4.63-19.47-21.09-36.87-18.09-58.08.67-4.72-1.16-9.5-6.18-10.88-4.15-1.14-10.21,1.42-10.89,6.18Z" transform="translate(-454.96 -159.88)"/></g><g class="cls-3"><path class="cls-1" d="M550,323.52c.72,21.19-4.07,44.94-22.59,57.84-3.92,2.73-5.72,7.75-3.17,12.11,2.26,3.87,8.16,5.92,12.1,3.17,23.87-16.63,32.31-45.1,31.35-73.12-.38-11.36-18.08-11.41-17.69,0Z" transform="translate(-454.96 -159.88)"/></g><g class="cls-3"><path class="cls-1" d="M649.63,330.32c-6.5,2.37-11.93,7.08-19.25,5.82-4.71-.81-9.54,1.25-10.89,6.18-1.17,4.26,1.45,10.07,6.18,10.89a38.85,38.85,0,0,0,15.38-.11c4.86-1.08,8.71-4.05,13.28-5.71s7.52-6,6.18-10.89c-1.19-4.33-6.37-7.82-10.88-6.18Z" transform="translate(-454.96 -159.88)"/></g><g class="cls-3"><path class="cls-1" d="M516.63,347.37c3.8.15,7.62,3.14,11.46,3.83a38.72,38.72,0,0,0,14.67-.23c4.7-.92,7.38-6.53,6.18-10.89-1.34-4.9-6.18-7.1-10.88-6.18-7.76,1.51-13.85-3.92-21.43-4.23-11.38-.45-11.36,17.25,0,17.7Z" transform="translate(-454.96 -159.88)"/></g><g class="cls-3"><path class="cls-1" d="M502,286.89c-6.37,17.11-12.85,34.19-19,51.37-3.1,8.63-4.73,17-3.33,26.15,1.29,8.46,3.88,16.82,6.42,25,4.93,15.83,10.89,32,19,46.49,6.95,12.5,16.89,23.84,31.2,27.58,11,2.87,15.74-14.19,4.71-17.07-11.3-2.95-17.76-13.58-22.71-23.39a252.82,252.82,0,0,1-16.18-41.88c-2-6.75-4.39-13.83-5.24-20.84-1-7.9,2.56-15.49,5.23-22.73q8.49-23,17-46c1.67-4.48-1.86-9.69-6.18-10.88-4.95-1.36-9.21,1.68-10.88,6.18Z" transform="translate(-454.96 -159.88)"/></g><g class="cls-3"><path class="cls-1" d="M660.85,306.42c3.41,16.2,6.58,32.56,6.22,49.2-.35,15.92-5.1,30.76-11.26,45.32-5.54,13.11-10.79,27.15-21.57,36.91-9.74,8.82-22.38,13.61-35,16.43-11.11,2.48-6.4,19.54,4.71,17.06,15.21-3.39,29.81-9.7,41.67-19.95,12.77-11,19.14-26.57,25.59-41.72,7.16-16.83,12.85-33.69,13.53-52.14.7-18.78-2.94-37.52-6.79-55.82-2.35-11.14-19.42-6.42-17.07,4.71Z" transform="translate(-454.96 -159.88)"/></g><g class="cls-3"><path class="cls-1" d="M627.18,288.15l14.62,14.66a8.85,8.85,0,0,0,12.51-12.52l-14.62-14.66a8.85,8.85,0,1,0-12.51,12.52Z" transform="translate(-454.96 -159.88)"/></g><g class="cls-3"><path class="cls-1" d="M535.79,292.16c12.21,0,24.06-.77,35-6.7,4.65-2.52,8.86-5.3,14.21-6.11a26.59,26.59,0,0,1,15.17,2.23c4.31,2.05,9.55,1.2,12.1-3.17,2.26-3.86,1.16-10.05-3.17-12.11-12-5.69-25.4-6.55-37.68-1.19-5.88,2.57-10.94,6.5-17.25,8-6,1.46-12.26,1.32-18.39,1.31-11.39,0-11.41,17.69,0,17.7Z" transform="translate(-454.96 -159.88)"/></g><g class="cls-3"><path class="cls-1" d="M545.21,432.31c18,8.3,38.2,10,57.19,3.82,10.78-3.51,6.17-20.61-4.71-17.06-14.28,4.66-29.8,4.29-43.55-2-4.34-2-9.53-1.23-12.11,3.17-2.23,3.82-1.18,10.1,3.18,12.11Z" transform="translate(-454.96 -159.88)"/></g><g class="cls-3"><path class="cls-1" d="M528.22,473.4c.89,6.8,1.62,13.64,2.67,20.42,1,6.6,5.19,10.49,10.09,14.58,4.42,3.69,9,7.3,14.27,9.75,5.68,2.64,11.21,3.26,17.29,4.34,5.57,1,9.78,5.92,15.63,4.65,5.29-1.15,10.44-5.51,14.21-9.25,8.91-8.85,13.68-22.6,8.67-34.64-1.83-4.41-5.86-7.56-10.88-6.18-4.17,1.14-8,6.44-6.18,10.88a14.06,14.06,0,0,1-1.27,14,24,24,0,0,1-4.52,5c-1.34,1.15-4,3-4.74,3.16h4.71l-1-.39,3.9,2.27a32.14,32.14,0,0,0-16.12-6.88c-5.39-.79-10.19-1.55-14.91-4.43a51.43,51.43,0,0,1-5.92-4.24c-1.36-1.12-5-3.35-5.69-4.67-1-1.94-.82-5.37-1.09-7.49l-1.41-10.84c-.62-4.74-3.63-8.85-8.85-8.85-4.3,0-9.47,4.08-8.85,8.85Z" transform="translate(-454.96 -159.88)"/></g></svg>