<svg id="Layer_1" data-name="Layer 1" xmlns="http://www.w3.org/2000/svg" viewBox="0 0 1224 792"><defs><style>.cls-1{fill:#fff;stroke:#475c7a;stroke-miterlimit:10;}</style></defs><title>icon-2</title><circle class="cls-1" cx="159.5" cy="99.5" r="46"/><path class="cls-1" d="M161.5,153.5h0a46,46,0,0,1,46,46v93a0,0,0,0,1,0,0h-92a0,0,0,0,1,0,0v-93A46,46,0,0,1,161.5,153.5Z"/><path class="cls-1" d="M160.67,170.27l-22.46,53,22.24-4.18a3.19,3.19,0,0,1,1.11,0l24,4.19Z"/><path class="cls-1" d="M161.09,181.15,145.5,217.83c8.05-2.23,24.16-6.34,15.59-10.62-11.14,5.14,17.14,10.62,17.14,10.62Z"/><path class="cls-1" d="M206.67,131.27l-22.46,53,22.24-4.18a3.19,3.19,0,0,1,1.11,0l24,4.19Z"/><path class="cls-1" d="M207.09,142.15,191.5,178.83c8.05-2.23,24.16-6.34,15.59-10.62-11.14,5.14,17.14,10.62,17.14,10.62Z"/><path class="cls-1" d="M115.67,131.27l-22.46,53,22.24-4.18a3.19,3.19,0,0,1,1.11,0l24,4.19Z"/><path class="cls-1" d="M116.09,142.15,100.5,178.83c8-2.23,24.16-6.34,15.59-10.62-11.14,5.14,17.14,10.62,17.14,10.62Z"/></svg>