<svg xmlns="http://www.w3.org/2000/svg" viewBox="0 0 792 1224"><defs><style>.cls-1{fill:#fff;stroke:#475c7a;stroke-miterlimit:10;}</style></defs><title>icon-1</title><g id="Layer_2" data-name="Layer 2"><polygon class="cls-1" points="392 297 178 297 190.08 250 379.92 250 392 297"/><rect class="cls-1" x="161.5" y="75.5" width="248" height="148"/><rect class="cls-1" x="175.5" y="84.5" width="220" height="130"/><rect class="cls-1" x="150.94" y="208.12" width="82.87" height="49.46" transform="translate(-40.82 424.8) rotate(-89.9)"/><rect class="cls-1" x="156.39" y="213.35" width="73.23" height="39" transform="translate(-40.2 425.42) rotate(-89.9)"/><rect class="cls-1" x="335.5" y="181" width="166.73" height="99.5"/><rect class="cls-1" x="344.91" y="187.05" width="147.91" height="87.4"/><rect class="cls-1" x="271.5" y="228.5" width="26" height="16"/><path class="cls-1" d="M283.89,113.87l-30.22,71.26,29.93-5.62a4,4,0,0,1,1.5,0l32.23,5.63Z"/><path class="cls-1" d="M284.46,128.51l-21,49.36c10.83-3,32.51-8.54,21-14.3-15,6.92,23.06,14.3,23.06,14.3Z"/><path class="cls-1" d="M192.46,220.92l-10.11,23.85,10-1.88a1.4,1.4,0,0,1,.5,0l10.79,1.88Z"/><path class="cls-1" d="M192.65,225.82l-7,16.52c3.63-1,10.88-2.85,7-4.78-5,2.31,7.72,4.78,7.72,4.78Z"/><path class="cls-1" d="M417.67,204.27l-22.46,53,22.24-4.18a3.19,3.19,0,0,1,1.11,0l24,4.19Z"/><path class="cls-1" d="M418.09,215.15,402.5,251.83c8.05-2.23,24.16-6.34,15.59-10.62-11.14,5.14,17.14,10.62,17.14,10.62Z"/></g></svg>