<svg id="Layer_1" data-name="Layer 1" xmlns="http://www.w3.org/2000/svg" viewBox="0 0 1224 792"><defs><style>.cls-1{fill:#fff;stroke:#475c7a;stroke-miterlimit:10;}</style></defs><title>icon-3</title><circle class="cls-1" cx="125.5" cy="83.5" r="46"/><path class="cls-1" d="M127.5,137.5h0a46,46,0,0,1,46,46v93a0,0,0,0,1,0,0h-92a0,0,0,0,1,0,0v-93A46,46,0,0,1,127.5,137.5Z"/><path class="cls-1" d="M131,240.89l42.29-103.74-43.2,8.74a5.81,5.81,0,0,1-2.16,0l-46.76-7.5Z"/><path class="cls-1" d="M129.85,219.7l29.38-71.84c-15.63,4.56-46.89,13-30.09,21.11,21.56-10.31-33.66-20.23-33.66-20.23Z"/></svg>