<svg xmlns="http://www.w3.org/2000/svg" viewBox="0 0 387.99 458.3"><defs><style>.cls-1{fill:#595959;}.cls-2{opacity:0.24;}</style></defs><title>shakespeare</title><g id="Layer_2" data-name="Layer 2"><path class="cls-1" d="M100.25,250.93a2.9,2.9,0,0,0-.7.43c-2.29,2.7-4.64,2.5-7.65,1.35-.59-.22-1.24-.61-1.17-1.13.18-1.43-1-1.73-1.71-2.44-1.74-1.73-3.69-3.22-5.54-4.82a3.24,3.24,0,0,0-2.14-.89c-3-.09-6-.3-9.06-.32a19.28,19.28,0,0,1-3.88-.24c-4.2-.86-8.25-2.1-11.65-4.89a12.51,12.51,0,0,1-3.25-4.25c-.32-.64-.55-1.33,0-1.8,1.1-.91.3-1.44-.24-2.09-1.66-2-3.26-4-3.86-6.66a17.09,17.09,0,0,1,1-10.36,32.72,32.72,0,0,1,9.86-12.92,24.43,24.43,0,0,0,3.19-3.24,4.14,4.14,0,0,0,.82-4,50.47,50.47,0,0,1-1.86-6.87,49.63,49.63,0,0,1-.39-7.1,19.82,19.82,0,0,1,1.18-5.25,2.37,2.37,0,0,0,0-2.24,1.17,1.17,0,0,1,.75-1.87,5,5,0,0,0,1.92-1.35c3.58-3.25,7.19-6.47,10.64-9.84,1.49-1.45,2.57-3.3,4-4.86,3.57-4,6.07-8.76,8.94-13.24a17,17,0,0,0,2.33-7.82c.31-3.31.9-6.57,1.52-9.82a33.17,33.17,0,0,1,1.16-3.25,90.49,90.49,0,0,1,4.71-13c1.55-3.32,3.18-6.61,4.65-10a15.6,15.6,0,0,1,2.36-3.59c1.85-2.17,3.13-4.73,5-6.89a29.56,29.56,0,0,1,6.07-5.43c2.15-1.43,4.35-2.84,6.59-4A63.5,63.5,0,0,0,130,72.71c3.19-2.22,6.7-3.94,9.69-6.47,1.25-1.06,2.82-1.73,4-2.88a.3.3,0,0,1,.19-.1c3.49-.11,5.35-3.18,8.16-4.54a32,32,0,0,1,3.65-1.85,18.28,18.28,0,0,0,4.09-1.95c2.44-1.57,5.24-2.39,7.8-3.7,1.64-.84,3.5-.83,5.23-1.35,3.18-.94,6.16-2.45,9.41-3.22,2.94-.69,5.88-1.4,8.87-1.91,3.91-.66,7.86-.88,11.8-1.29,1.36-.14,2.75,0,4.11-.13A81.12,81.12,0,0,1,217.62,43c1.58.07,3.13.37,4.74.33a69.68,69.68,0,0,1,15.7,1.34,89.79,89.79,0,0,0,9.12,1.67,25.92,25.92,0,0,1,7.12,1.78,53.24,53.24,0,0,0,6.41,2,21.5,21.5,0,0,1,5.77,2.35c2.45,1.48,5.15,2.62,7.45,4.34,1.65,1.23,3,2.41,5,.6a2.06,2.06,0,0,1,1.46-.23c2.29.32,4.64.11,6.89.49,3.56.59,7.17.7,10.72,1.32a33,33,0,0,1,9.26,2.85c1.47.74,3.06,1.25,4.51,2.06a40.18,40.18,0,0,1,6.75,4.67,16.84,16.84,0,0,0,3.35,2.33c5,2.53,8.85,6.38,12.37,10.62.42.5.86,1,1.29,1.46a13.84,13.84,0,0,1,3.36,5.72c.54,2.09,1.22,4.15,1.87,6.2a17.09,17.09,0,0,0,6.87,8.9,47.35,47.35,0,0,1,11.44,10.34c1.25,1.67,2.52,3.33,3.84,5a11,11,0,0,1,2.49,7,23.33,23.33,0,0,0,.2,3A27.9,27.9,0,0,1,364,143.48c-1.56,4.18-1.68,8.16.64,12.22,1.2,2.11,2.13,4.39,3.46,6.46a20.42,20.42,0,0,0,5.56,5.67,29.61,29.61,0,0,1,9.1,10,13.14,13.14,0,0,1,1.39,8.18,5.31,5.31,0,0,1-.16,1.07c-.84,2.27.41,3.79,1.9,5.17,1.06,1,2.18,1.89,3.33,2.75a22,22,0,0,1,7,8.56c1,2.14,1.55,4.46,2.81,6.51a8.22,8.22,0,0,1,.77,4.43,15.54,15.54,0,0,1-2.33,8.88,15,15,0,0,1-5.69,5.19,1.78,1.78,0,0,0-1.15,2.35c.08.35.06.72.15,1.07,1.19,4.59.34,9.08-1,13.43s-7.16,9.31-13.33,7a7.2,7.2,0,0,0-3.08-.84c-.45.51-.1,1,0,1.45a24.56,24.56,0,0,1-.31,12.82c-.7,2.41-1.73,4.74-4.32,5.92-1.36.62-1.33,1.05-.23,2.25a37.53,37.53,0,0,1,3.16,3.27A32.7,32.7,0,0,1,377.54,289a77,77,0,0,0,3.66,10.16,38.45,38.45,0,0,1,3.09,12.29c.08,1.44,0,2.89,0,4.33-.14,3.53-.23,7.07-.47,10.59-.18,2.59-.58,5.16-.84,7.75-.65,6.35-2.53,12.41-4.25,18.52-1,3.47-1.78,7-2.93,10.42-1.35,4-2.69,8.05-3.93,12.11-2,6.5-4.7,12.7-7.29,19-1.83,4.46-3.4,9-5.54,13.37-2.25,4.54-3.83,9.34-5.67,14s-3.17,9.26-4.91,13.83Q343.3,448.78,338,462.12a147.91,147.91,0,0,1-8,17.7,33.64,33.64,0,0,0-1.76,4.62c-.17.48-.32,1-.53,1.42a2.27,2.27,0,0,1-2.56,1.46c-1.48-.45-2.52-1.45-2.06-2.56.93-2.22-.31-3.62-1.24-5.31a46.07,46.07,0,0,1-2.91-6.49,41,41,0,0,0-9.2-14.49c-1.92-2-4.24-3.7-6.32-5.58-2.74-2.47-5.75-4.6-8.56-7a14.29,14.29,0,0,0-2.64-1.86c-2.81-1.44-4.68-4-7.19-5.86-3-2.16-5.91-4.36-9-6.37-4.35-2.84-8.63-5.79-13-8.66a52.26,52.26,0,0,0-7.57-4.11c-.81-.36-1.5-.87-2.25-1.27a43.11,43.11,0,0,0-10.31-4.36c-1.36-.33-2.45-1.22-3.75-1.69-4.34-1.56-8.73-3-13-4.84a58.09,58.09,0,0,0-10.16-3.66c-4.64-1.05-9.27-2.37-14-2.52-5-.16-9.91-1-14.89-1.13-2.6-.07-5.22.36-7.79-.24s-5.3-.39-8-.51a17.15,17.15,0,0,0-4.92.53,20.67,20.67,0,0,1-5.83.4,38.12,38.12,0,0,0-9.46,1,21.85,21.85,0,0,1-3.2.55,127,127,0,0,0-16.46,2.6c-2.2.44-4.45.44-6.67.77a33.46,33.46,0,0,0-4.63.89,56.11,56.11,0,0,1-8.07,1.44c-2.86.39-5.61,1.32-8.45,1.8-3.34.57-6.2,2.34-9.31,3.44a34.93,34.93,0,0,1-6.67,1.86,10.45,10.45,0,0,0-3.21,1.21,43.74,43.74,0,0,1-6.93,3c-3.42,1.06-6.44,2.89-9.62,4.4-2.14,1-4.3,2.06-6.35,3.22A38.93,38.93,0,0,1,56.2,429a16.89,16.89,0,0,0-5.77,3.32,2.45,2.45,0,0,1-.74.45c-1.73.71-2.9-.08-2.78-1.93a24.89,24.89,0,0,1,1.5-7.55c1.54-4,3.26-8,5.17-11.87,1.5-3,3.26-5.94,4.69-9,2.22-4.77,4.94-9.26,7.45-13.87,3-5.44,6.47-10.54,9.35-16a25.66,25.66,0,0,1,2.18-3.48c3.22-4.33,5.66-9.18,8.78-13.58,2.13-3,3.29-6.56,5.16-9.71,2-3.33,3.88-6.72,6-10,2-3.09,3.66-6.36,5.76-9.39,1.19-1.71,2.6-3.24,3.72-5a4.28,4.28,0,0,0,.74-4,49,49,0,0,1-2-11.2c-.33-4.66-.72-9.33-.77-14,0-2.66-.57-5.27-.46-7.94.09-2.44.12-4.89.17-7.32.11-4.56-.79-8.95-1.49-13.39-.45-2.91-1-5.81-1.44-8.72A24.58,24.58,0,0,0,100.25,250.93Zm239.4-143.41c.19,1,1,1.39,1.71,1.85,2.46,2,4.51,4.67,7.95,5.24a.89.89,0,0,1,.67,1c0,.55-.48.66-.91.74a2.35,2.35,0,0,1-1.84-.48c-2.1-1.52-4.49-2.63-6.28-4.58-2.32-2.54-5-4.75-7.19-7.42a.34.34,0,0,0-.55,0,.79.79,0,0,0,.14,1,20.18,20.18,0,0,1,1.9,2.88c.23.3.38.68,0,1a.75.75,0,0,1-1-.2,3.89,3.89,0,0,1-.43-.48q-3.46-4.43-6.92-8.84a8.87,8.87,0,0,1-.62-.89c-1.21-2.17-3-3.85-4.54-5.79-.15-.19-.36-.22-.6.12a70.71,70.71,0,0,1,4.37,8.32c1.14,2.85,2.77,5.56,2.71,8.83-.57-.69-1-1.53-2-1.43a1.68,1.68,0,0,0,.19-2c-.45-1.22-1.19-2.27-1.73-3.43A54.16,54.16,0,0,0,315.6,89.4a2.66,2.66,0,0,0,.65,1.92,15.06,15.06,0,0,1,1.57,2.58c1.12,1.93,1.93,4,2.95,6a48.5,48.5,0,0,0,4.72,7c.33.43.91.76.76,1.46a53.19,53.19,0,0,1,3.26,5.56c1,2.24,1.62,4.62,2.51,6.9.5,1.3.46,2.89,2.39,3.06.2,0,.36.43.56.64a8.63,8.63,0,0,1,1.73,3.21,37.4,37.4,0,0,1,1.68,12.16c0,2.66,0,5.31,0,8.27,1-1.56,1.15-3.17,1.62-4.63,2.21-7,2.56-13.86-.22-20.78-.67-1.69-1.53-3.27-2.21-4.94-.28-.66-1-1.61-.09-2.06.65-.31,1.18.73,1.46,1.33,1.59,3.46,3.44,6.82,4.22,10.6a35.2,35.2,0,0,1,1.09,5.5,62.45,62.45,0,0,1-.34,7.35,9,9,0,0,1-1.17,4.15c-1.62,2.56-1.83,5.49-2.77,8.38,2.08-.52,2.09-.52,2.26-2.2a31.07,31.07,0,0,1,3.4-11.32,5.9,5.9,0,0,1,2.76-2.94,1.44,1.44,0,0,0,.92-1.72c-.23-2.07-.16-4.16-1-6.18a14.22,14.22,0,0,1-1-4.4c0-.3,0-.61.31-.73s.55.09.64.38c.66,2,1.45,3.9,1.91,5.92,1.45,6.31,1.45,12.73,1.36,19.16,0,.86-.19,1.83.86,2.51a31.21,31.21,0,0,1,5.23-11.72,3,3,0,0,0,.51-2.28,12.68,12.68,0,0,0-1.24-4.79,3.38,3.38,0,0,1-.4-1,1.06,1.06,0,0,1,.63-1.25c.63-.27,1,.13,1.2.6.43.9.83,1.81,1.26,2.76.32-.37.1-.63,0-.86-.74-1.41-.71-3.1-1.72-4.42a.85.85,0,0,1,.22-1.18c.5-.32.77.15,1,.51a6.81,6.81,0,0,0,.69,1.1c1,1,1.06,2.5,2.11,3.81,0-.63,0-.91,0-1.19s-.08-.72-.07-1.08a19.37,19.37,0,0,0-5.7-14.27,55.17,55.17,0,0,0-6.2-6.22c-2-1.57-3.94-3.32-5.89-5A23.61,23.61,0,0,1,336.1,92.4a19.33,19.33,0,0,0-4.58-9.15c-.69-.73-1.22-1.61-1.9-2.35a4.4,4.4,0,0,0-2.46-1.63c.44.91.82,1.58,1.11,2.28.82,2,2.51,3.31,3.52,5.16,2,3.63,3.23,7.55,4.87,11.32a36.71,36.71,0,0,0,5.61,9.8c.66.76.38,1.2-1,1.59a2.69,2.69,0,0,0-1.71-1.85c-1.42-1.52-1.51-4.13-3.93-4.85-.14,0-.21-.36-.28-.56-.34-1-.72-1.9-1-2.87a46,46,0,0,0-4.91-11A13,13,0,0,0,327,85.35c-.1.36-.2.53-.16.61,1.76,3.24,3.84,6.32,4.4,10.1a43.8,43.8,0,0,0,1.31,4.8,2.06,2.06,0,0,0,1.17,1.63,11.71,11.71,0,0,1,3.33,2.68C337.81,106,338.32,107.26,339.65,107.52Zm4,121a32.58,32.58,0,0,0-5.92,5.93c-2.29,3.3-4.51,6.66-6.75,10-.06.09,0,.27,0,.56a9.45,9.45,0,0,1,4,.2c1.66.67,2.54-.06,3.31-1.34a5.44,5.44,0,0,1,3.08-2.59,16.13,16.13,0,0,1,7.66-.73,25.72,25.72,0,0,1,5.55,1.72c.72.29,1.43.72,2.26.26.31-.18.76-.2.81-.62.07-.62-.49-.61-.87-.74a41.64,41.64,0,0,0-6-1.09c-2.55-.42-4.72-1.29-6-3.71-.35-.66-.75-1.07-1.52-.52a1.07,1.07,0,0,1-1.67-.33,1.12,1.12,0,0,1,.45-1.5c1.4-.74,1.29-1.94,1.25-3.18a6.88,6.88,0,0,1,.22-2.38c-.19-.5.75-.85.19-1.41C343.53,227.51,343.7,228,343.67,228.51Zm20.93,38c1.35,1.24,1.35,1.24-.06,4,1.52.32,2.51-.54,3.4-1.46,2.62-2.71,2.88-6.16,2.86-9.67,0-.29-.11-.59-.45-.63a.84.84,0,0,0-.73.36,2.74,2.74,0,0,0-.45,1.2,13.31,13.31,0,0,1-1.94,4.29,3.65,3.65,0,0,1-2.7,1.93,5.75,5.75,0,0,1,.43-2.53c.37-.94.76-1.87,1.15-2.8.19-.44.24-.84-.25-1.11-1.21-.66-4.6,0-5.38,1.17-1.11,1.7-2.57,3.11-3.73,4.76a8.79,8.79,0,0,1-2.79,2.36,3,3,0,0,1-4-1.05,12.06,12.06,0,0,1-1-2.16,41.94,41.94,0,0,0-4.49-9.32,33.44,33.44,0,0,0-4.83-5.79c-.58-.57-1.15-.91-1.82-.16-.31.35-.36,1.09-1,.86s-.62-.9-.63-1.48,0-1-.61-1.24a5.61,5.61,0,0,0-4.82,0,3,3,0,0,0-1.09,2.66c.2,1.1,1.1.73,1.74.8a8.42,8.42,0,0,1,4.13,1.75,10.08,10.08,0,0,1,3.82,6.54c.22,1,.53,1.75,1.61,2a1.92,1.92,0,0,1,1.49,1.41,3.19,3.19,0,0,0,.71,1.32c1.06,1.07,1.68,2.75,3.76,2.37a1.45,1.45,0,0,1,1.64,1.41c.09,1.17.83,1.54,1.75,1.92a19,19,0,0,0,2.85,1,6.73,6.73,0,0,0,6.11-1.27,21.2,21.2,0,0,0,2.71-2.48C362.65,266.8,363.4,266.1,364.6,266.53Zm-254-174c-.76-.14-1,.5-1.3,1-.79,1.2-1.55,2.42-2.25,3.68a121.92,121.92,0,0,0-7.83,17.55,66.65,66.65,0,0,0-3.8,18.35,16.91,16.91,0,0,1-2,7c-1,1.84-2.45,3.43-3.42,5.25-2.78,5.22-6.55,9.66-10.43,14a48.35,48.35,0,0,1-8.44,7.1c-.67.47-1.68.78-1.69,1.81a4.27,4.27,0,0,1-1.32,2.65A10.77,10.77,0,0,0,65.73,177,28,28,0,0,0,68,190.26c1.31,3.08.47,5.67-1.26,8.09A29,29,0,0,1,61.08,204a24,24,0,0,0-7.69,10.78c-1.45,4-1.48,7.9.72,11.67a25.63,25.63,0,0,0,3.81,5.21c.66.66.56,1.1-.28,1.41-.27.09-.58.09-.61.51a18.53,18.53,0,0,0,8.88,5,25.13,25.13,0,0,0,5.5,1.06c3,.11,6-.39,9.07-.27a8.12,8.12,0,0,1,4.63,1.45,17.45,17.45,0,0,1,6.34,7.72c.2.49.3,1,.88,1.09a22.27,22.27,0,0,0,3,.62,3.7,3.7,0,0,0,4-4c-.07-.43-.14-.92-.57-1.11s-.81.22-1.09.51a5.47,5.47,0,0,1-1.6,1.43,1.31,1.31,0,0,1-1.74-.35c-.44-.54-.29-1,.14-1.53.73-.89,1.39-1.84,2.06-2.77a3.67,3.67,0,0,0-.1-4.61,14.81,14.81,0,0,0-4.85-4.26c-.32-.19-.75-.49-1.14,0,.22.73.85,1.12,1.33,1.64s1,1.43.23,2.08a1.54,1.54,0,0,1-2.16-.1,20.68,20.68,0,0,1-2-1.91,2.29,2.29,0,0,0-2.45-.93c-3.25.62-6.13-.41-8.82-2.1a20.43,20.43,0,0,1-2.64-2.22c-.45-.4-.86-.53-1.29,0-1.6,1.83-3.63,1.85-5.75,1.34A4.39,4.39,0,0,1,63.37,227,6.07,6.07,0,0,1,66,221.83c1.79-1.43,3.92-2.35,5.77-3.73-.54-.72-1-1.34-1.5-2-.33-.46-.69-.72-1.27-.44a27.49,27.49,0,0,0-4.25,2.09A6.45,6.45,0,0,0,62,221a11.86,11.86,0,0,1-1.3,3,4.28,4.28,0,0,0-.13,4.29c.12.26.19.54.29.81,1,2.56,2.17,4.77,5.51,4.34.53-.07,1.23,0,1.35.78a1.36,1.36,0,0,1-1,1.66,6.87,6.87,0,0,1-3,.4,5.47,5.47,0,0,1-4.51-3.79,45.22,45.22,0,0,1-2-6.59,39.37,39.37,0,0,1-.69-12.05,7.44,7.44,0,0,1,1.51-4,13.74,13.74,0,0,1,8.27-5.11c.6-.1,1.19-.19,1.38-.84A14.65,14.65,0,0,1,72,197.32a1.94,1.94,0,0,0,.49-2.39,19.27,19.27,0,0,0-2-3.31,11,11,0,0,1-2.17-4.44c-.85-3.85-1-6.38,2.69-8.72a2,2,0,0,0,1-1.77,7.11,7.11,0,0,1,.74-3.36,1.6,1.6,0,0,0-.36-2.29,1.31,1.31,0,0,1-.11-1.93,24.42,24.42,0,0,1,5.08-5.27c3.56-2.78,7.36-5.31,10.3-8.81,2.26-2.68,4.65-5.34,5-9.11,0-.38.17-.72.6-.77a.71.71,0,0,1,.81.56,6.65,6.65,0,0,1,.25,3c-.3,1.55-1.62,2.35-2.18,3.68a22.13,22.13,0,0,1-6.78,8.56c-1.2,1-2.32,2.08-3.68,3.31a24,24,0,0,0,7.56-3.1,1.33,1.33,0,0,0,.54-1.5c-.17-.79-.32-1.64.69-2s1.4.41,1.86,1.06c.06.1.23.12.35.18a.83.83,0,0,0,.62-.54,29.19,29.19,0,0,0,2.81-15.05,4.27,4.27,0,0,1-.1-.85,1.1,1.1,0,0,1,.74-1c.42-.13.65.23.86.51a3.89,3.89,0,0,1,.94,1.93c.2,3.15.68,6.33-.37,9.46-.85,1.82-1.6,3.7-2.58,5.45s-1.38,3.68-3.41,4.52c-.35.15-.31.62-.47.94a34.67,34.67,0,0,1-3.16,4.9c-.27.38-.63.68-1.06.29s-.3-.76,0-1.14a7.88,7.88,0,0,0,.81-1A7.15,7.15,0,0,0,89.82,164c-2,1.41-4.58,1.86-6.74,3.56,1.87.9,3.39,1.68,3.06,3.8a.46.46,0,0,0,.21.36c1.42.88.49,1.65-.1,2.46-1.75,2.39-1.71,2.34.78,4a1.38,1.38,0,0,0,2-.26,27.06,27.06,0,0,0,3.59-4.54,43.48,43.48,0,0,0,5-8.3,17.55,17.55,0,0,0,1.4-6.93c0-1.71-.94-3.18-.88-4.85a3.37,3.37,0,0,1,3.42,3,15.78,15.78,0,0,1,.3,1.91c0,.54-.13,1.18.48,1.57a2,2,0,0,0,1.52-1.29c-1.35,0-1.42-.91-1.23-1.89.28-1.48.63-3,1-4.43,1.19-5.25,2.77-10.38,3.07-15.84.19-3.38.08-6.76.34-10.13,0-.18,0-.44-.4-.43-.3,1.65-1,3.25-.89,5,0,1.35-.32,2.7,0,4.06.1.41.07.94-.49,1s-.69-.44-.87-.8a3.69,3.69,0,0,1-.26-1,23.37,23.37,0,0,1-.09-4.1c.13-3.35,1.26-6.48,1.86-9.72.33-1.77.74-3.52,1.14-5.28,1.08-4.81,3.31-9.21,5.28-13.66a49.3,49.3,0,0,1,8-13.25.62.62,0,0,0,0-1,20.53,20.53,0,0,0-3.9,4.2c-3,4.64-6.21,9.14-8.57,14.17-1.43,3.06-3.23,5.94-4.26,9.2a4.58,4.58,0,0,1-1.14,2.59,3.72,3.72,0,0,1-.25-2.7,22.48,22.48,0,0,1,1-3.3c1.43-3.38,2.94-6.73,4.44-10.09.35-.79.85-1.53,0-2.34a.83.83,0,0,1,0-1c.72-1.07.91-2.46,2-3.29a2.2,2.2,0,0,0,.79-1.93c1.58-1.92,3.17-3.83,4.74-5.76a1.57,1.57,0,0,0,.61-1.46,25.17,25.17,0,0,0-4,4.7C111.39,90.75,110.37,91.33,110.6,92.52ZM136,369.85a9.64,9.64,0,0,1-3.59-2.12,31.58,31.58,0,0,1-6.61-9.74c-.35-.82-.59-1.91-1.64-2.09a2.53,2.53,0,0,1-1.92-1.86c-.68-1.66-2-3-2.44-4.78a8,8,0,0,0-1.81-3.08c-.74-.82-1.25-.86-1.91-.1a61.56,61.56,0,0,0-4.33,5.11c-4.06,5.85-8.39,11.54-11.64,17.92-1.28,2.5-2.78,4.87-4,7.39-1.71,3.4-2.63,7.19-5,10.29a13.34,13.34,0,0,0-.6,1.38c-.88,1.56-1.29,3.34-2.15,4.89-.42.75-1.27,1.47-.8,2.25s1.46.32,2.24.32a2,2,0,0,0,1-.22c1.4-.94,3-1,4.58-1.09a6.65,6.65,0,0,0,2.71-.68,26.49,26.49,0,0,1,8.43-2.62c2.76-.53,5.42-1.46,8.26-1.66a14.24,14.24,0,0,0,5.82-1.57,2.79,2.79,0,0,1,1.44-.32,19.48,19.48,0,0,0,7.82-1.57c4.15-1.69,8.59-1.85,12.89-2.65a95.49,95.49,0,0,1,12.9-1.41c5.32-.25,10.6-.84,16,.08s10.74,1.26,16.1,2c7.59,1,15.12,2.29,22.66,3.62,4.82.85,9.57,2.08,14.33,3.21,3.57.86,7.11,1.88,10.71,2.58,2.65.51,5.07,1.63,7.63,2.38a58.06,58.06,0,0,1,9.13,3.25c5,2.41,10.16,4.42,15.17,6.83,8.34,4,16.33,8.6,24.23,13.38,4.7,2.84,9.19,6,13.68,9.14,5.68,4,11.11,8.24,15,14.13A15.74,15.74,0,0,0,323,445c1.49-1.27,2.92-2.46,3.38-4.26,1-3.86,2.9-7.37,4-11.17a7.53,7.53,0,0,1,.78-1.52,10,10,0,0,0,1.6-5.29,3,3,0,0,1,.3-1.42c1.48-3.13,2.94-6.25,4.17-9.49,1.85-4.84,4.77-9.2,7-13.87,1.56-3.25,3-6.54,4.23-9.9.4-1.08.67-2.19,1.11-3.26,1.3-3.2,2.8-6.32,3.86-9.62,1.15-3.56,2.32-7.11,3.25-10.75,1.1-4.24,2.87-8.27,4.27-12.43a86.63,86.63,0,0,0,3.73-16.84c.33-2.64-.05-5.31.7-7.94.65-2.29.05-4.74-.12-7.05a43.66,43.66,0,0,0-1.84-10.42c-.92-2.75-1.19-5.62-1.88-8.41a25,25,0,0,0-2.51-7.1c-1.41-2.32-2.76-4.7-4.31-7a5.22,5.22,0,0,0-.88-.94c-1.73-1.52-3.52-3-5.13-4.63a6.23,6.23,0,0,0-3.25-2.06,1.79,1.79,0,0,1-1.11-.63c-.78-.95-1.59-.7-2.47-.13a11.29,11.29,0,0,1-2.43,1.4,8.52,8.52,0,0,1-8.7-1.84,4.56,4.56,0,0,0-4.61-.81c-.21.06-.4.17-.6.24-3.85,1.31-7.25.79-10-2.44-.33-.38-.79-.65-1.12-1-.63-.68-1.08-.59-1.45.23-.63,1.38-1.27,2.75-1.88,4.14-.32.72-.66,1.13-1.62,1s-1.16.22-.71,1.28c.11.26.32.46.11.92-.93-.23-1.48.29-2,1.14-2.51,4.2-5.27,8.23-8.07,12.25-.48.68-1,1.63-1.94,1.49s-1.08.42-1.52.88c-.82.86-1.1,2.12-2.14,2.83-.26.17-.47.33-.75.12a.53.53,0,0,1-.07-.77c.33-.47.74-.89,1-1.38a80.24,80.24,0,0,0,7.29-16.34c.44-1.37,1.32-2.69,1.38-4.07.13-2.77,1.11-5.36,1.29-8.1.29-4.22,1.11-8.45-.07-12.66a.83.83,0,0,1,1.42-.84,2.59,2.59,0,0,1,1,1.87c0,.94.1,1.88.1,2.82a7.31,7.31,0,0,0,.91,4.17,6.67,6.67,0,0,1,.85,3.32,23,23,0,0,1-.47,6.45,12.44,12.44,0,0,0-.2,3.9,4.46,4.46,0,0,0,.54-.69c1.56-4.16,3.1-8.33,3.56-12.79a5.16,5.16,0,0,0-.18-3c-1.29-2.47-2.41-5.11-5.17-6.42a4.14,4.14,0,0,1-1-.81c-.6-.55-1.16-1.14-.68-2.06a1.83,1.83,0,0,1,2.46-.71c1.62.76,3.31,1.49,4.06,3.34a1.13,1.13,0,0,0,1.13.81,12,12,0,0,0-.07-4.19c-.07-.63-.36-1.38.28-1.82,1-.69.72-1.56.58-2.5-.47-3.29-1.6-6.42-2.2-9.66-.31-1.69-1.16-3.61,1-4.83.14-.08.16-.38.24-.57.65-1.76.66-1.69,2.58-1.64a59.93,59.93,0,0,0,7.58.11,7.69,7.69,0,0,0,4.44-2c4.79-4.33,6.27-10.22,7.6-16.13.35-1.56.8-2.53,2.31-2.93.51-.13,1-.31.84-1a34.57,34.57,0,0,0-4.14-8.51,1.69,1.69,0,0,0-.67-.53c-1.3-.64-2.3-1.7-3.55-2.45a14.38,14.38,0,0,1-3.25-2.81,16.35,16.35,0,0,1-4.12-8.88c-.53-3.87-1.33-7.73.11-11.55.66-1.74,1.15-3.39.32-5.22a5.79,5.79,0,0,1-.19-1.93c-.55-7.62.48-15.13,1.65-22.62.48-3.07.82-6.15,1-9.25,0-.55.22-1.33-.52-1.47-1.46-.28-1.41-1.3-1.55-2.43-.44-3.54,0-7.27-2-10.51a1,1,0,0,1-.12-.63c.4-3-.83-5.68-2.27-8.18-1.84-3.16-3.54-6.41-5.65-9.43a61.83,61.83,0,0,0-5.85-7.48c-4-4.22-8.28-8.19-12.19-12.52-.49-.53-.89-1.13-1.35-1.69a71,71,0,0,1-8.67-13.15,6.79,6.79,0,0,0-3.61-3.44c-3.09-1.28-5.48-3.74-8.47-5.21-2.46-1.21-4.63-2.93-7.18-4a104.75,104.75,0,0,0-21.48-6.43c-4.4-.8-8.79-1.7-13.23-2.15s-8.65-.32-13-.5a90.78,90.78,0,0,0-13.6.16c-3.44.37-6.85.93-10.29,1.29a65.55,65.55,0,0,0-9.12,1.65,32.45,32.45,0,0,0-5.23,2c-3,1.36-6.37,1.77-9.44,3.1-2.58,1.11-5.14,2.27-7.72,3.38a35.76,35.76,0,0,0-5.16,2.24c-3.85,2.42-7.51,5.13-11.17,7.82-2.32,1.7-4.12,4.08-6.42,5.75-3.4,2.46-5.55,5.87-7.69,9.22s-3.56,7.37-5.56,11c-.48.87-.57,1.94-1,2.84-1.12,2.32-2.83,4.36-3.17,7-.06.47-.52.67-.76,1a50.65,50.65,0,0,0-3.57,5.38c-1.56,3-1.59,6.57-3,9.67a3.35,3.35,0,0,0-.12.85c-.17,1.29.08,1.58,1.35,1.27s2.51-.64,3.81-.82a12.85,12.85,0,0,0,3.21-.42c2.71-1.12,5.59-1.32,8.45-1.65,4.84-.54,9.65.25,14.48.28s9.39,1.3,14,2.49a18.37,18.37,0,0,1,6,2.93,4.73,4.73,0,0,1,1.51,1.81c.55,1,0,2.2.37,3.17s1.52,1.57,1.8,2.83c.85,3.8,1.92,7.55,2.82,11.33a10.89,10.89,0,0,1,.29,4.29c-.1.62-.21,1.39-1.14,1.26s-.94-.75-.91-1.46a19.79,19.79,0,0,0-1.6-8c-1-2.48-1.79-5-2.76-7.47-.52-1.31-.35-2.84-2.4-2.59a.73.73,0,0,1-.55-.31c-1.42-2.11-3.78-2.45-5.91-3.26-1.66-.64-3.41-.57-5.09-1a41.45,41.45,0,0,0-12.39-1.62c-2.44.12-4.89.21-7.34.13s-4.87.43-7.31.57a3.58,3.58,0,0,0-2.39.9,1.09,1.09,0,0,1-1.37.29,4.06,4.06,0,0,0-2.75.08c-1.39.31-2.72.86-4.22.6-1.07-.18-1.63.57-1.58,1.59a32.65,32.65,0,0,1-.45,4.3,44,44,0,0,0-.07,9,44.34,44.34,0,0,1,.09,8.85c-.09,1.1-.2,2.2-.33,3.61,1.29-1.37,2.31-2.48,3.34-3.58a9.21,9.21,0,0,1,3.53-2.46c2.43-.88,4.85-1.76,7.38-2.41a31.56,31.56,0,0,1,14.37,0,49,49,0,0,1,10.91,4,25.21,25.21,0,0,1,6.49,5,3.12,3.12,0,0,1,1.1,2.27,1.44,1.44,0,0,1-.79,1.42,2.62,2.62,0,0,1-3.32-.62,16.8,16.8,0,0,0-7.12-5.43c-1.65-.7-3.29-1.47-5-2.13a25.76,25.76,0,0,0-12.8-1.38c-2.48.31-4.85,1.35-7.28,2a12.27,12.27,0,0,0-6.14,3.84c-1,1.22-2.44,2.23-3,3.87.69.34,1.19,0,1.73-.18a24.06,24.06,0,0,1,4.62-1.08c2.95-.46,5.91-.26,8.86-.46a40.83,40.83,0,0,1,7.33.25c1.78.2,3.54.59,5.33.83a42.83,42.83,0,0,1,9.27,2.06c1.38.51,1.68,1,1.39,2.22s-.87,1.55-2.31,1.24c-2.1-.46-4.19-1-6.25-1.55a50.28,50.28,0,0,0-7.68-1.21,2.07,2.07,0,0,0-1.69.3,8.19,8.19,0,0,0,.95,3.48,4.32,4.32,0,0,0,5,2.4,22.49,22.49,0,0,0,3.7-1.2c1.19-.56,2.06-.27,2.45.54s0,1.59-1.11,2.29a10.37,10.37,0,0,1-4.67,1.56,18.93,18.93,0,0,1-7.24-1,12.09,12.09,0,0,1-4.9-3,3.76,3.76,0,0,1-1.19-3.93c.3-1.09-.11-1.5-1.16-1.43-2.88.2-5.8.16-8.6.94a19.2,19.2,0,0,1-4.24.72c-2.06.1-2.33.4-2.57,2.41-.08.64.07,1.36-.41,1.87-1.13,1.21-1.43,2.79-2,4.26a32.32,32.32,0,0,1-2,5,44.54,44.54,0,0,0-3.45,6.69c-.6,1.61-1.21,3.21-1.72,4.86s-2,2.92-2.77,4.55a11.61,11.61,0,0,1-1,2.37,18.59,18.59,0,0,0-3.79,11.48,40.34,40.34,0,0,0,1.55,13c1.31,4.2,2.88,8.28,4.44,12.39,2.22,5.86,3.47,12,4.93,18.11,1.1,4.61,1.81,9.31,2.7,14a97.12,97.12,0,0,1,1.72,22.11c-.12,3.08.39,6.12.36,9.34.79-.58.76-1.28,1-1.85a12,12,0,0,1,2.06-3.78c1.08-1.12,2-.92,2.61.51a1.81,1.81,0,0,1-.5,2.17c-1.23,1.17-.94,2.5-.31,3.78a6.18,6.18,0,0,0,6.15,3c.84-.15,1.93-.57,2.36.34s1.13.84,1.91.79c2.42-.16,4.63-1.57,7.15-1.14.3.05.68-.22,1-.4,3.53-2,7-4,10.39-6.24.54-.36,1.11-.69,1.17-1.45s.57-1.2,1.43-1.26a7,7,0,0,0,1.87-.53c3.85-1.53,7.89-1.5,11.93-1.54,1.39,0,3.32,1.9,3.81,3.48s-.54,2.37-1.59,3.25c-2.92,2.45-6.36,4.19-9.18,6.79a7.92,7.92,0,0,1-2.22,1.29c-4.61,2-9.07,4.36-14,5.8a27.11,27.11,0,0,1-12.17.45c-3.47-.56-6.35-2.61-9.39-4.25a12.1,12.1,0,0,1-5.43-6c.05,8.4,2.8,23.1,4.76,25.58.29-1,1.13-1.49,1.77-2.15s1.3-.37,1.89.17.46,1.19-.16,1.61a3.57,3.57,0,0,0-1.25,2.41,17.11,17.11,0,0,0-.17,3c-.19,2.13,1,3.37,2.7,4.53.15-.76.23-1.34.4-1.89A5.47,5.47,0,0,1,120,328.9a1.63,1.63,0,0,1,2.13-.21c.66.61,0,1-.28,1.47a9.25,9.25,0,0,0-.94,2.64c-.64,2.56-.59,2.69,2,3.83.32-.54.28-1.51,1-1.59,1.19-.13,1.23-.93,1.48-1.76a2.43,2.43,0,0,1,1.56-1.69c1-.34,2.16.43,1.83,1.33-1.19,3.33.6,6.3.76,9.59a1.59,1.59,0,0,0,1-1.41,49.36,49.36,0,0,1,2-7.93,26.55,26.55,0,0,1,5.13-9.16c1.37-1.65,3-2.17,4.56-1.16a3,3,0,0,0,2.34.57,2.73,2.73,0,0,1,1,.23c.29.08.56.22.61.54a.59.59,0,0,1-.42.67,4.1,4.1,0,0,0-2.08,1.81,27.52,27.52,0,0,0-3.4,7.65A76.34,76.34,0,0,0,137.41,355c0,1.07-.06,2.18,1,2.94.19.14.38.59.29.76-.76,1.5.2,2.43,1,3.41.32.37.49.76.11,1.14a.75.75,0,0,1-1.27-.21c-.62-1.53-2.14-2.52-2.44-4.25a2.65,2.65,0,0,0-2.65-2.33c.8,1.7,1.11,3.3,2,4.72,1.12,1.75,2,3.71,4,4.63a.66.66,0,0,1,.42.88c-.26.51-.7.39-1.1.15s-.61-.39-.9-.6a17.6,17.6,0,0,1-4.68-5,24.46,24.46,0,0,1-3.7-9.6,33.07,33.07,0,0,0-3.35-9.77A81.8,81.8,0,0,0,128.61,356c.62,2.69,2.62,4.92,2.44,7.83,0,.18.19.39.3.56,1.1,1.66,2,3.49,4.05,4.27C135.73,368.76,136,369,136,369.85Zm190.73,107a17.18,17.18,0,0,0,1.91-3.24c1.4-3.24,2.69-6.52,4.25-9.68a73.93,73.93,0,0,0,4.27-10.37c1.54-4.82,3.81-9.32,5.53-14.06q3.06-8.43,6.12-16.86c.92-2.58,1.82-5.18,2.83-7.73,1.88-4.76,4.14-9.36,6-14.12,2.66-6.7,6-13.11,8.16-20,1.13-3.63,2.53-7.19,3.6-10.84,1.41-4.84,3.49-9.47,4.38-14.47a25.34,25.34,0,0,1,1.12-4.4c2.25-6.07,3.29-12.39,4.14-18.76.48-3.58.57-7.2.86-10.79.66-8.07-.13-15.85-4-23.12-.24-.44-.31-1-.54-1.41-1-2-.93-4.38-1.77-6.44-2-5-4.43-9.85-8.73-13.47-1.43-1.2-3.14-1.93-4.6-3.1-.76-.62-1.73.82-2.78.79a2.18,2.18,0,0,0-.43.05c-2.61.47-5-.35-7.33-1.38a4.4,4.4,0,0,0-1.4-.53c-.83-.08-1.11.54-1.41,1.12s.1.78.48,1c2.52,1.57,4.63,3.67,7,5.47a30.9,30.9,0,0,1,7.76,9.5,34.21,34.21,0,0,1,3.23,8.69c.71,2.8.93,5.7,1.79,8.48a39.94,39.94,0,0,1,2.21,10.32A37.43,37.43,0,0,0,370,323a12.11,12.11,0,0,1,.05,2.76c-.13,3.64-1.37,7.08-1.55,10.7a60.35,60.35,0,0,1-1.86,11.08c-.62,2.57-.8,5.25-2,7.68-1.33,2.63-2.14,5.48-3.22,8.2-1.32,3.31-2.05,6.89-3.1,10.32a161.38,161.38,0,0,1-8.39,21.52c-.87,1.85-1.29,4-2.37,5.67-3.16,5-5.2,10.6-7.91,15.84a21.3,21.3,0,0,0-2,5.66,43.85,43.85,0,0,1-2.86,7.7c-1.11,2.73-2.54,5.32-3,8.32a2.34,2.34,0,0,0,.64,2.28c.65.68,1.31,1.35,1.9,2.08.4.49.23,1-.35,1.21a2.49,2.49,0,0,1-1.67.33c-.59-.15-1-1-1.73-.51-.56.4-.51,1.17-.78,1.75a22.69,22.69,0,0,0-.94,2.41c-.43,1.31-.83,2.61-2.14,3.38-.67.39-.52,1.11-.6,1.75a2,2,0,0,1-2,1.94,2.92,2.92,0,0,1-3.1-2.6,4.7,4.7,0,0,0-1.2-2.69,21,21,0,0,1-2.29-3.36c-1.85-2.84-4.32-5.19-6.5-7.77a34.92,34.92,0,0,0-4.58-4,29.3,29.3,0,0,0-4.25-3.34c-3.5-1.91-6.34-4.75-9.85-6.63-2.1-1.13-3.75-2.9-5.89-4-4.94-2.53-9.69-5.39-14.57-8-6.48-3.49-13.19-6.46-19.89-9.46-1.06-.48-2.18-.79-3.26-1.16-2.73-.92-5.17-2.56-8.06-3.09a25.61,25.61,0,0,1-7.27-2,6.14,6.14,0,0,0-1.68-.38,23.25,23.25,0,0,1-4.23-.78c-3.93-1.53-8.09-2.09-12.11-3.22-2-.55-4.09-.23-6-.86a54.65,54.65,0,0,0-10.31-2.23c-1.94-.26-3.86-.57-5.79-.83-3.93-.53-7.81-1.52-11.83-1.2a4,4,0,0,1-1.49-.19c-4.23-1.38-8.68-1.33-13-1.95a10.36,10.36,0,0,0-3.24,0c-3.46.62-7-.09-10.44,1a1,1,0,0,1-.43,0,30.36,30.36,0,0,0-9.2.93,31.08,31.08,0,0,1-3.61.69c-2.7.38-5.46.51-8.06,1.53a28.69,28.69,0,0,1-4.94,1.58c-5.6,1.08-11.22,2-16.82,3a33,33,0,0,0-7.1,1.93,6.18,6.18,0,0,1-2.31.53,6.76,6.76,0,0,0-2.29.53c-2.55,1-5.07,2.13-7.89,2.15a2.16,2.16,0,0,0-1,.23c-2,1.15-4.29,1.08-6.45,1.54a1.5,1.5,0,0,1-2-1.35,5.38,5.38,0,0,1,.61-4.18,13.24,13.24,0,0,0,.94-1.93c1.28-3,1.92-6.32,4.82-8.35.16-.1.2-.37.29-.57,1.12-2.33,2.4-4.61,3.31-7,1.5-3.94,4-7.34,5.88-11a52.64,52.64,0,0,1,4.63-7.19c1.15-1.54,1.92-3.38,3.21-4.85,1-1.2,1.84-2.58,2.76-3.87,2.08-2.89,3.86-6,6.63-8.37a1.49,1.49,0,0,0,.4-2.1,14.49,14.49,0,0,1-1.21-4.32,17.85,17.85,0,0,0-1-3.75c-1-2.23-1.89-4.51-2.82-6.78-.19-.46-.26-1.06-.88-1.08-.47,0-.66.5-.91.84-.13.17-.21.38-.34.55-3.72,5.06-6.71,10.58-10.13,15.83a101.43,101.43,0,0,0-5,9.1c-1.86,3.64-4.15,7.05-6.26,10.56-3.41,5.68-7.28,11.09-10.44,16.93a20.5,20.5,0,0,1-1.53,2.61,70.7,70.7,0,0,0-5,8.06c-2.06,3.72-3.94,7.53-5.87,11.32-2.2,4.29-4.34,8.61-6.57,12.89-1.3,2.5-2.16,5.19-3.47,7.7a18.41,18.41,0,0,0-2.17,6.95,43.23,43.23,0,0,0,6.79-3.29c6.84-3.55,13.59-7.3,20.81-10.05,4.45-1.7,8.88-3.44,13.39-5,2.93-1,6-1.65,9-2.4,6.94-1.71,13.87-3.46,20.86-4.95,4.81-1,9.71-1.41,14.53-2.41a127.06,127.06,0,0,1,13.5-1.89c4.51-.44,8.92-1.53,13.5-1.61s9.35-.64,14.06-.57c3.83.05,7.63.5,11.46.61,3,.09,5.93.13,8.87.42s5.75.49,8.63.75a24.15,24.15,0,0,1,5.53,1,63.28,63.28,0,0,0,8.36,2.15,19.76,19.76,0,0,1,5.2,1.49c5.51,2.72,11.47,4.33,16.95,7.12a14.44,14.44,0,0,0,2,.76,78.55,78.55,0,0,1,12.55,5.27c5.39,2.9,11,5.52,15.68,9.55a6.15,6.15,0,0,0,.89.62,174.89,174.89,0,0,1,18.13,12.58c1.32,1.1,2.69,2.2,4.11,3.16,3.11,2.11,6,4.51,8.89,6.87,2.35,1.91,4.56,4,6.89,5.93a35.43,35.43,0,0,1,8,9.29A64.18,64.18,0,0,1,325.88,476,1.2,1.2,0,0,0,326.71,476.8Zm13-319.49a3.86,3.86,0,0,0-.42.5c-1.09,3-.12,6.3-1,9.37-.08.29.14.69.26,1a47.32,47.32,0,0,0,5.16,10.87c1.79,2.65,2.73,5.73,4.48,8.4a1.19,1.19,0,0,1,.08.2.75.75,0,0,1-.32.93.66.66,0,0,1-.81,0,4.61,4.61,0,0,1-.76-.77q-3.51-4.53-7-9.08c-.41-.53-.67-1.14,0-1.7.9-.74.7-1.46,0-2.21a5,5,0,0,1-1.11-1.82c-1.06-3.07-2.22-6.1-3.3-9.16-.22-.6-.44-1.12-1.13-1.09s-1.3-.65-2-.53a.82.82,0,0,0-.19.83c.44,2.71,1,5.4,1.3,8.12A27.1,27.1,0,0,0,340.26,187c.26.28.48.56.26,1a1.06,1.06,0,0,1-1.09.54c-.66,0-1-.53-1.33-1-.85-1.11-1.76-2.16-2.65-3.24a4.68,4.68,0,0,0,.66,2.48c.53,1.47,2.09,2.72,1.11,4.58-.09.17.11.62.31.77,1.13.83,1.29,2.22,1.92,3.33,1.72,3,3.24,6.08,5.6,8.68.82.9,2.4,1.54,1.88,3.32-.06.22.33.64.59.86,1.58,1.37,3.08,2.86,5.17,3.48a9.36,9.36,0,0,1,1.42.53,1.27,1.27,0,0,1,.71,1.62c-.18.7-.76.8-1.36.85a3.55,3.55,0,0,1-1.47-.3c-.67-.22-1.28-.69-2-.57a1.27,1.27,0,0,0-.29,1c0,2.27.4,2.57,2.69,3a40.3,40.3,0,0,0,6.67.47c2.6,0,4.83.83,6.26,3.19a3.6,3.6,0,0,0,2.38,1.71c4.53,1,7.84,7,5.46,12a2.42,2.42,0,0,0-.37,1.22,1.16,1.16,0,0,0,.62,1.07.83.83,0,0,0,1-.3,9.76,9.76,0,0,0,1.85-2.38,4.12,4.12,0,0,0-1.31-5.47.64.64,0,0,1-.29-.86c1.66-.38,3.2.29,4.68,1a3.17,3.17,0,0,0,.09-2.26,15.91,15.91,0,0,0-2.07-5.13c-.54-1.06-1-1.89-2.25-2-1-.08-1.17-.68-1.07-1.49a7.59,7.59,0,0,0-.3-3.21,15,15,0,0,0-2.94-5.5c-2.24-2.55-3.88-5.77-7.62-6.61a.79.79,0,0,1-.6-1,1,1,0,0,1,1-.67,6.67,6.67,0,0,1,3.82,1.36,21.78,21.78,0,0,1,4.22,4c.29.36.46.93,1.17.82-.09-1.07-1.13-1.4-1.62-2.13-.22-.34-.66-.67-.26-1.14a1.45,1.45,0,0,1,1.16-.48,1.79,1.79,0,0,1,1.25.78c1.4,1.55,2.93,3,3.75,5,.17.41.35.8.93.63a2.59,2.59,0,0,0,1.82-3c-.51-2.42-1.78-3.56-4.31-3.86a15.6,15.6,0,0,1-1.93-.21,1,1,0,0,1-.71-1,.69.69,0,0,1,.62-.76c1.22-.24.88-.88.63-1.75-1.31-4.58-2.52-9.18-3.76-13.78a40.49,40.49,0,0,0-1.93-5.72c-.3-.7-.6-1.78-1.43-1.74-1.3.07-1.87-.83-2.75-1.39-1.16-.72-2-2.15-3.73-1.83-.16,0-.41-.16-.54-.32-1.3-1.65-3.17-2.71-4.5-4.32a11.78,11.78,0,0,0-3.45-2.9,7.89,7.89,0,0,0-3.4-1.23,1.18,1.18,0,0,1-1.19-.79c-.18-.74.61-.88,1-1.23.77-.66,1.76,0,2.77-.29-.48-1.14-.87-2.15-1.31-3.13-1.13-2.49-2.3-5-3.41-7.48-.63-1.43-.35-2,1.21-2.12,1-.07.79-.49.7-1.09-.24-1.72-1.08-3.58.93-4.88a.56.56,0,0,0,.16-.39,45.83,45.83,0,0,0-.06-6.72,3.18,3.18,0,0,0-2,2.11,28.35,28.35,0,0,0-2,7.27,55.8,55.8,0,0,0,.13,17.87,7.21,7.21,0,0,0,1.17,2.75c1.33,2.05,2.94,3.89,4.21,6a16.79,16.79,0,0,0,2.82,3.73c1.33,1.24,1.82,3.15,3.49,4.05a.56.56,0,0,1,.09.79c-.29.41-.61.2-.89-.07l-2.79-2.75a1.71,1.71,0,0,0,.32,1.52c.33.61.65,1.33-.07,1.71s-1.12-.38-1.29-1c-.34-1.24-1.38-2-2-3a1.08,1.08,0,0,0-1.49-.49c-.92.47-1.43-.1-2.05-.66a8,8,0,0,1-1.82-2.4,6.45,6.45,0,0,0-3.27-3.54.82.82,0,0,1-.47-1c1.09,0,1.47-.58,1.15-1.64-.4-1.36-.31-2.89-1.6-3.91a1.26,1.26,0,0,1-.32-1.38C341.32,162,340.35,159.85,339.69,157.31ZM290.62,66.8a5.87,5.87,0,0,1-3.51-.69,1,1,0,0,0-1.18.31.55.55,0,0,0-.07.78c1,1,1.12,2.49,1.75,3.69.52,1,1,2.09,2.33,2.4a1.4,1.4,0,0,1,.9.89c.74,1.75,2.13,3.07,3.12,4.66a18.14,18.14,0,0,0,5.77,6c.77.49,1.36,1.27,2.34,1.44,1.34.23.53,1.65,1.24,2.23l.17.14C307.25,92,310,96.09,313.11,100s5.35,8.54,7.87,12.9a16.67,16.67,0,0,1,2.11,6.3,19.06,19.06,0,0,0,1.32,4.56A41.53,41.53,0,0,1,327.09,137c.14,2.9-.68,5.71-1,8.57-.52,4.92-1.8,9.75-1.93,14.73-.07,3-.19,5.91,0,8.87,0,.42,0,.91.46,1.12A1.14,1.14,0,0,0,326,170a2.62,2.62,0,0,0,1-2,43.08,43.08,0,0,1,.48-6,8,8,0,0,0-.13-1.94,74.18,74.18,0,0,1-.34-12.11c0-.81.29-1.63,1-1.71,1.63-.17,1.73-1.07,1.62-2.37a18.56,18.56,0,0,1,.14-2.78c.54-7.16.48-14.29-1.52-21.25a12,12,0,0,0-1.83-4.24c-.39.49-.13.81,0,1.14a69,69,0,0,1,2.48,9.6c.06.4.37.91-.25,1.06s-.63-.44-.85-.79a13,13,0,0,1-.81-2.66c-.82-2.45-2.17-4.7-2.7-7.27a38.69,38.69,0,0,0-2.8-8.13,23.32,23.32,0,0,1-1.39-3.6A17.35,17.35,0,0,0,314,95.68c-.78-.63-1.45-1.15-1.1-2.31.16-.51-.3-.93-.62-1.32-1.38-1.65-2.66-3.39-4.17-4.9-1-1-2-1.77-2.22-3.27,0-.3-.42-.57-.66-.84-2.58-2.92-5.06-5.93-7.76-8.74a29,29,0,0,0-5.32-4.39C291,69.15,290,68.67,290.62,66.8Zm34.82,168.76c-2.13.07-3.72,1-5.46.93s-3.6.24-5.37-.32c-.55-.18-.74.35-.7.82a18.13,18.13,0,0,0,.57,3.41c.79,2.93,1.55,5.91.76,8.95a17.55,17.55,0,0,0-.7,6.4,10.22,10.22,0,0,1-.08,2.59,40.71,40.71,0,0,0,.06,9.49,7.51,7.51,0,0,0,3.32,5.74c.89.67,1.74,1.5,3,1.39a1.1,1.1,0,0,0-.2-1.09,18.79,18.79,0,0,1-1.81-8.58c-.08-3,.22-6.07-.72-9-.14-.41-.25-1,.05-1.25,1.39-1.27.77-2.8.69-4.26-.12-2.17.15-4.42,1.83-5.78a6.09,6.09,0,0,0,2-3.84C323.13,239.17,323,236.9,325.44,235.56Zm27.37,9.15a12.89,12.89,0,0,0-8.68-1.41,8,8,0,0,0-3.7,2.13c-.71.74-.84,1.36,0,2.17a29.53,29.53,0,0,1,4,4.22,57.53,57.53,0,0,1,6.74,12c1,2.51,2.1,2.67,3.85.7.25-.28.48-.52.4-.94a2.33,2.33,0,0,1,.75-1.92c.29-.37,1.45-.75.34-1.46-.58-.36-.09-1.37-1-1.49-2.25-.32-3.63-1.95-5.08-3.44a13.45,13.45,0,0,1-2.58-3.41.94.94,0,0,1,.16-1.19c.42-.39.79-.17,1.12.17a.53.53,0,0,0,.82.08C350,248.56,351.26,246.65,352.81,244.71ZM94.16,231.54c.66-1.12-.23-1.86-.48-2.71-.69-2.42-1.34-4.86-2.21-7.21a16.89,16.89,0,0,1-1.13-3.69c-.46-3.56-1.27-7.1-1-10.74.1-1.28-.28-2.53-.07-3.86a31.91,31.91,0,0,1,5.15-12.66,39.8,39.8,0,0,0,2.74-5.56c.16-.33.47-.73-.11-1.13-.39.55-.78,1.05-1.11,1.6a82.51,82.51,0,0,0-7.21,16.11c-.75,2.27-1.5,4.52-1.13,7a1.11,1.11,0,0,1-.86,1.31c-.52.16-1,.39-1,1-.32,3.15-.83,6.31.18,9.43.27.82.68,1.58,1.72,1.72.76.11,1.48.47,1.35,1.37s-1,.84-1.72.9h-.44c-2.65,0-2.86.2-3.63,2.82.7.6,1.66.4,2.43.81,1.51.78,3.06,1.28,4.74.44.73-.36,1.16.06,1.19.73C91.63,230.93,93,231.11,94.16,231.54Zm244.14-18a20.21,20.21,0,0,0-.8,2.41,36.49,36.49,0,0,1-1.63,6.24c-1.8,4.1-3.76,8.06-7.36,10.94-.42.33-.52.7-.14,1.28,1.36,2.09,1.24,2.66-.69,4.33A8.58,8.58,0,0,0,326,241a2.48,2.48,0,0,0,.52,3c.77.59,1.46.4,2.56-.81a23,23,0,0,0,4.16-6.54,4.88,4.88,0,0,0,.52-2.65A10.77,10.77,0,0,1,338,223.65a5.69,5.69,0,0,1,7.67,0,4.9,4.9,0,0,1,.48.44.76.76,0,0,0,1.3-.75c-.56-1.08-.75-2.37-1.71-3.21C343.31,218,340.46,216.42,338.3,213.55ZM81.92,224.12c-.1-.19-.12-.29-.16-.31-2.12-.73-4.18-1.54-5.52-3.52a1.23,1.23,0,0,0-1.56-.39c-2.94,1.21-5.81,2.54-7.86,5.12a2.93,2.93,0,0,0,0,3.75c1.28,1.18,5.22.92,6.44-.42,1.49-1.65,2.34-1.62,3.65.18,2.09,2.87,5,3.9,8.43,3.88.43,0,.94,0,1-.56,0-.44-.41-.54-.75-.65-1.8-.56-3.28-1.75-5-2.56a3.14,3.14,0,0,1-1.29-3.56C79.74,223.49,81,224.45,81.92,224.12Zm293.19-27.51a9.44,9.44,0,0,0,.83,3.52c.27.61.6,1.17,1.36,1.24,1.9.17,3,1.37,4.15,2.79,1,1.23,2.05,2.66,4.13,1.82a1.43,1.43,0,0,1,1.77.91,1.31,1.31,0,0,1-.4,1.74c-1,.73-.56,1.37-.16,2.22a17.37,17.37,0,0,1,1.62,11.5,5.44,5.44,0,0,0,.42,2.93c.19.64.36,1.39,1.27,1,.58-.26,1.47-.54.6-1.51-.31-.34,0-.84.07-1.26a31.26,31.26,0,0,0,.09-8,27.89,27.89,0,0,0-4.5-12.72c-1.59-2.47-3.72-4.31-7.06-3.17-.16,0-.39-.09-.56-.13s-.1-.18-.09-.24q0-.31.12-.63c.4-1.77.09-2.21-1.62-1.77C376.4,197,376,196.53,375.11,196.61Zm-2.53,50.62c1.07,1.26,2.36,1.29,3.49,1.61,3.87,1.12,8.88-1.35,10.24-5.13a19.62,19.62,0,0,0,1.41-6.51,15.77,15.77,0,0,0-.59-5.11A27.16,27.16,0,0,1,372.58,247.23ZM285.1,63.84a9.1,9.1,0,0,1,5.19-1.05,29.11,29.11,0,0,1,8,1.68,52.81,52.81,0,0,1,14.93,8.11,6.49,6.49,0,0,0,1.46.91c.61.27,1.07-.14,1.55-.5s.17-.71,0-1.08a1.1,1.1,0,0,1-.15-.81c.62-1.33-.36-1.73-1.21-2.31a37.07,37.07,0,0,0-8.49-4.25c-3.29-1.19-6.61-2.46-10.21-2.69a84.12,84.12,0,0,1-8.82-.73C284.62,60.65,284.61,60.69,285.1,63.84Zm17.3,8.35a4.13,4.13,0,0,0,1.89,2.15c2.47,1.54,4.38,3.75,6.65,5.5,2,1.55,3.44,3.7,5.47,5.21,1.56,1.16,2.71,2.74,4.27,3.89s2.58,3.27,4.13,4.68a11.89,11.89,0,0,1,2.76,3.57A3.75,3.75,0,0,0,330,99.36c-1.6-5.43-3.55-10.38-7.68-14.15a26,26,0,0,0,1.72,2.6.62.62,0,1,1-.89.87c-.33-.28-.6-.62-.94-.89-2-1.64-3.29-3.92-5.17-5.71a59.82,59.82,0,0,0-11.77-8.76A5.66,5.66,0,0,0,302.4,72.19ZM135,354.73c.21-.76.9-1.26.71-1.88-.87-2.93-.2-5.81.15-8.7.82-6.6,1.76-13.17,6.05-18.65.25-.31.34-.63,0-.94a.76.76,0,0,0-1-.13,5.23,5.23,0,0,0-1.5,1.2,26.14,26.14,0,0,0-4.49,8.34,52.81,52.81,0,0,0-2.75,13.72A8.25,8.25,0,0,0,135,354.73Zm191-81.09c.41-.68-.19-1.29,0-1.93.1-.3.25-.67.5-.52,1.16.68,2.85.19,3.65,1.43.56.87,1,.84,1.73.45a9.17,9.17,0,0,0,2.25-1.66c.71-.71.69-1.3-.12-2a16.08,16.08,0,0,1-3.56-4c-1.55-2.5-1.5-2.44-4.08-1-1.43.79-2.32,2.42-4.16,2.56-.44,0-.41.53-.44.88a5.62,5.62,0,0,0,.37,2.54C322.76,272.11,323.51,273.87,325.9,273.64Zm66.67-50.09a2.75,2.75,0,0,0,1.66-1.48,15.43,15.43,0,0,0,1.89-9.38c-.3-3.16-1.78-5.86-3.18-8.65-2.16-4.35-6.13-6.77-9.64-9.72l-.18-.12a.61.61,0,0,0-.93.16c-.28.39-.37.8.06,1.13a4.8,4.8,0,0,0,.93.54c3.85,1.86,6.24,5.21,8.68,8.51.22.3.4.81,0,.94-1.47.54-.65,1.51-.47,2.3a38.29,38.29,0,0,1,1.23,9.37C392.58,219.21,392.43,221.29,392.57,223.55Zm-333.3-3.26A10,10,0,0,1,66.06,214c.61-.2,1.2-.5,1.8-.73A1.49,1.49,0,0,0,69,211.66a11.49,11.49,0,0,1,.51-4c.33-1.46.06-1.81-1.36-1.48a12.13,12.13,0,0,0-8.34,6C58.39,214.66,58.49,217.46,59.27,220.29Zm327.2-.35a20.29,20.29,0,0,0-2.05-9c-.56-1.15-1.31-1.17-2.19-.22a3.44,3.44,0,0,0-.5.7c-.47.9-1,1.27-2,.64s-1.38-.14-1.18.88c.49,2.44,1.4,4.8,1,7.38-.08.51.3,1.09.49,1.63a1.14,1.14,0,0,0,.92.83,10.22,10.22,0,0,1,3.45,1.18.59.59,0,0,0,.09-.74c-.45-.84-1.63-1.45-1-2.63S385.32,220,386.47,219.94Zm-56.31,33.67a2.64,2.64,0,0,1-.44,2.4,1.16,1.16,0,0,0-.12,1c.74,3.52,2.07,6.74,4.82,9.19,1.64,1.47,2.41,1.23,2.73-1,.56-4-.22-7.58-3.46-10.36A4.39,4.39,0,0,0,330.16,253.61ZM362,236.23c.57-.48.39-1.09.38-1.64a16.09,16.09,0,0,0-.84-4c-.45-1.68-.92-2-2.63-1.83a10.24,10.24,0,0,1-8.46-2.4,1.4,1.4,0,0,0-1.76-.22,1.49,1.49,0,0,0-.92,1.55c0,.58,0,1.16,0,1.73,0,1.8,0,1.72,1.77,1.86,4.44.35,8.79,1,11.89,4.72C361.62,236.13,361.87,236.16,362,236.23Zm9.71-65.53a57.46,57.46,0,0,1,2.89,6.24,42.63,42.63,0,0,0,2.56,5.92,14.6,14.6,0,0,1,1.56,6.63c0,1.21,0,2.46-.95,3.44-.4.4-.47,1,.14,1.25s1.16.31,1.43-.43a8.72,8.72,0,0,0,.43-1.67c.31-2.21.65-4.42.84-6.65a12.11,12.11,0,0,0-1.59-7.47,29.08,29.08,0,0,0-4.62-5.68A5.3,5.3,0,0,0,371.75,170.7Zm-270-9.08c-1.07,4.69-3.6,8.35-6.38,11.87-2.24,2.83-4.63,5.53-7.1,8.17-2.31,2.47-4.69,4.89-7,7.39-1.24,1.36-1.18,1.52,0,3.42a27.09,27.09,0,0,1,2.35-3.38c4-4.51,8-9,12-13.54a29.29,29.29,0,0,0,6.79-12.11A1.38,1.38,0,0,0,101.72,161.62ZM82.81,213.43a22.25,22.25,0,0,1,1.56-4.13c.61-1.59,1.55-3.05,1.72-4.79a22.69,22.69,0,0,1,1.58-6c.73-1.87,1.34-3.8,2-5.7.15-.42.31-.87-.19-1.13a1,1,0,0,0-1.22,0A5.27,5.27,0,0,0,87,193.12a26,26,0,0,0-1.84,4.14c-.85,3.05-1.87,6.06-2.55,9.15A14.19,14.19,0,0,0,82.81,213.43Zm250.65,62.85a5.41,5.41,0,0,0,3.44.81c3.19-.23,6.42-3.57,7.39-6.3a1.07,1.07,0,0,0-.21-1.19,24.44,24.44,0,0,1-3.62-4.58,4.74,4.74,0,0,0-1.29,2.68c-.34,1-.49,2,.69,2.8,1,.69.65,1.59-.48,2.13a1.39,1.39,0,0,1-1.42-.11c-.56-.35-1-.1-1.26.39C335.92,274.24,334.54,275,333.46,276.28Zm31.47-39.34c1.61-1.82,3-3.61,3.37-6a4.11,4.11,0,0,0-.05-1.91c-.08-.28-.22-.62-.53-.59a1.28,1.28,0,0,0-.69.45,1.17,1.17,0,0,0-.22.59c-.05.39-.16.71-.61.74a1,1,0,0,1-1-.67,8.63,8.63,0,0,1-.38-2.77c-.13-1.84-.12-1.88-2-2.06-1-.09-1.44-.46-.84-1.33s.15-1.21-.46-1.52c-2.1-1.09-4.44-1.1-6.71-1.42-.14,0-.35,0-.41.08-.84,1.2-2.28,1.14-3.69,1.56.91.56,1.51.11,2.13,0a8.64,8.64,0,0,1,7.06,1.91q1.38,1.22,2.7,2.49a1.6,1.6,0,0,1,.39.74c.72,2.77,1.82,5.47,1.47,8.43A1.41,1.41,0,0,0,364.93,236.94ZM124.5,86.71c-.86,1-2.4,1.56-1.93,3.28a1,1,0,0,1-.32.75c-2.75,2.85-4.4,6.39-6.26,9.81-3,5.53-5,11.46-7.15,17.37-.24.68-.55,1.77.47,2s1-.83,1.13-1.49c.72-3.8,2.58-7.27,3.14-11.11a2.29,2.29,0,0,1,1.12-1.52,4.91,4.91,0,0,0,2.22-2.83,11.81,11.81,0,0,1,1.94-4.06C121.47,95.21,122.63,90.8,124.5,86.71Zm209.7,67c1-2.11,1-4.23,1.26-6.29a57.13,57.13,0,0,0-.49-17.46,3.67,3.67,0,0,0-1.25-2.57,32.78,32.78,0,0,0,.48,4.55c.3,4.23.95,8.5-1.12,12.52a.73.73,0,0,0,.14.94c1.52,1.89,1.54,2-.15,3.63-1,.95-.88,2.09-.81,3.22S333.55,153,334.2,153.67Zm47.09,71.13c-.08.33-.21.55-.16.72,1.12,3.62.4,7.12-.71,10.57a5.68,5.68,0,0,1-4.47,4.2,3.85,3.85,0,0,0-2.59,2.11,1.22,1.22,0,0,0-.1,1.42c.44.56.92.08,1.34-.11a7.32,7.32,0,0,0,1.27-.8,24.62,24.62,0,0,0,7.62-9.47,7.64,7.64,0,0,0,.15-6.26A3.78,3.78,0,0,0,381.29,224.8ZM86.67,180.41a3.78,3.78,0,0,0-.16-.48c-.68-1.48-3.35-1.85-4.32-.56a31.61,31.61,0,0,0-4,7.85c-.22.59-.13.95.47,1.21s1,.33,1.52-.24c1.87-2.2,3.78-4.37,5.65-6.56A10.49,10.49,0,0,0,86.67,180.41Zm235.62,82.8c2.31-.46,3.36-2.23,5.16-2.64.1,0,.18-.22.21-.34.22-.83-.76-3.58-1.5-3.81-1.74-.55-2.31-2-3-3.45a30.08,30.08,0,0,1-1.25-4.4c-.95,2.92-.9,4.21.29,6.17a4.33,4.33,0,0,1,.37,3.33,3,3,0,0,0,0,2.09A2.86,2.86,0,0,1,322.29,263.21Zm-246-87.11a22.09,22.09,0,0,1,3.87-.3c1.83.15,2.7-1.15,3.79-2.13.26-.24.33-.73-.15-.86-.78-.22-.66-.82-.73-1.38a1.56,1.56,0,0,0-.23-.79c-1.08-1.26-4.39-.61-4.69,1-.19,1-.55,1.38-1.45,1.51a2.11,2.11,0,0,0-.79.33,2.87,2.87,0,0,0-.76,2.34C75.39,176.3,75.84,176.2,76.26,176.1ZM339.1,204.57c.06,3.41,1.6,5.76,2.53,8.29a5.93,5.93,0,0,0,1.56,1.78c.18.18.59.4.74.32a7.44,7.44,0,0,0,2.27-1.51c.37-.44-.16-1.21-.51-1.76C344,209.06,341.63,207.1,339.1,204.57ZM97.68,178c1.8-1.67,3.29-3.59,5.41-4.85.11-.06.17-.23.24-.35,1.62-2.81,2.08-6.09,3.71-8.89a1,1,0,0,0,.06-.42c.22-2.81.46-5.61.66-8.42,0-.52.22-1.11-.22-1.62a1.12,1.12,0,0,0-.68.9c-.51,2.46-1.28,4.87-1.1,7.45a11.72,11.72,0,0,1-.6,4.27c-.85,2.82-2.68,5.07-4.35,7.42C99.75,175,98.72,176.52,97.68,178Zm262.61,75.41c-.08-.84-.09-1.43-.2-2-.37-1.95-1.53-2.51-3.27-1.59a14.93,14.93,0,0,0-2.59,1.89,1.24,1.24,0,0,0-.36,1.84c1,1.87,2.84,1.76,4.52,1.78S360.36,254.77,360.29,253.44Zm-3.49-86.57c.47,2.1,7,9.1,9.51,10.17a83.07,83.07,0,0,0-5.06-8.54C359.73,166.11,359.74,166.11,356.8,166.87ZM82.87,218.24A21.79,21.79,0,0,1,79.59,209c-1.53.37-2.1,1.54-3,2.36a1.13,1.13,0,0,0-.16,1.22c.41,1.22.82,2.44,1.31,3.63a1.65,1.65,0,0,0,1.47,1.11A11.54,11.54,0,0,1,82.87,218.24Zm-9-27.36c.45-1,.85-1.75,1.15-2.54.52-1.4.73-2.76-.58-3.93a4.17,4.17,0,0,1-1.1-2.07,2.71,2.71,0,0,0-.89-1.57A3.08,3.08,0,0,0,70.73,183C70.29,186.15,71.57,188.63,73.9,190.88Zm285,47.6c0-.16.06-.35,0-.42a6.44,6.44,0,0,0-.91-.9,15.1,15.1,0,0,0-9-3c-.75,0-1.78-.34-2.05.63-.22.81.57,1.4,1.18,1.9a3,3,0,0,0,1.59.59c2.76.36,5.57.39,8.25,1.31A.88.88,0,0,0,358.86,238.48ZM124.3,354.75c-.35-1.91-.54-3.47-.93-5a14.84,14.84,0,0,1-.09-7c.41-1.94.06-2.69-1.73-3.64-1-.5-1.32-.29-1.27.81A46.85,46.85,0,0,0,122.52,352,5.3,5.3,0,0,0,124.3,354.75ZM327.66,177a27.1,27.1,0,0,0,2.06,12.44c.61-.66,2.23-.39,1.63-2C330.1,184.13,329.29,180.67,327.66,177Zm.64,16A68.41,68.41,0,0,1,324,177.7C323.26,183.37,323.62,188.74,328.3,193ZM79.79,178.11a4.52,4.52,0,0,0-4.64,1.23c-1,1.09.09,2.58.48,3.86a1.18,1.18,0,0,0,.1.19c.44.71.89.75,1.22,0A50.33,50.33,0,0,1,79.79,178.11Zm277.36-24.75c0-.69-.12-1.37-.13-2.05,0-1.36-.28-2.8.49-4,.92-1.45.6-2.93.41-4.43C356.12,146.23,354.49,149.61,357.15,153.36ZM77.67,191.54a2.61,2.61,0,0,0-1.49,3,12,12,0,0,1,.45,2.32c0,.71-.12,1.67.85,1.67s1-1,1.14-1.79a1.74,1.74,0,0,0,0-.64A14.63,14.63,0,0,0,77.67,191.54ZM370.5,234a18.14,18.14,0,0,1-5.21,6.2,3,3,0,0,0-.53.68.57.57,0,0,0,0,.78.7.7,0,0,0,1,.11,2.15,2.15,0,0,0,.5-.4A14.85,14.85,0,0,0,370.5,234ZM341,225.89a5.35,5.35,0,0,0-4.89,6A68,68,0,0,1,341,225.89ZM305.71,79.65A5,5,0,0,0,307.83,83a22.48,22.48,0,0,0,4.06,1.78C310,82.94,308.42,80.62,305.71,79.65Zm11.65-4a3.48,3.48,0,0,0,2.14,1.69A5.15,5.15,0,0,1,322,79l3,3.36c.25.29.48.54.85.16C323.44,78.66,320.18,75.94,317.36,75.67ZM301.3,286c2-3.09,3.7-8.94,3.28-11.9-.72,1.61-.58,3-1,4.25s-.65,2.5-1.13,3.69A12.61,12.61,0,0,0,301.3,286ZM92.09,184.1c-1.71.63-2.44,2.2-3.68,3.25-.3.25-.75.69-.53,1.08s.9.23,1.37.22.84-.49,1.07-.94C90.92,186.51,91.5,185.3,92.09,184.1Zm284,8c0-.43,0-.65,0-.86-.05-.53.17-1.24-.64-1.34-.59-.08-1.41.89-1.4,1.56a2.93,2.93,0,0,0,.1.84c.24.68-.06,1.84,1,1.83s.74-1.13.88-1.82C376.06,192.19,376.07,192,376.06,192.12ZM107.87,143.86c-.33,1.44-1.67,2.8-.2,4.34.41.43.2,1.24,0,1.89a2.53,2.53,0,0,0,0,1.94A14.87,14.87,0,0,0,107.87,143.86ZM326.16,253.41c1.09-2.3.72-3.61-1.36-4.92A8.23,8.23,0,0,0,326.16,253.41Zm32.69-26.79c-1.72-1.86-3.28-2.35-5-1.69A6.83,6.83,0,0,0,358.85,226.62ZM149.34,297.4l-6.05,3,.24.46C145.77,300.28,147.87,299.47,149.34,297.4Zm-31.67,44.69c.18-1.31-.08-2.59.12-3.87a1.15,1.15,0,0,0-.38-1c-.26-.26-.55-.51-.94-.33a.7.7,0,0,0-.3.75A11.11,11.11,0,0,0,117.67,342.09Zm248.49-93.66c-.1-1.2-.58-1.83-1.16-1.84a12.8,12.8,0,0,1-4.47-1.34c-.33-.13-.93-.25-1,.4,0,.4.36.58.72.63A11.46,11.46,0,0,1,366.16,248.43ZM72.51,214.5A3.59,3.59,0,0,0,73.58,217a.56.56,0,0,0,.76.15.64.64,0,0,0,.26-.74c-.19-.68-.39-1.36-.57-2-.11-.43-.25-.86-.81-.75A.81.81,0,0,0,72.51,214.5Zm290.23,35.76c.05.76.06,1.39.16,2,.07.4.17.89.69,1s.92-.31,1.23-.7.11-.82-.18-1.15A3,3,0,0,0,362.74,250.26ZM73.92,204.77c1.24-.19,1.4-1.29,2-1.93a.57.57,0,0,0,0-.78.69.69,0,0,0-1,0A3.16,3.16,0,0,0,73.92,204.77Zm294.6-35.27c-.75-.93-1.07-2-2.12-2.44a.68.68,0,0,0-.8.09c-.25.26-.09.55.12.74C366.47,168.55,366.91,169.73,368.52,169.5ZM69.77,204.37c1.18-1,2-1.65,1.42-3C69.88,201.83,69.88,202.89,69.77,204.37ZM354,249.61a3.71,3.71,0,0,1,1.47-1.69c.38-.29,1.39-.28.92-1s-1,.07-1.47.32A1.86,1.86,0,0,0,354,249.61Zm-21.8-93.72c-.32,1.49-.64,2.49-.14,3.64C333.3,158.46,333.07,157.4,332.19,155.89ZM126,80.55c2.25-.22,2.25-.22,2.86-2C127.87,79.19,126.82,79.37,126,80.55ZM71.91,208.29a22.7,22.7,0,0,0-.5,2.33c-.06.52.31.77.83.7s.8-.39.61-.9S72.34,209.25,71.91,208.29Zm4.5.36a1.43,1.43,0,0,0,1.16-1.07c.12-.37-.22-.67-.54-.82s-.61.11-.67.49S75.94,208.18,76.41,208.65Zm56.57,94c-1.23-.17-1.23-.17-2.18.54C131.58,303.14,132.39,303.44,133,302.66ZM365.83,165c-.21-.92-.5-1.38-1.29-1.55C364.59,164.34,364.82,164.85,365.83,165ZM136.36,301.75a.9.9,0,0,0,1.14.15.43.43,0,0,0,.26-.52c-.08-.25-.33-.25-.54-.21A1.08,1.08,0,0,0,136.36,301.75ZM82.68,195.12c-.62.25-.78.77-.68,1.57Zm199.26-133a.78.78,0,0,0,.79-.58c.06-.24-.22-.31-.43-.3-.36,0-.76,0-.81.51C281.47,62,281.7,62.06,281.94,62.09ZM151.3,291.89c-.12-.29-.33-.25-.53-.21s-.42.17-.35.41.32.22.53.19A.37.37,0,0,0,151.3,291.89ZM374.59,184.05c0,.11-.14.23-.13.33s.12.39.36.24a.39.39,0,0,0,.05-.34C374.83,184.18,374.69,184.12,374.59,184.05ZM117.94,83.74c0-.16-.13-.27-.25-.18a2.13,2.13,0,0,0-.53.55c-.08.13.07.24.23.16S117.87,84,117.94,83.74Z" transform="translate(-28.2 -32.42)"/><path class="cls-1" d="M293.81,281.73c1-.12,1.26-1,1.26-1.72,0-1.64.45-3.28.06-4.93a15,15,0,0,1-.19-1.5c-.12-.85-.09-1.68,1-1.84s1.3.74,1.49,1.51a10.72,10.72,0,0,1,.46,3,28.3,28.3,0,0,1-2.15,9.88c-1.23,3-2.71,5.87-4.26,8.84.74.23,1-.17,1.26-.6,1.09-1.91,2-3.92,3-5.87a29.89,29.89,0,0,0,2.86-10.74,20.56,20.56,0,0,0-1.08-8.53,8.6,8.6,0,0,0-1.67-2.51c-.6-.79-1.34-1.66-.73-2.72.38-.65,2.08-.2,3.07.8a8.43,8.43,0,0,1,1.95,3.33,22.43,22.43,0,0,1,.06,14c-.77,2.57-2,4.91-3,7.36a7.62,7.62,0,0,1-1.53,2.35,8.45,8.45,0,0,0-1.7,2.68,15.88,15.88,0,0,1-2.66,3.87c-.18.23-.37.53-.68.48-1.42-.24-1.79.84-2.36,1.75-1.29,2.08-2.6,4.14-4,6.18-.61.92-1.24,2-2.81,1,.34,1.22,1.25,2.47-.85,2.34-.21,0-.53.47-.68.78-1,1.94-2.42,3.59-3.56,5.43-.77,1.24-.9,1.24-1.85,0-.51-.65-.88-.63-1.31,0l-2.47,3.8c-.24.37-.41.77-.67,1.11s-.62.77-1.06.42-.19-.78,0-1.17c1.19-2,2.3-4,3.57-5.89,1.4-2.13,2-4.6,3.13-6.84a29.47,29.47,0,0,0,2.48-8.45.77.77,0,0,0-.23-.88,8.84,8.84,0,0,0-3.46,5c-1.09,5.31-3.7,10-5.94,14.82a41.29,41.29,0,0,1-3.28,6.06,4.25,4.25,0,0,1-1.76,1.73c-.93-.22,0-1.12-.6-1.42-.11.07-.29.13-.31.23-.74,2.85-2.69,5.05-4.18,7.49-1.09,1.77-2.4,3.4-3.34,5.29-.39.78-.72,1.75-2,2a2.86,2.86,0,0,1,.65-2.17c.23-.36.62-.67.73-1.06,1.15-4,4-7.14,5.38-11,.8-2.13,1.62-4.25,2.26-6.46a5.73,5.73,0,0,0-3.25,3.34,49.73,49.73,0,0,1-6.88,12.4c-1.47,1.95-2.72,4.06-4.15,6a23.91,23.91,0,0,0-2.7,3.61,1.55,1.55,0,0,1-1.16.9c-1.29.12-1.85,1.05-2.33,2a8.11,8.11,0,0,1-1.1,1.6.69.69,0,0,1-.94.23c-.4-.28-.17-.64,0-.95,1.27-2.26,2.53-4.52,3.81-6.77a4.77,4.77,0,0,0,.93-2.69c-2.16,2.55-4,4.88-6,7.1a24.55,24.55,0,0,1-4.11,4,4.22,4.22,0,0,0-1.28,1.71c-.31.6-.61,1.17-1.43,1.06s-.32-1-.81-1.37a2.87,2.87,0,0,0-2,2.24c-.11.57-.26,1.32-1,1-.55-.24-.26-.91,0-1.36,1-2,1.93-4,3-6a24.6,24.6,0,0,0,1-2.54,4.65,4.65,0,0,0-2.53,2.77c-1.86,4-4.61,7.44-6.84,11.2a2.22,2.22,0,0,1-.25.35c-.24.31-.55.51-.92.27a.65.65,0,0,1-.14-1c.62-1,1.35-2,1.93-3.1s1.16-2.4,1.87-3.89a3.52,3.52,0,0,0-2,1.63c-.68,1-1.35,2-2.08,3a12.85,12.85,0,0,1-3.58,3.66,6.33,6.33,0,0,0-2,2.51c-.24.46-.74.85-1.25.5s-.24-.8.1-1.28a78,78,0,0,0,7.7-13.39,38,38,0,0,0,2.89-8.32,2.45,2.45,0,0,0,0-1.69c-.32-.57-.46-1.11.17-1.51a1.55,1.55,0,0,1,2,.18,2.27,2.27,0,0,1,.87,1.68,2,2,0,0,0,.4,1.43c1-1.14,1.75-2.28,1.43-3.78-.18-.88,0-1.39.82-1.64a1.7,1.7,0,0,0,1.18-1.16c.36-1,.64-2.12,2-2.3.13,0,.22-.33.33-.5.8-1.28,1.59-1.43,2.61-.37a15.1,15.1,0,0,1,1.31,1.85,12.11,12.11,0,0,0,2.09-3.33c.58-1.12,0-2.11-.48-3.08-.24-.49-.85-.93-.33-1.53s1.07-.37,1.63-.26a7.75,7.75,0,0,1,1.3.53,6.93,6.93,0,0,0,1-3,4.75,4.75,0,0,1,.2-1.27,1.35,1.35,0,0,1,1.56-.88,1.42,1.42,0,0,1,1.3,1.26,15.18,15.18,0,0,1-.31,3.85c1.19-1.05,1.29-2.52,1.52-3.92.13-.73-.29-1.73.86-1.91s1.46.63,1.86,1.47c.6,1.26,1.81,2.18,1.87,4,1.68-2.49,2.42-4.58.65-6.89-.52-.68,0-1,.7-1.13.92-.18,1.62.47,2.54.67a28.75,28.75,0,0,0-.09-3.74,4.11,4.11,0,0,0-.62-1.82c-.43-.52-.93-1.05-.25-1.66a1.47,1.47,0,0,1,2.14,0c.63.59,1.48,1.12,1.67,2,.45,2.05,2.15,3.63,2,6.13a4.53,4.53,0,0,0,2.37-3.53,4.47,4.47,0,0,0-2.22-4,3.54,3.54,0,0,0-.8-.33c-.6-.24-1.36-.38-1.19-1.26s.85-1,1.48-1.09c1.62-.32,2.71.7,3.84,1.6.51.41.61,1.17,1.46,1.48.9-.88.58-1.88.18-2.86-.32-.78-1.05-1.58-.13-2.33s1.74-.12,2.5.48c.09.08.27.05.55.08a10.57,10.57,0,0,0,.36-5.89c-.3-1.67,0-2.8,1.54-3.58a2.66,2.66,0,0,0,.92-.88c1-1.35,1.76-1.31,2.83,0,.55.65.41,1.52.84,2.19a6.32,6.32,0,0,0,1-7.25c-.47-.87-.92-1.41-2-1.3a.58.58,0,0,1-.69-.63c0-.91,1.56-2.44,2.46-2.3a3.75,3.75,0,0,1,3.14,2c1.67,3.64,2.8,7.41,2.16,11.49-.18,1.16-1,2.2-.77,3.47.66-.06.71-.57.84-.94a41.9,41.9,0,0,0,2.74-10.18,14.19,14.19,0,0,0-.81-7,8.35,8.35,0,0,1-.29-1,1,1,0,0,1,.36-1.15.94.94,0,0,1,1.19.18,6.4,6.4,0,0,1,2.25,3.19,7.78,7.78,0,0,0,.55-3c0-.43.19-.9.71-1a1.11,1.11,0,0,1,1.06.64,2.53,2.53,0,0,1,.43,1.2c-.06,2.22.43,4.48-.43,6.65a8.8,8.8,0,0,0-.44,1.89,7,7,0,0,1-1.22,3.64,1,1,0,0,0,0,1.34,2.44,2.44,0,0,0,1.14-1.84,2.61,2.61,0,0,1,.28-1.26c1.76-2.76,1.8-6,2.24-9.05a23.81,23.81,0,0,0-1-12.37c-.26-.65-.66-1.4.21-1.92s1.6.05,2.2.73c1.09,1.21,1.15,2.77,1.4,4.24a32.53,32.53,0,0,1,.29,5.84c0,.83-.53,1.66.08,2.54A3.92,3.92,0,0,0,293.81,281.73Zm-45.13,43.63c-3.12,5.76-6.84,11.1-10,16.95a1.36,1.36,0,0,0,1.15-.66c2.53-3.45,5.29-6.72,7.43-10.47A11.24,11.24,0,0,0,248.68,325.36Zm-16,13.67c1.67-1.42,1.78-3.18,1.44-5.38C232.85,335.42,231.94,337,232.67,339Zm4.05.81c-1.83,2.08-2.44,4.78-3.78,7.1A15.91,15.91,0,0,0,236.72,339.84Zm45.75-33.11c1-.91,1.8-1.55,1.47-2.93A5,5,0,0,0,282.47,306.73Zm-37.86,20.39c-.14-.29-.3-.36-.38-.22a5.69,5.69,0,0,0-1,2.21C244,328.58,244.23,327.75,244.61,327.12Zm35.21-22.25c.07-.21,0-.34-.15-.35s-.35.2-.42.38-.12.45.19.39S279.72,305,279.82,304.87Z" transform="translate(-28.2 -32.42)"/><path class="cls-1" d="M207.22,305.5c-4.95.12-9-.06-12.91-1.17a2.38,2.38,0,0,0-1.29-.08c-3.18,1-6.28.34-9.37-.42a71,71,0,0,1-16.19-5.94c-2.27-1.19-2.8-3.4-3.48-5.48-.39-1.19,1.15-3.37,2.64-3.55,3.1-.36,6.1-1.2,9.39-.62s5.88,2.14,8.62,3.59a43.24,43.24,0,0,0,15.85,4.58,59.82,59.82,0,0,0,9.06.72,31.54,31.54,0,0,0,10.72-2.27,42,42,0,0,1,4.29-1.06,10.12,10.12,0,0,0,4.25-2.69,1.58,1.58,0,0,0,.44-1.39c-.08-.93-.16-1.86-.23-2.79a1.51,1.51,0,0,1,1.26-1.75,1.81,1.81,0,0,1,2.21.9,5.12,5.12,0,0,1,.53,2.08c.27,4-.71,7.42-4.23,9.79a10.84,10.84,0,0,0-3.23,3.1c-.86,1.34-2.48,1.66-3.91,2.16A40.15,40.15,0,0,1,207.22,305.5Zm-21.12-5.42c-5-1.45-9.89-3.15-14.76-4.93C175.53,299,180.89,299.32,186.1,300.08Zm-5.35-6.56a18.45,18.45,0,0,0-7.36-2.36,1.21,1.21,0,0,0-1.36,1.19C175,292.6,177.94,292.53,180.75,293.52Zm7,4.31a17.77,17.77,0,0,0-6.27-1.73C183.4,297.24,185.55,297.49,187.77,297.83Zm8.92,1.39c-1-.36-1.51-.68-2.23-.44C195,299.49,195.6,299.3,196.69,299.22Z" transform="translate(-28.2 -32.42)"/><path class="cls-1" d="M218.75,170.63a18.06,18.06,0,0,1-2.2-.75,1.52,1.52,0,0,1-1-1.73,1.77,1.77,0,0,1,1.38-1.5,5.77,5.77,0,0,1,1.5-.09c5.41.1,10.82.22,16.2.85,3.72.44,7.47-.13,11.21.51,1.48.25,2.93.67,4.41.94a134.52,134.52,0,0,1,14.27,3.4,6.64,6.64,0,0,1,3.67,3.14,1.05,1.05,0,0,1,.07,1.22,1.35,1.35,0,0,1-1.31.6,2.27,2.27,0,0,1-1.36-.61,9.6,9.6,0,0,0-4.91-2.09c-.85-.19-1.69-.39-2.53-.6a33,33,0,0,0-6.33-1.31,19.77,19.77,0,0,1-5.29-1,6.76,6.76,0,0,0-1.49-.28c-2-.18-2.63.4-2.08,2.31s1,4.05,3.39,4.87c1,.37,2,.8,3.1.38,1.54-.59,3.1-1.13,4.59-1.84,1.28-.61,2-.7,2.68.05.49.56.23,2-.5,2.76a8.3,8.3,0,0,1-5.7,2.74c-1.85.1-3.57,1.14-5.5.59-1.65-.47-3.37-.66-4.75-1.86a7.13,7.13,0,0,0-1.93-1c-.83-.34-1.9-.09-2.49-1.06-1.31-2.12-3.39-3.82-3.46-6.58,0-.36,0-.72,0-1.08,0-.71-.37-1.09-1.08-1-3.37.19-6.72-.6-10.15-.27,1.31,2.15,2.14,4.51,4,6.15,2.69,2.36,4.77,5.38,8,7.17a3.47,3.47,0,0,0,.54.34c3.81,1.16,7.7,2,11.69,1.49,1.77-.23,3.56-.31,5.34-.65a51.64,51.64,0,0,0,9.84-3.11,1.14,1.14,0,0,1,1.49.39c.5.57.27,1-.19,1.48a16.94,16.94,0,0,1-11.68,5.33,14.43,14.43,0,0,0-2.37.25c-5.34,1.2-10.43.08-15.51-1.5a15.57,15.57,0,0,1-7.2-5.2c-1.4-1.64-3.18-2.91-4.39-4.76-.75-1.15-1.38-2.36-2-3.56A3.21,3.21,0,0,1,218.75,170.63Z" transform="translate(-28.2 -32.42)"/><path class="cls-1" d="M168.32,169.41a12.86,12.86,0,0,0-.69,5.07,56.5,56.5,0,0,1-1.47,11.12,78.91,78.91,0,0,0-1.88,9.76,16.94,16.94,0,0,1-.81,2.91c-1,4-1.7,8-2.94,12s-2.43,7.83-3.8,11.7a106.78,106.78,0,0,0-4.35,14.69,44.61,44.61,0,0,1-1.42,5c-.94,2.86-1.41,5.88-2.32,8.75-1.38,4.33-1.2,8.83-1.72,13.25a5.27,5.27,0,0,0,1,3.45,21.85,21.85,0,0,0,8,7.68,17.24,17.24,0,0,1,2.1,1.52,2.38,2.38,0,0,0,1.11.61c3.83.7,7.28,2.62,11.08,3.45.48.1,1.13.15,1,.85s-.7.68-1.34.64a58.18,58.18,0,0,1-6.47-.53,4.31,4.31,0,0,0-1.51-.08,5,5,0,0,1-5.34-2,4.83,4.83,0,0,0-2.06-1.15,23.53,23.53,0,0,1-9.84-7.53,6.66,6.66,0,0,1-1.61-4.81c.23-2.14.06-4.34.71-6.43.31-1-.26-1.91-.05-3,.61-2.95,1.39-5.84,2.2-8.73,1.5-5.34,2.86-10.71,4.5-16,1.16-3.77,2.32-7.54,3.65-11.26a133,133,0,0,0,5.12-16.69c1.39-6.41,2.69-12.84,4.33-19.2a30.83,30.83,0,0,0,1-5.08,39.13,39.13,0,0,1,1.72-6.88A5.17,5.17,0,0,1,168.32,169.41Z" transform="translate(-28.2 -32.42)"/><path class="cls-1" d="M206.57,346.37c.28-.07.55-.15.83-.21,1.48-.31,1.92-.06,2.35,1.37.1.34.18.69.3,1.2,1.22-.82,1.54-2.15,2.33-3.1a14.84,14.84,0,0,1,1.55-1.8.79.79,0,0,1,.81-.16c.43.17.43.56.35.91a4.39,4.39,0,0,1-.41,1.22,37,37,0,0,1-2.46,4.29c-2.23,3-3.57,6.58-6.4,9.52,1,.19,1.35-.15,1.59-.53,2.65-4.28,5.54-8.42,7.76-13a28.21,28.21,0,0,0,1.15-2.79c.37-1,.67-2,2-2.33.89-.22,1.12-1.26,1.56-2a11.09,11.09,0,0,1,1.43-2.16c.3-.31.65-.59,1.13-.29s.67.72.43,1.1c-.91,1.48-.73,3.6-2.67,4.49a1.22,1.22,0,0,0-.61.85,33.27,33.27,0,0,1-3.82,8.83,113.89,113.89,0,0,1-7.29,11.43c-1,1.39-2.66,2.21-3.52,3.77a.62.62,0,0,1-1,.16.73.73,0,0,1-.11-1.14,8.17,8.17,0,0,0,1.86-3c-1.84,1.44-3.75,2.2-4.95,4a44.48,44.48,0,0,1-3.29,4,3.94,3.94,0,0,1-.44.47c-.38.3-.75.87-1.27.31-.35-.39-.09-.79.23-1.13a7.22,7.22,0,0,0,.83-1c.24-.35.54-.79,0-1.08s-.92-.88-1.5-.2-1.39,1.66-2.07,2.5-3.3,1.23-4.08.5.29-1.31.11-2.06c-.7-.1-1.24.52-1.92.67a1.82,1.82,0,0,1-1.83-.29.77.77,0,0,1,.27-1.36c.07,0,.14-.07.21-.06,3.19,0,4.68-2.3,6.38-4.43a50.37,50.37,0,0,0,7.17-12.27,7.42,7.42,0,0,0,.71-3.13c0-.8-.09-1.73.74-2.12,1-.47,1.56.41,2.2,1.22a6.37,6.37,0,0,0,1-2.37c.17-.69.14-1.53,1.2-1.48.85,0,1.38.7,1.4,1.83a4.69,4.69,0,0,1-.21.84,19.43,19.43,0,0,1-.61,2.3,82,82,0,0,1-7.72,15.17c-.64.95-1.26,1.92-2,3.08a4.81,4.81,0,0,0,3.63-2.25,23.44,23.44,0,0,0,2.53-4.23,67.7,67.7,0,0,0,4.42-10.77A3.91,3.91,0,0,0,206.57,346.37Z" transform="translate(-28.2 -32.42)"/><path class="cls-1" d="M173.26,374.7a17.5,17.5,0,0,1,3.62-4.33,11.46,11.46,0,0,0,3-3.66c.33-.62.83-1.35-.45-1.57a1.21,1.21,0,0,1-.66-.51c-.33-.52-.59-1.19.34-1.29,1.56-.16,2.05-1.44,2.71-2.48,1-1.58,1.88-3.24,2.79-4.88a32.92,32.92,0,0,0,2.07-5.41,65.83,65.83,0,0,0,2.93-11.28,16.58,16.58,0,0,0-2-11c.23,1.95.47,3.45.57,4.95.25,3.6-.74,7-1.73,10.39-.53,1.79-1.15,3.57-1.74,5.34-.11.35-.33.7-.75.67-.61-.06-.6-.58-.51-1q.66-3,1.38-5.89c.76-3.08,1.47-6.19,1.05-9.38s-.76-6.42-2.59-9.22a1.32,1.32,0,0,1,0-1.45c.34-.54.88-.22,1.36-.26,2.3-.2,3.25,1.2,4.08,3a54.87,54.87,0,0,1,2.95,7.15c1,3.46.23,6.87-.38,10.27a3.29,3.29,0,0,0,.19,2.44c.91,1.7.55,3.4-.16,5.16-1,2.44-2.14,4.83-3.38,7.6a5,5,0,0,0,2.29-2.11c.93-2.19,2.19-4.23,2.95-6.5a6.8,6.8,0,0,0,.54-3.17c-.09-.59-.2-1.21.62-1.34s1.49-.18,1.74.79a1.87,1.87,0,0,0,.72,1.25c.25,0,.35-.21.46-.4.52-.84,1.22-1.28,2.17-.76.77.43.87,1.75.22,2.72-.81,1.19-1.67,2.35-2.54,3.5a18.8,18.8,0,0,1-2.26,3c.66.65,1.29-.09,2,.57,0,0-.12.22-.27.33-1.7,1.34-3.06,3-4.73,4.42a24.22,24.22,0,0,0-4.45,5c-1.24,1.83-3.24,2.8-4.52,4.52a1,1,0,0,1-.34.26.7.7,0,0,1-1-.21c-.2-.29,0-.55.24-.73a4.45,4.45,0,0,0,2.06-2.61c-1.61.14-2.88.46-3.5,2a5.88,5.88,0,0,1-2.27,2.55,11.63,11.63,0,0,0-2.54,2.32A2.68,2.68,0,0,1,173.26,374.7Z" transform="translate(-28.2 -32.42)"/><path class="cls-1" d="M237.51,122.63a91.29,91.29,0,0,1,16.89,1.51c3.17.64,6.44,1,9.38,2.44,2.72,1.33,5.32,2.89,8.06,4.15,2.11,1,3.85,2.5,5.9,3.53a2,2,0,0,1,.93,1.16.76.76,0,0,1-.13.8.54.54,0,0,1-.77.12c-1.88-1.39-4.43-1.29-6.23-2.85a2.16,2.16,0,0,0-1.33-.67c-4.48-.1-8.49-2.07-12.7-3.21a53.76,53.76,0,0,0-7.94-2c-1.95-.22-4-.59-5.92,0a4.69,4.69,0,0,1-1.71,0,69.8,69.8,0,0,0-17,.64,17.32,17.32,0,0,0-3.75,1,25.55,25.55,0,0,1-7.3,1.81c-1,.1-1.88.07-2.38-1s0-1.61.7-2.27a7.79,7.79,0,0,1,4.53-2.38c3.43-.41,6.65-1.73,10.12-2A99.74,99.74,0,0,1,237.51,122.63Z" transform="translate(-28.2 -32.42)"/><path class="cls-1" d="M267.32,168.36a1.6,1.6,0,0,1-1.12,1.57c-.69.2-1.14-.12-1.58-.77-2.7-3.95-6-7-10.82-8.46a33.53,33.53,0,0,0-12.58-1.35c-3.32.25-6.6.68-9.88,1.19A35.67,35.67,0,0,0,221,164.29a16.18,16.18,0,0,1-2.52,1.19c-1,.33-1.79.55-2.35-.55a2.2,2.2,0,0,1,.94-2.8,17.39,17.39,0,0,1,4.69-2.16,3.94,3.94,0,0,0,1.41-.56c2.93-2,6.4-2.07,9.7-2.74a104,104,0,0,1,11.82-1.22,25.69,25.69,0,0,1,9.4,1.14,28.82,28.82,0,0,1,6.57,2.66c3.15,1.84,5.88,4.2,6.44,8.17C267.15,167.71,267.24,168,267.32,168.36Z" transform="translate(-28.2 -32.42)"/><path class="cls-1" d="M168.72,372.68a20.72,20.72,0,0,0,4.5-6,100.46,100.46,0,0,0,5.23-12.51c1.15-3,1.9-6.19,2.91-9.27.27-.82-.42-1.71.26-2.49.92.34.89,1.06.92,1.8a29.61,29.61,0,0,1-1.27,8.73,53.32,53.32,0,0,1-4.4,11.68,17.63,17.63,0,0,1-2.18,3.46c-1.48,1.66-2.41,3.74-4.17,5.18a2,2,0,0,1-1.73.69c-1.12-.23-1.62.3-1.83,1.28s-.82,1-1.5.72c-1-.35-.51-1.17-.23-1.6a21.74,21.74,0,0,0,2.45-5.5c-1.19-.46-1.69.27-2.11,1a2.52,2.52,0,0,1-2,1.43c-.35,0-.75,0-.89-.44a.56.56,0,0,1,.39-.67c1.77-.75,2.46-2.54,3.68-3.81,2.48-2.54,4-5.73,5.59-8.87,1.18-2.38,2.61-4.65,3.32-7.24.12-.41.32-.89.85-.82s.74.64.82,1.13a5.32,5.32,0,0,1-.55,2.93c-1.26,3-2.16,6.1-3.2,9.16-1.09,3.21-3.07,6-4.71,8.93A1,1,0,0,0,168.72,372.68Z" transform="translate(-28.2 -32.42)"/><path class="cls-1" d="M149.77,361.19c.94-2,.42-3.91.88-5.66.4-1.53.49-3.13.74-4.69.07-.48,0-1.11.76-1.1a1.13,1.13,0,0,1,1,.95,10.78,10.78,0,0,1,.18,3.88,58.11,58.11,0,0,1-2.63,12.23c-.4,1.19-.54,2.53-1.94,3.2-.61.29-.47,1.15-.56,1.78a1.42,1.42,0,0,1-1,1.33c-.68.2-.95-.31-1.35-.78a6.55,6.55,0,0,1-1.16-2.8c-.88-3.17-.82-6.63-2.38-9.54-.87-1.63-.73-3.23-.81-4.82-.15-2.92-.37-5.91.72-8.75a38.37,38.37,0,0,1,1.62-3.51.91.91,0,0,1,1.27-.49,1.06,1.06,0,0,1,.66,1.23,5.2,5.2,0,0,1-.26,1.05c-1.61,3.67-1.33,7.46-.83,11.29.46,3.56,1.24,7.08,1.07,10.71a5.91,5.91,0,0,0,.89,2.9c.17-1.26.43-2.52.48-3.79.13-3.07.7-6.14.23-9.23-.1-.67-.31-1.81.47-1.89,1-.1,1.15,1.09,1.28,1.92C149.42,358,149.56,359.46,149.77,361.19Z" transform="translate(-28.2 -32.42)"/><path class="cls-1" d="M136.72,175.73c-2.73-1.21-6.1-.47-8.86-2.56-1.49-1.12-3.59-1.44-5.43-2.07-2.94-1-5.13-3.12-7.44-5a2.37,2.37,0,0,1-.52-.69c-.33-.71-.81-1.49,0-2.15s1.33,0,1.77.59a2.85,2.85,0,0,0,1.25.81,4.5,4.5,0,0,1,1.32.7,21.21,21.21,0,0,0,11.73,5.23c1.51.23,2.67,1.28,4.23,1.47a13.83,13.83,0,0,0,5.55-.16,8.16,8.16,0,0,1,1.71-.21,17,17,0,0,0,8.54-2.68c1.54-1,3-1.2,3.08-.55a3.12,3.12,0,0,1-1.29,2.74c-.42.35-.52.85-.81,1.24a2.49,2.49,0,0,1-1.27,1.12C145.91,174.74,141.36,175,136.72,175.73Z" transform="translate(-28.2 -32.42)"/><path class="cls-1" d="M170.14,315.27c-4.91-.76-9.92.05-14.82-1a28.64,28.64,0,0,1-7.18-2.29,3.41,3.41,0,0,1-1.9-2.71c-.25-1.66.7-2.46,2.32-1.93A4.85,4.85,0,0,1,151,309a6.41,6.41,0,0,0,3.38,2.18c1.1.34,2.18.76,3.29,1.06a5.15,5.15,0,0,0,3.36.08,8.36,8.36,0,0,1,2.57-.21,45.47,45.47,0,0,0,12.93-2.3,7.72,7.72,0,0,0,4.22-2.73,1.52,1.52,0,0,1,2.08-.61c.92.57.76,1.43.34,2.29a4.82,4.82,0,0,1-1.6,2c-2.63,1.82-5.32,3.49-8.61,3.7C171.93,314.49,171.19,315.36,170.14,315.27Z" transform="translate(-28.2 -32.42)"/><path class="cls-1" d="M182.18,273.53a8.73,8.73,0,0,1,3.71.22c1.64.32,2.3,1.51,1.74,2.81-.25.56-.57,1-1.25,1-1.2,0-2.32.47-3.6.14-1.89-.47-3.74.29-5.43,1a3.64,3.64,0,0,1-3.42-.46c-1.25-.64-.92-2.52.58-3.27a13.23,13.23,0,0,1,6.24-1.49Z" transform="translate(-28.2 -32.42)"/><path class="cls-1" d="M193.29,273c.25,2-2.64,5.43-4.18,6.26a.74.74,0,0,1-.59-.09.62.62,0,0,1-.24-.76c.2-.54.4-1.08.62-1.6,1.26-2.91.67-4.75-2.32-7.34a4.63,4.63,0,0,1-1.25-1.89,1.57,1.57,0,0,1,.62-1.91,1.88,1.88,0,0,1,2-.46C189.83,265.93,193.27,270.89,193.29,273Z" transform="translate(-28.2 -32.42)"/><path class="cls-1" d="M170.57,352.51a14.59,14.59,0,0,1-1.21,2.65,51.53,51.53,0,0,0-3.79,6.74c-1.1,2.17-2.44,4.22-3.39,6.46a9.33,9.33,0,0,1-1,1.66.69.69,0,0,1-.94.25.77.77,0,0,1-.4-.91,2.07,2.07,0,0,1,.19-.84c2.69-3.71,3.83-8.2,6-12.16.73-1.32,1.52-2.61,2.29-3.9a1.56,1.56,0,0,1,1.18-.87C170.1,351.55,170.53,351.73,170.57,352.51Z" transform="translate(-28.2 -32.42)"/><path class="cls-1" d="M162.94,355.24a26.33,26.33,0,0,1-2.14,4.83,41.21,41.21,0,0,0-3,8.47,2.51,2.51,0,0,1-.24.82c-.25.38-.43,1.07-1,.84s-.22-.85-.19-1.32a32.4,32.4,0,0,1,1.45-7.28,45.25,45.25,0,0,1,3.08-6.85,1.41,1.41,0,0,1,.77-.71C162.54,353.65,163,354,162.94,355.24Z" transform="translate(-28.2 -32.42)"/><path class="cls-1" d="M157,360.43a38.88,38.88,0,0,0-1.39,4.85c-.49,3-2,5.64-3,8.49a1.23,1.23,0,0,1-.57.86.91.91,0,0,1-.83.06.56.56,0,0,1-.22-.73,122.48,122.48,0,0,1,4.69-14c.16-.37.35-.88.89-.72S156.87,359.93,157,360.43Z" transform="translate(-28.2 -32.42)"/><path class="cls-1" d="M363.92,212a8.38,8.38,0,0,1-.44,1.06c-1,1.62-1.29,1.66-2.62.27a6.73,6.73,0,0,0-2.16-1.41c-3.74-1.67-6.73-4.37-9.66-7.15a1.11,1.11,0,0,1-.3-1.54,1.16,1.16,0,0,1,1.74-.06c1.06.85,2.07,1.78,3.15,2.61.84.64,1.7,1.47,2.78.25.38-.43.95-.14,1.44-.05a17.55,17.55,0,0,1,9.83,5,5.83,5.83,0,0,1,1.94,4.83,10.25,10.25,0,0,0,.45,4.46c.37,1.06.08,1.73-.73,1.83-1,.13-1.14-.7-1.27-1.39a29.85,29.85,0,0,0-1.71-5.79A5.45,5.45,0,0,0,363.92,212Z" transform="translate(-28.2 -32.42)"/><path class="cls-1" d="M336.79,114.39c-.09.07-.19.2-.27.18a.36.36,0,0,1-.25-.23c0-.25.11-.37.34-.25S336.73,114.28,336.79,114.39Z" transform="translate(-28.2 -32.42)"/><g class="cls-2"><path class="cls-1" d="M158.48,124.33c4.58-3.7-5.55,3.91-.72.55,1.09-.76,2.15-1.55,3.25-2.3q3.62-2.47,7.4-4.7c2.29-1.34,4.63-2.62,7-3.81q2.13-1.08,4.31-2.08c1-.46,5.52-2.41,1-.47-4.7,2,.34-.06,1-.33,1.25-.46,2.5-.91,3.76-1.33q4.16-1.41,8.4-2.55a137.61,137.61,0,0,1,17.2-3.39l-7.57,1a134.12,134.12,0,0,1,33.38,0l-7.57-1c3.15.44,6.3,1,9.42,1.63a30.65,30.65,0,0,1,3.91,1l-4.53-1.83A22.56,22.56,0,0,1,228.43,92l-1-7.58V85.5c-.11,16.19,13.18,27.44,28.5,28.5,4.92.34,9.83.72,14.73,1.35l-7.58-1a104.46,104.46,0,0,1,14.31,3.29c2.4.92,2.3.86-.3-.2s-2.7-1.13-.68-.17c1.52.93,3.5,2.52,5.15,3.13q-5.59-4.5-2.26-1.64c.74.66,1.44,1.36,2.12,2.09,3.55,3.28-3.17-5.67-.86-1.09,3.35,6.62-.75-4.84.15-.1.37,2,.86,3.89,1.15,5.88l-1-7.57c1.41,11.58,2,22.63,8.43,32.78,4.11,6.5,9,10.34,15.11,14.81,5.77,4.22-3.71-3.8-.52-.48q3,3.06-2.06-2.94-2.61-7.65-1.63-3l-1-7.57a12.48,12.48,0,0,1-.18,3.11l1-7.58c-1.17,5.39-3.18,10.57-4.47,15.94a130.18,130.18,0,0,0-3.43,22.71c-.81,13.74,2.19,29.43,10,41,16.05,23.7,48.69,37,74.79,20.66l-39-10.22c-3.34-6.19-1.66-4.79-1.14-1.74l-1-7.58a21.1,21.1,0,0,1-.1,4l1-7.58A23.73,23.73,0,0,0,336,227c-.16-.16,3-6.65,1.13-3-1.74,3.29,1.5-1.91,1.91-2.45-2.56,3.4,4.4-2.48,1.62-1.19-.93.43-4.36,2.11-.08.32s.72-.38-.28-.09a49.16,49.16,0,0,1-7,1.41l7.58-1c-6.75.74-13.29,1.08-19.6,3.74-9.65,4.07-17.34,12.22-19.88,22.61-3.1,12.73-.34,25.74,6.09,37,3.54,6.17,8.56,11.34,12.23,17.43,1.07,1.78,1.77,4.1,3,5.75q-2.67-6.53-1.1-2.32l.51,1.53a77.4,77.4,0,0,1,2.77,12.67l-1-7.58c2.3,18.48.62,38-1.85,56.37l1-7.58a122.67,122.67,0,0,1-4.63,20.85c-.35,1.07-2.12,4.2-1.82,5-.45-1.24,2.76-6.1.32-1.05-1.58,3.27-3.33,6.47-4.9,9.76-3.73,7.77-6.9,15.57-8.27,24.09s-2,17.3-3.17,25.94l1-7.57a75,75,0,0,1-1.56,8.12c-.28,1-.64,2.09-.94,3.14-1.6,5.59,2.94-6,.26-.77l52.09,6.81c-8.23-24.61-29.55-38.22-51.82-49a314.71,314.71,0,0,0-64.87-23.05c-42.8-10-89-14.23-132.65-8-24.5,3.5-47.55,13.27-65.91,30.08L80.9,439.5a284.59,284.59,0,0,1,25.3-43.79c1.17-1.66,2.37-3.32,3.58-4.95.51-.71,1-1.41,1.56-2.11,1.83-2.39,1.4-1.85-1.26,1.62,2.89-2.53,5.21-6.51,7.74-9.46q4-4.65,8.14-9.11c1.56-1.67,3.22-3.24,4.75-4.93q3.33-3-2,1.4-6.81,2.28-2.57,1.15l-7.58,1,1.49-.08-7.58-1c1.33.2,3.34,1-.73-.68a20.63,20.63,0,0,1-6.06-3.69c-4.4-3.93-3.43-4.7-2-2.6.38.56.76,1.11,1.15,1.66,3.18,4.43,6.46,9,10.61,12.56a80.65,80.65,0,0,0,28.17,16c19.46,6.49,40.23,3.88,60,.82,29.59-4.56,60.64-12.61,85.29-30.34a168.69,168.69,0,0,0,22-18.89c1.23-1.26,2.47-2.51,3.75-3.72.72-.68,1.5-1.33,2.22-2,3-3-2,2-2.33,1.66s4.75-2.84,4.79-3c-.25.78-5.79,1.39-3.68,1.63a19.29,19.29,0,0,0,3.24-.69l-7.58,1a22.49,22.49,0,0,1,4,.1l-7.57-1a14.5,14.5,0,0,1,2.74.7l-4.26-1.67q-5.67-4.77-2.44-1.84c1.45,1.61,1.31,1.39-.39-.68-4.22-5.33,1.9,5.1-.84-1.23-2.14-4.94,0,1.34.19,2.52l-1-7.58a53.68,53.68,0,0,1-.14,12.54l1-7.58c-1.12,8.23-3.27,15.82-5.27,23.81q3-6.93,1.13-3-.63,1.22-1.38,2.37-2.46,3.56,2-2.54a24.46,24.46,0,0,1-1.91,1.9q6.09-4.42,2.42-2.06-4,2.06,2.44-.95c-1.17-.34-4.93,1.14-6.28,1.34l7.58-1c-7.41.82-14.94.84-22.38,1.14-7.26.3-14.91,1.32-22.15.62l7.57,1q-12.44-3.09,14.28,15.09a15.09,15.09,0,0,1-.54-2.64l1,7.57a35.26,35.26,0,0,1,.13-7.82l-1,7.58a41.63,41.63,0,0,1,1-4.56,11.89,11.89,0,0,1,1-3c.26-.31-2.81,5.92-1.33,3.14,1.8-3.38,3.52-6.72,5.58-10,4-6.22,8.32-12.19,12.1-18.54a197.91,197.91,0,0,0,19.81-45.36c10-34.27,8.23-70.05-6.92-102.44-7.23-15.44-17.89-29-28.5-42.23-9.51-11.83-19-24.15-30.49-34.16C236.7,104.69,219.08,95.79,198,93.64a62,62,0,0,0-30,4.63c-21.47,9.06-22.06,36.79-7.52,52.18,8.22,8.69,20.18,12.49,31.27,16a192.52,192.52,0,0,0,27.3,6.51c13.38,2.18,26.34,4.33,39.22-1.11A40.37,40.37,0,0,0,274,160.3c.32-.39,3.76-4.4,3.77-4.38.4.56-5.5,3.43-5.83,3.56-4.79,1.87-1.17.56.05.34l-7.58,1a19,19,0,0,1,3.62.07l-7.58-1c6.08,1.22-2.25-1.13-2.09-1.31a18,18,0,0,1,2.2,1.31q-5.69-4.68-3.29-2.38c2,2-4-6.67-1.35-1.67q1.47,2.76-1.46-3.42a23.72,23.72,0,0,1,.79,3.41l-1-7.57a38.56,38.56,0,0,1,0,8.79l1-7.58a84.13,84.13,0,0,1-4.89,17.45c-.44,1.15-.9,2.29-1.35,3.44-2.29,5.86,2.09-4.6.36-.84-1.43,3.08-2.81,6.18-4.28,9.24-5.1,10.57-10.46,21.06-16.07,31.37-2.42,4.45-4.93,8.86-7.6,13.16-1.48,2.38-3,4.74-4.58,7.05-.63.92-1.27,1.84-1.93,2.75s-1.31,1.8-2,2.7c2.6-3.33,3.24-4.15,1.89-2.47A132.34,132.34,0,0,1,204.12,245a43.82,43.82,0,0,1-6.2,5.37c.33-.2,5.72-4.14,1.87-1.47-1.34.93-2.66,1.89-4,2.8a133.87,133.87,0,0,1-14.16,8.2q-3.31,1.66-6.69,3.17c-1.88.84-5.88,2,1.49-.6-1.55.55-3.07,1.23-4.62,1.82-10.24,3.89-20.75,6.8-31.31,9.67-12.06,3.27-24.35,8.27-33.34,17.24A46.08,46.08,0,0,0,95.23,311.6c-2.76,10.24-.6,21.33,7.07,29a63.74,63.74,0,0,0,10.18,8.08c22.35,14.62,51.52,11.39,76,5a202.64,202.64,0,0,0,65.78-30.51c23.58-16.87,42.85-38.56,45.85-68.52,1.35-13.53-1.86-27.41-6.12-40.2a304.73,304.73,0,0,0-15.53-38.82c-15.88-32.13-58.2-28.14-88.36-26-27.81,2-55.71,5.8-83.56,2.18l7.58,1c-12.94-1.85-24.71-5-37.09,1.54-9.24,4.87-15.39,13.61-18.3,23.51a56.23,56.23,0,0,0-1.31,7.29c-.19,1.25-.38,2.5-.67,3.74-1,4.22-1.66.71,1.23-2.16-1.6,1.58-2.86,4.27-4.26,6.12a39.34,39.34,0,0,0-6.31,12.29,36.65,36.65,0,0,0,8.13,36c5.9,6.23,13.71,9.94,21.93,12.08,2.23.58,4.48,1.2,6.73,1.71,4.67,1.05-6.15-3.68-2.21-1,4.22,2.85-5.14-4.88-1.67-1.24-5.11-5.35-3-3.89-1.39-1.53,2.63,3.85-2-6.73-.72-1.84a76.33,76.33,0,0,1,1.8,8.2l-1-7.58c1.36,12.08-.12,24.26,3.27,36.16,2.84,10,8.72,21,18,26.3,10.81,6.18,25,6.05,35.4-1,12-8.06,21.79-20.72,24.15-35.28,1.41-8.7,1.72-16.69-.62-25.33-1.46-5.38-4.42-10.12-5.33-15.67l1,7.57a24.31,24.31,0,0,1,0-4.18l-1,7.57c.22-1.37.71-2.65,1-4q-3,6.62-1.43,3.66a18.33,18.33,0,0,1,1.09-1.8c.32.45-5.18,5.88-1.27,1.91,4.2-4.25-3.67,2.17-1.3.73,1-.62,2.11-1.24,3.11-1.91q3-1.46-.79.21-4,1.6-.36.28c3.57-.87,7-1.78,10.63-2.3l-7.57,1c15.73-1.91,31.55-2.08,46.91-6.49a139.9,139.9,0,0,0,41.31-19.45l-34.54-4.45c3.37,3.64-5.06-5.95-.65-.31q-2.83-7.23-1.51-3.07a25.31,25.31,0,0,1,.53,2.62l-1-7.58a32.69,32.69,0,0,1,0,8.15l1-7.57c-.2,1.14-.42,2.26-.72,3.38-1.3,4.78,1.25-1.27,1.24-2.24,0,3.11-6.76,7.25-.13,1.44-1.69,1.48-3.21,3.29-4.87,4.84-2.42,2.28,5.6-3.64,1.49-1.23-1.11.65-2.17,1.39-3.29,2-2,1.17-4.2,2-6.24,3.17,6.64-3.7,3.86-1.59,1.76-.79-1.2.46-2.42.89-3.65,1.31a100.22,100.22,0,0,1-17.82,4.4l7.58-1a63.55,63.55,0,0,1-16.07.07l7.57,1a49.41,49.41,0,0,1-5.89-1.27q-1.46-.42-2.88-.93l4,1.74c-1.85-.43-3.63-1.94-5.27-2.84-4.54-2.47,5.17,4.79.51.32q-.83-.76-1.56-1.59-2.85-3.34,1.69,2.24c-.11-.6-3.64-7.28-1.41-1.89,2.07,5-.24-1.14-.52-2.19a56.05,56.05,0,0,1-1.16-5.88l1,7.58c-1.51-11.62-.32-23.36-1.72-35-1.24-10.23-3.11-18.28-7.48-27.67-1.26-2.71-2.73-5.29-4.1-7.95-.38-.71-.74-1.43-1.08-2.17q-1.41-3,1.33,3.12c.26-.93-.94-3.66-1.09-4.64l1,7.57a11.65,11.65,0,0,1,0-2.64l-1,7.58a13.94,13.94,0,0,1,.56-2.64q-3.17,6.64-1.47,3.76t-2.46,3.19a19.76,19.76,0,0,1-8.39,5l-7.58,1a6.63,6.63,0,0,1,2.39-.1l-7.58-1-4.17-2q-5.16-4.32-2.7-2.13c.91.89,1.9,1.74,2.88,2.57a82.19,82.19,0,0,0,10.09,7.5,70.49,70.49,0,0,0,17.93,7.52c13.82,3.67,27.41,3.1,41.34.87,11.3-1.8,22.09-5.71,32.94-9.2A199.56,199.56,0,0,1,258,162l-7.58,1a187.79,187.79,0,0,1,47.67.07l-7.58-1a209.88,209.88,0,0,1,29.3,6.47c11.67,3.37,23.74,4.07,35.07-.71,18.13-7.65,26.35-28.35,20.33-46.83-3.09-9.45-8.37-19.38-13.86-27.72-6.7-10.17-14.7-19.08-25.15-25.51-9.61-5.9-20.78-9-31.82-10.74-10.53-1.64-21.12-3-31.68-4.43l-14.85-2.06c-2.47-.34-5-.65-7.42-1.08-1.18-.21-2.35-.44-3.51-.73-5.57-1.4.62-.41.93.77a29.34,29.34,0,0,0-2.73-1.62c-2-1.19-2.16-2.95,2,1.58-2.3-2.54-7.3-5.86-9.5-7.48A48,48,0,0,0,221,34c-13.9-3.44-27.73-1-40.67,4.44-16.84,7.11-32.76,17.06-47.38,28-17,12.73-31.67,26.49-44.28,43.65C74.28,129.65,62.41,156.22,76,179.37c7.26,12.4,21.15,19.92,34.93,22.48a266.21,266.21,0,0,0,40.05,4c24.16.73,48.21-.05,72.24,3.15l-7.58-1c27.56,3.83,54.76,10.29,82,16l82.54,17.3c9.14,1.91,17.4.65,24.85-5.1,6.87-5.31,11.51-13.43,11.23-22.38-.41-13.15-6.12-23.51-15-32.81-1.22-1.27-2.49-2.49-3.7-3.77-2-2.15-2.27-4.81,1.05,1.79-3.14-6.24.94,6-.28.43-.41-1.91-.91-3.82-1.39-5.71a55.35,55.35,0,0,0-16.75-27.9C369.56,136.63,358,132.3,344.2,131c-6.87-.65-15.45,3.64-20.15,8.35-4.95,4.94-8.67,13-8.35,20.15.75,16.64,12.55,27,28.5,28.5l1.43.13-7.57-1c1.43.21,2.8.63,4.21.87q3.11,1.08-.71-.44c-2.5-1.12-2.76-1.2-.8-.24.64.34,1.26.7,1.86,1.1q2.75,1.8-2.86-2.34c.65.87,3,1.93,3.11,3-.14-1.77-4.34-5.67-1.09-1.12,2.65,3.71-1.56-5.3-.8-2.24s1.48,6.52,2.53,9.61c3.06,9,7.93,16.27,14.54,23.09.7.72,5.61,4.87,5.38,5.68,0,0-4.54-6.71-2-2.26q1.62,3-1.71-4.1a11.79,11.79,0,0,1,.45,2.34l-1-7.57,0,1.24,36.07-27.48-103.9-21.78c-35.8-7.5-71.4-14.74-108.12-15.28-19.87-.29-39.78.14-59.53-2.52l7.58,1c-2.45-.35-4.91-.71-7.33-1.24-1-.22-5.41-2.1-6.15-1.77.47-.21,6.41,3.08,3,1.1s2,1.75,2.48,2.1c-3.43-2.8,3.09,4.9,1.52,2.11-1.3-2.3,2.16,6.87,1.14,1.8l1,7.57a27.64,27.64,0,0,1-.08-4.64l-1,7.58a34.43,34.43,0,0,1,.94-4.71c.3-1.08,2.13-5.68.22-1.18-2,4.67.46-.72.94-1.65.59-1.17,1.21-2.32,1.85-3.46q2.1-3.75,4.46-7.33c1.31-2,7.43-9.64,1.46-2.45A179.44,179.44,0,0,1,160,117.08c1-.84,2-1.65,3.08-2.48,2.7-2.19-5.33,4-1.37,1.07,2.57-1.87,5.13-3.76,7.75-5.56q7.22-5,14.72-9.46c4.8-2.89,9.65-5.73,14.62-8.31,1.25-.64,2.53-1.23,3.78-1.87,5.16-2.61-5.65,1.91-.55.3a56,56,0,0,1,9.56-2.31l-7.57,1a36.94,36.94,0,0,1,6.31,0l-7.58-1c.89.13,3.78,1.28,4.61,1q-6-2.8-3.13-1.28a18.45,18.45,0,0,1,2.05,1.22c4.93,2.88-5.11-4.25-.7-.58,2.68,2.23,5.46,4.4,8.25,6.47a52.37,52.37,0,0,0,22.39,9.36c15.29,2.56,30.77,4.28,46.13,6.42a143.13,143.13,0,0,1,19.51,3.6c1.5.43,3.56.73,4.84,1.59l-3.7-1.58c1,.47,2,1,3,1.53,1.22.68,2.34,1.48,3.52,2.21,2.39,1.48-5.5-4.8-1.07-.57.91.87,1.79,1.78,2.63,2.73.68.75,1.33,1.53,2,2.33l-2.61-3.33c2.06,1.67,3.66,5.54,5,7.84,1.54,2.7,3,5.47,4.37,8.24.58,1.17,1.13,2.36,1.73,3.51q1.41,2.94-1.21-3a19.66,19.66,0,0,1,.87,3.2l-1-7.58a11.55,11.55,0,0,1,.15,3.16l1-7.57q-1.19,4.83,2.43-3.06a13.4,13.4,0,0,1,6.79-7.65l4.8-1.94a12.25,12.25,0,0,1-2.25.52l7.58-1a28,28,0,0,1-6.27-.1l7.58,1c-5.6-.87-10.93-2.84-16.41-4.22a191.44,191.44,0,0,0-19.85-3.82c-15.65-2.21-31.22-3.31-47-2a217.63,217.63,0,0,0-45.43,8.42c-13.17,4-26.08,9-39.79,11l7.57-1a72.51,72.51,0,0,1-17,.09l7.57,1a58.73,58.73,0,0,1-6-1.13c-1-.25-2-.52-2.93-.83-.8-.26-5.62-2.15-.83-.18,4.63,1.91-1.32-1.14-2.56-1.76-2.8-1.41,4.36,4,2.13,1.71-.72-.72-1.53-1.4-2.3-2.07-7.69-6.74-16.5-11.73-27.06-11.62a37.24,37.24,0,0,0-26,11.35,42.84,42.84,0,0,0-9.21,44.3,138.94,138.94,0,0,0,8,16.92c2.35,4.35-1.6-4.93-.67-1.74.29,1,.65,1.93.93,2.91a59.43,59.43,0,0,1,1.4,6.75l-1-7.58c2.09,15.93,0,31.92,3.64,47.75,5,21.79,21.07,37.06,41.31,44.93,18.07,7,39.44,4.69,57.49-1.15,19.13-6.2,36.45-15.87,48-32.78,14-20.55,11.66-49.16-5.06-67.23-8-8.61-24.57-11.42-34.53-4.45a122.66,122.66,0,0,1-11.6,7.22c-2,1.08-4.07,2-6.11,3.07-5,2.55,6.34-2.42-.27.14a117.52,117.52,0,0,1-25.58,6.62l7.57-1c-11.54,1.5-23.14,1.6-34.63,3.69A63.82,63.82,0,0,0,114.5,204a51.05,51.05,0,0,0-16.61,34.46,44.38,44.38,0,0,0,2.74,18.11c1.51,4,3.39,7.76,4.18,12l-1-7.58a31.84,31.84,0,0,1,.13,6.83l1-7.58a53.82,53.82,0,0,1-1.17,5.36c-1.14,4.62,3.34-7,0-.61q-2.44,3.57,2-2.48a23.66,23.66,0,0,1-1.92,2c4.06-2.95,4.89-3.6,2.52-1.95q7.3-2.32,3.1-1.48h15.15q18,18,12.17,9c-1.36-2.68-1-1.89.92,2.4.3-1.29-1.24-4.87-1.48-6.3l1,7.57c-1-7.45-.42-15-1.09-22.42-1-10.83-3.15-21.29-9-30.63-6.68-10.57-16.47-17.41-28.35-20.9-2.8-.82-5.67-1.5-8.5-2.19-5.64-1.36,5.93,3.18,2.12.86a20.2,20.2,0,0,1,7.36,7.27q2.73,7.9,1.89,3.51l1,7.58v-1.21l-1,7.58a8.84,8.84,0,0,1,.52-2.33q-3.36,7.26-1.15,3.47c1.12-1.38,2.13-2.91,3.2-4.34a44.08,44.08,0,0,0,7-14.17,86,86,0,0,0,1.7-9.28c.27-1.55.84-3.08,1.09-4.62-1,6.18-7.54,12.63-13.52,14.14l-7.58,1a11.72,11.72,0,0,1,3.13,0l-7.57-1c13.72,2,27.2,4.17,41.1,4.28,12.11.11,24.2-.74,36.25-1.73,23.84-2,48.13-4.87,72-1.81l-7.58-1c1.25.2,2.55.6,3.8.75q3.19.91-3.22-1.6l1.34.72-3.4-2.67q2.22,2.39-.34-.71c-3-3.91-.44-.29.13.77,1.28,2.38,2.31,4.9,3.39,7.36,2.11,4.8-1.66-4.16-.36-.83.57,1.44,1.16,2.86,1.73,4.3,4.49,11.44,8.9,23.25,10.67,35.46l-1-7.57a57.43,57.43,0,0,1,.12,12.84l1-7.58a48.82,48.82,0,0,1-1.65,7.47c-.26.81-2.16,5.6-.16.86s0-.31-.51.71a74.92,74.92,0,0,1-4,6.5c-3.16,4.69,4.46-5.09.63-.89-.7.77-1.37,1.57-2.08,2.34a140.52,140.52,0,0,1-11.61,10.61c6.85-5.92,0-.15-2.05,1.26-2.6,1.79-5.26,3.5-7.95,5.15q-7.37,4.49-15.12,8.26c-1.29.62-2.59,1.24-3.89,1.83-1,.44-5.76,2.49-1.33.64,4.58-1.92-.81.29-1.39.52-1.33.52-2.68,1-4,1.51a167.35,167.35,0,0,1-33.18,8.5l7.58-1a80.2,80.2,0,0,1-19.21.36l7.57,1a51.89,51.89,0,0,1-5.67-1.05c-1.13-.28-7-2.5-2-.33s-.64-.56-1.62-1.06q-3.62-2.4,2.31,2c-.74-.6-1.45-1.25-2.14-1.92L149.93,328c.61-3,2.43-4.69-1.3,2.1,1.34-2.45,1.52-.45-2.43,2.76a18,18,0,0,0,1.69-1.78c3.25-3.63-6.15,3.68-1.72,1.4,1.55-.79,3.22-1.57,4.71-2.47-6.67,4-4.39,1.8-1.72.88,1.29-.45,2.59-.85,3.9-1.24,9.77-2.86,19.61-5.28,29.23-8.68,24-8.49,47.1-20.23,65.13-38.59,16.75-17.06,28.3-38.12,39.08-59.21,6.32-12.37,12.33-24.79,17.53-37.68,5.88-14.59,10-30.89,5.87-46.55-5-19.23-22.25-34.45-42.47-35.12A40.67,40.67,0,0,0,238,115.14a74.35,74.35,0,0,0-5.23,6,15.14,15.14,0,0,0-2,2.09,16.2,16.2,0,0,1,7.5-4.36,16.45,16.45,0,0,1-3,.59l7.58-1a56.85,56.85,0,0,1-11.58-.74l7.57,1a200.83,200.83,0,0,1-27.44-5.85q-6.3-1.83-12.46-4.07-1.75-.65-3.51-1.32,7.09,3.2,3.2,1.12-3.65-2.4,2.59,2a21.82,21.82,0,0,1,5.05,8.48l1,7.58,0-1.16-1,7.58.24-1.2L186.6,151.8a46.25,46.25,0,0,1,7.77-2l-7.58,1a49.64,49.64,0,0,1,12.83.06l-7.58-1a58.55,58.55,0,0,1,9.5,2.33c1,.35,5.7,2.22,1.18.37s.82.57,1.76,1.09c2.63,1.45,5,3.6,7.66,4.93l-3.1-2.41c.87.7,1.73,1.41,2.58,2.14,1.07.91,2.1,1.85,3.13,2.8,9.31,8.65,17.26,18.73,25.28,28.56,2,2.45,4,4.93,5.93,7.41,2.19,2.75-3.79-5.05-.77-1,1,1.39,2.05,2.76,3.06,4.16a163,163,0,0,1,10.18,15.86c1.64,2.95,2.79,6.35,4.61,9.16-1.23-1.91-2.2-5.54-.58-1.28.49,1.29,1,2.58,1.39,3.89a104.37,104.37,0,0,1,4.28,18.89l-1-7.58a122,122,0,0,1-.31,30.61l1-7.58A146.27,146.27,0,0,1,263,283.79q-1.56,5.15-3.47,10.17a45.8,45.8,0,0,1-1.84,4.62c-.14.27,2.6-5.82,1.24-3-.6,1.24-1.14,2.52-1.73,3.77-6.3,13.28-15.15,24.71-22.46,37.36-10.93,18.91-17.79,48.12.36,65.28,10.43,9.86,23,10.13,36.35,9.6,8.48-.34,17-.62,25.43-1,10.94-.54,21.87-2.07,31.51-7.65a51.23,51.23,0,0,0,20.22-22,94.42,94.42,0,0,0,7.63-24c1.93-10.93,3.47-21.41,2-32.44s-6.25-22.27-14.64-30c-11.27-10.41-24.92-14-39.86-11.47-17.47,2.94-28.41,17.16-40.75,28.29-.81.73-6.54,5.38-2.57,2.33s-1.18.8-2.19,1.49a112.35,112.35,0,0,1-10.07,6.15c-3.12,1.7-7.16,4.46-10.68,5.19-.37.08,6.06-2.43,3.13-1.34-1.24.46-2.47,1-3.72,1.44q-2.62,1-5.28,1.87c-15.8,5.3-32.26,8.44-48.74,10.75l7.58-1c-9.41,1.24-18.78,1.91-28.24.83l7.58,1a64.06,64.06,0,0,1-10.26-2.24c-.75-.23-1.5-.48-2.24-.76q-4.17-1.62,2.47,1.06c-.95-.95-3-1.52-4.12-2.21-2.27-1.37-4.35-4.55.71.87-1-1.08-2.31-2.13-3.39-3.16-3.92-3.79,3.36,4.93.73,1.09-.77-1.12-1.57-2.2-2.38-3.29-9.77-13.1-24.91-21.9-41.78-16.61C99,318,91.16,325.37,83.88,333.31a307.46,307.46,0,0,0-52.2,77.42c-6.07,13-4.56,27.57,7.34,36.77,11.48,8.86,26.84,7.46,37.43-2.23.94-.86,2-1.66,2.88-2.55,2.47-2.37-5,3.56-2.18,1.63,1.88-1.29,3.71-2.62,5.66-3.8q3.22-2,6.62-3.63c.33-.16,2.48-1.44,2.74-1.28-.45-.27-7.15,2.85-1.9.85A125.15,125.15,0,0,1,118,429.75l-7.58,1c27.59-3.55,56.19-1.58,83.66,2.07l-7.57-1c24.18,3.33,48.09,8.84,70.94,17.54,1.37.52,2.73,1.05,4.09,1.6,1,.38,5.9,2.31,1.47.57s.47.24,1.43.67q2,.9,4,1.83,8.37,3.93,16.43,8.48c2.24,1.27,4.47,2.57,6.64,4,1,.69,2.06,1.43,3.11,2.12,2.85,1.87-5.16-4.42-1.63-1.25,1.11,1,2.21,2,3.25,3,.81.84,3.67,4.37.61.44s-.31-.08.19.7c2.65,4.18-2.28-6.53-.58-1.47,3.65,10.92,12.05,18.85,23.69,20.42,10.71,1.44,23.2-3.52,28.4-13.61,8-15.47,8.67-31.5,10.91-48.4l-1,7.58a107.91,107.91,0,0,1,2.51-11.41c1.48-5.71-2.61,5-.14.09,1.1-2.16,2.16-4.34,3.26-6.51a140.51,140.51,0,0,0,10.8-26.75c4.64-17.17,5.78-35.45,6.64-53.15.8-16.53.28-34.15-5.49-49.82a87,87,0,0,0-12.36-23.06c-2.13-2.83-4.34-5.63-6.2-8.65-.76-1.24-1.35-2.61-2.11-3.83q2.74,7,1.36,2.83a19.57,19.57,0,0,1-.56-2.74l1,7.58a24.59,24.59,0,0,1,0-4.29l-1,7.58q1.68-7.29-7.37,6.23-13.43,9.23-6.26,7.39l-7.57,1c7.09-.84,14.45-1.05,21.3-3.23,8.57-2.73,16.75-7.06,23.14-13.48a45.31,45.31,0,0,0,7.74-53.45c-7.14-13.25-26.27-18.19-39-10.22-3.52,2.2-2.46-.18,2.28-.62-1.16.11-2.42.67-3.59.88l7.58-1a27.68,27.68,0,0,1-6.17,0l7.58,1c-1.7-.26-3.28-.71-4.94-1.13-4.49-1.14,6.26,3.47,2.05.84a31.15,31.15,0,0,0-3.38-2.06q5.94,4.77,2.63,2c-.5-.44-1-.89-1.45-1.37s-.94-.94-1.38-1.44q-2.79-3.3,2,2.64a29.29,29.29,0,0,0-2-3.39c-2.39-4,1.68,6.28.61,1.08-.48-2.31-1.12-4.54-1.48-6.88l1,7.58a66.42,66.42,0,0,1,.2-15.94l-1,7.58c2.5-17,11.67-33,4.43-50.13-3.94-9.33-10.68-15-18.79-20.75-3.72-2.63,4.54,3.87,2.1,1.61-3.2-3,.51,1,1.38,2.05q-1.49-2.91.25.81,1.53,3.83.54.68c-.16-1.44-.59-2.9-.81-4.35l1,7.58c-1.38-10.86-2.31-20.57-6.9-30.6-4.46-9.74-12.32-17.14-20.88-23.28C295,60.21,274.79,58.3,255.9,57l28.5,28.5c.1-14.54-9-26.44-22-31.94-8.22-3.47-16.65-4.5-25.48-5.6-14.34-1.79-28.27-.88-42.54,1.21-28.35,4.15-54.06,17-76.2,34.85-5.32,4.3-8.34,13.63-8.34,20.15,0,7,3.1,15.34,8.34,20.16,5.43,5,12.57,8.68,20.16,8.34,8-.35,13.95-3.35,20.15-8.34Z" transform="translate(-28.2 -32.42)"/></g><g class="cls-2"><path class="cls-1" d="M103.68,339a69.73,69.73,0,0,0,27.43,30.08c10.72,6.46,21.74-6.12,16.42-16.42a39,39,0,0,1-4-10.61,8.85,8.85,0,0,1-.17-3.62c-.13,1.61.75-1,.18-.33-.38.43-1.38,1.51.47-.4l-20.49-8.49c.19,21.82,11.52,44.47,35.48,46.59,10.86,1,20.82-4.28,27.05-13,5.92-8.31,7.25-18.83,8.31-28.69l-23.57,3.19a52.65,52.65,0,0,1,2.56,20.17c-.41,6.63,5.83,11.79,12,12,31,1,61.45-17.37,83.12-38.21,20.65-19.86,36.23-44.39,51.4-68.49,8.26-13.11-12.5-25.17-20.72-12.11C285.57,272.21,271.88,294,253.78,312c-17.61,17.59-42.58,34.31-68.46,33.45l12,12a72,72,0,0,0-3.42-26.55c-1.84-5.65-7.13-9.5-13.16-8.6-6.3,1-9.75,5.68-10.41,11.79-.42,3.89-1.48,10.51-3.24,13.73a8.27,8.27,0,0,1-3.6,3.82c1.21-.72-2.17.46-.43.22-.33.05-3.76,0-2.27.16-4.48-.53-7.26-2.6-9.71-6.65-3-4.9-3.54-10.52-3.59-16.16-.08-10.23-13.16-16.05-20.48-8.48-12.29,12.68-7.39,30.13-.2,44l16.42-16.41a47.59,47.59,0,0,1-18.83-21.48c-2.73-5.88-11.2-7.35-16.42-4.3-6,3.53-7,10.52-4.3,16.42Z" transform="translate(-28.2 -32.42)"/></g><g class="cls-2"><path class="cls-1" d="M358.17,218.3c-6.32-2.51-13.85-1.41-19.59,2.08a22.26,22.26,0,0,0-7.84,8.42,28.62,28.62,0,0,0-1.81,3.94c.38-1.05-1.36.95.23-.06-3.61,2.28-7.77,3.41-11.26,5.92-6.61,4.76-10.47,12.55-8.61,20.74,3.7,16.28,22,21.09,35.69,14.22,6-3,10.58-7.8,15.16-12.53s9.28-7.26,14.71-10.72c12.69-8.07,18-20,19.41-34.63,1.13-12.11.43-25.25-4.55-36.47a36.09,36.09,0,0,0-11.53-14.31c-1.17-.88-4.08-2.33-4.12-3.28l1.12,1.85a21.16,21.16,0,0,1-.61-2.59,37.7,37.7,0,0,0-.93-3.77A17.33,17.33,0,0,0,356,145c-7,.34-13.45,4.33-18.68,8.66-9.85,8.14-15.38,21-15.87,33.67a42.44,42.44,0,0,0,4.11,19.45c1.24,2.67,2.93,5,4.42,7.57.09.15,1.73,2.69,1.36,2.71a7.38,7.38,0,0,1-.05-1.05q1.72-4.51,7.53-3.22l8.39,14.76c3.74-14.43.26-28.45-3.14-42.56-1.48-6.13-2.86-12.2-2.66-18.55.24-7.43,2.69-14.64,3.19-22.07,1-15.32-7.14-28.44-15.2-40.71L302.56,62.81,283.72,77.35c6.22,5.92,13.8,7.75,22.13,8.35,1.76.12,3.52.17,5.28.27.51,0,4.95.59,3.27.26a24.87,24.87,0,0,1,3.6,1c-.65-.23.08.3.52.84-1.51-1.83.92,1.69,1.17,2.16.05.09,1.57,3.38.67,1.31,1.46,3.37,2.65,6.87,4.27,10.17,3.19,6.49,8.6,11.61,15.71,13.44,15,3.85,21.35-19.29,6.38-23.15-1.37-.39-1.36-.34,0,.16,1.08,1,1.13,1,.13.11-1.75-2.29.7,2-.52-.79-.16-.37-2.1-4.26-1.13-2.06-.46-1.05-.85-2.13-1.28-3.19-2.45-6-5-12.19-10-16.63-6.08-5.38-13.63-7-21.51-7.53-3-.22-6.16-.1-9.17-.58,2,.31-1.51-.49-1.71-.52.61.08,0,.22-.87-.57-9.55-9.08-26.59,2.76-18.85,14.54L307,113.26c6.34,9.65,14.87,19.92,13.5,32.16-.76,6.77-2.73,13.33-3.08,20.17s.85,14,2.31,20.77c2.43,11.25,7.31,23.22,4.3,34.8-1.47,5.66,1.87,13.85,8.38,14.76,6.25.87,11.81,0,16.56-4.51a21.31,21.31,0,0,0,6.3-14.78c.05-5.38-2.25-10.57-5-15.06-2.43-4-3.48-5-4.41-8.77a22,22,0,0,1,2-14.49c.51-.92,1-1.82,1.59-2.71.22-.34,1.12-1.57.36-.6a26.09,26.09,0,0,1,3.47-3.58c.34-.3,1.53-1.1.53-.41a26.7,26.7,0,0,1,2.68-1.6c.88-.46,0,.51.65-.31.81-1,.41.38-.52,0L351.4,166a3.28,3.28,0,0,0-.52-1.33c.21.85.39,1.71.54,2.57a25.78,25.78,0,0,0,2.28,6.65c2.11,4,5.41,6.64,9,9.24,4.66,3.4,6.31,6.89,7.41,13.52a74.3,74.3,0,0,1,0,20.55c-1,6.33-3.52,10.12-9.4,13.6a97.91,97.91,0,0,0-20.55,16.39c-2.2,2.24-4.43,4.51-7.36,5.55-2.3.82-.64-.42,0,1.78.13.47-.36,4.26-1.86,4.13.73.06,3.26-1.81,4-2.16a43.44,43.44,0,0,0,8.5-4.69,25,25,0,0,0,7.43-9.6c1.09-2.26,2.15-3.26-.6-1.11q2.19-.68.81-.18c-1,0-.73.13.72.52,6,2.39,13.18-2.62,14.76-8.38,1.88-6.83-2.33-12.36-8.38-14.77Z" transform="translate(-28.2 -32.42)"/></g><g class="cls-2"><path class="cls-1" d="M114.83,121.37c-.87-11.66,5.32-21.67,12-30.77,2.91-4,4.83-5.07,8.56-6.44,5.73-2.09,11.28-4.35,15.44-9,4.32-4.83,4.76-12.21,0-17-4.39-4.4-12.63-4.85-17,0a8.62,8.62,0,0,1-4.21,2.6,91.52,91.52,0,0,0-9.2,3.7c-6.73,3.29-11.12,9.42-15.33,15.37C96.58,92,89.7,106.21,90.83,121.37c.48,6.46,5.17,12,12,12,6.12,0,12.49-5.5,12-12Z" transform="translate(-28.2 -32.42)"/></g><g class="cls-2"><path class="cls-1" d="M79,159.67a33.25,33.25,0,0,1-6.83,10.78c-3.07,3.1-6.58,4.66-10.32,7a19.78,19.78,0,0,0-9.51,15.87,51.73,51.73,0,0,0,.2,7.67l.22,3.39c0,.18-.08,4.28.32,2.82l3.09-5.29c-4.09,5-8.05,8.77-9.39,15.5s-.49,14.67,4.17,20.12a18.38,18.38,0,0,0,9.61,6c3,.75,6.07.89,8.92,2.2,5,2.32,8.39,6.79,14,8.14,9.6,2.31,16.67-5.14,17.66-14,.68-6.07-.76-12-2.92-17.67-1.81-4.72-4.46-9.71-4.09-14.26.64-7.67,2.29-13.71-1.64-21.19-3-5.74-11-7.47-16.41-4.3-5.82,3.4-7.33,10.66-4.31,16.41-.3-2.36-.41-2.48-.31-.35.41-.48.34,0-.21,1.51-.31,2.64-1,5.25-1.12,7.92a36.56,36.56,0,0,0,1.71,12c1,3.43,2.56,6.69,3.78,10.05a30.43,30.43,0,0,1,1.72,5.75c0-.78,0-.39,0,1.17q-.32,3.66.75-1.42l4.3-4.3,1-.45h6.38a2.62,2.62,0,0,1,1.1.88c-.64-1.11-2.7-2.19-3.69-2.93A37.88,37.88,0,0,0,81,224.71a55.94,55.94,0,0,0-7.47-3c-1.14-.34-4.81-1.8-5.94-1.28q-1.89-.54.86,1.25A4.63,4.63,0,0,1,70,223.24c.63.27-.19.86.08-.67-.21,1.22.15-.53.24-.82-.3,1,.34-.62.5-.81a21.5,21.5,0,0,0,2.26-2.11A15.47,15.47,0,0,0,77,208.39c0-2.19-.25-4.41-.39-6.6-.12-1.78.28-4.74-.36-6.38-.26-.66.31-1.26-1.17,1.19-1.57,2.6-.79,1.35.69.57a50.38,50.38,0,0,0,5.78-3.45,52.09,52.09,0,0,0,18.18-21.93c2.53-6,1.79-12.86-4.3-16.42-5-3-13.88-1.7-16.42,4.3Z" transform="translate(-28.2 -32.42)"/></g><g class="cls-2"><path class="cls-1" d="M321.42,315.24c8.84-.79,17.68-1.7,26.53-2.35,1.72-.13,4.79.57,1-.58a12.66,12.66,0,0,1-6.22-4.76c-1.06-2.6-1.32-2.87-.77-.83-.68-3-.3-2,0,.46a66.88,66.88,0,0,0,1.08,7.75c1.08,4.68,3.26,9.07,5.4,13.35.48,1,1,1.9,1.43,2.86.81,1.7.9,1.92.3.64s-.54-1,.07.73c-.13-2.07-.13-1.95,0,.34q-.22,3.43.2.4l-.34,1.82c-.6,2.41-1.22,4.79-2,7.17-1.23,4-2.55,7.92-3.86,11.87q-16.47,50-36.09,98.92c-3.7,9.25,4,21.27,13.27,23.37,11,2.51,19.41-3.36,23.37-13.27,14.69-36.67,28.69-73.88,40.23-111.67,3.81-12.49,4.24-24.52-1.05-36.6-.86-1.95-1.78-3.85-2.73-5.75-.49-1-1.87-5.23-.71-1.24a21.46,21.46,0,0,1-.86-3c.33,2.82.37,3.14.14,1a85.5,85.5,0,0,0-1.2-9.17c-2.86-13.22-14.18-21.93-27.6-21.91-9.79,0-19.82,1.66-29.58,2.53s-19.48,8.11-19,19c.43,9.54,8.4,19.93,19,19Z" transform="translate(-28.2 -32.42)"/></g><g class="cls-2"><path class="cls-1" d="M85.12,345.43A481,481,0,0,1,51.67,405c-4.44,6.73-3,17.57,3,23a19.77,19.77,0,0,0,23,3c4.22-2.18,8.43-4.37,12.7-6.46q3.19-1.58,6.43-3.08c.61-.28,7.12-3.1,3.61-1.66a125.52,125.52,0,0,1,25.38-7.54c2.17-.35,2.33-.37.48-.08,1.27-.13,2.53-.24,3.8-.32,2.54-.18,5.08-.26,7.63-.28,5.1,0,10.2.2,15.29.51,9.83.61,19.66,1.38,29.5,2.08l29.81,2.12c5,.36,10.09.72,15.13,1.21,2.51.24,5,.49,7.53.83-3.61-.49,3.64.64,4.3.76a120.8,120.8,0,0,1,12.6,3c2.07.62,4.09,1.38,6.14,2.07s2,.78,0-.07c1,.43,2,.89,2.94,1.37a71.07,71.07,0,0,1,11,6.66c-3.49-2.59,1.68,1.64,2.27,2.2a62.82,62.82,0,0,1,4.34,4.74c6.42,7.64,20.34,7.11,26.87,0,7.46-8.13,6.85-18.72,0-26.87-22.41-26.7-58.63-31.42-91.22-33.76q-25.78-1.86-51.58-3.67c-17.81-1.27-35.45-2-53,2.08-18,4.21-34.81,12.9-51.13,21.35l26,26a479.66,479.66,0,0,0,33.45-59.55c4.23-9,2.8-20.92-6.82-26-8.43-4.45-21.47-2.78-26,6.82Z" transform="translate(-28.2 -32.42)"/></g><g class="cls-2"><path class="cls-1" d="M206.81,178.87c2.45,5,5.15,10.07,9.18,14,4.56,4.47,10.35,6.79,16.25,8.94,5.46,2,11.23,3.56,17.09,3.45,6.87-.12,13.28-2.28,19.61-4.73,5-1.94,8.52-6.72,7-12.3-1.33-4.81-7.24-8.94-12.31-7-4.25,1.64-8.77,3.64-13.36,4-3.84.3-7.47-.9-11.06-2.13-3.13-1.08-6.61-2.09-9.07-4.4-2.81-2.62-4.4-6.59-6-10-2.38-4.85-9.27-6.17-13.69-3.59-4.94,2.9-6,8.82-3.58,13.69Z" transform="translate(-28.2 -32.42)"/></g><g class="cls-2"><path class="cls-1" d="M106,179.36c13,17,35.84,18,52.68,5.67,4.35-3.19,6.52-8.68,3.59-13.68-2.51-4.29-9.31-6.8-13.68-3.59-6.59,4.83-18.94,9.81-25.32,1.5-3.29-4.27-8.61-6.55-13.68-3.58-4.21,2.46-6.9,9.37-3.59,13.68Z" transform="translate(-28.2 -32.42)"/></g><g class="cls-2"><path class="cls-1" d="M131.22,142.69c6.23-1,13.74.25,18.94,4,4.16,3,4.45,8.76,4.43,13.55-.05,7.11-3,14-5.23,20.66-2.59,7.7-5,15.49-7.19,23.31-4.41,15.48-9,31.16-12.17,46.94-1.49,7.33-3.47,15.91-1,23.22,2.49,7.5,9.5,11.52,16.66,13.69,12.35,3.73,17.62-15.57,5.32-19.29a11,11,0,0,1-2.83-1c-.38-.29-.48,3.69-.24-1a69,69,0,0,1,1.42-10.32c1.66-8.18,3.94-16.26,6-24.33,4.25-16.32,8.78-32.56,14.21-48.53,4.78-14.1,8.49-31.74-.07-45.32C160.59,124.21,141,121,125.9,123.4c-5.33.86-8.3,7.5-7,12.3,1.56,5.68,7,7.85,12.3,7Z" transform="translate(-28.2 -32.42)"/></g><g class="cls-2"><path class="cls-1" d="M243,148a61.73,61.73,0,0,1,37.71,12.55c4.35,3.21,11.16.72,13.68-3.59,3-5.08.77-10.46-3.58-13.68A79.65,79.65,0,0,0,243,128c-12.86.1-12.89,20.1,0,20Z" transform="translate(-28.2 -32.42)"/></g></g></svg>